M48
; DRILL file KiCad 10.0.0 date 2026-04-10T01:18:55
; FORMAT={-:-/ absolute / metric / decimal}
; #@! TF.CreationDate,2026-04-10T01:18:55-06:00
; #@! TF.GenerationSoftware,Kicad,Pcbnew,10.0.0
; #@! TF.FileFunction,Plated,1,2,PTH
FMAT,2
METRIC
; #@! TA.AperFunction,Plated,PTH,ViaDrill
T1C0.300
; #@! TA.AperFunction,Plated,PTH,ComponentDrill
T2C1.000
; #@! TA.AperFunction,Plated,PTH,ComponentDrill
T3C1.600
; #@! TA.AperFunction,Plated,PTH,ComponentDrill
T4C1.778
%
G90
G05
T1
X91.1Y-85.04
X93.7Y-171.4
X96.15Y-88.29
X98.8Y-149.68
X99.69Y-171.4
X100.57Y-98.08
X101.38Y-151.45
X102.839Y-97.241
X102.92Y-166.51
X103.35Y-156.02
X103.89Y-97.27
X103.91Y-82.37
X103.98Y-96.41
X105.32Y-97.01
X106.9Y-91.55
X107.68Y-92.52
X107.93Y-108.09
X108.52Y-105.17
X111.13Y-163.83
X112.87Y-103.94
X112.97Y-108.22
X113.05Y-100.91
X113.61Y-99.63
X114.11Y-112.99
X114.33Y-90.0
X115.28Y-137.93
X115.62Y-101.8
X115.83Y-114.52
X115.85Y-131.43
X116.36Y-163.8
X116.75Y-130.22
X117.08Y-97.26
X118.06Y-99.14
X119.55Y-147.1
X120.29Y-132.84
X121.71Y-70.73
X121.72Y-121.85
X122.25Y-88.44
X122.39Y-90.36
X122.39Y-92.39
X122.73Y-147.07
X122.74Y-86.19
X122.9Y-104.86
X123.73Y-132.47
X124.18Y-102.32
X124.6Y-165.33
X124.76Y-111.67
X124.955Y-161.465
X125.72Y-103.58
X126.43Y-170.71
X127.63Y-141.6
X127.93Y-153.72
X128.17Y-135.59
X129.01Y-159.95
X130.58Y-134.72
X130.6Y-136.47
X130.62Y-130.03
X131.04Y-160.01
X131.45Y-116.47
X131.87Y-85.22
X132.06Y-153.75
X134.06Y-94.73
X135.37Y-165.08
X138.95Y-161.56
X140.57Y-172.74
X142.73Y-136.25
X142.76Y-130.6
T2
X90.11Y-122.42
X90.11Y-124.96
X90.11Y-127.5
X90.11Y-130.04
X90.11Y-132.58
X90.11Y-135.12
X90.16Y-69.39
X90.16Y-71.93
X90.16Y-74.47
X90.16Y-77.01
X90.16Y-79.55
X90.16Y-82.09
X90.3Y-97.09
X90.3Y-99.63
X90.3Y-102.17
X90.3Y-104.71
X90.3Y-107.25
X90.3Y-109.79
X90.3Y-112.33
X90.3Y-114.87
X94.2Y-109.8
X94.2Y-112.34
X94.2Y-114.88
X94.22Y-69.39
X94.26Y-122.44
X94.26Y-124.98
X94.26Y-127.52
X94.26Y-130.06
X94.26Y-132.6
X94.26Y-135.14
X98.07Y-109.8
X98.07Y-112.34
X98.07Y-114.88
X98.15Y-69.42
X98.44Y-122.38
X98.44Y-124.92
X98.44Y-127.46
X98.44Y-130.0
X98.44Y-132.54
X98.44Y-135.08
X109.42Y-170.885
X111.92Y-170.885
X119.9Y-171.025
X122.4Y-171.025
X134.825Y-98.595
X134.825Y-101.135
X134.825Y-103.675
X138.675Y-87.965
X138.675Y-90.505
X138.675Y-93.045
X138.785Y-98.635
X138.785Y-101.175
X138.785Y-103.715
X142.715Y-98.635
X142.715Y-101.175
X142.715Y-103.715
T3
X105.23Y-137.21
X105.23Y-152.45
X105.29Y-117.21
X105.29Y-132.45
X111.32Y-117.18
X111.32Y-132.42
X111.38Y-137.21
X111.38Y-152.45
T4
X136.014Y-80.74
X140.206Y-80.74
M30
