%TF.GenerationSoftware,KiCad,Pcbnew,10.0.0*%
%TF.CreationDate,2026-04-10T01:19:07-06:00*%
%TF.ProjectId,stimbox_emg_combo,7374696d-626f-4785-9f65-6d675f636f6d,rev?*%
%TF.SameCoordinates,Original*%
%TF.FileFunction,Soldermask,Bot*%
%TF.FilePolarity,Negative*%
%FSLAX46Y46*%
G04 Gerber Fmt 4.6, Leading zero omitted, Abs format (unit mm)*
G04 Created by KiCad (PCBNEW 10.0.0) date 2026-04-10 01:19:07*
%MOMM*%
%LPD*%
G01*
G04 APERTURE LIST*
G04 Aperture macros list*
%AMRoundRect*
0 Rectangle with rounded corners*
0 $1 Rounding radius*
0 $2 $3 $4 $5 $6 $7 $8 $9 X,Y pos of 4 corners*
0 Add a 4 corners polygon primitive as box body*
4,1,4,$2,$3,$4,$5,$6,$7,$8,$9,$2,$3,0*
0 Add four circle primitives for the rounded corners*
1,1,$1+$1,$2,$3*
1,1,$1+$1,$4,$5*
1,1,$1+$1,$6,$7*
1,1,$1+$1,$8,$9*
0 Add four rect primitives between the rounded corners*
20,1,$1+$1,$2,$3,$4,$5,0*
20,1,$1+$1,$4,$5,$6,$7,0*
20,1,$1+$1,$6,$7,$8,$9,0*
20,1,$1+$1,$8,$9,$2,$3,0*%
G04 Aperture macros list end*
%ADD10RoundRect,0.050800X-0.850000X-0.850000X0.850000X-0.850000X0.850000X0.850000X-0.850000X0.850000X0*%
%ADD11C,1.801600*%
%ADD12RoundRect,0.264941X-0.635859X-0.785859X0.635859X-0.785859X0.635859X0.785859X-0.635859X0.785859X0*%
%ADD13O,1.801600X2.101600*%
%ADD14C,2.744000*%
%ADD15RoundRect,0.050800X0.850000X0.850000X-0.850000X0.850000X-0.850000X-0.850000X0.850000X-0.850000X0*%
%ADD16RoundRect,0.257938X1.392862X-1.392862X1.392862X1.392862X-1.392862X1.392862X-1.392862X-1.392862X0*%
%ADD17C,3.301600*%
%ADD18RoundRect,0.257938X-1.392862X1.392862X-1.392862X-1.392862X1.392862X-1.392862X1.392862X1.392862X0*%
%ADD19RoundRect,0.272578X0.340722X0.653222X-0.340722X0.653222X-0.340722X-0.653222X0.340722X-0.653222X0*%
%ADD20RoundRect,0.272578X-0.653222X0.340722X-0.653222X-0.340722X0.653222X-0.340722X0.653222X0.340722X0*%
%ADD21RoundRect,0.050800X0.660400X-0.469900X0.660400X0.469900X-0.660400X0.469900X-0.660400X-0.469900X0*%
%ADD22RoundRect,0.050800X3.149600X-2.730500X3.149600X2.730500X-3.149600X2.730500X-3.149600X-2.730500X0*%
%ADD23RoundRect,0.272087X-0.678713X0.353713X-0.678713X-0.353713X0.678713X-0.353713X0.678713X0.353713X0*%
%ADD24RoundRect,0.050800X-0.660400X0.469900X-0.660400X-0.469900X0.660400X-0.469900X0.660400X0.469900X0*%
%ADD25RoundRect,0.050800X-3.149600X2.730500X-3.149600X-2.730500X3.149600X-2.730500X3.149600X2.730500X0*%
%ADD26RoundRect,0.272578X0.653222X-0.340722X0.653222X0.340722X-0.653222X0.340722X-0.653222X-0.340722X0*%
G04 APERTURE END LIST*
D10*
%TO.C,JP7*%
X98440000Y-122380000D03*
D11*
X98440000Y-124920000D03*
X98440000Y-127460000D03*
X98440000Y-130000000D03*
X98440000Y-132540000D03*
X98440000Y-135080000D03*
%TD*%
D12*
%TO.C,P1*%
X109420000Y-170885000D03*
D13*
X111920000Y-170885000D03*
%TD*%
D10*
%TO.C,JP10*%
X98070000Y-109800000D03*
D11*
X98070000Y-112340000D03*
X98070000Y-114880000D03*
%TD*%
D10*
%TO.C,JP12*%
X134825000Y-98595000D03*
D11*
X134825000Y-101135000D03*
X134825000Y-103675000D03*
%TD*%
D14*
%TO.C,U$5*%
X136014500Y-80740200D03*
X140205500Y-80740200D03*
%TD*%
D15*
%TO.C,JP11*%
X94200000Y-114880000D03*
D11*
X94200000Y-112340000D03*
X94200000Y-109800000D03*
%TD*%
D15*
%TO.C,JP2*%
X138675000Y-93045000D03*
D11*
X138675000Y-90505000D03*
X138675000Y-87965000D03*
%TD*%
D10*
%TO.C,BATT-1*%
X98150000Y-69420000D03*
%TD*%
D16*
%TO.C,D4*%
X105230000Y-152450000D03*
D17*
X105230000Y-137210000D03*
%TD*%
D10*
%TO.C,JP6*%
X90300000Y-97090000D03*
D11*
X90300000Y-99630000D03*
X90300000Y-102170000D03*
X90300000Y-104710000D03*
X90300000Y-107250000D03*
X90300000Y-109790000D03*
X90300000Y-112330000D03*
X90300000Y-114870000D03*
%TD*%
D10*
%TO.C,JP5*%
X90110000Y-122420000D03*
D11*
X90110000Y-124960000D03*
X90110000Y-127500000D03*
X90110000Y-130040000D03*
X90110000Y-132580000D03*
X90110000Y-135120000D03*
%TD*%
D10*
%TO.C,JP14*%
X142715000Y-98635000D03*
D11*
X142715000Y-101175000D03*
X142715000Y-103715000D03*
%TD*%
D10*
%TO.C,JP13*%
X138785000Y-98635000D03*
D11*
X138785000Y-101175000D03*
X138785000Y-103715000D03*
%TD*%
D18*
%TO.C,D1*%
X105290000Y-117210000D03*
D17*
X105290000Y-132450000D03*
%TD*%
D10*
%TO.C,BATT+1*%
X94220000Y-69390000D03*
%TD*%
%TO.C,JP3*%
X90160000Y-69390000D03*
D11*
X90160000Y-71930000D03*
X90160000Y-74470000D03*
X90160000Y-77010000D03*
X90160000Y-79550000D03*
X90160000Y-82090000D03*
%TD*%
D10*
%TO.C,JP4*%
X94260000Y-122440000D03*
D11*
X94260000Y-124980000D03*
X94260000Y-127520000D03*
X94260000Y-130060000D03*
X94260000Y-132600000D03*
X94260000Y-135140000D03*
%TD*%
D16*
%TO.C,D2*%
X111380000Y-152450000D03*
D17*
X111380000Y-137210000D03*
%TD*%
D12*
%TO.C,P2*%
X119900000Y-171025000D03*
D13*
X122400000Y-171025000D03*
%TD*%
D18*
%TO.C,D3*%
X111320000Y-117180000D03*
D17*
X111320000Y-132420000D03*
%TD*%
D19*
%TO.C,R3*%
X126152500Y-123830000D03*
X123227500Y-123830000D03*
%TD*%
D20*
%TO.C,R9*%
X118750000Y-122427500D03*
X118750000Y-125352500D03*
%TD*%
D21*
%TO.C,U$2*%
X130218201Y-114160001D03*
D22*
X137410000Y-111910000D03*
D21*
X130218201Y-109659999D03*
%TD*%
D20*
%TO.C,R5*%
X117600000Y-141767500D03*
X117600000Y-144692500D03*
%TD*%
%TO.C,R6*%
X123690000Y-135657500D03*
X123690000Y-138582500D03*
%TD*%
D23*
%TO.C,C1*%
X118540000Y-128865000D03*
X118540000Y-131815000D03*
%TD*%
D20*
%TO.C,R4*%
X125420000Y-128870000D03*
X125420000Y-131795000D03*
%TD*%
D24*
%TO.C,U$1*%
X103680500Y-100089999D03*
D25*
X96488701Y-102340000D03*
D24*
X103680500Y-104590001D03*
%TD*%
%TO.C,U$7*%
X119530500Y-69699999D03*
D25*
X112338701Y-71950000D03*
D24*
X119530500Y-74200001D03*
%TD*%
D26*
%TO.C,R7*%
X122000000Y-131812500D03*
X122000000Y-128887500D03*
%TD*%
%TO.C,R8*%
X117790000Y-138542500D03*
X117790000Y-135617500D03*
%TD*%
%TO.C,R10*%
X123900000Y-144662500D03*
X123900000Y-141737500D03*
%TD*%
M02*
