%TF.GenerationSoftware,KiCad,Pcbnew,10.0.0*%
%TF.CreationDate,2026-04-10T01:19:07-06:00*%
%TF.ProjectId,stimbox_emg_combo,7374696d-626f-4785-9f65-6d675f636f6d,rev?*%
%TF.SameCoordinates,Original*%
%TF.FileFunction,Legend,Top*%
%TF.FilePolarity,Positive*%
%FSLAX46Y46*%
G04 Gerber Fmt 4.6, Leading zero omitted, Abs format (unit mm)*
G04 Created by KiCad (PCBNEW 10.0.0) date 2026-04-10 01:19:07*
%MOMM*%
%LPD*%
G01*
G04 APERTURE LIST*
%ADD10C,0.150000*%
%ADD11C,0.127000*%
%ADD12C,0.120000*%
%ADD13C,0.152400*%
%ADD14C,0.000000*%
%ADD15C,0.200000*%
G04 APERTURE END LIST*
D10*
X100443095Y-87499819D02*
X100443095Y-88309342D01*
X100443095Y-88309342D02*
X100490714Y-88404580D01*
X100490714Y-88404580D02*
X100538333Y-88452200D01*
X100538333Y-88452200D02*
X100633571Y-88499819D01*
X100633571Y-88499819D02*
X100824047Y-88499819D01*
X100824047Y-88499819D02*
X100919285Y-88452200D01*
X100919285Y-88452200D02*
X100966904Y-88404580D01*
X100966904Y-88404580D02*
X101014523Y-88309342D01*
X101014523Y-88309342D02*
X101014523Y-87499819D01*
X101443095Y-87595057D02*
X101490714Y-87547438D01*
X101490714Y-87547438D02*
X101585952Y-87499819D01*
X101585952Y-87499819D02*
X101824047Y-87499819D01*
X101824047Y-87499819D02*
X101919285Y-87547438D01*
X101919285Y-87547438D02*
X101966904Y-87595057D01*
X101966904Y-87595057D02*
X102014523Y-87690295D01*
X102014523Y-87690295D02*
X102014523Y-87785533D01*
X102014523Y-87785533D02*
X101966904Y-87928390D01*
X101966904Y-87928390D02*
X101395476Y-88499819D01*
X101395476Y-88499819D02*
X102014523Y-88499819D01*
X131154819Y-151022857D02*
X130678628Y-151356190D01*
X131154819Y-151594285D02*
X130154819Y-151594285D01*
X130154819Y-151594285D02*
X130154819Y-151213333D01*
X130154819Y-151213333D02*
X130202438Y-151118095D01*
X130202438Y-151118095D02*
X130250057Y-151070476D01*
X130250057Y-151070476D02*
X130345295Y-151022857D01*
X130345295Y-151022857D02*
X130488152Y-151022857D01*
X130488152Y-151022857D02*
X130583390Y-151070476D01*
X130583390Y-151070476D02*
X130631009Y-151118095D01*
X130631009Y-151118095D02*
X130678628Y-151213333D01*
X130678628Y-151213333D02*
X130678628Y-151594285D01*
X131154819Y-150070476D02*
X131154819Y-150641904D01*
X131154819Y-150356190D02*
X130154819Y-150356190D01*
X130154819Y-150356190D02*
X130297676Y-150451428D01*
X130297676Y-150451428D02*
X130392914Y-150546666D01*
X130392914Y-150546666D02*
X130440533Y-150641904D01*
X130154819Y-149213333D02*
X130154819Y-149403809D01*
X130154819Y-149403809D02*
X130202438Y-149499047D01*
X130202438Y-149499047D02*
X130250057Y-149546666D01*
X130250057Y-149546666D02*
X130392914Y-149641904D01*
X130392914Y-149641904D02*
X130583390Y-149689523D01*
X130583390Y-149689523D02*
X130964342Y-149689523D01*
X130964342Y-149689523D02*
X131059580Y-149641904D01*
X131059580Y-149641904D02*
X131107200Y-149594285D01*
X131107200Y-149594285D02*
X131154819Y-149499047D01*
X131154819Y-149499047D02*
X131154819Y-149308571D01*
X131154819Y-149308571D02*
X131107200Y-149213333D01*
X131107200Y-149213333D02*
X131059580Y-149165714D01*
X131059580Y-149165714D02*
X130964342Y-149118095D01*
X130964342Y-149118095D02*
X130726247Y-149118095D01*
X130726247Y-149118095D02*
X130631009Y-149165714D01*
X130631009Y-149165714D02*
X130583390Y-149213333D01*
X130583390Y-149213333D02*
X130535771Y-149308571D01*
X130535771Y-149308571D02*
X130535771Y-149499047D01*
X130535771Y-149499047D02*
X130583390Y-149594285D01*
X130583390Y-149594285D02*
X130631009Y-149641904D01*
X130631009Y-149641904D02*
X130726247Y-149689523D01*
X97456666Y-137304819D02*
X97456666Y-138019104D01*
X97456666Y-138019104D02*
X97409047Y-138161961D01*
X97409047Y-138161961D02*
X97313809Y-138257200D01*
X97313809Y-138257200D02*
X97170952Y-138304819D01*
X97170952Y-138304819D02*
X97075714Y-138304819D01*
X97932857Y-138304819D02*
X97932857Y-137304819D01*
X97932857Y-137304819D02*
X98313809Y-137304819D01*
X98313809Y-137304819D02*
X98409047Y-137352438D01*
X98409047Y-137352438D02*
X98456666Y-137400057D01*
X98456666Y-137400057D02*
X98504285Y-137495295D01*
X98504285Y-137495295D02*
X98504285Y-137638152D01*
X98504285Y-137638152D02*
X98456666Y-137733390D01*
X98456666Y-137733390D02*
X98409047Y-137781009D01*
X98409047Y-137781009D02*
X98313809Y-137828628D01*
X98313809Y-137828628D02*
X97932857Y-137828628D01*
X98837619Y-137304819D02*
X99504285Y-137304819D01*
X99504285Y-137304819D02*
X99075714Y-138304819D01*
X109931905Y-167829819D02*
X109931905Y-166829819D01*
X109931905Y-166829819D02*
X110312857Y-166829819D01*
X110312857Y-166829819D02*
X110408095Y-166877438D01*
X110408095Y-166877438D02*
X110455714Y-166925057D01*
X110455714Y-166925057D02*
X110503333Y-167020295D01*
X110503333Y-167020295D02*
X110503333Y-167163152D01*
X110503333Y-167163152D02*
X110455714Y-167258390D01*
X110455714Y-167258390D02*
X110408095Y-167306009D01*
X110408095Y-167306009D02*
X110312857Y-167353628D01*
X110312857Y-167353628D02*
X109931905Y-167353628D01*
X111455714Y-167829819D02*
X110884286Y-167829819D01*
X111170000Y-167829819D02*
X111170000Y-166829819D01*
X111170000Y-166829819D02*
X111074762Y-166972676D01*
X111074762Y-166972676D02*
X110979524Y-167067914D01*
X110979524Y-167067914D02*
X110884286Y-167115533D01*
X97010476Y-117114819D02*
X97010476Y-117829104D01*
X97010476Y-117829104D02*
X96962857Y-117971961D01*
X96962857Y-117971961D02*
X96867619Y-118067200D01*
X96867619Y-118067200D02*
X96724762Y-118114819D01*
X96724762Y-118114819D02*
X96629524Y-118114819D01*
X97486667Y-118114819D02*
X97486667Y-117114819D01*
X97486667Y-117114819D02*
X97867619Y-117114819D01*
X97867619Y-117114819D02*
X97962857Y-117162438D01*
X97962857Y-117162438D02*
X98010476Y-117210057D01*
X98010476Y-117210057D02*
X98058095Y-117305295D01*
X98058095Y-117305295D02*
X98058095Y-117448152D01*
X98058095Y-117448152D02*
X98010476Y-117543390D01*
X98010476Y-117543390D02*
X97962857Y-117591009D01*
X97962857Y-117591009D02*
X97867619Y-117638628D01*
X97867619Y-117638628D02*
X97486667Y-117638628D01*
X99010476Y-118114819D02*
X98439048Y-118114819D01*
X98724762Y-118114819D02*
X98724762Y-117114819D01*
X98724762Y-117114819D02*
X98629524Y-117257676D01*
X98629524Y-117257676D02*
X98534286Y-117352914D01*
X98534286Y-117352914D02*
X98439048Y-117400533D01*
X99629524Y-117114819D02*
X99724762Y-117114819D01*
X99724762Y-117114819D02*
X99820000Y-117162438D01*
X99820000Y-117162438D02*
X99867619Y-117210057D01*
X99867619Y-117210057D02*
X99915238Y-117305295D01*
X99915238Y-117305295D02*
X99962857Y-117495771D01*
X99962857Y-117495771D02*
X99962857Y-117733866D01*
X99962857Y-117733866D02*
X99915238Y-117924342D01*
X99915238Y-117924342D02*
X99867619Y-118019580D01*
X99867619Y-118019580D02*
X99820000Y-118067200D01*
X99820000Y-118067200D02*
X99724762Y-118114819D01*
X99724762Y-118114819D02*
X99629524Y-118114819D01*
X99629524Y-118114819D02*
X99534286Y-118067200D01*
X99534286Y-118067200D02*
X99486667Y-118019580D01*
X99486667Y-118019580D02*
X99439048Y-117924342D01*
X99439048Y-117924342D02*
X99391429Y-117733866D01*
X99391429Y-117733866D02*
X99391429Y-117495771D01*
X99391429Y-117495771D02*
X99439048Y-117305295D01*
X99439048Y-117305295D02*
X99486667Y-117210057D01*
X99486667Y-117210057D02*
X99534286Y-117162438D01*
X99534286Y-117162438D02*
X99629524Y-117114819D01*
X98077142Y-156954819D02*
X97743809Y-156478628D01*
X97505714Y-156954819D02*
X97505714Y-155954819D01*
X97505714Y-155954819D02*
X97886666Y-155954819D01*
X97886666Y-155954819D02*
X97981904Y-156002438D01*
X97981904Y-156002438D02*
X98029523Y-156050057D01*
X98029523Y-156050057D02*
X98077142Y-156145295D01*
X98077142Y-156145295D02*
X98077142Y-156288152D01*
X98077142Y-156288152D02*
X98029523Y-156383390D01*
X98029523Y-156383390D02*
X97981904Y-156431009D01*
X97981904Y-156431009D02*
X97886666Y-156478628D01*
X97886666Y-156478628D02*
X97505714Y-156478628D01*
X99029523Y-156954819D02*
X98458095Y-156954819D01*
X98743809Y-156954819D02*
X98743809Y-155954819D01*
X98743809Y-155954819D02*
X98648571Y-156097676D01*
X98648571Y-156097676D02*
X98553333Y-156192914D01*
X98553333Y-156192914D02*
X98458095Y-156240533D01*
X99410476Y-156050057D02*
X99458095Y-156002438D01*
X99458095Y-156002438D02*
X99553333Y-155954819D01*
X99553333Y-155954819D02*
X99791428Y-155954819D01*
X99791428Y-155954819D02*
X99886666Y-156002438D01*
X99886666Y-156002438D02*
X99934285Y-156050057D01*
X99934285Y-156050057D02*
X99981904Y-156145295D01*
X99981904Y-156145295D02*
X99981904Y-156240533D01*
X99981904Y-156240533D02*
X99934285Y-156383390D01*
X99934285Y-156383390D02*
X99362857Y-156954819D01*
X99362857Y-156954819D02*
X99981904Y-156954819D01*
X129444819Y-159162857D02*
X128968628Y-159496190D01*
X129444819Y-159734285D02*
X128444819Y-159734285D01*
X128444819Y-159734285D02*
X128444819Y-159353333D01*
X128444819Y-159353333D02*
X128492438Y-159258095D01*
X128492438Y-159258095D02*
X128540057Y-159210476D01*
X128540057Y-159210476D02*
X128635295Y-159162857D01*
X128635295Y-159162857D02*
X128778152Y-159162857D01*
X128778152Y-159162857D02*
X128873390Y-159210476D01*
X128873390Y-159210476D02*
X128921009Y-159258095D01*
X128921009Y-159258095D02*
X128968628Y-159353333D01*
X128968628Y-159353333D02*
X128968628Y-159734285D01*
X129444819Y-158210476D02*
X129444819Y-158781904D01*
X129444819Y-158496190D02*
X128444819Y-158496190D01*
X128444819Y-158496190D02*
X128587676Y-158591428D01*
X128587676Y-158591428D02*
X128682914Y-158686666D01*
X128682914Y-158686666D02*
X128730533Y-158781904D01*
X129444819Y-157258095D02*
X129444819Y-157829523D01*
X129444819Y-157543809D02*
X128444819Y-157543809D01*
X128444819Y-157543809D02*
X128587676Y-157639047D01*
X128587676Y-157639047D02*
X128682914Y-157734285D01*
X128682914Y-157734285D02*
X128730533Y-157829523D01*
X133315476Y-105799819D02*
X133315476Y-106514104D01*
X133315476Y-106514104D02*
X133267857Y-106656961D01*
X133267857Y-106656961D02*
X133172619Y-106752200D01*
X133172619Y-106752200D02*
X133029762Y-106799819D01*
X133029762Y-106799819D02*
X132934524Y-106799819D01*
X133791667Y-106799819D02*
X133791667Y-105799819D01*
X133791667Y-105799819D02*
X134172619Y-105799819D01*
X134172619Y-105799819D02*
X134267857Y-105847438D01*
X134267857Y-105847438D02*
X134315476Y-105895057D01*
X134315476Y-105895057D02*
X134363095Y-105990295D01*
X134363095Y-105990295D02*
X134363095Y-106133152D01*
X134363095Y-106133152D02*
X134315476Y-106228390D01*
X134315476Y-106228390D02*
X134267857Y-106276009D01*
X134267857Y-106276009D02*
X134172619Y-106323628D01*
X134172619Y-106323628D02*
X133791667Y-106323628D01*
X135315476Y-106799819D02*
X134744048Y-106799819D01*
X135029762Y-106799819D02*
X135029762Y-105799819D01*
X135029762Y-105799819D02*
X134934524Y-105942676D01*
X134934524Y-105942676D02*
X134839286Y-106037914D01*
X134839286Y-106037914D02*
X134744048Y-106085533D01*
X135696429Y-105895057D02*
X135744048Y-105847438D01*
X135744048Y-105847438D02*
X135839286Y-105799819D01*
X135839286Y-105799819D02*
X136077381Y-105799819D01*
X136077381Y-105799819D02*
X136172619Y-105847438D01*
X136172619Y-105847438D02*
X136220238Y-105895057D01*
X136220238Y-105895057D02*
X136267857Y-105990295D01*
X136267857Y-105990295D02*
X136267857Y-106085533D01*
X136267857Y-106085533D02*
X136220238Y-106228390D01*
X136220238Y-106228390D02*
X135648810Y-106799819D01*
X135648810Y-106799819D02*
X136267857Y-106799819D01*
X130569580Y-81236666D02*
X130617200Y-81284285D01*
X130617200Y-81284285D02*
X130664819Y-81427142D01*
X130664819Y-81427142D02*
X130664819Y-81522380D01*
X130664819Y-81522380D02*
X130617200Y-81665237D01*
X130617200Y-81665237D02*
X130521961Y-81760475D01*
X130521961Y-81760475D02*
X130426723Y-81808094D01*
X130426723Y-81808094D02*
X130236247Y-81855713D01*
X130236247Y-81855713D02*
X130093390Y-81855713D01*
X130093390Y-81855713D02*
X129902914Y-81808094D01*
X129902914Y-81808094D02*
X129807676Y-81760475D01*
X129807676Y-81760475D02*
X129712438Y-81665237D01*
X129712438Y-81665237D02*
X129664819Y-81522380D01*
X129664819Y-81522380D02*
X129664819Y-81427142D01*
X129664819Y-81427142D02*
X129712438Y-81284285D01*
X129712438Y-81284285D02*
X129760057Y-81236666D01*
X130093390Y-80665237D02*
X130045771Y-80760475D01*
X130045771Y-80760475D02*
X129998152Y-80808094D01*
X129998152Y-80808094D02*
X129902914Y-80855713D01*
X129902914Y-80855713D02*
X129855295Y-80855713D01*
X129855295Y-80855713D02*
X129760057Y-80808094D01*
X129760057Y-80808094D02*
X129712438Y-80760475D01*
X129712438Y-80760475D02*
X129664819Y-80665237D01*
X129664819Y-80665237D02*
X129664819Y-80474761D01*
X129664819Y-80474761D02*
X129712438Y-80379523D01*
X129712438Y-80379523D02*
X129760057Y-80331904D01*
X129760057Y-80331904D02*
X129855295Y-80284285D01*
X129855295Y-80284285D02*
X129902914Y-80284285D01*
X129902914Y-80284285D02*
X129998152Y-80331904D01*
X129998152Y-80331904D02*
X130045771Y-80379523D01*
X130045771Y-80379523D02*
X130093390Y-80474761D01*
X130093390Y-80474761D02*
X130093390Y-80665237D01*
X130093390Y-80665237D02*
X130141009Y-80760475D01*
X130141009Y-80760475D02*
X130188628Y-80808094D01*
X130188628Y-80808094D02*
X130283866Y-80855713D01*
X130283866Y-80855713D02*
X130474342Y-80855713D01*
X130474342Y-80855713D02*
X130569580Y-80808094D01*
X130569580Y-80808094D02*
X130617200Y-80760475D01*
X130617200Y-80760475D02*
X130664819Y-80665237D01*
X130664819Y-80665237D02*
X130664819Y-80474761D01*
X130664819Y-80474761D02*
X130617200Y-80379523D01*
X130617200Y-80379523D02*
X130569580Y-80331904D01*
X130569580Y-80331904D02*
X130474342Y-80284285D01*
X130474342Y-80284285D02*
X130283866Y-80284285D01*
X130283866Y-80284285D02*
X130188628Y-80331904D01*
X130188628Y-80331904D02*
X130141009Y-80379523D01*
X130141009Y-80379523D02*
X130093390Y-80474761D01*
X136981905Y-82784819D02*
X136981905Y-83594342D01*
X136981905Y-83594342D02*
X137029524Y-83689580D01*
X137029524Y-83689580D02*
X137077143Y-83737200D01*
X137077143Y-83737200D02*
X137172381Y-83784819D01*
X137172381Y-83784819D02*
X137362857Y-83784819D01*
X137362857Y-83784819D02*
X137458095Y-83737200D01*
X137458095Y-83737200D02*
X137505714Y-83689580D01*
X137505714Y-83689580D02*
X137553333Y-83594342D01*
X137553333Y-83594342D02*
X137553333Y-82784819D01*
X137981905Y-83737200D02*
X138124762Y-83784819D01*
X138124762Y-83784819D02*
X138362857Y-83784819D01*
X138362857Y-83784819D02*
X138458095Y-83737200D01*
X138458095Y-83737200D02*
X138505714Y-83689580D01*
X138505714Y-83689580D02*
X138553333Y-83594342D01*
X138553333Y-83594342D02*
X138553333Y-83499104D01*
X138553333Y-83499104D02*
X138505714Y-83403866D01*
X138505714Y-83403866D02*
X138458095Y-83356247D01*
X138458095Y-83356247D02*
X138362857Y-83308628D01*
X138362857Y-83308628D02*
X138172381Y-83261009D01*
X138172381Y-83261009D02*
X138077143Y-83213390D01*
X138077143Y-83213390D02*
X138029524Y-83165771D01*
X138029524Y-83165771D02*
X137981905Y-83070533D01*
X137981905Y-83070533D02*
X137981905Y-82975295D01*
X137981905Y-82975295D02*
X138029524Y-82880057D01*
X138029524Y-82880057D02*
X138077143Y-82832438D01*
X138077143Y-82832438D02*
X138172381Y-82784819D01*
X138172381Y-82784819D02*
X138410476Y-82784819D01*
X138410476Y-82784819D02*
X138553333Y-82832438D01*
X138267619Y-82641961D02*
X138267619Y-83927676D01*
X139458095Y-82784819D02*
X138981905Y-82784819D01*
X138981905Y-82784819D02*
X138934286Y-83261009D01*
X138934286Y-83261009D02*
X138981905Y-83213390D01*
X138981905Y-83213390D02*
X139077143Y-83165771D01*
X139077143Y-83165771D02*
X139315238Y-83165771D01*
X139315238Y-83165771D02*
X139410476Y-83213390D01*
X139410476Y-83213390D02*
X139458095Y-83261009D01*
X139458095Y-83261009D02*
X139505714Y-83356247D01*
X139505714Y-83356247D02*
X139505714Y-83594342D01*
X139505714Y-83594342D02*
X139458095Y-83689580D01*
X139458095Y-83689580D02*
X139410476Y-83737200D01*
X139410476Y-83737200D02*
X139315238Y-83784819D01*
X139315238Y-83784819D02*
X139077143Y-83784819D01*
X139077143Y-83784819D02*
X138981905Y-83737200D01*
X138981905Y-83737200D02*
X138934286Y-83689580D01*
X133696714Y-82134819D02*
X133125286Y-82134819D01*
X133411000Y-82134819D02*
X133411000Y-81134819D01*
X133411000Y-81134819D02*
X133315762Y-81277676D01*
X133315762Y-81277676D02*
X133220524Y-81372914D01*
X133220524Y-81372914D02*
X133125286Y-81420533D01*
X92810476Y-117074819D02*
X92810476Y-117789104D01*
X92810476Y-117789104D02*
X92762857Y-117931961D01*
X92762857Y-117931961D02*
X92667619Y-118027200D01*
X92667619Y-118027200D02*
X92524762Y-118074819D01*
X92524762Y-118074819D02*
X92429524Y-118074819D01*
X93286667Y-118074819D02*
X93286667Y-117074819D01*
X93286667Y-117074819D02*
X93667619Y-117074819D01*
X93667619Y-117074819D02*
X93762857Y-117122438D01*
X93762857Y-117122438D02*
X93810476Y-117170057D01*
X93810476Y-117170057D02*
X93858095Y-117265295D01*
X93858095Y-117265295D02*
X93858095Y-117408152D01*
X93858095Y-117408152D02*
X93810476Y-117503390D01*
X93810476Y-117503390D02*
X93762857Y-117551009D01*
X93762857Y-117551009D02*
X93667619Y-117598628D01*
X93667619Y-117598628D02*
X93286667Y-117598628D01*
X94810476Y-118074819D02*
X94239048Y-118074819D01*
X94524762Y-118074819D02*
X94524762Y-117074819D01*
X94524762Y-117074819D02*
X94429524Y-117217676D01*
X94429524Y-117217676D02*
X94334286Y-117312914D01*
X94334286Y-117312914D02*
X94239048Y-117360533D01*
X95762857Y-118074819D02*
X95191429Y-118074819D01*
X95477143Y-118074819D02*
X95477143Y-117074819D01*
X95477143Y-117074819D02*
X95381905Y-117217676D01*
X95381905Y-117217676D02*
X95286667Y-117312914D01*
X95286667Y-117312914D02*
X95191429Y-117360533D01*
X137841666Y-95269819D02*
X137841666Y-95984104D01*
X137841666Y-95984104D02*
X137794047Y-96126961D01*
X137794047Y-96126961D02*
X137698809Y-96222200D01*
X137698809Y-96222200D02*
X137555952Y-96269819D01*
X137555952Y-96269819D02*
X137460714Y-96269819D01*
X138317857Y-96269819D02*
X138317857Y-95269819D01*
X138317857Y-95269819D02*
X138698809Y-95269819D01*
X138698809Y-95269819D02*
X138794047Y-95317438D01*
X138794047Y-95317438D02*
X138841666Y-95365057D01*
X138841666Y-95365057D02*
X138889285Y-95460295D01*
X138889285Y-95460295D02*
X138889285Y-95603152D01*
X138889285Y-95603152D02*
X138841666Y-95698390D01*
X138841666Y-95698390D02*
X138794047Y-95746009D01*
X138794047Y-95746009D02*
X138698809Y-95793628D01*
X138698809Y-95793628D02*
X138317857Y-95793628D01*
X139270238Y-95365057D02*
X139317857Y-95317438D01*
X139317857Y-95317438D02*
X139413095Y-95269819D01*
X139413095Y-95269819D02*
X139651190Y-95269819D01*
X139651190Y-95269819D02*
X139746428Y-95317438D01*
X139746428Y-95317438D02*
X139794047Y-95365057D01*
X139794047Y-95365057D02*
X139841666Y-95460295D01*
X139841666Y-95460295D02*
X139841666Y-95555533D01*
X139841666Y-95555533D02*
X139794047Y-95698390D01*
X139794047Y-95698390D02*
X139222619Y-96269819D01*
X139222619Y-96269819D02*
X139841666Y-96269819D01*
X99645714Y-72251009D02*
X99788571Y-72298628D01*
X99788571Y-72298628D02*
X99836190Y-72346247D01*
X99836190Y-72346247D02*
X99883809Y-72441485D01*
X99883809Y-72441485D02*
X99883809Y-72584342D01*
X99883809Y-72584342D02*
X99836190Y-72679580D01*
X99836190Y-72679580D02*
X99788571Y-72727200D01*
X99788571Y-72727200D02*
X99693333Y-72774819D01*
X99693333Y-72774819D02*
X99312381Y-72774819D01*
X99312381Y-72774819D02*
X99312381Y-71774819D01*
X99312381Y-71774819D02*
X99645714Y-71774819D01*
X99645714Y-71774819D02*
X99740952Y-71822438D01*
X99740952Y-71822438D02*
X99788571Y-71870057D01*
X99788571Y-71870057D02*
X99836190Y-71965295D01*
X99836190Y-71965295D02*
X99836190Y-72060533D01*
X99836190Y-72060533D02*
X99788571Y-72155771D01*
X99788571Y-72155771D02*
X99740952Y-72203390D01*
X99740952Y-72203390D02*
X99645714Y-72251009D01*
X99645714Y-72251009D02*
X99312381Y-72251009D01*
X100264762Y-72489104D02*
X100740952Y-72489104D01*
X100169524Y-72774819D02*
X100502857Y-71774819D01*
X100502857Y-71774819D02*
X100836190Y-72774819D01*
X101026667Y-71774819D02*
X101598095Y-71774819D01*
X101312381Y-72774819D02*
X101312381Y-71774819D01*
X101788572Y-71774819D02*
X102360000Y-71774819D01*
X102074286Y-72774819D02*
X102074286Y-71774819D01*
X102693334Y-72393866D02*
X103455239Y-72393866D01*
X104455238Y-72774819D02*
X103883810Y-72774819D01*
X104169524Y-72774819D02*
X104169524Y-71774819D01*
X104169524Y-71774819D02*
X104074286Y-71917676D01*
X104074286Y-71917676D02*
X103979048Y-72012914D01*
X103979048Y-72012914D02*
X103883810Y-72060533D01*
X102144819Y-145118094D02*
X101144819Y-145118094D01*
X101144819Y-145118094D02*
X101144819Y-144879999D01*
X101144819Y-144879999D02*
X101192438Y-144737142D01*
X101192438Y-144737142D02*
X101287676Y-144641904D01*
X101287676Y-144641904D02*
X101382914Y-144594285D01*
X101382914Y-144594285D02*
X101573390Y-144546666D01*
X101573390Y-144546666D02*
X101716247Y-144546666D01*
X101716247Y-144546666D02*
X101906723Y-144594285D01*
X101906723Y-144594285D02*
X102001961Y-144641904D01*
X102001961Y-144641904D02*
X102097200Y-144737142D01*
X102097200Y-144737142D02*
X102144819Y-144879999D01*
X102144819Y-144879999D02*
X102144819Y-145118094D01*
X101478152Y-143689523D02*
X102144819Y-143689523D01*
X101097200Y-143927618D02*
X101811485Y-144165713D01*
X101811485Y-144165713D02*
X101811485Y-143546666D01*
X103084819Y-152711904D02*
X102084819Y-152711904D01*
X103084819Y-152140476D02*
X102513390Y-152569047D01*
X102084819Y-152140476D02*
X102656247Y-152711904D01*
X130187142Y-162769580D02*
X130139523Y-162817200D01*
X130139523Y-162817200D02*
X129996666Y-162864819D01*
X129996666Y-162864819D02*
X129901428Y-162864819D01*
X129901428Y-162864819D02*
X129758571Y-162817200D01*
X129758571Y-162817200D02*
X129663333Y-162721961D01*
X129663333Y-162721961D02*
X129615714Y-162626723D01*
X129615714Y-162626723D02*
X129568095Y-162436247D01*
X129568095Y-162436247D02*
X129568095Y-162293390D01*
X129568095Y-162293390D02*
X129615714Y-162102914D01*
X129615714Y-162102914D02*
X129663333Y-162007676D01*
X129663333Y-162007676D02*
X129758571Y-161912438D01*
X129758571Y-161912438D02*
X129901428Y-161864819D01*
X129901428Y-161864819D02*
X129996666Y-161864819D01*
X129996666Y-161864819D02*
X130139523Y-161912438D01*
X130139523Y-161912438D02*
X130187142Y-161960057D01*
X131139523Y-162864819D02*
X130568095Y-162864819D01*
X130853809Y-162864819D02*
X130853809Y-161864819D01*
X130853809Y-161864819D02*
X130758571Y-162007676D01*
X130758571Y-162007676D02*
X130663333Y-162102914D01*
X130663333Y-162102914D02*
X130568095Y-162150533D01*
X132091904Y-162864819D02*
X131520476Y-162864819D01*
X131806190Y-162864819D02*
X131806190Y-161864819D01*
X131806190Y-161864819D02*
X131710952Y-162007676D01*
X131710952Y-162007676D02*
X131615714Y-162102914D01*
X131615714Y-162102914D02*
X131520476Y-162150533D01*
X89286666Y-117044819D02*
X89286666Y-117759104D01*
X89286666Y-117759104D02*
X89239047Y-117901961D01*
X89239047Y-117901961D02*
X89143809Y-117997200D01*
X89143809Y-117997200D02*
X89000952Y-118044819D01*
X89000952Y-118044819D02*
X88905714Y-118044819D01*
X89762857Y-118044819D02*
X89762857Y-117044819D01*
X89762857Y-117044819D02*
X90143809Y-117044819D01*
X90143809Y-117044819D02*
X90239047Y-117092438D01*
X90239047Y-117092438D02*
X90286666Y-117140057D01*
X90286666Y-117140057D02*
X90334285Y-117235295D01*
X90334285Y-117235295D02*
X90334285Y-117378152D01*
X90334285Y-117378152D02*
X90286666Y-117473390D01*
X90286666Y-117473390D02*
X90239047Y-117521009D01*
X90239047Y-117521009D02*
X90143809Y-117568628D01*
X90143809Y-117568628D02*
X89762857Y-117568628D01*
X91191428Y-117044819D02*
X91000952Y-117044819D01*
X91000952Y-117044819D02*
X90905714Y-117092438D01*
X90905714Y-117092438D02*
X90858095Y-117140057D01*
X90858095Y-117140057D02*
X90762857Y-117282914D01*
X90762857Y-117282914D02*
X90715238Y-117473390D01*
X90715238Y-117473390D02*
X90715238Y-117854342D01*
X90715238Y-117854342D02*
X90762857Y-117949580D01*
X90762857Y-117949580D02*
X90810476Y-117997200D01*
X90810476Y-117997200D02*
X90905714Y-118044819D01*
X90905714Y-118044819D02*
X91096190Y-118044819D01*
X91096190Y-118044819D02*
X91191428Y-117997200D01*
X91191428Y-117997200D02*
X91239047Y-117949580D01*
X91239047Y-117949580D02*
X91286666Y-117854342D01*
X91286666Y-117854342D02*
X91286666Y-117616247D01*
X91286666Y-117616247D02*
X91239047Y-117521009D01*
X91239047Y-117521009D02*
X91191428Y-117473390D01*
X91191428Y-117473390D02*
X91096190Y-117425771D01*
X91096190Y-117425771D02*
X90905714Y-117425771D01*
X90905714Y-117425771D02*
X90810476Y-117473390D01*
X90810476Y-117473390D02*
X90762857Y-117521009D01*
X90762857Y-117521009D02*
X90715238Y-117616247D01*
X135054819Y-159779047D02*
X135054819Y-160255237D01*
X135054819Y-160255237D02*
X134054819Y-160255237D01*
X134531009Y-159445713D02*
X134531009Y-159112380D01*
X135054819Y-158969523D02*
X135054819Y-159445713D01*
X135054819Y-159445713D02*
X134054819Y-159445713D01*
X134054819Y-159445713D02*
X134054819Y-158969523D01*
X135054819Y-158540951D02*
X134054819Y-158540951D01*
X134054819Y-158540951D02*
X134054819Y-158302856D01*
X134054819Y-158302856D02*
X134102438Y-158159999D01*
X134102438Y-158159999D02*
X134197676Y-158064761D01*
X134197676Y-158064761D02*
X134292914Y-158017142D01*
X134292914Y-158017142D02*
X134483390Y-157969523D01*
X134483390Y-157969523D02*
X134626247Y-157969523D01*
X134626247Y-157969523D02*
X134816723Y-158017142D01*
X134816723Y-158017142D02*
X134911961Y-158064761D01*
X134911961Y-158064761D02*
X135007200Y-158159999D01*
X135007200Y-158159999D02*
X135054819Y-158302856D01*
X135054819Y-158302856D02*
X135054819Y-158540951D01*
X134150057Y-157588570D02*
X134102438Y-157540951D01*
X134102438Y-157540951D02*
X134054819Y-157445713D01*
X134054819Y-157445713D02*
X134054819Y-157207618D01*
X134054819Y-157207618D02*
X134102438Y-157112380D01*
X134102438Y-157112380D02*
X134150057Y-157064761D01*
X134150057Y-157064761D02*
X134245295Y-157017142D01*
X134245295Y-157017142D02*
X134340533Y-157017142D01*
X134340533Y-157017142D02*
X134483390Y-157064761D01*
X134483390Y-157064761D02*
X135054819Y-157636189D01*
X135054819Y-157636189D02*
X135054819Y-157017142D01*
X135901905Y-129418920D02*
X135901905Y-130228443D01*
X135901905Y-130228443D02*
X135949524Y-130323681D01*
X135949524Y-130323681D02*
X135997143Y-130371301D01*
X135997143Y-130371301D02*
X136092381Y-130418920D01*
X136092381Y-130418920D02*
X136282857Y-130418920D01*
X136282857Y-130418920D02*
X136378095Y-130371301D01*
X136378095Y-130371301D02*
X136425714Y-130323681D01*
X136425714Y-130323681D02*
X136473333Y-130228443D01*
X136473333Y-130228443D02*
X136473333Y-129418920D01*
X136901905Y-130371301D02*
X137044762Y-130418920D01*
X137044762Y-130418920D02*
X137282857Y-130418920D01*
X137282857Y-130418920D02*
X137378095Y-130371301D01*
X137378095Y-130371301D02*
X137425714Y-130323681D01*
X137425714Y-130323681D02*
X137473333Y-130228443D01*
X137473333Y-130228443D02*
X137473333Y-130133205D01*
X137473333Y-130133205D02*
X137425714Y-130037967D01*
X137425714Y-130037967D02*
X137378095Y-129990348D01*
X137378095Y-129990348D02*
X137282857Y-129942729D01*
X137282857Y-129942729D02*
X137092381Y-129895110D01*
X137092381Y-129895110D02*
X136997143Y-129847491D01*
X136997143Y-129847491D02*
X136949524Y-129799872D01*
X136949524Y-129799872D02*
X136901905Y-129704634D01*
X136901905Y-129704634D02*
X136901905Y-129609396D01*
X136901905Y-129609396D02*
X136949524Y-129514158D01*
X136949524Y-129514158D02*
X136997143Y-129466539D01*
X136997143Y-129466539D02*
X137092381Y-129418920D01*
X137092381Y-129418920D02*
X137330476Y-129418920D01*
X137330476Y-129418920D02*
X137473333Y-129466539D01*
X137187619Y-129276062D02*
X137187619Y-130561777D01*
X137806667Y-129418920D02*
X138425714Y-129418920D01*
X138425714Y-129418920D02*
X138092381Y-129799872D01*
X138092381Y-129799872D02*
X138235238Y-129799872D01*
X138235238Y-129799872D02*
X138330476Y-129847491D01*
X138330476Y-129847491D02*
X138378095Y-129895110D01*
X138378095Y-129895110D02*
X138425714Y-129990348D01*
X138425714Y-129990348D02*
X138425714Y-130228443D01*
X138425714Y-130228443D02*
X138378095Y-130323681D01*
X138378095Y-130323681D02*
X138330476Y-130371301D01*
X138330476Y-130371301D02*
X138235238Y-130418920D01*
X138235238Y-130418920D02*
X137949524Y-130418920D01*
X137949524Y-130418920D02*
X137854286Y-130371301D01*
X137854286Y-130371301D02*
X137806667Y-130323681D01*
X140620001Y-117828420D02*
X140620001Y-118066515D01*
X140381906Y-117971277D02*
X140620001Y-118066515D01*
X140620001Y-118066515D02*
X140858096Y-117971277D01*
X140477144Y-118256991D02*
X140620001Y-118066515D01*
X140620001Y-118066515D02*
X140762858Y-118256991D01*
X91067142Y-156924819D02*
X90733809Y-156448628D01*
X90495714Y-156924819D02*
X90495714Y-155924819D01*
X90495714Y-155924819D02*
X90876666Y-155924819D01*
X90876666Y-155924819D02*
X90971904Y-155972438D01*
X90971904Y-155972438D02*
X91019523Y-156020057D01*
X91019523Y-156020057D02*
X91067142Y-156115295D01*
X91067142Y-156115295D02*
X91067142Y-156258152D01*
X91067142Y-156258152D02*
X91019523Y-156353390D01*
X91019523Y-156353390D02*
X90971904Y-156401009D01*
X90971904Y-156401009D02*
X90876666Y-156448628D01*
X90876666Y-156448628D02*
X90495714Y-156448628D01*
X92019523Y-156924819D02*
X91448095Y-156924819D01*
X91733809Y-156924819D02*
X91733809Y-155924819D01*
X91733809Y-155924819D02*
X91638571Y-156067676D01*
X91638571Y-156067676D02*
X91543333Y-156162914D01*
X91543333Y-156162914D02*
X91448095Y-156210533D01*
X92352857Y-155924819D02*
X92971904Y-155924819D01*
X92971904Y-155924819D02*
X92638571Y-156305771D01*
X92638571Y-156305771D02*
X92781428Y-156305771D01*
X92781428Y-156305771D02*
X92876666Y-156353390D01*
X92876666Y-156353390D02*
X92924285Y-156401009D01*
X92924285Y-156401009D02*
X92971904Y-156496247D01*
X92971904Y-156496247D02*
X92971904Y-156734342D01*
X92971904Y-156734342D02*
X92924285Y-156829580D01*
X92924285Y-156829580D02*
X92876666Y-156877200D01*
X92876666Y-156877200D02*
X92781428Y-156924819D01*
X92781428Y-156924819D02*
X92495714Y-156924819D01*
X92495714Y-156924819D02*
X92400476Y-156877200D01*
X92400476Y-156877200D02*
X92352857Y-156829580D01*
X116129642Y-159694819D02*
X115796309Y-159218628D01*
X115558214Y-159694819D02*
X115558214Y-158694819D01*
X115558214Y-158694819D02*
X115939166Y-158694819D01*
X115939166Y-158694819D02*
X116034404Y-158742438D01*
X116034404Y-158742438D02*
X116082023Y-158790057D01*
X116082023Y-158790057D02*
X116129642Y-158885295D01*
X116129642Y-158885295D02*
X116129642Y-159028152D01*
X116129642Y-159028152D02*
X116082023Y-159123390D01*
X116082023Y-159123390D02*
X116034404Y-159171009D01*
X116034404Y-159171009D02*
X115939166Y-159218628D01*
X115939166Y-159218628D02*
X115558214Y-159218628D01*
X117082023Y-159694819D02*
X116510595Y-159694819D01*
X116796309Y-159694819D02*
X116796309Y-158694819D01*
X116796309Y-158694819D02*
X116701071Y-158837676D01*
X116701071Y-158837676D02*
X116605833Y-158932914D01*
X116605833Y-158932914D02*
X116510595Y-158980533D01*
X117986785Y-158694819D02*
X117510595Y-158694819D01*
X117510595Y-158694819D02*
X117462976Y-159171009D01*
X117462976Y-159171009D02*
X117510595Y-159123390D01*
X117510595Y-159123390D02*
X117605833Y-159075771D01*
X117605833Y-159075771D02*
X117843928Y-159075771D01*
X117843928Y-159075771D02*
X117939166Y-159123390D01*
X117939166Y-159123390D02*
X117986785Y-159171009D01*
X117986785Y-159171009D02*
X118034404Y-159266247D01*
X118034404Y-159266247D02*
X118034404Y-159504342D01*
X118034404Y-159504342D02*
X117986785Y-159599580D01*
X117986785Y-159599580D02*
X117939166Y-159647200D01*
X117939166Y-159647200D02*
X117843928Y-159694819D01*
X117843928Y-159694819D02*
X117605833Y-159694819D01*
X117605833Y-159694819D02*
X117510595Y-159647200D01*
X117510595Y-159647200D02*
X117462976Y-159599580D01*
X89276666Y-137324819D02*
X89276666Y-138039104D01*
X89276666Y-138039104D02*
X89229047Y-138181961D01*
X89229047Y-138181961D02*
X89133809Y-138277200D01*
X89133809Y-138277200D02*
X88990952Y-138324819D01*
X88990952Y-138324819D02*
X88895714Y-138324819D01*
X89752857Y-138324819D02*
X89752857Y-137324819D01*
X89752857Y-137324819D02*
X90133809Y-137324819D01*
X90133809Y-137324819D02*
X90229047Y-137372438D01*
X90229047Y-137372438D02*
X90276666Y-137420057D01*
X90276666Y-137420057D02*
X90324285Y-137515295D01*
X90324285Y-137515295D02*
X90324285Y-137658152D01*
X90324285Y-137658152D02*
X90276666Y-137753390D01*
X90276666Y-137753390D02*
X90229047Y-137801009D01*
X90229047Y-137801009D02*
X90133809Y-137848628D01*
X90133809Y-137848628D02*
X89752857Y-137848628D01*
X91229047Y-137324819D02*
X90752857Y-137324819D01*
X90752857Y-137324819D02*
X90705238Y-137801009D01*
X90705238Y-137801009D02*
X90752857Y-137753390D01*
X90752857Y-137753390D02*
X90848095Y-137705771D01*
X90848095Y-137705771D02*
X91086190Y-137705771D01*
X91086190Y-137705771D02*
X91181428Y-137753390D01*
X91181428Y-137753390D02*
X91229047Y-137801009D01*
X91229047Y-137801009D02*
X91276666Y-137896247D01*
X91276666Y-137896247D02*
X91276666Y-138134342D01*
X91276666Y-138134342D02*
X91229047Y-138229580D01*
X91229047Y-138229580D02*
X91181428Y-138277200D01*
X91181428Y-138277200D02*
X91086190Y-138324819D01*
X91086190Y-138324819D02*
X90848095Y-138324819D01*
X90848095Y-138324819D02*
X90752857Y-138277200D01*
X90752857Y-138277200D02*
X90705238Y-138229580D01*
X113488095Y-77664819D02*
X113488095Y-78474342D01*
X113488095Y-78474342D02*
X113535714Y-78569580D01*
X113535714Y-78569580D02*
X113583333Y-78617200D01*
X113583333Y-78617200D02*
X113678571Y-78664819D01*
X113678571Y-78664819D02*
X113869047Y-78664819D01*
X113869047Y-78664819D02*
X113964285Y-78617200D01*
X113964285Y-78617200D02*
X114011904Y-78569580D01*
X114011904Y-78569580D02*
X114059523Y-78474342D01*
X114059523Y-78474342D02*
X114059523Y-77664819D01*
X114964285Y-77664819D02*
X114773809Y-77664819D01*
X114773809Y-77664819D02*
X114678571Y-77712438D01*
X114678571Y-77712438D02*
X114630952Y-77760057D01*
X114630952Y-77760057D02*
X114535714Y-77902914D01*
X114535714Y-77902914D02*
X114488095Y-78093390D01*
X114488095Y-78093390D02*
X114488095Y-78474342D01*
X114488095Y-78474342D02*
X114535714Y-78569580D01*
X114535714Y-78569580D02*
X114583333Y-78617200D01*
X114583333Y-78617200D02*
X114678571Y-78664819D01*
X114678571Y-78664819D02*
X114869047Y-78664819D01*
X114869047Y-78664819D02*
X114964285Y-78617200D01*
X114964285Y-78617200D02*
X115011904Y-78569580D01*
X115011904Y-78569580D02*
X115059523Y-78474342D01*
X115059523Y-78474342D02*
X115059523Y-78236247D01*
X115059523Y-78236247D02*
X115011904Y-78141009D01*
X115011904Y-78141009D02*
X114964285Y-78093390D01*
X114964285Y-78093390D02*
X114869047Y-78045771D01*
X114869047Y-78045771D02*
X114678571Y-78045771D01*
X114678571Y-78045771D02*
X114583333Y-78093390D01*
X114583333Y-78093390D02*
X114535714Y-78141009D01*
X114535714Y-78141009D02*
X114488095Y-78236247D01*
D11*
X109363400Y-77814215D02*
X109363400Y-78052310D01*
X109125305Y-77957072D02*
X109363400Y-78052310D01*
X109363400Y-78052310D02*
X109601495Y-77957072D01*
X109220543Y-78242786D02*
X109363400Y-78052310D01*
X109363400Y-78052310D02*
X109506257Y-78242786D01*
D10*
X141375476Y-105799819D02*
X141375476Y-106514104D01*
X141375476Y-106514104D02*
X141327857Y-106656961D01*
X141327857Y-106656961D02*
X141232619Y-106752200D01*
X141232619Y-106752200D02*
X141089762Y-106799819D01*
X141089762Y-106799819D02*
X140994524Y-106799819D01*
X141851667Y-106799819D02*
X141851667Y-105799819D01*
X141851667Y-105799819D02*
X142232619Y-105799819D01*
X142232619Y-105799819D02*
X142327857Y-105847438D01*
X142327857Y-105847438D02*
X142375476Y-105895057D01*
X142375476Y-105895057D02*
X142423095Y-105990295D01*
X142423095Y-105990295D02*
X142423095Y-106133152D01*
X142423095Y-106133152D02*
X142375476Y-106228390D01*
X142375476Y-106228390D02*
X142327857Y-106276009D01*
X142327857Y-106276009D02*
X142232619Y-106323628D01*
X142232619Y-106323628D02*
X141851667Y-106323628D01*
X143375476Y-106799819D02*
X142804048Y-106799819D01*
X143089762Y-106799819D02*
X143089762Y-105799819D01*
X143089762Y-105799819D02*
X142994524Y-105942676D01*
X142994524Y-105942676D02*
X142899286Y-106037914D01*
X142899286Y-106037914D02*
X142804048Y-106085533D01*
X144232619Y-106133152D02*
X144232619Y-106799819D01*
X143994524Y-105752200D02*
X143756429Y-106466485D01*
X143756429Y-106466485D02*
X144375476Y-106466485D01*
X108229850Y-103224819D02*
X108229850Y-104034342D01*
X108229850Y-104034342D02*
X108277469Y-104129580D01*
X108277469Y-104129580D02*
X108325088Y-104177200D01*
X108325088Y-104177200D02*
X108420326Y-104224819D01*
X108420326Y-104224819D02*
X108610802Y-104224819D01*
X108610802Y-104224819D02*
X108706040Y-104177200D01*
X108706040Y-104177200D02*
X108753659Y-104129580D01*
X108753659Y-104129580D02*
X108801278Y-104034342D01*
X108801278Y-104034342D02*
X108801278Y-103224819D01*
X109801278Y-104224819D02*
X109229850Y-104224819D01*
X109515564Y-104224819D02*
X109515564Y-103224819D01*
X109515564Y-103224819D02*
X109420326Y-103367676D01*
X109420326Y-103367676D02*
X109325088Y-103462914D01*
X109325088Y-103462914D02*
X109229850Y-103510533D01*
X105295714Y-97224819D02*
X105295714Y-96224819D01*
X105295714Y-96224819D02*
X105533809Y-96224819D01*
X105533809Y-96224819D02*
X105676666Y-96272438D01*
X105676666Y-96272438D02*
X105771904Y-96367676D01*
X105771904Y-96367676D02*
X105819523Y-96462914D01*
X105819523Y-96462914D02*
X105867142Y-96653390D01*
X105867142Y-96653390D02*
X105867142Y-96796247D01*
X105867142Y-96796247D02*
X105819523Y-96986723D01*
X105819523Y-96986723D02*
X105771904Y-97081961D01*
X105771904Y-97081961D02*
X105676666Y-97177200D01*
X105676666Y-97177200D02*
X105533809Y-97224819D01*
X105533809Y-97224819D02*
X105295714Y-97224819D01*
X106676666Y-97177200D02*
X106581428Y-97224819D01*
X106581428Y-97224819D02*
X106390952Y-97224819D01*
X106390952Y-97224819D02*
X106295714Y-97177200D01*
X106295714Y-97177200D02*
X106248095Y-97081961D01*
X106248095Y-97081961D02*
X106248095Y-96701009D01*
X106248095Y-96701009D02*
X106295714Y-96605771D01*
X106295714Y-96605771D02*
X106390952Y-96558152D01*
X106390952Y-96558152D02*
X106581428Y-96558152D01*
X106581428Y-96558152D02*
X106676666Y-96605771D01*
X106676666Y-96605771D02*
X106724285Y-96701009D01*
X106724285Y-96701009D02*
X106724285Y-96796247D01*
X106724285Y-96796247D02*
X106248095Y-96891485D01*
X107105238Y-97177200D02*
X107200476Y-97224819D01*
X107200476Y-97224819D02*
X107390952Y-97224819D01*
X107390952Y-97224819D02*
X107486190Y-97177200D01*
X107486190Y-97177200D02*
X107533809Y-97081961D01*
X107533809Y-97081961D02*
X107533809Y-97034342D01*
X107533809Y-97034342D02*
X107486190Y-96939104D01*
X107486190Y-96939104D02*
X107390952Y-96891485D01*
X107390952Y-96891485D02*
X107248095Y-96891485D01*
X107248095Y-96891485D02*
X107152857Y-96843866D01*
X107152857Y-96843866D02*
X107105238Y-96748628D01*
X107105238Y-96748628D02*
X107105238Y-96701009D01*
X107105238Y-96701009D02*
X107152857Y-96605771D01*
X107152857Y-96605771D02*
X107248095Y-96558152D01*
X107248095Y-96558152D02*
X107390952Y-96558152D01*
X107390952Y-96558152D02*
X107486190Y-96605771D01*
X107962381Y-97224819D02*
X107962381Y-96558152D01*
X107962381Y-96224819D02*
X107914762Y-96272438D01*
X107914762Y-96272438D02*
X107962381Y-96320057D01*
X107962381Y-96320057D02*
X108010000Y-96272438D01*
X108010000Y-96272438D02*
X107962381Y-96224819D01*
X107962381Y-96224819D02*
X107962381Y-96320057D01*
X108867142Y-96558152D02*
X108867142Y-97367676D01*
X108867142Y-97367676D02*
X108819523Y-97462914D01*
X108819523Y-97462914D02*
X108771904Y-97510533D01*
X108771904Y-97510533D02*
X108676666Y-97558152D01*
X108676666Y-97558152D02*
X108533809Y-97558152D01*
X108533809Y-97558152D02*
X108438571Y-97510533D01*
X108867142Y-97177200D02*
X108771904Y-97224819D01*
X108771904Y-97224819D02*
X108581428Y-97224819D01*
X108581428Y-97224819D02*
X108486190Y-97177200D01*
X108486190Y-97177200D02*
X108438571Y-97129580D01*
X108438571Y-97129580D02*
X108390952Y-97034342D01*
X108390952Y-97034342D02*
X108390952Y-96748628D01*
X108390952Y-96748628D02*
X108438571Y-96653390D01*
X108438571Y-96653390D02*
X108486190Y-96605771D01*
X108486190Y-96605771D02*
X108581428Y-96558152D01*
X108581428Y-96558152D02*
X108771904Y-96558152D01*
X108771904Y-96558152D02*
X108867142Y-96605771D01*
X109343333Y-96558152D02*
X109343333Y-97224819D01*
X109343333Y-96653390D02*
X109390952Y-96605771D01*
X109390952Y-96605771D02*
X109486190Y-96558152D01*
X109486190Y-96558152D02*
X109629047Y-96558152D01*
X109629047Y-96558152D02*
X109724285Y-96605771D01*
X109724285Y-96605771D02*
X109771904Y-96701009D01*
X109771904Y-96701009D02*
X109771904Y-97224819D01*
X110676666Y-97224819D02*
X110676666Y-96701009D01*
X110676666Y-96701009D02*
X110629047Y-96605771D01*
X110629047Y-96605771D02*
X110533809Y-96558152D01*
X110533809Y-96558152D02*
X110343333Y-96558152D01*
X110343333Y-96558152D02*
X110248095Y-96605771D01*
X110676666Y-97177200D02*
X110581428Y-97224819D01*
X110581428Y-97224819D02*
X110343333Y-97224819D01*
X110343333Y-97224819D02*
X110248095Y-97177200D01*
X110248095Y-97177200D02*
X110200476Y-97081961D01*
X110200476Y-97081961D02*
X110200476Y-96986723D01*
X110200476Y-96986723D02*
X110248095Y-96891485D01*
X110248095Y-96891485D02*
X110343333Y-96843866D01*
X110343333Y-96843866D02*
X110581428Y-96843866D01*
X110581428Y-96843866D02*
X110676666Y-96796247D01*
X111010000Y-96558152D02*
X111390952Y-96558152D01*
X111152857Y-96224819D02*
X111152857Y-97081961D01*
X111152857Y-97081961D02*
X111200476Y-97177200D01*
X111200476Y-97177200D02*
X111295714Y-97224819D01*
X111295714Y-97224819D02*
X111390952Y-97224819D01*
X111867143Y-97224819D02*
X111771905Y-97177200D01*
X111771905Y-97177200D02*
X111724286Y-97129580D01*
X111724286Y-97129580D02*
X111676667Y-97034342D01*
X111676667Y-97034342D02*
X111676667Y-96748628D01*
X111676667Y-96748628D02*
X111724286Y-96653390D01*
X111724286Y-96653390D02*
X111771905Y-96605771D01*
X111771905Y-96605771D02*
X111867143Y-96558152D01*
X111867143Y-96558152D02*
X112010000Y-96558152D01*
X112010000Y-96558152D02*
X112105238Y-96605771D01*
X112105238Y-96605771D02*
X112152857Y-96653390D01*
X112152857Y-96653390D02*
X112200476Y-96748628D01*
X112200476Y-96748628D02*
X112200476Y-97034342D01*
X112200476Y-97034342D02*
X112152857Y-97129580D01*
X112152857Y-97129580D02*
X112105238Y-97177200D01*
X112105238Y-97177200D02*
X112010000Y-97224819D01*
X112010000Y-97224819D02*
X111867143Y-97224819D01*
X112629048Y-97224819D02*
X112629048Y-96558152D01*
X112629048Y-96748628D02*
X112676667Y-96653390D01*
X112676667Y-96653390D02*
X112724286Y-96605771D01*
X112724286Y-96605771D02*
X112819524Y-96558152D01*
X112819524Y-96558152D02*
X112914762Y-96558152D01*
X113295715Y-97224819D02*
X113486191Y-97224819D01*
X113486191Y-97224819D02*
X113581429Y-97177200D01*
X113581429Y-97177200D02*
X113629048Y-97129580D01*
X113629048Y-97129580D02*
X113724286Y-96986723D01*
X113724286Y-96986723D02*
X113771905Y-96796247D01*
X113771905Y-96796247D02*
X113771905Y-96415295D01*
X113771905Y-96415295D02*
X113724286Y-96320057D01*
X113724286Y-96320057D02*
X113676667Y-96272438D01*
X113676667Y-96272438D02*
X113581429Y-96224819D01*
X113581429Y-96224819D02*
X113390953Y-96224819D01*
X113390953Y-96224819D02*
X113295715Y-96272438D01*
X113295715Y-96272438D02*
X113248096Y-96320057D01*
X113248096Y-96320057D02*
X113200477Y-96415295D01*
X113200477Y-96415295D02*
X113200477Y-96653390D01*
X113200477Y-96653390D02*
X113248096Y-96748628D01*
X113248096Y-96748628D02*
X113295715Y-96796247D01*
X113295715Y-96796247D02*
X113390953Y-96843866D01*
X113390953Y-96843866D02*
X113581429Y-96843866D01*
X113581429Y-96843866D02*
X113676667Y-96796247D01*
X113676667Y-96796247D02*
X113724286Y-96748628D01*
X113724286Y-96748628D02*
X113771905Y-96653390D01*
X137485476Y-105759819D02*
X137485476Y-106474104D01*
X137485476Y-106474104D02*
X137437857Y-106616961D01*
X137437857Y-106616961D02*
X137342619Y-106712200D01*
X137342619Y-106712200D02*
X137199762Y-106759819D01*
X137199762Y-106759819D02*
X137104524Y-106759819D01*
X137961667Y-106759819D02*
X137961667Y-105759819D01*
X137961667Y-105759819D02*
X138342619Y-105759819D01*
X138342619Y-105759819D02*
X138437857Y-105807438D01*
X138437857Y-105807438D02*
X138485476Y-105855057D01*
X138485476Y-105855057D02*
X138533095Y-105950295D01*
X138533095Y-105950295D02*
X138533095Y-106093152D01*
X138533095Y-106093152D02*
X138485476Y-106188390D01*
X138485476Y-106188390D02*
X138437857Y-106236009D01*
X138437857Y-106236009D02*
X138342619Y-106283628D01*
X138342619Y-106283628D02*
X137961667Y-106283628D01*
X139485476Y-106759819D02*
X138914048Y-106759819D01*
X139199762Y-106759819D02*
X139199762Y-105759819D01*
X139199762Y-105759819D02*
X139104524Y-105902676D01*
X139104524Y-105902676D02*
X139009286Y-105997914D01*
X139009286Y-105997914D02*
X138914048Y-106045533D01*
X139818810Y-105759819D02*
X140437857Y-105759819D01*
X140437857Y-105759819D02*
X140104524Y-106140771D01*
X140104524Y-106140771D02*
X140247381Y-106140771D01*
X140247381Y-106140771D02*
X140342619Y-106188390D01*
X140342619Y-106188390D02*
X140390238Y-106236009D01*
X140390238Y-106236009D02*
X140437857Y-106331247D01*
X140437857Y-106331247D02*
X140437857Y-106569342D01*
X140437857Y-106569342D02*
X140390238Y-106664580D01*
X140390238Y-106664580D02*
X140342619Y-106712200D01*
X140342619Y-106712200D02*
X140247381Y-106759819D01*
X140247381Y-106759819D02*
X139961667Y-106759819D01*
X139961667Y-106759819D02*
X139866429Y-106712200D01*
X139866429Y-106712200D02*
X139818810Y-106664580D01*
X102144819Y-126268094D02*
X101144819Y-126268094D01*
X101144819Y-126268094D02*
X101144819Y-126029999D01*
X101144819Y-126029999D02*
X101192438Y-125887142D01*
X101192438Y-125887142D02*
X101287676Y-125791904D01*
X101287676Y-125791904D02*
X101382914Y-125744285D01*
X101382914Y-125744285D02*
X101573390Y-125696666D01*
X101573390Y-125696666D02*
X101716247Y-125696666D01*
X101716247Y-125696666D02*
X101906723Y-125744285D01*
X101906723Y-125744285D02*
X102001961Y-125791904D01*
X102001961Y-125791904D02*
X102097200Y-125887142D01*
X102097200Y-125887142D02*
X102144819Y-126029999D01*
X102144819Y-126029999D02*
X102144819Y-126268094D01*
X102144819Y-124744285D02*
X102144819Y-125315713D01*
X102144819Y-125029999D02*
X101144819Y-125029999D01*
X101144819Y-125029999D02*
X101287676Y-125125237D01*
X101287676Y-125125237D02*
X101382914Y-125220475D01*
X101382914Y-125220475D02*
X101430533Y-125315713D01*
X108344819Y-117471904D02*
X107344819Y-117471904D01*
X108344819Y-116900476D02*
X107773390Y-117329047D01*
X107344819Y-116900476D02*
X107916247Y-117471904D01*
X92755714Y-72311009D02*
X92898571Y-72358628D01*
X92898571Y-72358628D02*
X92946190Y-72406247D01*
X92946190Y-72406247D02*
X92993809Y-72501485D01*
X92993809Y-72501485D02*
X92993809Y-72644342D01*
X92993809Y-72644342D02*
X92946190Y-72739580D01*
X92946190Y-72739580D02*
X92898571Y-72787200D01*
X92898571Y-72787200D02*
X92803333Y-72834819D01*
X92803333Y-72834819D02*
X92422381Y-72834819D01*
X92422381Y-72834819D02*
X92422381Y-71834819D01*
X92422381Y-71834819D02*
X92755714Y-71834819D01*
X92755714Y-71834819D02*
X92850952Y-71882438D01*
X92850952Y-71882438D02*
X92898571Y-71930057D01*
X92898571Y-71930057D02*
X92946190Y-72025295D01*
X92946190Y-72025295D02*
X92946190Y-72120533D01*
X92946190Y-72120533D02*
X92898571Y-72215771D01*
X92898571Y-72215771D02*
X92850952Y-72263390D01*
X92850952Y-72263390D02*
X92755714Y-72311009D01*
X92755714Y-72311009D02*
X92422381Y-72311009D01*
X93374762Y-72549104D02*
X93850952Y-72549104D01*
X93279524Y-72834819D02*
X93612857Y-71834819D01*
X93612857Y-71834819D02*
X93946190Y-72834819D01*
X94136667Y-71834819D02*
X94708095Y-71834819D01*
X94422381Y-72834819D02*
X94422381Y-71834819D01*
X94898572Y-71834819D02*
X95470000Y-71834819D01*
X95184286Y-72834819D02*
X95184286Y-71834819D01*
X95803334Y-72453866D02*
X96565239Y-72453866D01*
X96184286Y-72834819D02*
X96184286Y-72072914D01*
X97565238Y-72834819D02*
X96993810Y-72834819D01*
X97279524Y-72834819D02*
X97279524Y-71834819D01*
X97279524Y-71834819D02*
X97184286Y-71977676D01*
X97184286Y-71977676D02*
X97089048Y-72072914D01*
X97089048Y-72072914D02*
X96993810Y-72120533D01*
X139588095Y-168927319D02*
X139588095Y-169736842D01*
X139588095Y-169736842D02*
X139635714Y-169832080D01*
X139635714Y-169832080D02*
X139683333Y-169879700D01*
X139683333Y-169879700D02*
X139778571Y-169927319D01*
X139778571Y-169927319D02*
X139969047Y-169927319D01*
X139969047Y-169927319D02*
X140064285Y-169879700D01*
X140064285Y-169879700D02*
X140111904Y-169832080D01*
X140111904Y-169832080D02*
X140159523Y-169736842D01*
X140159523Y-169736842D02*
X140159523Y-168927319D01*
X140540476Y-168927319D02*
X141159523Y-168927319D01*
X141159523Y-168927319D02*
X140826190Y-169308271D01*
X140826190Y-169308271D02*
X140969047Y-169308271D01*
X140969047Y-169308271D02*
X141064285Y-169355890D01*
X141064285Y-169355890D02*
X141111904Y-169403509D01*
X141111904Y-169403509D02*
X141159523Y-169498747D01*
X141159523Y-169498747D02*
X141159523Y-169736842D01*
X141159523Y-169736842D02*
X141111904Y-169832080D01*
X141111904Y-169832080D02*
X141064285Y-169879700D01*
X141064285Y-169879700D02*
X140969047Y-169927319D01*
X140969047Y-169927319D02*
X140683333Y-169927319D01*
X140683333Y-169927319D02*
X140588095Y-169879700D01*
X140588095Y-169879700D02*
X140540476Y-169832080D01*
X123323333Y-123219580D02*
X123275714Y-123267200D01*
X123275714Y-123267200D02*
X123132857Y-123314819D01*
X123132857Y-123314819D02*
X123037619Y-123314819D01*
X123037619Y-123314819D02*
X122894762Y-123267200D01*
X122894762Y-123267200D02*
X122799524Y-123171961D01*
X122799524Y-123171961D02*
X122751905Y-123076723D01*
X122751905Y-123076723D02*
X122704286Y-122886247D01*
X122704286Y-122886247D02*
X122704286Y-122743390D01*
X122704286Y-122743390D02*
X122751905Y-122552914D01*
X122751905Y-122552914D02*
X122799524Y-122457676D01*
X122799524Y-122457676D02*
X122894762Y-122362438D01*
X122894762Y-122362438D02*
X123037619Y-122314819D01*
X123037619Y-122314819D02*
X123132857Y-122314819D01*
X123132857Y-122314819D02*
X123275714Y-122362438D01*
X123275714Y-122362438D02*
X123323333Y-122410057D01*
X124228095Y-122314819D02*
X123751905Y-122314819D01*
X123751905Y-122314819D02*
X123704286Y-122791009D01*
X123704286Y-122791009D02*
X123751905Y-122743390D01*
X123751905Y-122743390D02*
X123847143Y-122695771D01*
X123847143Y-122695771D02*
X124085238Y-122695771D01*
X124085238Y-122695771D02*
X124180476Y-122743390D01*
X124180476Y-122743390D02*
X124228095Y-122791009D01*
X124228095Y-122791009D02*
X124275714Y-122886247D01*
X124275714Y-122886247D02*
X124275714Y-123124342D01*
X124275714Y-123124342D02*
X124228095Y-123219580D01*
X124228095Y-123219580D02*
X124180476Y-123267200D01*
X124180476Y-123267200D02*
X124085238Y-123314819D01*
X124085238Y-123314819D02*
X123847143Y-123314819D01*
X123847143Y-123314819D02*
X123751905Y-123267200D01*
X123751905Y-123267200D02*
X123704286Y-123219580D01*
X121368095Y-154397319D02*
X121368095Y-155206842D01*
X121368095Y-155206842D02*
X121415714Y-155302080D01*
X121415714Y-155302080D02*
X121463333Y-155349700D01*
X121463333Y-155349700D02*
X121558571Y-155397319D01*
X121558571Y-155397319D02*
X121749047Y-155397319D01*
X121749047Y-155397319D02*
X121844285Y-155349700D01*
X121844285Y-155349700D02*
X121891904Y-155302080D01*
X121891904Y-155302080D02*
X121939523Y-155206842D01*
X121939523Y-155206842D02*
X121939523Y-154397319D01*
X122558571Y-154825890D02*
X122463333Y-154778271D01*
X122463333Y-154778271D02*
X122415714Y-154730652D01*
X122415714Y-154730652D02*
X122368095Y-154635414D01*
X122368095Y-154635414D02*
X122368095Y-154587795D01*
X122368095Y-154587795D02*
X122415714Y-154492557D01*
X122415714Y-154492557D02*
X122463333Y-154444938D01*
X122463333Y-154444938D02*
X122558571Y-154397319D01*
X122558571Y-154397319D02*
X122749047Y-154397319D01*
X122749047Y-154397319D02*
X122844285Y-154444938D01*
X122844285Y-154444938D02*
X122891904Y-154492557D01*
X122891904Y-154492557D02*
X122939523Y-154587795D01*
X122939523Y-154587795D02*
X122939523Y-154635414D01*
X122939523Y-154635414D02*
X122891904Y-154730652D01*
X122891904Y-154730652D02*
X122844285Y-154778271D01*
X122844285Y-154778271D02*
X122749047Y-154825890D01*
X122749047Y-154825890D02*
X122558571Y-154825890D01*
X122558571Y-154825890D02*
X122463333Y-154873509D01*
X122463333Y-154873509D02*
X122415714Y-154921128D01*
X122415714Y-154921128D02*
X122368095Y-155016366D01*
X122368095Y-155016366D02*
X122368095Y-155206842D01*
X122368095Y-155206842D02*
X122415714Y-155302080D01*
X122415714Y-155302080D02*
X122463333Y-155349700D01*
X122463333Y-155349700D02*
X122558571Y-155397319D01*
X122558571Y-155397319D02*
X122749047Y-155397319D01*
X122749047Y-155397319D02*
X122844285Y-155349700D01*
X122844285Y-155349700D02*
X122891904Y-155302080D01*
X122891904Y-155302080D02*
X122939523Y-155206842D01*
X122939523Y-155206842D02*
X122939523Y-155016366D01*
X122939523Y-155016366D02*
X122891904Y-154921128D01*
X122891904Y-154921128D02*
X122844285Y-154873509D01*
X122844285Y-154873509D02*
X122749047Y-154825890D01*
X139177142Y-146359580D02*
X139129523Y-146407200D01*
X139129523Y-146407200D02*
X138986666Y-146454819D01*
X138986666Y-146454819D02*
X138891428Y-146454819D01*
X138891428Y-146454819D02*
X138748571Y-146407200D01*
X138748571Y-146407200D02*
X138653333Y-146311961D01*
X138653333Y-146311961D02*
X138605714Y-146216723D01*
X138605714Y-146216723D02*
X138558095Y-146026247D01*
X138558095Y-146026247D02*
X138558095Y-145883390D01*
X138558095Y-145883390D02*
X138605714Y-145692914D01*
X138605714Y-145692914D02*
X138653333Y-145597676D01*
X138653333Y-145597676D02*
X138748571Y-145502438D01*
X138748571Y-145502438D02*
X138891428Y-145454819D01*
X138891428Y-145454819D02*
X138986666Y-145454819D01*
X138986666Y-145454819D02*
X139129523Y-145502438D01*
X139129523Y-145502438D02*
X139177142Y-145550057D01*
X140129523Y-146454819D02*
X139558095Y-146454819D01*
X139843809Y-146454819D02*
X139843809Y-145454819D01*
X139843809Y-145454819D02*
X139748571Y-145597676D01*
X139748571Y-145597676D02*
X139653333Y-145692914D01*
X139653333Y-145692914D02*
X139558095Y-145740533D01*
X140462857Y-145454819D02*
X141081904Y-145454819D01*
X141081904Y-145454819D02*
X140748571Y-145835771D01*
X140748571Y-145835771D02*
X140891428Y-145835771D01*
X140891428Y-145835771D02*
X140986666Y-145883390D01*
X140986666Y-145883390D02*
X141034285Y-145931009D01*
X141034285Y-145931009D02*
X141081904Y-146026247D01*
X141081904Y-146026247D02*
X141081904Y-146264342D01*
X141081904Y-146264342D02*
X141034285Y-146359580D01*
X141034285Y-146359580D02*
X140986666Y-146407200D01*
X140986666Y-146407200D02*
X140891428Y-146454819D01*
X140891428Y-146454819D02*
X140605714Y-146454819D01*
X140605714Y-146454819D02*
X140510476Y-146407200D01*
X140510476Y-146407200D02*
X140462857Y-146359580D01*
X127903333Y-75789580D02*
X127855714Y-75837200D01*
X127855714Y-75837200D02*
X127712857Y-75884819D01*
X127712857Y-75884819D02*
X127617619Y-75884819D01*
X127617619Y-75884819D02*
X127474762Y-75837200D01*
X127474762Y-75837200D02*
X127379524Y-75741961D01*
X127379524Y-75741961D02*
X127331905Y-75646723D01*
X127331905Y-75646723D02*
X127284286Y-75456247D01*
X127284286Y-75456247D02*
X127284286Y-75313390D01*
X127284286Y-75313390D02*
X127331905Y-75122914D01*
X127331905Y-75122914D02*
X127379524Y-75027676D01*
X127379524Y-75027676D02*
X127474762Y-74932438D01*
X127474762Y-74932438D02*
X127617619Y-74884819D01*
X127617619Y-74884819D02*
X127712857Y-74884819D01*
X127712857Y-74884819D02*
X127855714Y-74932438D01*
X127855714Y-74932438D02*
X127903333Y-74980057D01*
X128236667Y-74884819D02*
X128903333Y-74884819D01*
X128903333Y-74884819D02*
X128474762Y-75884819D01*
X117488095Y-110457319D02*
X117488095Y-111266842D01*
X117488095Y-111266842D02*
X117535714Y-111362080D01*
X117535714Y-111362080D02*
X117583333Y-111409700D01*
X117583333Y-111409700D02*
X117678571Y-111457319D01*
X117678571Y-111457319D02*
X117869047Y-111457319D01*
X117869047Y-111457319D02*
X117964285Y-111409700D01*
X117964285Y-111409700D02*
X118011904Y-111362080D01*
X118011904Y-111362080D02*
X118059523Y-111266842D01*
X118059523Y-111266842D02*
X118059523Y-110457319D01*
X119011904Y-110457319D02*
X118535714Y-110457319D01*
X118535714Y-110457319D02*
X118488095Y-110933509D01*
X118488095Y-110933509D02*
X118535714Y-110885890D01*
X118535714Y-110885890D02*
X118630952Y-110838271D01*
X118630952Y-110838271D02*
X118869047Y-110838271D01*
X118869047Y-110838271D02*
X118964285Y-110885890D01*
X118964285Y-110885890D02*
X119011904Y-110933509D01*
X119011904Y-110933509D02*
X119059523Y-111028747D01*
X119059523Y-111028747D02*
X119059523Y-111266842D01*
X119059523Y-111266842D02*
X119011904Y-111362080D01*
X119011904Y-111362080D02*
X118964285Y-111409700D01*
X118964285Y-111409700D02*
X118869047Y-111457319D01*
X118869047Y-111457319D02*
X118630952Y-111457319D01*
X118630952Y-111457319D02*
X118535714Y-111409700D01*
X118535714Y-111409700D02*
X118488095Y-111362080D01*
X122967142Y-133479580D02*
X122919523Y-133527200D01*
X122919523Y-133527200D02*
X122776666Y-133574819D01*
X122776666Y-133574819D02*
X122681428Y-133574819D01*
X122681428Y-133574819D02*
X122538571Y-133527200D01*
X122538571Y-133527200D02*
X122443333Y-133431961D01*
X122443333Y-133431961D02*
X122395714Y-133336723D01*
X122395714Y-133336723D02*
X122348095Y-133146247D01*
X122348095Y-133146247D02*
X122348095Y-133003390D01*
X122348095Y-133003390D02*
X122395714Y-132812914D01*
X122395714Y-132812914D02*
X122443333Y-132717676D01*
X122443333Y-132717676D02*
X122538571Y-132622438D01*
X122538571Y-132622438D02*
X122681428Y-132574819D01*
X122681428Y-132574819D02*
X122776666Y-132574819D01*
X122776666Y-132574819D02*
X122919523Y-132622438D01*
X122919523Y-132622438D02*
X122967142Y-132670057D01*
X123919523Y-133574819D02*
X123348095Y-133574819D01*
X123633809Y-133574819D02*
X123633809Y-132574819D01*
X123633809Y-132574819D02*
X123538571Y-132717676D01*
X123538571Y-132717676D02*
X123443333Y-132812914D01*
X123443333Y-132812914D02*
X123348095Y-132860533D01*
X124538571Y-132574819D02*
X124633809Y-132574819D01*
X124633809Y-132574819D02*
X124729047Y-132622438D01*
X124729047Y-132622438D02*
X124776666Y-132670057D01*
X124776666Y-132670057D02*
X124824285Y-132765295D01*
X124824285Y-132765295D02*
X124871904Y-132955771D01*
X124871904Y-132955771D02*
X124871904Y-133193866D01*
X124871904Y-133193866D02*
X124824285Y-133384342D01*
X124824285Y-133384342D02*
X124776666Y-133479580D01*
X124776666Y-133479580D02*
X124729047Y-133527200D01*
X124729047Y-133527200D02*
X124633809Y-133574819D01*
X124633809Y-133574819D02*
X124538571Y-133574819D01*
X124538571Y-133574819D02*
X124443333Y-133527200D01*
X124443333Y-133527200D02*
X124395714Y-133479580D01*
X124395714Y-133479580D02*
X124348095Y-133384342D01*
X124348095Y-133384342D02*
X124300476Y-133193866D01*
X124300476Y-133193866D02*
X124300476Y-132955771D01*
X124300476Y-132955771D02*
X124348095Y-132765295D01*
X124348095Y-132765295D02*
X124395714Y-132670057D01*
X124395714Y-132670057D02*
X124443333Y-132622438D01*
X124443333Y-132622438D02*
X124538571Y-132574819D01*
X103934819Y-111886666D02*
X103458628Y-112219999D01*
X103934819Y-112458094D02*
X102934819Y-112458094D01*
X102934819Y-112458094D02*
X102934819Y-112077142D01*
X102934819Y-112077142D02*
X102982438Y-111981904D01*
X102982438Y-111981904D02*
X103030057Y-111934285D01*
X103030057Y-111934285D02*
X103125295Y-111886666D01*
X103125295Y-111886666D02*
X103268152Y-111886666D01*
X103268152Y-111886666D02*
X103363390Y-111934285D01*
X103363390Y-111934285D02*
X103411009Y-111981904D01*
X103411009Y-111981904D02*
X103458628Y-112077142D01*
X103458628Y-112077142D02*
X103458628Y-112458094D01*
X103030057Y-111505713D02*
X102982438Y-111458094D01*
X102982438Y-111458094D02*
X102934819Y-111362856D01*
X102934819Y-111362856D02*
X102934819Y-111124761D01*
X102934819Y-111124761D02*
X102982438Y-111029523D01*
X102982438Y-111029523D02*
X103030057Y-110981904D01*
X103030057Y-110981904D02*
X103125295Y-110934285D01*
X103125295Y-110934285D02*
X103220533Y-110934285D01*
X103220533Y-110934285D02*
X103363390Y-110981904D01*
X103363390Y-110981904D02*
X103934819Y-111553332D01*
X103934819Y-111553332D02*
X103934819Y-110934285D01*
X94698095Y-170494819D02*
X94698095Y-171304342D01*
X94698095Y-171304342D02*
X94745714Y-171399580D01*
X94745714Y-171399580D02*
X94793333Y-171447200D01*
X94793333Y-171447200D02*
X94888571Y-171494819D01*
X94888571Y-171494819D02*
X95079047Y-171494819D01*
X95079047Y-171494819D02*
X95174285Y-171447200D01*
X95174285Y-171447200D02*
X95221904Y-171399580D01*
X95221904Y-171399580D02*
X95269523Y-171304342D01*
X95269523Y-171304342D02*
X95269523Y-170494819D01*
X95650476Y-170494819D02*
X96317142Y-170494819D01*
X96317142Y-170494819D02*
X95888571Y-171494819D01*
X92341850Y-162948019D02*
X92341850Y-163186114D01*
X92103755Y-163090876D02*
X92341850Y-163186114D01*
X92341850Y-163186114D02*
X92579945Y-163090876D01*
X92198993Y-163376590D02*
X92341850Y-163186114D01*
X92341850Y-163186114D02*
X92484707Y-163376590D01*
X92896666Y-82604819D02*
X92896666Y-83319104D01*
X92896666Y-83319104D02*
X92849047Y-83461961D01*
X92849047Y-83461961D02*
X92753809Y-83557200D01*
X92753809Y-83557200D02*
X92610952Y-83604819D01*
X92610952Y-83604819D02*
X92515714Y-83604819D01*
X93372857Y-83604819D02*
X93372857Y-82604819D01*
X93372857Y-82604819D02*
X93753809Y-82604819D01*
X93753809Y-82604819D02*
X93849047Y-82652438D01*
X93849047Y-82652438D02*
X93896666Y-82700057D01*
X93896666Y-82700057D02*
X93944285Y-82795295D01*
X93944285Y-82795295D02*
X93944285Y-82938152D01*
X93944285Y-82938152D02*
X93896666Y-83033390D01*
X93896666Y-83033390D02*
X93849047Y-83081009D01*
X93849047Y-83081009D02*
X93753809Y-83128628D01*
X93753809Y-83128628D02*
X93372857Y-83128628D01*
X94277619Y-82604819D02*
X94896666Y-82604819D01*
X94896666Y-82604819D02*
X94563333Y-82985771D01*
X94563333Y-82985771D02*
X94706190Y-82985771D01*
X94706190Y-82985771D02*
X94801428Y-83033390D01*
X94801428Y-83033390D02*
X94849047Y-83081009D01*
X94849047Y-83081009D02*
X94896666Y-83176247D01*
X94896666Y-83176247D02*
X94896666Y-83414342D01*
X94896666Y-83414342D02*
X94849047Y-83509580D01*
X94849047Y-83509580D02*
X94801428Y-83557200D01*
X94801428Y-83557200D02*
X94706190Y-83604819D01*
X94706190Y-83604819D02*
X94420476Y-83604819D01*
X94420476Y-83604819D02*
X94325238Y-83557200D01*
X94325238Y-83557200D02*
X94277619Y-83509580D01*
X139467142Y-154109580D02*
X139419523Y-154157200D01*
X139419523Y-154157200D02*
X139276666Y-154204819D01*
X139276666Y-154204819D02*
X139181428Y-154204819D01*
X139181428Y-154204819D02*
X139038571Y-154157200D01*
X139038571Y-154157200D02*
X138943333Y-154061961D01*
X138943333Y-154061961D02*
X138895714Y-153966723D01*
X138895714Y-153966723D02*
X138848095Y-153776247D01*
X138848095Y-153776247D02*
X138848095Y-153633390D01*
X138848095Y-153633390D02*
X138895714Y-153442914D01*
X138895714Y-153442914D02*
X138943333Y-153347676D01*
X138943333Y-153347676D02*
X139038571Y-153252438D01*
X139038571Y-153252438D02*
X139181428Y-153204819D01*
X139181428Y-153204819D02*
X139276666Y-153204819D01*
X139276666Y-153204819D02*
X139419523Y-153252438D01*
X139419523Y-153252438D02*
X139467142Y-153300057D01*
X140419523Y-154204819D02*
X139848095Y-154204819D01*
X140133809Y-154204819D02*
X140133809Y-153204819D01*
X140133809Y-153204819D02*
X140038571Y-153347676D01*
X140038571Y-153347676D02*
X139943333Y-153442914D01*
X139943333Y-153442914D02*
X139848095Y-153490533D01*
X140800476Y-153300057D02*
X140848095Y-153252438D01*
X140848095Y-153252438D02*
X140943333Y-153204819D01*
X140943333Y-153204819D02*
X141181428Y-153204819D01*
X141181428Y-153204819D02*
X141276666Y-153252438D01*
X141276666Y-153252438D02*
X141324285Y-153300057D01*
X141324285Y-153300057D02*
X141371904Y-153395295D01*
X141371904Y-153395295D02*
X141371904Y-153490533D01*
X141371904Y-153490533D02*
X141324285Y-153633390D01*
X141324285Y-153633390D02*
X140752857Y-154204819D01*
X140752857Y-154204819D02*
X141371904Y-154204819D01*
X94510952Y-75794819D02*
X94034762Y-75794819D01*
X94034762Y-75794819D02*
X94034762Y-74794819D01*
X94844286Y-75271009D02*
X95177619Y-75271009D01*
X95320476Y-75794819D02*
X94844286Y-75794819D01*
X94844286Y-75794819D02*
X94844286Y-74794819D01*
X94844286Y-74794819D02*
X95320476Y-74794819D01*
X95749048Y-75794819D02*
X95749048Y-74794819D01*
X95749048Y-74794819D02*
X95987143Y-74794819D01*
X95987143Y-74794819D02*
X96130000Y-74842438D01*
X96130000Y-74842438D02*
X96225238Y-74937676D01*
X96225238Y-74937676D02*
X96272857Y-75032914D01*
X96272857Y-75032914D02*
X96320476Y-75223390D01*
X96320476Y-75223390D02*
X96320476Y-75366247D01*
X96320476Y-75366247D02*
X96272857Y-75556723D01*
X96272857Y-75556723D02*
X96225238Y-75651961D01*
X96225238Y-75651961D02*
X96130000Y-75747200D01*
X96130000Y-75747200D02*
X95987143Y-75794819D01*
X95987143Y-75794819D02*
X95749048Y-75794819D01*
X97272857Y-75794819D02*
X96701429Y-75794819D01*
X96987143Y-75794819D02*
X96987143Y-74794819D01*
X96987143Y-74794819D02*
X96891905Y-74937676D01*
X96891905Y-74937676D02*
X96796667Y-75032914D01*
X96796667Y-75032914D02*
X96701429Y-75080533D01*
X93406666Y-137324819D02*
X93406666Y-138039104D01*
X93406666Y-138039104D02*
X93359047Y-138181961D01*
X93359047Y-138181961D02*
X93263809Y-138277200D01*
X93263809Y-138277200D02*
X93120952Y-138324819D01*
X93120952Y-138324819D02*
X93025714Y-138324819D01*
X93882857Y-138324819D02*
X93882857Y-137324819D01*
X93882857Y-137324819D02*
X94263809Y-137324819D01*
X94263809Y-137324819D02*
X94359047Y-137372438D01*
X94359047Y-137372438D02*
X94406666Y-137420057D01*
X94406666Y-137420057D02*
X94454285Y-137515295D01*
X94454285Y-137515295D02*
X94454285Y-137658152D01*
X94454285Y-137658152D02*
X94406666Y-137753390D01*
X94406666Y-137753390D02*
X94359047Y-137801009D01*
X94359047Y-137801009D02*
X94263809Y-137848628D01*
X94263809Y-137848628D02*
X93882857Y-137848628D01*
X95311428Y-137658152D02*
X95311428Y-138324819D01*
X95073333Y-137277200D02*
X94835238Y-137991485D01*
X94835238Y-137991485D02*
X95454285Y-137991485D01*
X108614819Y-161532857D02*
X108138628Y-161866190D01*
X108614819Y-162104285D02*
X107614819Y-162104285D01*
X107614819Y-162104285D02*
X107614819Y-161723333D01*
X107614819Y-161723333D02*
X107662438Y-161628095D01*
X107662438Y-161628095D02*
X107710057Y-161580476D01*
X107710057Y-161580476D02*
X107805295Y-161532857D01*
X107805295Y-161532857D02*
X107948152Y-161532857D01*
X107948152Y-161532857D02*
X108043390Y-161580476D01*
X108043390Y-161580476D02*
X108091009Y-161628095D01*
X108091009Y-161628095D02*
X108138628Y-161723333D01*
X108138628Y-161723333D02*
X108138628Y-162104285D01*
X108614819Y-160580476D02*
X108614819Y-161151904D01*
X108614819Y-160866190D02*
X107614819Y-160866190D01*
X107614819Y-160866190D02*
X107757676Y-160961428D01*
X107757676Y-160961428D02*
X107852914Y-161056666D01*
X107852914Y-161056666D02*
X107900533Y-161151904D01*
X107948152Y-159723333D02*
X108614819Y-159723333D01*
X107567200Y-159961428D02*
X108281485Y-160199523D01*
X108281485Y-160199523D02*
X108281485Y-159580476D01*
X115704819Y-145058094D02*
X114704819Y-145058094D01*
X114704819Y-145058094D02*
X114704819Y-144819999D01*
X114704819Y-144819999D02*
X114752438Y-144677142D01*
X114752438Y-144677142D02*
X114847676Y-144581904D01*
X114847676Y-144581904D02*
X114942914Y-144534285D01*
X114942914Y-144534285D02*
X115133390Y-144486666D01*
X115133390Y-144486666D02*
X115276247Y-144486666D01*
X115276247Y-144486666D02*
X115466723Y-144534285D01*
X115466723Y-144534285D02*
X115561961Y-144581904D01*
X115561961Y-144581904D02*
X115657200Y-144677142D01*
X115657200Y-144677142D02*
X115704819Y-144819999D01*
X115704819Y-144819999D02*
X115704819Y-145058094D01*
X114800057Y-144105713D02*
X114752438Y-144058094D01*
X114752438Y-144058094D02*
X114704819Y-143962856D01*
X114704819Y-143962856D02*
X114704819Y-143724761D01*
X114704819Y-143724761D02*
X114752438Y-143629523D01*
X114752438Y-143629523D02*
X114800057Y-143581904D01*
X114800057Y-143581904D02*
X114895295Y-143534285D01*
X114895295Y-143534285D02*
X114990533Y-143534285D01*
X114990533Y-143534285D02*
X115133390Y-143581904D01*
X115133390Y-143581904D02*
X115704819Y-144153332D01*
X115704819Y-144153332D02*
X115704819Y-143534285D01*
X109234819Y-152711904D02*
X108234819Y-152711904D01*
X109234819Y-152140476D02*
X108663390Y-152569047D01*
X108234819Y-152140476D02*
X108806247Y-152711904D01*
X120411905Y-167969819D02*
X120411905Y-166969819D01*
X120411905Y-166969819D02*
X120792857Y-166969819D01*
X120792857Y-166969819D02*
X120888095Y-167017438D01*
X120888095Y-167017438D02*
X120935714Y-167065057D01*
X120935714Y-167065057D02*
X120983333Y-167160295D01*
X120983333Y-167160295D02*
X120983333Y-167303152D01*
X120983333Y-167303152D02*
X120935714Y-167398390D01*
X120935714Y-167398390D02*
X120888095Y-167446009D01*
X120888095Y-167446009D02*
X120792857Y-167493628D01*
X120792857Y-167493628D02*
X120411905Y-167493628D01*
X121364286Y-167065057D02*
X121411905Y-167017438D01*
X121411905Y-167017438D02*
X121507143Y-166969819D01*
X121507143Y-166969819D02*
X121745238Y-166969819D01*
X121745238Y-166969819D02*
X121840476Y-167017438D01*
X121840476Y-167017438D02*
X121888095Y-167065057D01*
X121888095Y-167065057D02*
X121935714Y-167160295D01*
X121935714Y-167160295D02*
X121935714Y-167255533D01*
X121935714Y-167255533D02*
X121888095Y-167398390D01*
X121888095Y-167398390D02*
X121316667Y-167969819D01*
X121316667Y-167969819D02*
X121935714Y-167969819D01*
X135784819Y-91958094D02*
X136594342Y-91958094D01*
X136594342Y-91958094D02*
X136689580Y-91910475D01*
X136689580Y-91910475D02*
X136737200Y-91862856D01*
X136737200Y-91862856D02*
X136784819Y-91767618D01*
X136784819Y-91767618D02*
X136784819Y-91577142D01*
X136784819Y-91577142D02*
X136737200Y-91481904D01*
X136737200Y-91481904D02*
X136689580Y-91434285D01*
X136689580Y-91434285D02*
X136594342Y-91386666D01*
X136594342Y-91386666D02*
X135784819Y-91386666D01*
X136737200Y-90958094D02*
X136784819Y-90815237D01*
X136784819Y-90815237D02*
X136784819Y-90577142D01*
X136784819Y-90577142D02*
X136737200Y-90481904D01*
X136737200Y-90481904D02*
X136689580Y-90434285D01*
X136689580Y-90434285D02*
X136594342Y-90386666D01*
X136594342Y-90386666D02*
X136499104Y-90386666D01*
X136499104Y-90386666D02*
X136403866Y-90434285D01*
X136403866Y-90434285D02*
X136356247Y-90481904D01*
X136356247Y-90481904D02*
X136308628Y-90577142D01*
X136308628Y-90577142D02*
X136261009Y-90767618D01*
X136261009Y-90767618D02*
X136213390Y-90862856D01*
X136213390Y-90862856D02*
X136165771Y-90910475D01*
X136165771Y-90910475D02*
X136070533Y-90958094D01*
X136070533Y-90958094D02*
X135975295Y-90958094D01*
X135975295Y-90958094D02*
X135880057Y-90910475D01*
X135880057Y-90910475D02*
X135832438Y-90862856D01*
X135832438Y-90862856D02*
X135784819Y-90767618D01*
X135784819Y-90767618D02*
X135784819Y-90529523D01*
X135784819Y-90529523D02*
X135832438Y-90386666D01*
X135641961Y-90672380D02*
X136927676Y-90672380D01*
X135784819Y-89529523D02*
X135784819Y-89719999D01*
X135784819Y-89719999D02*
X135832438Y-89815237D01*
X135832438Y-89815237D02*
X135880057Y-89862856D01*
X135880057Y-89862856D02*
X136022914Y-89958094D01*
X136022914Y-89958094D02*
X136213390Y-90005713D01*
X136213390Y-90005713D02*
X136594342Y-90005713D01*
X136594342Y-90005713D02*
X136689580Y-89958094D01*
X136689580Y-89958094D02*
X136737200Y-89910475D01*
X136737200Y-89910475D02*
X136784819Y-89815237D01*
X136784819Y-89815237D02*
X136784819Y-89624761D01*
X136784819Y-89624761D02*
X136737200Y-89529523D01*
X136737200Y-89529523D02*
X136689580Y-89481904D01*
X136689580Y-89481904D02*
X136594342Y-89434285D01*
X136594342Y-89434285D02*
X136356247Y-89434285D01*
X136356247Y-89434285D02*
X136261009Y-89481904D01*
X136261009Y-89481904D02*
X136213390Y-89529523D01*
X136213390Y-89529523D02*
X136165771Y-89624761D01*
X136165771Y-89624761D02*
X136165771Y-89815237D01*
X136165771Y-89815237D02*
X136213390Y-89910475D01*
X136213390Y-89910475D02*
X136261009Y-89958094D01*
X136261009Y-89958094D02*
X136356247Y-90005713D01*
X124194819Y-87169999D02*
X124432914Y-87169999D01*
X124337676Y-87408094D02*
X124432914Y-87169999D01*
X124432914Y-87169999D02*
X124337676Y-86931904D01*
X124623390Y-87312856D02*
X124432914Y-87169999D01*
X124432914Y-87169999D02*
X124623390Y-87027142D01*
X135901905Y-144228920D02*
X135901905Y-145038443D01*
X135901905Y-145038443D02*
X135949524Y-145133681D01*
X135949524Y-145133681D02*
X135997143Y-145181301D01*
X135997143Y-145181301D02*
X136092381Y-145228920D01*
X136092381Y-145228920D02*
X136282857Y-145228920D01*
X136282857Y-145228920D02*
X136378095Y-145181301D01*
X136378095Y-145181301D02*
X136425714Y-145133681D01*
X136425714Y-145133681D02*
X136473333Y-145038443D01*
X136473333Y-145038443D02*
X136473333Y-144228920D01*
X136901905Y-145181301D02*
X137044762Y-145228920D01*
X137044762Y-145228920D02*
X137282857Y-145228920D01*
X137282857Y-145228920D02*
X137378095Y-145181301D01*
X137378095Y-145181301D02*
X137425714Y-145133681D01*
X137425714Y-145133681D02*
X137473333Y-145038443D01*
X137473333Y-145038443D02*
X137473333Y-144943205D01*
X137473333Y-144943205D02*
X137425714Y-144847967D01*
X137425714Y-144847967D02*
X137378095Y-144800348D01*
X137378095Y-144800348D02*
X137282857Y-144752729D01*
X137282857Y-144752729D02*
X137092381Y-144705110D01*
X137092381Y-144705110D02*
X136997143Y-144657491D01*
X136997143Y-144657491D02*
X136949524Y-144609872D01*
X136949524Y-144609872D02*
X136901905Y-144514634D01*
X136901905Y-144514634D02*
X136901905Y-144419396D01*
X136901905Y-144419396D02*
X136949524Y-144324158D01*
X136949524Y-144324158D02*
X136997143Y-144276539D01*
X136997143Y-144276539D02*
X137092381Y-144228920D01*
X137092381Y-144228920D02*
X137330476Y-144228920D01*
X137330476Y-144228920D02*
X137473333Y-144276539D01*
X137187619Y-144086062D02*
X137187619Y-145371777D01*
X138330476Y-144562253D02*
X138330476Y-145228920D01*
X138092381Y-144181301D02*
X137854286Y-144895586D01*
X137854286Y-144895586D02*
X138473333Y-144895586D01*
X140670000Y-133762882D02*
X140670000Y-133524787D01*
X140908095Y-133620025D02*
X140670000Y-133524787D01*
X140670000Y-133524787D02*
X140431905Y-133620025D01*
X140812857Y-133334311D02*
X140670000Y-133524787D01*
X140670000Y-133524787D02*
X140527143Y-133334311D01*
X123373333Y-113199580D02*
X123325714Y-113247200D01*
X123325714Y-113247200D02*
X123182857Y-113294819D01*
X123182857Y-113294819D02*
X123087619Y-113294819D01*
X123087619Y-113294819D02*
X122944762Y-113247200D01*
X122944762Y-113247200D02*
X122849524Y-113151961D01*
X122849524Y-113151961D02*
X122801905Y-113056723D01*
X122801905Y-113056723D02*
X122754286Y-112866247D01*
X122754286Y-112866247D02*
X122754286Y-112723390D01*
X122754286Y-112723390D02*
X122801905Y-112532914D01*
X122801905Y-112532914D02*
X122849524Y-112437676D01*
X122849524Y-112437676D02*
X122944762Y-112342438D01*
X122944762Y-112342438D02*
X123087619Y-112294819D01*
X123087619Y-112294819D02*
X123182857Y-112294819D01*
X123182857Y-112294819D02*
X123325714Y-112342438D01*
X123325714Y-112342438D02*
X123373333Y-112390057D01*
X124230476Y-112294819D02*
X124040000Y-112294819D01*
X124040000Y-112294819D02*
X123944762Y-112342438D01*
X123944762Y-112342438D02*
X123897143Y-112390057D01*
X123897143Y-112390057D02*
X123801905Y-112532914D01*
X123801905Y-112532914D02*
X123754286Y-112723390D01*
X123754286Y-112723390D02*
X123754286Y-113104342D01*
X123754286Y-113104342D02*
X123801905Y-113199580D01*
X123801905Y-113199580D02*
X123849524Y-113247200D01*
X123849524Y-113247200D02*
X123944762Y-113294819D01*
X123944762Y-113294819D02*
X124135238Y-113294819D01*
X124135238Y-113294819D02*
X124230476Y-113247200D01*
X124230476Y-113247200D02*
X124278095Y-113199580D01*
X124278095Y-113199580D02*
X124325714Y-113104342D01*
X124325714Y-113104342D02*
X124325714Y-112866247D01*
X124325714Y-112866247D02*
X124278095Y-112771009D01*
X124278095Y-112771009D02*
X124230476Y-112723390D01*
X124230476Y-112723390D02*
X124135238Y-112675771D01*
X124135238Y-112675771D02*
X123944762Y-112675771D01*
X123944762Y-112675771D02*
X123849524Y-112723390D01*
X123849524Y-112723390D02*
X123801905Y-112771009D01*
X123801905Y-112771009D02*
X123754286Y-112866247D01*
X94753333Y-142059580D02*
X94705714Y-142107200D01*
X94705714Y-142107200D02*
X94562857Y-142154819D01*
X94562857Y-142154819D02*
X94467619Y-142154819D01*
X94467619Y-142154819D02*
X94324762Y-142107200D01*
X94324762Y-142107200D02*
X94229524Y-142011961D01*
X94229524Y-142011961D02*
X94181905Y-141916723D01*
X94181905Y-141916723D02*
X94134286Y-141726247D01*
X94134286Y-141726247D02*
X94134286Y-141583390D01*
X94134286Y-141583390D02*
X94181905Y-141392914D01*
X94181905Y-141392914D02*
X94229524Y-141297676D01*
X94229524Y-141297676D02*
X94324762Y-141202438D01*
X94324762Y-141202438D02*
X94467619Y-141154819D01*
X94467619Y-141154819D02*
X94562857Y-141154819D01*
X94562857Y-141154819D02*
X94705714Y-141202438D01*
X94705714Y-141202438D02*
X94753333Y-141250057D01*
X95229524Y-142154819D02*
X95420000Y-142154819D01*
X95420000Y-142154819D02*
X95515238Y-142107200D01*
X95515238Y-142107200D02*
X95562857Y-142059580D01*
X95562857Y-142059580D02*
X95658095Y-141916723D01*
X95658095Y-141916723D02*
X95705714Y-141726247D01*
X95705714Y-141726247D02*
X95705714Y-141345295D01*
X95705714Y-141345295D02*
X95658095Y-141250057D01*
X95658095Y-141250057D02*
X95610476Y-141202438D01*
X95610476Y-141202438D02*
X95515238Y-141154819D01*
X95515238Y-141154819D02*
X95324762Y-141154819D01*
X95324762Y-141154819D02*
X95229524Y-141202438D01*
X95229524Y-141202438D02*
X95181905Y-141250057D01*
X95181905Y-141250057D02*
X95134286Y-141345295D01*
X95134286Y-141345295D02*
X95134286Y-141583390D01*
X95134286Y-141583390D02*
X95181905Y-141678628D01*
X95181905Y-141678628D02*
X95229524Y-141726247D01*
X95229524Y-141726247D02*
X95324762Y-141773866D01*
X95324762Y-141773866D02*
X95515238Y-141773866D01*
X95515238Y-141773866D02*
X95610476Y-141726247D01*
X95610476Y-141726247D02*
X95658095Y-141678628D01*
X95658095Y-141678628D02*
X95705714Y-141583390D01*
X102823333Y-81724819D02*
X102490000Y-81248628D01*
X102251905Y-81724819D02*
X102251905Y-80724819D01*
X102251905Y-80724819D02*
X102632857Y-80724819D01*
X102632857Y-80724819D02*
X102728095Y-80772438D01*
X102728095Y-80772438D02*
X102775714Y-80820057D01*
X102775714Y-80820057D02*
X102823333Y-80915295D01*
X102823333Y-80915295D02*
X102823333Y-81058152D01*
X102823333Y-81058152D02*
X102775714Y-81153390D01*
X102775714Y-81153390D02*
X102728095Y-81201009D01*
X102728095Y-81201009D02*
X102632857Y-81248628D01*
X102632857Y-81248628D02*
X102251905Y-81248628D01*
X103775714Y-81724819D02*
X103204286Y-81724819D01*
X103490000Y-81724819D02*
X103490000Y-80724819D01*
X103490000Y-80724819D02*
X103394762Y-80867676D01*
X103394762Y-80867676D02*
X103299524Y-80962914D01*
X103299524Y-80962914D02*
X103204286Y-81010533D01*
X115474819Y-126128094D02*
X114474819Y-126128094D01*
X114474819Y-126128094D02*
X114474819Y-125889999D01*
X114474819Y-125889999D02*
X114522438Y-125747142D01*
X114522438Y-125747142D02*
X114617676Y-125651904D01*
X114617676Y-125651904D02*
X114712914Y-125604285D01*
X114712914Y-125604285D02*
X114903390Y-125556666D01*
X114903390Y-125556666D02*
X115046247Y-125556666D01*
X115046247Y-125556666D02*
X115236723Y-125604285D01*
X115236723Y-125604285D02*
X115331961Y-125651904D01*
X115331961Y-125651904D02*
X115427200Y-125747142D01*
X115427200Y-125747142D02*
X115474819Y-125889999D01*
X115474819Y-125889999D02*
X115474819Y-126128094D01*
X114474819Y-125223332D02*
X114474819Y-124604285D01*
X114474819Y-124604285D02*
X114855771Y-124937618D01*
X114855771Y-124937618D02*
X114855771Y-124794761D01*
X114855771Y-124794761D02*
X114903390Y-124699523D01*
X114903390Y-124699523D02*
X114951009Y-124651904D01*
X114951009Y-124651904D02*
X115046247Y-124604285D01*
X115046247Y-124604285D02*
X115284342Y-124604285D01*
X115284342Y-124604285D02*
X115379580Y-124651904D01*
X115379580Y-124651904D02*
X115427200Y-124699523D01*
X115427200Y-124699523D02*
X115474819Y-124794761D01*
X115474819Y-124794761D02*
X115474819Y-125080475D01*
X115474819Y-125080475D02*
X115427200Y-125175713D01*
X115427200Y-125175713D02*
X115379580Y-125223332D01*
X114374819Y-117441904D02*
X113374819Y-117441904D01*
X114374819Y-116870476D02*
X113803390Y-117299047D01*
X113374819Y-116870476D02*
X113946247Y-117441904D01*
X122028095Y-101684819D02*
X122028095Y-102494342D01*
X122028095Y-102494342D02*
X122075714Y-102589580D01*
X122075714Y-102589580D02*
X122123333Y-102637200D01*
X122123333Y-102637200D02*
X122218571Y-102684819D01*
X122218571Y-102684819D02*
X122409047Y-102684819D01*
X122409047Y-102684819D02*
X122504285Y-102637200D01*
X122504285Y-102637200D02*
X122551904Y-102589580D01*
X122551904Y-102589580D02*
X122599523Y-102494342D01*
X122599523Y-102494342D02*
X122599523Y-101684819D01*
X123504285Y-102018152D02*
X123504285Y-102684819D01*
X123266190Y-101637200D02*
X123028095Y-102351485D01*
X123028095Y-102351485D02*
X123647142Y-102351485D01*
%TO.C,U2*%
D12*
X99140000Y-89030000D02*
X103260000Y-89030000D01*
X99140000Y-89125000D02*
X99140000Y-89030000D01*
X99140000Y-94150000D02*
X99140000Y-94055000D01*
X103260000Y-89030000D02*
X103260000Y-89125000D01*
X103260000Y-94055000D02*
X103260000Y-94150000D01*
X103260000Y-94150000D02*
X99140000Y-94150000D01*
X98600000Y-89120000D02*
X98360000Y-88790000D01*
X98840000Y-88790000D01*
X98600000Y-89120000D01*
G36*
X98600000Y-89120000D02*
G01*
X98360000Y-88790000D01*
X98840000Y-88790000D01*
X98600000Y-89120000D01*
G37*
%TO.C,R16*%
X131620000Y-151107064D02*
X131620000Y-149652936D01*
X133440000Y-151107064D02*
X133440000Y-149652936D01*
%TO.C,JP7*%
X97060000Y-121000000D02*
X98440000Y-121000000D01*
X97060000Y-122380000D02*
X97060000Y-121000000D01*
X97060000Y-123650000D02*
X97060000Y-136460000D01*
X97060000Y-123650000D02*
X99820000Y-123650000D01*
X97060000Y-136460000D02*
X99820000Y-136460000D01*
X99820000Y-123650000D02*
X99820000Y-136460000D01*
%TO.C,P1*%
X106860000Y-168475000D02*
X108280000Y-168475000D01*
X106860000Y-180195000D02*
X106860000Y-168475000D01*
X108280000Y-168475000D02*
X108280000Y-172975000D01*
X108280000Y-172975000D02*
X110670000Y-172975000D01*
X109120000Y-168785000D02*
X109720000Y-168785000D01*
X109420000Y-169385000D02*
X109120000Y-168785000D01*
X109720000Y-168785000D02*
X109420000Y-169385000D01*
X110670000Y-180195000D02*
X106860000Y-180195000D01*
X110670000Y-180195000D02*
X114480000Y-180195000D01*
X113060000Y-168475000D02*
X113060000Y-172975000D01*
X113060000Y-172975000D02*
X110670000Y-172975000D01*
X114480000Y-168475000D02*
X113060000Y-168475000D01*
X114480000Y-180195000D02*
X114480000Y-168475000D01*
X109170000Y-174085000D02*
X109670000Y-174085000D01*
X109670000Y-179585000D01*
X109170000Y-179585000D01*
X109170000Y-174085000D01*
X111670000Y-174085000D02*
X112170000Y-174085000D01*
X112170000Y-179585000D01*
X111670000Y-179585000D01*
X111670000Y-174085000D01*
%TO.C,JP10*%
X96690000Y-108420000D02*
X98070000Y-108420000D01*
X96690000Y-109800000D02*
X96690000Y-108420000D01*
X96690000Y-111070000D02*
X96690000Y-116260000D01*
X96690000Y-111070000D02*
X99450000Y-111070000D01*
X96690000Y-116260000D02*
X99450000Y-116260000D01*
X99450000Y-111070000D02*
X99450000Y-116260000D01*
%TO.C,R12*%
X99447064Y-153760000D02*
X97992936Y-153760000D01*
X99447064Y-155580000D02*
X97992936Y-155580000D01*
%TO.C,R11*%
X126250000Y-157792936D02*
X126250000Y-159247064D01*
X128070000Y-157792936D02*
X128070000Y-159247064D01*
%TO.C,JP12*%
X133445000Y-97215000D02*
X134825000Y-97215000D01*
X133445000Y-98595000D02*
X133445000Y-97215000D01*
X133445000Y-99865000D02*
X133445000Y-105055000D01*
X133445000Y-99865000D02*
X136205000Y-99865000D01*
X133445000Y-105055000D02*
X136205000Y-105055000D01*
X136205000Y-99865000D02*
X136205000Y-105055000D01*
%TO.C,C8*%
X123380000Y-79604252D02*
X123380000Y-82435748D01*
X128600000Y-79604252D02*
X128600000Y-82435748D01*
%TO.C,U$5*%
D11*
X132737900Y-69488000D02*
X132737900Y-79775000D01*
X132737900Y-79775000D02*
X134477800Y-79775000D01*
X134477800Y-79775000D02*
X134477800Y-82264200D01*
X134477800Y-82264200D02*
X141742200Y-82264200D01*
X141742200Y-79775000D02*
X143482100Y-79775000D01*
X141742200Y-82264200D02*
X141742200Y-79775000D01*
X143482100Y-79775000D02*
X143482100Y-69488000D01*
%TO.C,JP11*%
D12*
X92820000Y-113610000D02*
X92820000Y-108420000D01*
X95580000Y-108420000D02*
X92820000Y-108420000D01*
X95580000Y-113610000D02*
X92820000Y-113610000D01*
X95580000Y-113610000D02*
X95580000Y-108420000D01*
X95580000Y-114880000D02*
X95580000Y-116260000D01*
X95580000Y-116260000D02*
X94200000Y-116260000D01*
%TO.C,JP2*%
X137345000Y-91775000D02*
X137345000Y-86635000D01*
X137345000Y-94375000D02*
X137345000Y-93045000D01*
X138675000Y-94375000D02*
X137345000Y-94375000D01*
X140005000Y-86635000D02*
X137345000Y-86635000D01*
X140005000Y-91775000D02*
X137345000Y-91775000D01*
X140005000Y-91775000D02*
X140005000Y-86635000D01*
%TO.C,BATT-1*%
X96770000Y-68040000D02*
X98150000Y-68040000D01*
X96770000Y-69420000D02*
X96770000Y-68040000D01*
X96770000Y-70690000D02*
X96770000Y-70800000D01*
X96770000Y-70690000D02*
X99530000Y-70690000D01*
X96770000Y-70800000D02*
X99530000Y-70800000D01*
X99530000Y-70690000D02*
X99530000Y-70800000D01*
%TO.C,D4*%
X102510000Y-148035000D02*
X107950000Y-148035000D01*
X102510000Y-148155000D02*
X107950000Y-148155000D01*
X102510000Y-148275000D02*
X107950000Y-148275000D01*
X105230000Y-139050000D02*
X105230000Y-139960000D01*
X105230000Y-150610000D02*
X105230000Y-149700000D01*
X102510000Y-139960000D02*
X107950000Y-139960000D01*
X107950000Y-149700000D01*
X102510000Y-149700000D01*
X102510000Y-139960000D01*
%TO.C,C11*%
X129414252Y-163450000D02*
X132245748Y-163450000D01*
X129414252Y-168670000D02*
X132245748Y-168670000D01*
%TO.C,JP6*%
X88970000Y-98360000D02*
X88970000Y-116200000D01*
X88970000Y-98360000D02*
X91630000Y-98360000D01*
X88970000Y-116200000D02*
X91630000Y-116200000D01*
X90300000Y-95760000D02*
X91630000Y-95760000D01*
X91630000Y-95760000D02*
X91630000Y-97090000D01*
X91630000Y-98360000D02*
X91630000Y-116200000D01*
%TO.C,LED2*%
X131635000Y-156375000D02*
X131635000Y-160260000D01*
X133905000Y-156375000D02*
X131635000Y-156375000D01*
X133905000Y-160260000D02*
X133905000Y-156375000D01*
%TO.C,U$3*%
D13*
X133671000Y-121044200D02*
X133671000Y-127495800D01*
X133671000Y-127495800D02*
X134036760Y-127495800D01*
X134405499Y-120561600D02*
X134405499Y-119389601D01*
X135294499Y-120561600D02*
X135294499Y-119389601D01*
X136528500Y-120053600D02*
X136528500Y-121044200D01*
X136528500Y-121044200D02*
X133671000Y-121044200D01*
X137671500Y-120053600D02*
X136528500Y-120053600D01*
X137671500Y-121044200D02*
X137671500Y-120053600D01*
X138905501Y-120561600D02*
X138905501Y-119389601D01*
X139794501Y-120561600D02*
X139794501Y-119389601D01*
X140163240Y-127495800D02*
X140529000Y-127495800D01*
X140529000Y-121044200D02*
X137671500Y-121044200D01*
X140529000Y-127495800D02*
X140529000Y-121044200D01*
%TO.C,R13*%
D12*
X92437064Y-153730000D02*
X90982936Y-153730000D01*
X92437064Y-155550000D02*
X90982936Y-155550000D01*
%TO.C,R15*%
X116545436Y-160155000D02*
X116999564Y-160155000D01*
X116545436Y-161625000D02*
X116999564Y-161625000D01*
%TO.C,JP5*%
X88780000Y-123690000D02*
X88780000Y-136450000D01*
X88780000Y-123690000D02*
X91440000Y-123690000D01*
X88780000Y-136450000D02*
X91440000Y-136450000D01*
X90110000Y-121090000D02*
X91440000Y-121090000D01*
X91440000Y-121090000D02*
X91440000Y-122420000D01*
X91440000Y-123690000D02*
X91440000Y-136450000D01*
%TO.C,U6*%
D13*
X110379400Y-79120200D02*
X110379400Y-79447860D01*
X110379400Y-94642140D02*
X110379400Y-94969800D01*
X110379400Y-94969800D02*
X118228000Y-94969800D01*
X118228000Y-79120200D02*
X110379400Y-79120200D01*
X118228000Y-79447860D02*
X118228000Y-79120200D01*
X118228000Y-94969800D02*
X118228000Y-94642140D01*
D14*
G36*
X108372800Y-91680500D02*
G01*
X108118800Y-91680500D01*
X108118800Y-91299500D01*
X108372800Y-91299500D01*
X108372800Y-91680500D01*
G37*
G36*
X120488600Y-85330500D02*
G01*
X120234600Y-85330500D01*
X120234600Y-84949500D01*
X120488600Y-84949500D01*
X120488600Y-85330500D01*
G37*
%TO.C,JP14*%
D12*
X141385000Y-99905000D02*
X141385000Y-105045000D01*
X141385000Y-99905000D02*
X144045000Y-99905000D01*
X141385000Y-105045000D02*
X144045000Y-105045000D01*
X142715000Y-97305000D02*
X144045000Y-97305000D01*
X144045000Y-97305000D02*
X144045000Y-98635000D01*
X144045000Y-99905000D02*
X144045000Y-105045000D01*
%TO.C,U1*%
D15*
X105910001Y-97770000D02*
X109910001Y-97770000D01*
X108109999Y-102770000D02*
X109910001Y-102770000D01*
%TO.C,JP13*%
D12*
X137405000Y-97255000D02*
X138785000Y-97255000D01*
X137405000Y-98635000D02*
X137405000Y-97255000D01*
X137405000Y-99905000D02*
X137405000Y-105095000D01*
X137405000Y-99905000D02*
X140165000Y-99905000D01*
X137405000Y-105095000D02*
X140165000Y-105095000D01*
X140165000Y-99905000D02*
X140165000Y-105095000D01*
%TO.C,D1*%
X105290000Y-119050000D02*
X105290000Y-119960000D01*
X105290000Y-130610000D02*
X105290000Y-129700000D01*
X108010000Y-121385000D02*
X102570000Y-121385000D01*
X108010000Y-121505000D02*
X102570000Y-121505000D01*
X108010000Y-121625000D02*
X102570000Y-121625000D01*
X102570000Y-119960000D02*
X108010000Y-119960000D01*
X108010000Y-129700000D01*
X102570000Y-129700000D01*
X102570000Y-119960000D01*
%TO.C,BATT+1*%
X92840000Y-68010000D02*
X94220000Y-68010000D01*
X92840000Y-69390000D02*
X92840000Y-68010000D01*
X92840000Y-70660000D02*
X92840000Y-70770000D01*
X92840000Y-70660000D02*
X95600000Y-70660000D01*
X92840000Y-70770000D02*
X95600000Y-70770000D01*
X95600000Y-70660000D02*
X95600000Y-70770000D01*
%TO.C,U3*%
X138290000Y-163512500D02*
X142410000Y-163512500D01*
X138290000Y-163607500D02*
X138290000Y-163512500D01*
X138290000Y-168632500D02*
X138290000Y-168537500D01*
X142410000Y-163512500D02*
X142410000Y-163607500D01*
X142410000Y-168537500D02*
X142410000Y-168632500D01*
X142410000Y-168632500D02*
X138290000Y-168632500D01*
X143190000Y-168872500D02*
X142710000Y-168872500D01*
X142950000Y-168542500D01*
X143190000Y-168872500D01*
G36*
X143190000Y-168872500D02*
G01*
X142710000Y-168872500D01*
X142950000Y-168542500D01*
X143190000Y-168872500D01*
G37*
%TO.C,C5*%
X122124252Y-123690000D02*
X124955748Y-123690000D01*
X122124252Y-128910000D02*
X124955748Y-128910000D01*
%TO.C,U8*%
X120070000Y-148982500D02*
X124190000Y-148982500D01*
X120070000Y-149077500D02*
X120070000Y-148982500D01*
X120070000Y-154102500D02*
X120070000Y-154007500D01*
X124190000Y-148982500D02*
X124190000Y-149077500D01*
X124190000Y-154007500D02*
X124190000Y-154102500D01*
X124190000Y-154102500D02*
X120070000Y-154102500D01*
X124970000Y-154342500D02*
X124490000Y-154342500D01*
X124730000Y-154012500D01*
X124970000Y-154342500D01*
G36*
X124970000Y-154342500D02*
G01*
X124490000Y-154342500D01*
X124730000Y-154012500D01*
X124970000Y-154342500D01*
G37*
%TO.C,C13*%
X138404252Y-147040000D02*
X141235748Y-147040000D01*
X138404252Y-152260000D02*
X141235748Y-152260000D01*
%TO.C,C7*%
X126474252Y-68940000D02*
X129305748Y-68940000D01*
X126474252Y-74160000D02*
X129305748Y-74160000D01*
%TO.C,U5*%
X116190000Y-105042500D02*
X120310000Y-105042500D01*
X116190000Y-105137500D02*
X116190000Y-105042500D01*
X116190000Y-110162500D02*
X116190000Y-110067500D01*
X120310000Y-105042500D02*
X120310000Y-105137500D01*
X120310000Y-110067500D02*
X120310000Y-110162500D01*
X120310000Y-110162500D02*
X116190000Y-110162500D01*
X121090000Y-110402500D02*
X120610000Y-110402500D01*
X120850000Y-110072500D01*
X121090000Y-110402500D01*
G36*
X121090000Y-110402500D02*
G01*
X120610000Y-110402500D01*
X120850000Y-110072500D01*
X121090000Y-110402500D01*
G37*
%TO.C,C10*%
X125035748Y-134290000D02*
X122204252Y-134290000D01*
X125035748Y-139510000D02*
X122204252Y-139510000D01*
%TO.C,R2*%
X104400000Y-112447064D02*
X104400000Y-110992936D01*
X106220000Y-112447064D02*
X106220000Y-110992936D01*
%TO.C,U7*%
D13*
X93199100Y-169716200D02*
X97440900Y-169716200D01*
X97440900Y-164483800D02*
X93199100Y-164483800D01*
%TO.C,JP3*%
D12*
X88830000Y-70660000D02*
X88830000Y-83420000D01*
X88830000Y-70660000D02*
X91490000Y-70660000D01*
X88830000Y-83420000D02*
X91490000Y-83420000D01*
X90160000Y-68060000D02*
X91490000Y-68060000D01*
X91490000Y-68060000D02*
X91490000Y-69390000D01*
X91490000Y-70660000D02*
X91490000Y-83420000D01*
%TO.C,C12*%
X138694252Y-154790000D02*
X141525748Y-154790000D01*
X138694252Y-160010000D02*
X141525748Y-160010000D01*
%TO.C,LED1*%
X93345000Y-76035000D02*
X93345000Y-78305000D01*
X93345000Y-78305000D02*
X97230000Y-78305000D01*
X97230000Y-76035000D02*
X93345000Y-76035000D01*
%TO.C,JP4*%
X92880000Y-121060000D02*
X94260000Y-121060000D01*
X92880000Y-122440000D02*
X92880000Y-121060000D01*
X92880000Y-123710000D02*
X92880000Y-136520000D01*
X92880000Y-123710000D02*
X95640000Y-123710000D01*
X92880000Y-136520000D02*
X95640000Y-136520000D01*
X95640000Y-123710000D02*
X95640000Y-136520000D01*
%TO.C,R14*%
X105420000Y-160162936D02*
X105420000Y-161617064D01*
X107240000Y-160162936D02*
X107240000Y-161617064D01*
%TO.C,D2*%
X108660000Y-148035000D02*
X114100000Y-148035000D01*
X108660000Y-148155000D02*
X114100000Y-148155000D01*
X108660000Y-148275000D02*
X114100000Y-148275000D01*
X111380000Y-139050000D02*
X111380000Y-139960000D01*
X111380000Y-150610000D02*
X111380000Y-149700000D01*
X108660000Y-139960000D02*
X114100000Y-139960000D01*
X114100000Y-149700000D01*
X108660000Y-149700000D01*
X108660000Y-139960000D01*
%TO.C,P2*%
X117340000Y-168615000D02*
X118760000Y-168615000D01*
X117340000Y-180335000D02*
X117340000Y-168615000D01*
X118760000Y-168615000D02*
X118760000Y-173115000D01*
X118760000Y-173115000D02*
X121150000Y-173115000D01*
X119600000Y-168925000D02*
X120200000Y-168925000D01*
X119900000Y-169525000D02*
X119600000Y-168925000D01*
X120200000Y-168925000D02*
X119900000Y-169525000D01*
X121150000Y-180335000D02*
X117340000Y-180335000D01*
X121150000Y-180335000D02*
X124960000Y-180335000D01*
X123540000Y-168615000D02*
X123540000Y-173115000D01*
X123540000Y-173115000D02*
X121150000Y-173115000D01*
X124960000Y-168615000D02*
X123540000Y-168615000D01*
X124960000Y-180335000D02*
X124960000Y-168615000D01*
X119650000Y-174225000D02*
X120150000Y-174225000D01*
X120150000Y-179725000D01*
X119650000Y-179725000D01*
X119650000Y-174225000D01*
X122150000Y-174225000D02*
X122650000Y-174225000D01*
X122650000Y-179725000D01*
X122150000Y-179725000D01*
X122150000Y-174225000D01*
%TO.C,U$6*%
D13*
X126419999Y-90118501D02*
X126419999Y-91261501D01*
X126419999Y-91261501D02*
X127410599Y-91261501D01*
X126927999Y-87995500D02*
X125756000Y-87995500D01*
X126927999Y-88884500D02*
X125756000Y-88884500D01*
X126927999Y-92495502D02*
X125756000Y-92495502D01*
X126927999Y-93384502D02*
X125756000Y-93384502D01*
X127410599Y-87261001D02*
X127410599Y-90118501D01*
X127410599Y-90118501D02*
X126419999Y-90118501D01*
X127410599Y-91261501D02*
X127410599Y-94119001D01*
X127410599Y-94119001D02*
X133862199Y-94119001D01*
X133862199Y-87261001D02*
X127410599Y-87261001D01*
X133862199Y-87626761D02*
X133862199Y-87261001D01*
X133862199Y-94119001D02*
X133862199Y-93753241D01*
%TO.C,U$4*%
X133721000Y-135888301D02*
X133721000Y-142339901D01*
X133721000Y-142339901D02*
X134086760Y-142339901D01*
X134455499Y-135405701D02*
X134455499Y-134233702D01*
X135344499Y-135405701D02*
X135344499Y-134233702D01*
X136578500Y-134897701D02*
X136578500Y-135888301D01*
X136578500Y-135888301D02*
X133721000Y-135888301D01*
X137721500Y-134897701D02*
X136578500Y-134897701D01*
X137721500Y-135888301D02*
X137721500Y-134897701D01*
X138955501Y-135405701D02*
X138955501Y-134233702D01*
X139844501Y-135405701D02*
X139844501Y-134233702D01*
X140213240Y-142339901D02*
X140579000Y-142339901D01*
X140579000Y-135888301D02*
X137721500Y-135888301D01*
X140579000Y-142339901D02*
X140579000Y-135888301D01*
%TO.C,C6*%
D12*
X122124252Y-113880000D02*
X124955748Y-113880000D01*
X122124252Y-119100000D02*
X124955748Y-119100000D01*
%TO.C,C9*%
X93504252Y-142740000D02*
X96335748Y-142740000D01*
X93504252Y-147960000D02*
X96335748Y-147960000D01*
%TO.C,R1*%
X103217064Y-78885000D02*
X102762936Y-78885000D01*
X103217064Y-80355000D02*
X102762936Y-80355000D01*
%TO.C,D3*%
X111320000Y-119020000D02*
X111320000Y-119930000D01*
X111320000Y-130580000D02*
X111320000Y-129670000D01*
X114040000Y-121355000D02*
X108600000Y-121355000D01*
X114040000Y-121475000D02*
X108600000Y-121475000D01*
X114040000Y-121595000D02*
X108600000Y-121595000D01*
X108600000Y-119930000D02*
X114040000Y-119930000D01*
X114040000Y-129670000D01*
X108600000Y-129670000D01*
X108600000Y-119930000D01*
%TO.C,U4*%
X120710000Y-96140000D02*
X124830000Y-96140000D01*
X120710000Y-96235000D02*
X120710000Y-96140000D01*
X120710000Y-101260000D02*
X120710000Y-101165000D01*
X124830000Y-96140000D02*
X124830000Y-96235000D01*
X124830000Y-101165000D02*
X124830000Y-101260000D01*
X124830000Y-101260000D02*
X120710000Y-101260000D01*
X120170000Y-96230000D02*
X119930000Y-95900000D01*
X120410000Y-95900000D01*
X120170000Y-96230000D01*
G36*
X120170000Y-96230000D02*
G01*
X119930000Y-95900000D01*
X120410000Y-95900000D01*
X120170000Y-96230000D01*
G37*
%TD*%
M02*
