%TF.GenerationSoftware,KiCad,Pcbnew,10.0.0*%
%TF.CreationDate,2026-04-10T01:19:07-06:00*%
%TF.ProjectId,stimbox_emg_combo,7374696d-626f-4785-9f65-6d675f636f6d,rev?*%
%TF.SameCoordinates,Original*%
%TF.FileFunction,Copper,L2,Bot*%
%TF.FilePolarity,Positive*%
%FSLAX46Y46*%
G04 Gerber Fmt 4.6, Leading zero omitted, Abs format (unit mm)*
G04 Created by KiCad (PCBNEW 10.0.0) date 2026-04-10 01:19:07*
%MOMM*%
%LPD*%
G01*
G04 APERTURE LIST*
G04 Aperture macros list*
%AMRoundRect*
0 Rectangle with rounded corners*
0 $1 Rounding radius*
0 $2 $3 $4 $5 $6 $7 $8 $9 X,Y pos of 4 corners*
0 Add a 4 corners polygon primitive as box body*
4,1,4,$2,$3,$4,$5,$6,$7,$8,$9,$2,$3,0*
0 Add four circle primitives for the rounded corners*
1,1,$1+$1,$2,$3*
1,1,$1+$1,$4,$5*
1,1,$1+$1,$6,$7*
1,1,$1+$1,$8,$9*
0 Add four rect primitives between the rounded corners*
20,1,$1+$1,$2,$3,$4,$5,0*
20,1,$1+$1,$4,$5,$6,$7,0*
20,1,$1+$1,$6,$7,$8,$9,0*
20,1,$1+$1,$8,$9,$2,$3,0*%
G04 Aperture macros list end*
%TA.AperFunction,ComponentPad*%
%ADD10R,1.700000X1.700000*%
%TD*%
%TA.AperFunction,ComponentPad*%
%ADD11C,1.700000*%
%TD*%
%TA.AperFunction,ComponentPad*%
%ADD12RoundRect,0.250000X-0.600000X-0.750000X0.600000X-0.750000X0.600000X0.750000X-0.600000X0.750000X0*%
%TD*%
%TA.AperFunction,ComponentPad*%
%ADD13O,1.700000X2.000000*%
%TD*%
%TA.AperFunction,ComponentPad*%
%ADD14C,2.540000*%
%TD*%
%TA.AperFunction,ComponentPad*%
%ADD15RoundRect,0.250000X1.350000X-1.350000X1.350000X1.350000X-1.350000X1.350000X-1.350000X-1.350000X0*%
%TD*%
%TA.AperFunction,ComponentPad*%
%ADD16C,3.200000*%
%TD*%
%TA.AperFunction,ComponentPad*%
%ADD17RoundRect,0.250000X-1.350000X1.350000X-1.350000X-1.350000X1.350000X-1.350000X1.350000X1.350000X0*%
%TD*%
%TA.AperFunction,SMDPad,CuDef*%
%ADD18RoundRect,0.250000X0.312500X0.625000X-0.312500X0.625000X-0.312500X-0.625000X0.312500X-0.625000X0*%
%TD*%
%TA.AperFunction,SMDPad,CuDef*%
%ADD19RoundRect,0.250000X-0.625000X0.312500X-0.625000X-0.312500X0.625000X-0.312500X0.625000X0.312500X0*%
%TD*%
%TA.AperFunction,SMDPad,CuDef*%
%ADD20R,1.320800X0.939800*%
%TD*%
%TA.AperFunction,SMDPad,CuDef*%
%ADD21R,6.299200X5.461000*%
%TD*%
%TA.AperFunction,SMDPad,CuDef*%
%ADD22RoundRect,0.250000X-0.650000X0.325000X-0.650000X-0.325000X0.650000X-0.325000X0.650000X0.325000X0*%
%TD*%
%TA.AperFunction,SMDPad,CuDef*%
%ADD23RoundRect,0.250000X0.625000X-0.312500X0.625000X0.312500X-0.625000X0.312500X-0.625000X-0.312500X0*%
%TD*%
%TA.AperFunction,ViaPad*%
%ADD24C,0.600000*%
%TD*%
%TA.AperFunction,Conductor*%
%ADD25C,0.200000*%
%TD*%
%TA.AperFunction,Conductor*%
%ADD26C,0.250000*%
%TD*%
G04 APERTURE END LIST*
D10*
%TO.P,JP7,1,Pin_1_1*%
%TO.N,/A1*%
X98440000Y-122380000D03*
D11*
%TO.P,JP7,2,Pin_2_2*%
X98440000Y-124920000D03*
%TO.P,JP7,3,Pin_3_3*%
X98440000Y-127460000D03*
%TO.P,JP7,4,Pin_4_4*%
%TO.N,/A2*%
X98440000Y-130000000D03*
%TO.P,JP7,5,Pin_5_5*%
X98440000Y-132540000D03*
%TO.P,JP7,6,Pin_6_6*%
X98440000Y-135080000D03*
%TD*%
D12*
%TO.P,P1,1,Pin_1_1*%
%TO.N,GND*%
X109420000Y-170885000D03*
D13*
%TO.P,P1,2,Pin_2_2*%
%TO.N,Net-(P1-Pin_2)*%
X111920000Y-170885000D03*
%TD*%
D10*
%TO.P,JP10,1,Pin_1_1*%
%TO.N,/SS*%
X98070000Y-109800000D03*
D11*
%TO.P,JP10,2,Pin_2_2*%
X98070000Y-112340000D03*
%TO.P,JP10,3,Pin_3_3*%
X98070000Y-114880000D03*
%TD*%
D10*
%TO.P,JP12,1,Pin_1_1*%
%TO.N,/SEMG*%
X134825000Y-98595000D03*
D11*
%TO.P,JP12,2,Pin_2_2*%
X134825000Y-101135000D03*
%TO.P,JP12,3,Pin_3_3*%
X134825000Y-103675000D03*
%TD*%
D14*
%TO.P,U$5,1,1_1*%
%TO.N,Net-(U$6-E)*%
X136014500Y-80740200D03*
%TO.P,U$5,2,2_2*%
%TO.N,Net-(U$7-C)*%
X140205500Y-80740200D03*
%TD*%
D10*
%TO.P,JP11,1,Pin_1_1*%
%TO.N,Net-(JP11-Pin_1)*%
X94200000Y-114880000D03*
D11*
%TO.P,JP11,2,Pin_2_2*%
%TO.N,Net-(JP11-Pin_2)*%
X94200000Y-112340000D03*
%TO.P,JP11,3,Pin_3_3*%
%TO.N,Net-(JP11-Pin_3)*%
X94200000Y-109800000D03*
%TD*%
D10*
%TO.P,JP2,1,Pin_1_1*%
%TO.N,Net-(JP2-Pin_1)*%
X138675000Y-93045000D03*
D11*
%TO.P,JP2,2,Pin_2_2*%
%TO.N,unconnected-(JP2-Pin_2-Pad2)*%
X138675000Y-90505000D03*
%TO.P,JP2,3,Pin_3_3*%
%TO.N,Net-(JP2-Pin_3)*%
X138675000Y-87965000D03*
%TD*%
D10*
%TO.P,BATT-1,1,Pin_1_1*%
%TO.N,GND*%
X98150000Y-69420000D03*
%TD*%
D15*
%TO.P,D4,1,K_1*%
%TO.N,Net-(D4-K)*%
X105230000Y-152450000D03*
D16*
%TO.P,D4,2,A_2*%
%TO.N,Net-(D1-K)*%
X105230000Y-137210000D03*
%TD*%
D10*
%TO.P,JP6,1,Pin_1_1*%
%TO.N,VCC*%
X90300000Y-97090000D03*
D11*
%TO.P,JP6,2,Pin_2_2*%
%TO.N,/SBEN*%
X90300000Y-99630000D03*
%TO.P,JP6,3,Pin_3_3*%
%TO.N,/SCK*%
X90300000Y-102170000D03*
%TO.P,JP6,4,Pin_4_4*%
%TO.N,unconnected-(JP6-Pin_4-Pad4)*%
X90300000Y-104710000D03*
%TO.P,JP6,5,Pin_5_5*%
%TO.N,/MOSI*%
X90300000Y-107250000D03*
%TO.P,JP6,6,Pin_6_6*%
%TO.N,Net-(JP11-Pin_3)*%
X90300000Y-109790000D03*
%TO.P,JP6,7,Pin_7_7*%
%TO.N,Net-(JP11-Pin_2)*%
X90300000Y-112330000D03*
%TO.P,JP6,8,Pin_8_8*%
%TO.N,Net-(JP11-Pin_1)*%
X90300000Y-114870000D03*
%TD*%
D10*
%TO.P,JP5,1,Pin_1_1*%
%TO.N,Net-(JP4-Pin_1)*%
X90110000Y-122420000D03*
D11*
%TO.P,JP5,2,Pin_2_2*%
%TO.N,Net-(JP4-Pin_2)*%
X90110000Y-124960000D03*
%TO.P,JP5,3,Pin_3_3*%
%TO.N,Net-(JP4-Pin_3)*%
X90110000Y-127500000D03*
%TO.P,JP5,4,Pin_4_4*%
%TO.N,Net-(JP4-Pin_4)*%
X90110000Y-130040000D03*
%TO.P,JP5,5,Pin_5_5*%
%TO.N,Net-(JP4-Pin_5)*%
X90110000Y-132580000D03*
%TO.P,JP5,6,Pin_6_6*%
%TO.N,Net-(JP4-Pin_6)*%
X90110000Y-135120000D03*
%TD*%
D10*
%TO.P,JP14,1,Pin_1_1*%
%TO.N,Net-(JP13-Pin_1)*%
X142715000Y-98635000D03*
D11*
%TO.P,JP14,2,Pin_2_2*%
%TO.N,Net-(JP13-Pin_2)*%
X142715000Y-101175000D03*
%TO.P,JP14,3,Pin_3_3*%
%TO.N,Net-(JP13-Pin_3)*%
X142715000Y-103715000D03*
%TD*%
D10*
%TO.P,JP13,1,Pin_1_1*%
%TO.N,Net-(JP13-Pin_1)*%
X138785000Y-98635000D03*
D11*
%TO.P,JP13,2,Pin_2_2*%
%TO.N,Net-(JP13-Pin_2)*%
X138785000Y-101175000D03*
%TO.P,JP13,3,Pin_3_3*%
%TO.N,Net-(JP13-Pin_3)*%
X138785000Y-103715000D03*
%TD*%
D17*
%TO.P,D1,1,K_1*%
%TO.N,Net-(D1-K)*%
X105290000Y-117210000D03*
D16*
%TO.P,D1,2,A_2*%
%TO.N,Net-(D1-A)*%
X105290000Y-132450000D03*
%TD*%
D10*
%TO.P,BATT+1,1,Pin_1_1*%
%TO.N,VCC*%
X94220000Y-69390000D03*
%TD*%
%TO.P,JP3,1,Pin_1_1*%
%TO.N,unconnected-(JP3-Pin_1-Pad1)*%
X90160000Y-69390000D03*
D11*
%TO.P,JP3,2,Pin_2_2*%
%TO.N,+3.3V*%
X90160000Y-71930000D03*
%TO.P,JP3,3,Pin_3_3*%
%TO.N,+5V*%
X90160000Y-74470000D03*
%TO.P,JP3,4,Pin_4_4*%
%TO.N,unconnected-(JP3-Pin_4-Pad4)*%
X90160000Y-77010000D03*
%TO.P,JP3,5,Pin_5_5*%
%TO.N,GND*%
X90160000Y-79550000D03*
%TO.P,JP3,6,Pin_6_6*%
%TO.N,unconnected-(JP3-Pin_6-Pad6)*%
X90160000Y-82090000D03*
%TD*%
D10*
%TO.P,JP4,1,Pin_1_1*%
%TO.N,Net-(JP4-Pin_1)*%
X94260000Y-122440000D03*
D11*
%TO.P,JP4,2,Pin_2_2*%
%TO.N,Net-(JP4-Pin_2)*%
X94260000Y-124980000D03*
%TO.P,JP4,3,Pin_3_3*%
%TO.N,Net-(JP4-Pin_3)*%
X94260000Y-127520000D03*
%TO.P,JP4,4,Pin_4_4*%
%TO.N,Net-(JP4-Pin_4)*%
X94260000Y-130060000D03*
%TO.P,JP4,5,Pin_5_5*%
%TO.N,Net-(JP4-Pin_5)*%
X94260000Y-132600000D03*
%TO.P,JP4,6,Pin_6_6*%
%TO.N,Net-(JP4-Pin_6)*%
X94260000Y-135140000D03*
%TD*%
D15*
%TO.P,D2,1,K_1*%
%TO.N,Net-(D2-K)*%
X111380000Y-152450000D03*
D16*
%TO.P,D2,2,A_2*%
%TO.N,Net-(D1-K)*%
X111380000Y-137210000D03*
%TD*%
D12*
%TO.P,P2,1,Pin_1_1*%
%TO.N,/VCC{slash}2*%
X119900000Y-171025000D03*
D13*
%TO.P,P2,2,Pin_2_2*%
%TO.N,Net-(P2-Pin_2)*%
X122400000Y-171025000D03*
%TD*%
D17*
%TO.P,D3,1,K_1*%
%TO.N,Net-(D1-K)*%
X111320000Y-117180000D03*
D16*
%TO.P,D3,2,A_2*%
%TO.N,Net-(D3-A)*%
X111320000Y-132420000D03*
%TD*%
D18*
%TO.P,R3,1*%
%TO.N,Net-(U$3-B)*%
X126152500Y-123830000D03*
%TO.P,R3,2*%
%TO.N,Net-(D3-A)*%
X123227500Y-123830000D03*
%TD*%
D19*
%TO.P,R9,1*%
%TO.N,Net-(U$3-E)*%
X118750000Y-122427500D03*
%TO.P,R9,2*%
%TO.N,Net-(U$3-B)*%
X118750000Y-125352500D03*
%TD*%
D20*
%TO.P,U$2,1,B_1*%
%TO.N,Net-(U$2-B)*%
X130218201Y-114160001D03*
D21*
%TO.P,U$2,2,C_2*%
%TO.N,Net-(U$2-C)*%
X137410000Y-111910000D03*
D20*
%TO.P,U$2,3,E_3*%
%TO.N,/V-*%
X130218201Y-109659999D03*
%TD*%
D19*
%TO.P,R5,1*%
%TO.N,Net-(D4-K)*%
X117600000Y-141767500D03*
%TO.P,R5,2*%
%TO.N,Net-(U$4-B)*%
X117600000Y-144692500D03*
%TD*%
%TO.P,R6,1*%
%TO.N,Net-(D2-K)*%
X123690000Y-135657500D03*
%TO.P,R6,2*%
%TO.N,Net-(U$2-B)*%
X123690000Y-138582500D03*
%TD*%
D22*
%TO.P,C1,1*%
%TO.N,Net-(U$1-B)*%
X118540000Y-128865000D03*
%TO.P,C1,2*%
%TO.N,Net-(U$2-B)*%
X118540000Y-131815000D03*
%TD*%
D19*
%TO.P,R4,1*%
%TO.N,Net-(U$1-B)*%
X125420000Y-128870000D03*
%TO.P,R4,2*%
%TO.N,Net-(D1-A)*%
X125420000Y-131795000D03*
%TD*%
D20*
%TO.P,U$1,1,B_1*%
%TO.N,Net-(U$1-B)*%
X103680500Y-100089999D03*
D21*
%TO.P,U$1,2,C_2*%
%TO.N,/V+*%
X96488701Y-102340000D03*
D20*
%TO.P,U$1,3,E_3*%
%TO.N,Net-(U$1-E)*%
X103680500Y-104590001D03*
%TD*%
%TO.P,U$7,1,B_1*%
%TO.N,/SBEN*%
X119530500Y-69699999D03*
D21*
%TO.P,U$7,2,C_2*%
%TO.N,Net-(U$7-C)*%
X112338701Y-71950000D03*
D20*
%TO.P,U$7,3,E_3*%
%TO.N,Net-(JP2-Pin_3)*%
X119530500Y-74200001D03*
%TD*%
D23*
%TO.P,R7,1*%
%TO.N,Net-(U$1-E)*%
X122000000Y-131812500D03*
%TO.P,R7,2*%
%TO.N,Net-(U$1-B)*%
X122000000Y-128887500D03*
%TD*%
%TO.P,R8,1*%
%TO.N,Net-(U$2-B)*%
X117790000Y-138542500D03*
%TO.P,R8,2*%
%TO.N,Net-(U$2-C)*%
X117790000Y-135617500D03*
%TD*%
%TO.P,R10,1*%
%TO.N,Net-(U$4-B)*%
X123900000Y-144662500D03*
%TO.P,R10,2*%
%TO.N,Net-(U$4-C)*%
X123900000Y-141737500D03*
%TD*%
D24*
%TO.N,Net-(P1-Pin_2)*%
X101380000Y-151450000D03*
%TO.N,/V-*%
X112870000Y-103940000D03*
X105320000Y-97010000D03*
%TO.N,/V+*%
X108520000Y-105170000D03*
X117080000Y-97260000D03*
X115620000Y-101800000D03*
X113610000Y-99630000D03*
%TO.N,Net-(U8--)*%
X132060000Y-153750000D03*
X138950000Y-161560000D03*
X127930000Y-153720000D03*
X135370000Y-165080000D03*
%TO.N,Net-(C12-Pad2)*%
X119550000Y-147100000D03*
X122730000Y-147070000D03*
%TO.N,/A1*%
X115830000Y-114520000D03*
%TO.N,/A2*%
X114330000Y-90000000D03*
%TO.N,GND*%
X122900000Y-104860000D03*
X93700000Y-171400000D03*
X142730000Y-136250000D03*
X99690000Y-171400000D03*
X128170000Y-135590000D03*
X124180000Y-102320000D03*
%TO.N,/SS*%
X96150000Y-88290000D03*
%TO.N,VCC*%
X124760000Y-111670000D03*
X102920000Y-166510000D03*
X126430000Y-170710000D03*
X112970000Y-108220000D03*
X124955000Y-161465000D03*
X103350000Y-156020000D03*
%TO.N,Net-(U3-+)*%
X124600000Y-165330000D03*
X140570000Y-172740000D03*
%TO.N,Net-(LED2-A)*%
X131040000Y-160010000D03*
X129010000Y-159950000D03*
%TO.N,Net-(U$7-C)*%
X122740000Y-86190000D03*
%TO.N,Net-(U$6-E)*%
X134060000Y-94730000D03*
%TO.N,Net-(JP2-Pin_3)*%
X131870000Y-85220000D03*
%TO.N,Net-(D1-K)*%
X113050000Y-100910000D03*
%TO.N,/SBEN*%
X121710000Y-70730000D03*
X103980000Y-96410000D03*
X122390000Y-92390000D03*
%TO.N,/SCK*%
X107680000Y-92520000D03*
X103890000Y-97270000D03*
X100570000Y-98080000D03*
%TO.N,/MOSI*%
X106900000Y-91550000D03*
X102839265Y-97240735D03*
%TO.N,Net-(U$3-B)*%
X131450000Y-116470000D03*
%TO.N,Net-(U$1-E)*%
X130620000Y-130030000D03*
X107930000Y-108090000D03*
X120290000Y-132840000D03*
%TO.N,Net-(U$3-E)*%
X121720000Y-121850000D03*
%TO.N,Net-(R15-Pad1)*%
X111130000Y-163830000D03*
X116360000Y-163800000D03*
%TO.N,+5V*%
X103910000Y-82370000D03*
X91100000Y-85040000D03*
%TO.N,/W1*%
X118060000Y-99140000D03*
X122390000Y-90360000D03*
%TO.N,/W2*%
X122250000Y-88440000D03*
X125720000Y-103580000D03*
%TO.N,Net-(D1-A)*%
X123730000Y-132470000D03*
%TO.N,/VCC{slash}2*%
X115280000Y-137930000D03*
X98800000Y-149680000D03*
%TO.N,Net-(U$4-C)*%
X127630000Y-141600000D03*
%TO.N,Net-(U$4-B)*%
X130600000Y-136470000D03*
%TO.N,Net-(U$2-C)*%
X142760000Y-130600000D03*
X130580000Y-134720000D03*
%TO.N,Net-(D3-A)*%
X115850000Y-131430000D03*
%TO.N,Net-(U$1-B)*%
X114110000Y-112990000D03*
X116750000Y-130220000D03*
%TD*%
%TO.N,Net-(P1-Pin_2)*%
D25*
X101380000Y-169900000D02*
X104970000Y-173490000D01*
X110410000Y-173490000D02*
X111920000Y-171980000D01*
X111920000Y-171980000D02*
X111920000Y-170885000D01*
X101380000Y-151450000D02*
X101380000Y-169900000D01*
X104970000Y-173490000D02*
X110410000Y-173490000D01*
%TO.N,/V-*%
X105320000Y-97010000D02*
X109998529Y-97010000D01*
X113650000Y-100661471D02*
X113650000Y-103160000D01*
X113650000Y-103160000D02*
X112870000Y-103940000D01*
X130218201Y-109659999D02*
X129269999Y-109659999D01*
X109998529Y-97010000D02*
X113650000Y-100661471D01*
X112950000Y-103860000D02*
X112870000Y-103940000D01*
X129269999Y-109659999D02*
X123470000Y-103860000D01*
X123470000Y-103860000D02*
X112950000Y-103860000D01*
%TO.N,/V+*%
X115980000Y-97260000D02*
X117080000Y-97260000D01*
X96488701Y-102340000D02*
X105690000Y-102340000D01*
X115620000Y-101800000D02*
X113610000Y-99790000D01*
X105690000Y-102340000D02*
X108520000Y-105170000D01*
X113610000Y-99790000D02*
X113610000Y-99630000D01*
X113610000Y-99630000D02*
X115980000Y-97260000D01*
%TO.N,Net-(U8--)*%
X135370000Y-165080000D02*
X138890000Y-161560000D01*
X132060000Y-153750000D02*
X132030000Y-153720000D01*
X138890000Y-161560000D02*
X138950000Y-161560000D01*
X132030000Y-153720000D02*
X127930000Y-153720000D01*
%TO.N,Net-(C12-Pad2)*%
X119580000Y-147070000D02*
X119550000Y-147100000D01*
X122730000Y-147070000D02*
X119580000Y-147070000D01*
%TO.N,/A1*%
X109604744Y-122380000D02*
X98440000Y-122380000D01*
X98440000Y-127460000D02*
X98440000Y-124920000D01*
X98440000Y-122380000D02*
X98440000Y-124920000D01*
X115830000Y-114520000D02*
X115830000Y-116154744D01*
X115830000Y-116154744D02*
X109604744Y-122380000D01*
%TO.N,/A2*%
X91450000Y-104233654D02*
X90776346Y-103560000D01*
X98440000Y-130000000D02*
X96920000Y-128480000D01*
X96920000Y-117656346D02*
X99220000Y-115356346D01*
X91450000Y-105080000D02*
X91450000Y-104233654D01*
X98440000Y-130000000D02*
X98440000Y-132540000D01*
X89150000Y-95940000D02*
X95090000Y-90000000D01*
X96920000Y-128480000D02*
X96920000Y-117656346D01*
X95090000Y-90000000D02*
X114330000Y-90000000D01*
X90776346Y-103560000D02*
X89930000Y-103560000D01*
X98440000Y-132540000D02*
X98440000Y-135080000D01*
X89930000Y-103560000D02*
X89150000Y-102780000D01*
X94420000Y-108050000D02*
X91450000Y-105080000D01*
X99220000Y-108650000D02*
X97485686Y-108650000D01*
X99220000Y-115356346D02*
X99220000Y-108650000D01*
X89150000Y-102780000D02*
X89150000Y-95940000D01*
X97485686Y-108650000D02*
X96885686Y-108050000D01*
X96885686Y-108050000D02*
X94420000Y-108050000D01*
%TO.N,GND*%
X124180000Y-102320000D02*
X124180000Y-103160000D01*
X124180000Y-103160000D02*
X125860000Y-104840000D01*
X142730000Y-136250000D02*
X143670000Y-135310000D01*
X131900000Y-104840000D02*
X131900000Y-110900000D01*
X143670000Y-133130000D02*
X134120000Y-133130000D01*
X143670000Y-135310000D02*
X143670000Y-133130000D01*
X128260000Y-135680000D02*
X128170000Y-135590000D01*
X128940000Y-110900000D02*
X122900000Y-104860000D01*
X131570000Y-135680000D02*
X128260000Y-135680000D01*
X99690000Y-171400000D02*
X93700000Y-171400000D01*
X131900000Y-110900000D02*
X128940000Y-110900000D01*
X125860000Y-104840000D02*
X131900000Y-104840000D01*
X134120000Y-133130000D02*
X131570000Y-135680000D01*
%TO.N,/SS*%
X98070000Y-114880000D02*
X98070000Y-112340000D01*
X88450000Y-95990000D02*
X88450000Y-108450000D01*
X98070000Y-109800000D02*
X98070000Y-112340000D01*
X88450000Y-108450000D02*
X96720000Y-108450000D01*
X96720000Y-108450000D02*
X98070000Y-109800000D01*
X96150000Y-88290000D02*
X88450000Y-95990000D01*
%TO.N,VCC*%
X114870000Y-111700000D02*
X112970000Y-109800000D01*
X102590736Y-97840735D02*
X102239265Y-97489264D01*
X102239265Y-97206421D02*
X102122844Y-97090000D01*
X103670000Y-97870000D02*
X103641471Y-97870000D01*
X112970000Y-107355686D02*
X111870000Y-106255685D01*
X112970000Y-108220000D02*
X112970000Y-107355686D01*
X114900000Y-111670000D02*
X114870000Y-111700000D01*
X109590000Y-105020000D02*
X109590000Y-103790000D01*
X102239265Y-97489264D02*
X102239265Y-97206421D01*
X102920000Y-156450000D02*
X103350000Y-156020000D01*
X103612206Y-97840735D02*
X102590736Y-97840735D01*
X103641471Y-97870000D02*
X103612206Y-97840735D01*
X102920000Y-166510000D02*
X102920000Y-156450000D01*
X112970000Y-109800000D02*
X112970000Y-108220000D01*
X109590000Y-103790000D02*
X103670000Y-97870000D01*
X124760000Y-111670000D02*
X114900000Y-111670000D01*
X102122844Y-97090000D02*
X90300000Y-97090000D01*
X126430000Y-170710000D02*
X126430000Y-162940000D01*
X111870000Y-106255685D02*
X110825685Y-106255685D01*
X110825685Y-106255685D02*
X109590000Y-105020000D01*
X126430000Y-162940000D02*
X124860000Y-161370000D01*
%TO.N,Net-(U3-+)*%
X124600000Y-171440000D02*
X125900000Y-172740000D01*
X124600000Y-165330000D02*
X124600000Y-171440000D01*
X125900000Y-172740000D02*
X140570000Y-172740000D01*
%TO.N,Net-(LED2-A)*%
X129010000Y-159950000D02*
X130980000Y-159950000D01*
X130980000Y-159950000D02*
X131040000Y-160010000D01*
%TO.N,Net-(U$7-C)*%
X121080000Y-84530000D02*
X122740000Y-86190000D01*
X121080000Y-78140000D02*
X121080000Y-84530000D01*
X114890000Y-71950000D02*
X121080000Y-78140000D01*
X112338701Y-71950000D02*
X114890000Y-71950000D01*
%TO.N,Net-(U$6-E)*%
X136014500Y-83724500D02*
X136014500Y-80740200D01*
X135730000Y-94730000D02*
X137240000Y-93220000D01*
X137240000Y-84950000D02*
X136014500Y-83724500D01*
X137240000Y-93220000D02*
X137240000Y-84950000D01*
X134060000Y-94730000D02*
X135730000Y-94730000D01*
%TO.N,Net-(JP11-Pin_1)*%
X90300000Y-114870000D02*
X94190000Y-114870000D01*
X94190000Y-114870000D02*
X94200000Y-114880000D01*
%TO.N,Net-(JP11-Pin_2)*%
X94190000Y-112330000D02*
X94200000Y-112340000D01*
X90300000Y-112330000D02*
X94190000Y-112330000D01*
%TO.N,Net-(JP11-Pin_3)*%
X94200000Y-109800000D02*
X90310000Y-109800000D01*
X90310000Y-109800000D02*
X90300000Y-109790000D01*
%TO.N,Net-(JP2-Pin_3)*%
X131870000Y-85220000D02*
X120850001Y-74200001D01*
X120850001Y-74200001D02*
X119530500Y-74200001D01*
%TO.N,Net-(D4-K)*%
X116070000Y-143297500D02*
X116070000Y-154120000D01*
X114460000Y-155730000D02*
X106680000Y-155730000D01*
X117600000Y-141767500D02*
X116070000Y-143297500D01*
X116070000Y-154120000D02*
X114460000Y-155730000D01*
X105230000Y-154280000D02*
X105230000Y-152450000D01*
X106680000Y-155730000D02*
X105230000Y-154280000D01*
%TO.N,Net-(D1-K)*%
X113050000Y-100910000D02*
X112270000Y-101690000D01*
X124950000Y-112660000D02*
X115840000Y-112660000D01*
X113910000Y-107730000D02*
X113910000Y-109810000D01*
X112270000Y-106090000D02*
X113910000Y-107730000D01*
X115840000Y-112660000D02*
X111320000Y-117180000D01*
X125110000Y-110880000D02*
X125900000Y-111670000D01*
X112270000Y-101690000D02*
X112270000Y-106090000D01*
X125900000Y-111670000D02*
X124950000Y-112620000D01*
X114980000Y-110880000D02*
X125110000Y-110880000D01*
X113910000Y-109810000D02*
X114980000Y-110880000D01*
X124950000Y-112620000D02*
X124950000Y-112660000D01*
%TO.N,/SBEN*%
X103980000Y-96410000D02*
X118370000Y-96410000D01*
X120679999Y-69699999D02*
X121710000Y-70730000D01*
X118370000Y-96410000D02*
X122390000Y-92390000D01*
X119530500Y-69699999D02*
X120679999Y-69699999D01*
%TO.N,/SCK*%
X107021471Y-92520000D02*
X103380000Y-96161471D01*
X103380000Y-96161471D02*
X103380000Y-96760000D01*
X107680000Y-92520000D02*
X107021471Y-92520000D01*
X100570000Y-98080000D02*
X93540000Y-98080000D01*
X93540000Y-98080000D02*
X90300000Y-101320000D01*
X90300000Y-101320000D02*
X90300000Y-102170000D01*
X103380000Y-96760000D02*
X103890000Y-97270000D01*
%TO.N,/MOSI*%
X102839265Y-97240735D02*
X102510000Y-96911470D01*
X102510000Y-95940000D02*
X106900000Y-91550000D01*
X102510000Y-96911470D02*
X102510000Y-95940000D01*
%TO.N,Net-(U$3-B)*%
X126152500Y-121767500D02*
X126152500Y-123830000D01*
X124977500Y-122655000D02*
X126152500Y-123830000D01*
X119982756Y-125352500D02*
X122680256Y-122655000D01*
X118750000Y-125352500D02*
X119982756Y-125352500D01*
X131450000Y-116470000D02*
X126152500Y-121767500D01*
X122680256Y-122655000D02*
X124977500Y-122655000D01*
%TO.N,Net-(U$1-E)*%
X127030000Y-133620000D02*
X123807500Y-133620000D01*
X130620000Y-130030000D02*
X127030000Y-133620000D01*
X122000000Y-131812500D02*
X120972500Y-132840000D01*
X123807500Y-133620000D02*
X122000000Y-131812500D01*
X104430001Y-104590001D02*
X103680500Y-104590001D01*
X107930000Y-108090000D02*
X104430001Y-104590001D01*
X120972500Y-132840000D02*
X120290000Y-132840000D01*
%TO.N,Net-(U$3-E)*%
X121142500Y-122427500D02*
X121720000Y-121850000D01*
X118750000Y-122427500D02*
X121142500Y-122427500D01*
%TO.N,Net-(R15-Pad1)*%
X111130000Y-163830000D02*
X116330000Y-163830000D01*
X116330000Y-163830000D02*
X116360000Y-163800000D01*
%TO.N,+5V*%
D26*
X101270000Y-85040000D02*
X91100000Y-85040000D01*
X103910000Y-82400000D02*
X101270000Y-85040000D01*
D25*
X103970000Y-82310000D02*
X104020000Y-82310000D01*
X103910000Y-82370000D02*
X103910000Y-82400000D01*
X103910000Y-82370000D02*
X103970000Y-82310000D01*
%TO.N,/W1*%
X122600000Y-90570000D02*
X122390000Y-90360000D01*
X118060000Y-97790000D02*
X123420000Y-92430000D01*
X118060000Y-99140000D02*
X118060000Y-97790000D01*
X123420000Y-92430000D02*
X123420000Y-90570000D01*
X123420000Y-90570000D02*
X122600000Y-90570000D01*
%TO.N,/W2*%
X125720000Y-91870000D02*
X122290000Y-88440000D01*
X125720000Y-103580000D02*
X125720000Y-91870000D01*
X122290000Y-88440000D02*
X122250000Y-88440000D01*
%TO.N,Net-(D1-A)*%
X124745000Y-132470000D02*
X125420000Y-131795000D01*
X123730000Y-132470000D02*
X124745000Y-132470000D01*
%TO.N,/VCC{slash}2*%
X98800000Y-149680000D02*
X103530000Y-149680000D01*
X103530000Y-149680000D02*
X115280000Y-137930000D01*
%TO.N,Net-(U$4-C)*%
X127492500Y-141737500D02*
X123900000Y-141737500D01*
X127630000Y-141600000D02*
X127492500Y-141737500D01*
%TO.N,Net-(D2-K)*%
X119410000Y-140210000D02*
X116330000Y-140210000D01*
X116330000Y-140210000D02*
X115460000Y-141080000D01*
X115460000Y-141080000D02*
X115460000Y-149870000D01*
X123690000Y-135930000D02*
X119410000Y-140210000D01*
X112880000Y-152450000D02*
X111380000Y-152450000D01*
X123690000Y-135657500D02*
X123690000Y-135930000D01*
X115460000Y-149870000D02*
X112880000Y-152450000D01*
%TO.N,Net-(U$4-B)*%
X123900000Y-144662500D02*
X117630000Y-144662500D01*
X130600000Y-140730000D02*
X126667500Y-144662500D01*
X117630000Y-144662500D02*
X117600000Y-144692500D01*
X130600000Y-136470000D02*
X130600000Y-140730000D01*
X126667500Y-144662500D02*
X123900000Y-144662500D01*
%TO.N,Net-(U$2-C)*%
X130580000Y-134720000D02*
X129950000Y-134090000D01*
X142820000Y-114570000D02*
X142820000Y-130540000D01*
X119317500Y-134090000D02*
X117790000Y-135617500D01*
X137410000Y-111910000D02*
X140160000Y-111910000D01*
X140160000Y-111910000D02*
X142820000Y-114570000D01*
X129950000Y-134090000D02*
X119317500Y-134090000D01*
X142820000Y-130540000D02*
X142760000Y-130600000D01*
%TO.N,Net-(D3-A)*%
X115850000Y-131430000D02*
X115850000Y-129795256D01*
X119430256Y-126215000D02*
X120842500Y-126215000D01*
X120842500Y-126215000D02*
X123227500Y-123830000D01*
X115850000Y-129795256D02*
X119430256Y-126215000D01*
%TO.N,Net-(U$2-B)*%
X121612500Y-134720000D02*
X125250000Y-134720000D01*
X117790000Y-138542500D02*
X117767500Y-138520000D01*
X118699999Y-114160001D02*
X114860000Y-118000000D01*
X126030000Y-135560000D02*
X126030000Y-136242500D01*
X125250000Y-134720000D02*
X126060000Y-135530000D01*
X126060000Y-135530000D02*
X126030000Y-135560000D01*
X116615000Y-133740000D02*
X116615000Y-137367500D01*
X114860000Y-118000000D02*
X114860000Y-131985000D01*
X117790000Y-138542500D02*
X121612500Y-134720000D01*
X118540000Y-131815000D02*
X116615000Y-133740000D01*
X114860000Y-131985000D02*
X116615000Y-133740000D01*
X116615000Y-137367500D02*
X117790000Y-138542500D01*
X126030000Y-136242500D02*
X123690000Y-138582500D01*
X130218201Y-114160001D02*
X118699999Y-114160001D01*
%TO.N,Net-(U$1-B)*%
X104288528Y-100089999D02*
X109190000Y-104991471D01*
X122017500Y-128870000D02*
X122000000Y-128887500D01*
X109190000Y-108070000D02*
X114110000Y-112990000D01*
X117185000Y-130220000D02*
X118540000Y-128865000D01*
X121977500Y-128865000D02*
X122000000Y-128887500D01*
X103680500Y-100089999D02*
X104288528Y-100089999D01*
X109190000Y-104991471D02*
X109190000Y-108070000D01*
X118540000Y-128865000D02*
X121977500Y-128865000D01*
X116750000Y-130220000D02*
X117185000Y-130220000D01*
X125420000Y-128870000D02*
X122017500Y-128870000D01*
%TD*%
%TA.AperFunction,Conductor*%
%TO.N,GND*%
G36*
X144432539Y-67420185D02*
G01*
X144478294Y-67472989D01*
X144489500Y-67524500D01*
X144489500Y-180575500D01*
X144469815Y-180642539D01*
X144417011Y-180688294D01*
X144365500Y-180699500D01*
X88462306Y-180699500D01*
X88395267Y-180679815D01*
X88349512Y-180627011D01*
X88338306Y-180575500D01*
X88338306Y-151371153D01*
X100579500Y-151371153D01*
X100579500Y-151528846D01*
X100610261Y-151683489D01*
X100610264Y-151683501D01*
X100670602Y-151829172D01*
X100670609Y-151829185D01*
X100758602Y-151960874D01*
X100779480Y-152027551D01*
X100779500Y-152029765D01*
X100779500Y-169813330D01*
X100779499Y-169813348D01*
X100779499Y-169979054D01*
X100779498Y-169979054D01*
X100780370Y-169982309D01*
X100820007Y-170130234D01*
X100820423Y-170131784D01*
X100820424Y-170131787D01*
X100824225Y-170138370D01*
X100824226Y-170138372D01*
X100899477Y-170268712D01*
X100899481Y-170268717D01*
X101018349Y-170387585D01*
X101018354Y-170387589D01*
X104601284Y-173970520D01*
X104601286Y-173970521D01*
X104601290Y-173970524D01*
X104738209Y-174049573D01*
X104738216Y-174049577D01*
X104890943Y-174090501D01*
X104890945Y-174090501D01*
X105056654Y-174090501D01*
X105056670Y-174090500D01*
X110323331Y-174090500D01*
X110323347Y-174090501D01*
X110330943Y-174090501D01*
X110489054Y-174090501D01*
X110489057Y-174090501D01*
X110641785Y-174049577D01*
X110691904Y-174020639D01*
X110778716Y-173970520D01*
X110890520Y-173858716D01*
X110890520Y-173858714D01*
X110900728Y-173848507D01*
X110900730Y-173848504D01*
X112288713Y-172460521D01*
X112288716Y-172460520D01*
X112400520Y-172348716D01*
X112423665Y-172308624D01*
X112432287Y-172299014D01*
X112451455Y-172287155D01*
X112467769Y-172271599D01*
X112467832Y-172271566D01*
X112627816Y-172190051D01*
X112697394Y-172139500D01*
X112799786Y-172065109D01*
X112799788Y-172065106D01*
X112799792Y-172065104D01*
X112950104Y-171914792D01*
X112950106Y-171914788D01*
X112950109Y-171914786D01*
X113075048Y-171742820D01*
X113075047Y-171742820D01*
X113075051Y-171742816D01*
X113171557Y-171553412D01*
X113237246Y-171351243D01*
X113270500Y-171141287D01*
X113270500Y-170628713D01*
X113237246Y-170418757D01*
X113188495Y-170268717D01*
X113185712Y-170260152D01*
X113174287Y-170224991D01*
X113174284Y-170224983D01*
X118549500Y-170224983D01*
X118549500Y-171825001D01*
X118549501Y-171825018D01*
X118560000Y-171927796D01*
X118560001Y-171927799D01*
X118615185Y-172094331D01*
X118615187Y-172094336D01*
X118630903Y-172119815D01*
X118707288Y-172243656D01*
X118831344Y-172367712D01*
X118980666Y-172459814D01*
X119147203Y-172514999D01*
X119249991Y-172525500D01*
X120550008Y-172525499D01*
X120652797Y-172514999D01*
X120819334Y-172459814D01*
X120968656Y-172367712D01*
X121092712Y-172243656D01*
X121184814Y-172094334D01*
X121184814Y-172094331D01*
X121188178Y-172088879D01*
X121240126Y-172042154D01*
X121309088Y-172030931D01*
X121373170Y-172058774D01*
X121381398Y-172066294D01*
X121520213Y-172205109D01*
X121692179Y-172330048D01*
X121692181Y-172330049D01*
X121692184Y-172330051D01*
X121881588Y-172426557D01*
X122083757Y-172492246D01*
X122293713Y-172525500D01*
X122293714Y-172525500D01*
X122506286Y-172525500D01*
X122506287Y-172525500D01*
X122716243Y-172492246D01*
X122918412Y-172426557D01*
X123107816Y-172330051D01*
X123150535Y-172299014D01*
X123279786Y-172205109D01*
X123279788Y-172205106D01*
X123279792Y-172205104D01*
X123430104Y-172054792D01*
X123430106Y-172054788D01*
X123430109Y-172054786D01*
X123555048Y-171882820D01*
X123555047Y-171882820D01*
X123555051Y-171882816D01*
X123651557Y-171693412D01*
X123717246Y-171491243D01*
X123750500Y-171281287D01*
X123750500Y-170768713D01*
X123717246Y-170558757D01*
X123651557Y-170356588D01*
X123555051Y-170167184D01*
X123555049Y-170167181D01*
X123555048Y-170167179D01*
X123430109Y-169995213D01*
X123279786Y-169844890D01*
X123107820Y-169719951D01*
X122918414Y-169623444D01*
X122918413Y-169623443D01*
X122918412Y-169623443D01*
X122716243Y-169557754D01*
X122716241Y-169557753D01*
X122716240Y-169557753D01*
X122554957Y-169532208D01*
X122506287Y-169524500D01*
X122293713Y-169524500D01*
X122245042Y-169532208D01*
X122083760Y-169557753D01*
X121881585Y-169623444D01*
X121692179Y-169719951D01*
X121520215Y-169844889D01*
X121381398Y-169983706D01*
X121320075Y-170017190D01*
X121250383Y-170012206D01*
X121194450Y-169970334D01*
X121188178Y-169961120D01*
X121092712Y-169806344D01*
X120968657Y-169682289D01*
X120968656Y-169682288D01*
X120873253Y-169623443D01*
X120819336Y-169590187D01*
X120819331Y-169590185D01*
X120788447Y-169579951D01*
X120652797Y-169535001D01*
X120652795Y-169535000D01*
X120550010Y-169524500D01*
X119249998Y-169524500D01*
X119249981Y-169524501D01*
X119147203Y-169535000D01*
X119147200Y-169535001D01*
X118980668Y-169590185D01*
X118980663Y-169590187D01*
X118831342Y-169682289D01*
X118707289Y-169806342D01*
X118615187Y-169955663D01*
X118615185Y-169955668D01*
X118606357Y-169982309D01*
X118560001Y-170122203D01*
X118560001Y-170122204D01*
X118560000Y-170122204D01*
X118549500Y-170224983D01*
X113174284Y-170224983D01*
X113171557Y-170216588D01*
X113171555Y-170216585D01*
X113171555Y-170216583D01*
X113075048Y-170027179D01*
X112950109Y-169855213D01*
X112799786Y-169704890D01*
X112627820Y-169579951D01*
X112438414Y-169483444D01*
X112438413Y-169483443D01*
X112438412Y-169483443D01*
X112236243Y-169417754D01*
X112236241Y-169417753D01*
X112236240Y-169417753D01*
X112074957Y-169392208D01*
X112026287Y-169384500D01*
X111813713Y-169384500D01*
X111765042Y-169392208D01*
X111603760Y-169417753D01*
X111401585Y-169483444D01*
X111212179Y-169579951D01*
X111040215Y-169704889D01*
X110901035Y-169844069D01*
X110839712Y-169877553D01*
X110770020Y-169872569D01*
X110714087Y-169830697D01*
X110707815Y-169821484D01*
X110612315Y-169666654D01*
X110488345Y-169542684D01*
X110339124Y-169450643D01*
X110339119Y-169450641D01*
X110172697Y-169395494D01*
X110172690Y-169395493D01*
X110069986Y-169385000D01*
X109670000Y-169385000D01*
X109670000Y-170451988D01*
X109612993Y-170419075D01*
X109485826Y-170385000D01*
X109354174Y-170385000D01*
X109227007Y-170419075D01*
X109170000Y-170451988D01*
X109170000Y-169385000D01*
X108770028Y-169385000D01*
X108770012Y-169385001D01*
X108667302Y-169395494D01*
X108500880Y-169450641D01*
X108500875Y-169450643D01*
X108351654Y-169542684D01*
X108227684Y-169666654D01*
X108135643Y-169815875D01*
X108135641Y-169815880D01*
X108080494Y-169982302D01*
X108080493Y-169982309D01*
X108070000Y-170085013D01*
X108070000Y-170635000D01*
X108986988Y-170635000D01*
X108954075Y-170692007D01*
X108920000Y-170819174D01*
X108920000Y-170950826D01*
X108954075Y-171077993D01*
X108986988Y-171135000D01*
X108070001Y-171135000D01*
X108070001Y-171684986D01*
X108080494Y-171787697D01*
X108135641Y-171954119D01*
X108135643Y-171954124D01*
X108227684Y-172103345D01*
X108351654Y-172227315D01*
X108500875Y-172319356D01*
X108500880Y-172319358D01*
X108667302Y-172374505D01*
X108667309Y-172374506D01*
X108770019Y-172384999D01*
X109169999Y-172384999D01*
X109170000Y-172384998D01*
X109170000Y-171318012D01*
X109227007Y-171350925D01*
X109354174Y-171385000D01*
X109485826Y-171385000D01*
X109612993Y-171350925D01*
X109670000Y-171318012D01*
X109670000Y-172384999D01*
X110069972Y-172384999D01*
X110069986Y-172384998D01*
X110172697Y-172374505D01*
X110339119Y-172319358D01*
X110339124Y-172319356D01*
X110459914Y-172244852D01*
X110527306Y-172226412D01*
X110593970Y-172247334D01*
X110638740Y-172300976D01*
X110647401Y-172370307D01*
X110617205Y-172433315D01*
X110612692Y-172438072D01*
X110197584Y-172853181D01*
X110136261Y-172886666D01*
X110109903Y-172889500D01*
X105270098Y-172889500D01*
X105203059Y-172869815D01*
X105182417Y-172853181D01*
X102016819Y-169687583D01*
X101983334Y-169626260D01*
X101980500Y-169599902D01*
X101980500Y-166953575D01*
X102000185Y-166886536D01*
X102052989Y-166840781D01*
X102122147Y-166830837D01*
X102185703Y-166859862D01*
X102207602Y-166884684D01*
X102298210Y-167020288D01*
X102298213Y-167020292D01*
X102409707Y-167131786D01*
X102409711Y-167131789D01*
X102540814Y-167219390D01*
X102540827Y-167219397D01*
X102686498Y-167279735D01*
X102686503Y-167279737D01*
X102841153Y-167310499D01*
X102841156Y-167310500D01*
X102841158Y-167310500D01*
X102998844Y-167310500D01*
X102998845Y-167310499D01*
X103153497Y-167279737D01*
X103299179Y-167219394D01*
X103430289Y-167131789D01*
X103541789Y-167020289D01*
X103629394Y-166889179D01*
X103689737Y-166743497D01*
X103720500Y-166588842D01*
X103720500Y-166431158D01*
X103720500Y-166431155D01*
X103720499Y-166431153D01*
X103689738Y-166276510D01*
X103689737Y-166276503D01*
X103653421Y-166188827D01*
X103629397Y-166130827D01*
X103629390Y-166130814D01*
X103541398Y-165999125D01*
X103520520Y-165932447D01*
X103520500Y-165930234D01*
X103520500Y-165251153D01*
X123799500Y-165251153D01*
X123799500Y-165408846D01*
X123830261Y-165563489D01*
X123830264Y-165563501D01*
X123890602Y-165709172D01*
X123890609Y-165709185D01*
X123978602Y-165840874D01*
X123999480Y-165907551D01*
X123999500Y-165909765D01*
X123999500Y-171353330D01*
X123999499Y-171353348D01*
X123999499Y-171519054D01*
X123999498Y-171519054D01*
X124040423Y-171671785D01*
X124069358Y-171721900D01*
X124069359Y-171721904D01*
X124069360Y-171721904D01*
X124119479Y-171808714D01*
X124119481Y-171808717D01*
X124238349Y-171927585D01*
X124238354Y-171927589D01*
X125531284Y-173220520D01*
X125531286Y-173220521D01*
X125531290Y-173220524D01*
X125668209Y-173299573D01*
X125668216Y-173299577D01*
X125820943Y-173340501D01*
X125820945Y-173340501D01*
X125986654Y-173340501D01*
X125986670Y-173340500D01*
X139990234Y-173340500D01*
X140057273Y-173360185D01*
X140059125Y-173361398D01*
X140190814Y-173449390D01*
X140190827Y-173449397D01*
X140336498Y-173509735D01*
X140336503Y-173509737D01*
X140491153Y-173540499D01*
X140491156Y-173540500D01*
X140491158Y-173540500D01*
X140648844Y-173540500D01*
X140648845Y-173540499D01*
X140803497Y-173509737D01*
X140949179Y-173449394D01*
X141080289Y-173361789D01*
X141191789Y-173250289D01*
X141279394Y-173119179D01*
X141339737Y-172973497D01*
X141370500Y-172818842D01*
X141370500Y-172661158D01*
X141370500Y-172661155D01*
X141370499Y-172661153D01*
X141339737Y-172506503D01*
X141320691Y-172460521D01*
X141279397Y-172360827D01*
X141279390Y-172360814D01*
X141191789Y-172229711D01*
X141191786Y-172229707D01*
X141080292Y-172118213D01*
X141080288Y-172118210D01*
X140949185Y-172030609D01*
X140949172Y-172030602D01*
X140803501Y-171970264D01*
X140803489Y-171970261D01*
X140648845Y-171939500D01*
X140648842Y-171939500D01*
X140491158Y-171939500D01*
X140491155Y-171939500D01*
X140336510Y-171970261D01*
X140336498Y-171970264D01*
X140190827Y-172030602D01*
X140190814Y-172030609D01*
X140059125Y-172118602D01*
X139992447Y-172139480D01*
X139990234Y-172139500D01*
X126200098Y-172139500D01*
X126133059Y-172119815D01*
X126112417Y-172103181D01*
X125236819Y-171227583D01*
X125203334Y-171166260D01*
X125200500Y-171139902D01*
X125200500Y-165909765D01*
X125220185Y-165842726D01*
X125221398Y-165840874D01*
X125309390Y-165709185D01*
X125309390Y-165709184D01*
X125309394Y-165709179D01*
X125369737Y-165563497D01*
X125400500Y-165408842D01*
X125400500Y-165251158D01*
X125400500Y-165251155D01*
X125400499Y-165251153D01*
X125369738Y-165096510D01*
X125369737Y-165096503D01*
X125330242Y-165001153D01*
X125309397Y-164950827D01*
X125309390Y-164950814D01*
X125221789Y-164819711D01*
X125221786Y-164819707D01*
X125110292Y-164708213D01*
X125110288Y-164708210D01*
X124979185Y-164620609D01*
X124979172Y-164620602D01*
X124833501Y-164560264D01*
X124833489Y-164560261D01*
X124678845Y-164529500D01*
X124678842Y-164529500D01*
X124521158Y-164529500D01*
X124521155Y-164529500D01*
X124366510Y-164560261D01*
X124366498Y-164560264D01*
X124220827Y-164620602D01*
X124220814Y-164620609D01*
X124089711Y-164708210D01*
X124089707Y-164708213D01*
X123978213Y-164819707D01*
X123978210Y-164819711D01*
X123890609Y-164950814D01*
X123890602Y-164950827D01*
X123830264Y-165096498D01*
X123830261Y-165096510D01*
X123799500Y-165251153D01*
X103520500Y-165251153D01*
X103520500Y-163751153D01*
X110329500Y-163751153D01*
X110329500Y-163908846D01*
X110360261Y-164063489D01*
X110360264Y-164063501D01*
X110420602Y-164209172D01*
X110420609Y-164209185D01*
X110508210Y-164340288D01*
X110508213Y-164340292D01*
X110619707Y-164451786D01*
X110619711Y-164451789D01*
X110750814Y-164539390D01*
X110750827Y-164539397D01*
X110824078Y-164569738D01*
X110896503Y-164599737D01*
X111051153Y-164630499D01*
X111051156Y-164630500D01*
X111051158Y-164630500D01*
X111208844Y-164630500D01*
X111208845Y-164630499D01*
X111363497Y-164599737D01*
X111509179Y-164539394D01*
X111509185Y-164539390D01*
X111640875Y-164451398D01*
X111707553Y-164430520D01*
X111709766Y-164430500D01*
X115825133Y-164430500D01*
X115892172Y-164450185D01*
X115894024Y-164451398D01*
X115980821Y-164509394D01*
X115980823Y-164509395D01*
X115980827Y-164509397D01*
X116126440Y-164569711D01*
X116126503Y-164569737D01*
X116277312Y-164599735D01*
X116281153Y-164600499D01*
X116281156Y-164600500D01*
X116281158Y-164600500D01*
X116438844Y-164600500D01*
X116438845Y-164600499D01*
X116593497Y-164569737D01*
X116739179Y-164509394D01*
X116870289Y-164421789D01*
X116981789Y-164310289D01*
X117069394Y-164179179D01*
X117129737Y-164033497D01*
X117160500Y-163878842D01*
X117160500Y-163721158D01*
X117160500Y-163721155D01*
X117160499Y-163721153D01*
X117129737Y-163566503D01*
X117081823Y-163450827D01*
X117069397Y-163420827D01*
X117069390Y-163420814D01*
X116981789Y-163289711D01*
X116981786Y-163289707D01*
X116870292Y-163178213D01*
X116870288Y-163178210D01*
X116739185Y-163090609D01*
X116739172Y-163090602D01*
X116593501Y-163030264D01*
X116593489Y-163030261D01*
X116438845Y-162999500D01*
X116438842Y-162999500D01*
X116281158Y-162999500D01*
X116281155Y-162999500D01*
X116126510Y-163030261D01*
X116126498Y-163030264D01*
X115980827Y-163090602D01*
X115980814Y-163090609D01*
X115849711Y-163178210D01*
X115849707Y-163178213D01*
X115834740Y-163193181D01*
X115773417Y-163226666D01*
X115747059Y-163229500D01*
X111709766Y-163229500D01*
X111642727Y-163209815D01*
X111640875Y-163208602D01*
X111509185Y-163120609D01*
X111509172Y-163120602D01*
X111363501Y-163060264D01*
X111363489Y-163060261D01*
X111208845Y-163029500D01*
X111208842Y-163029500D01*
X111051158Y-163029500D01*
X111051155Y-163029500D01*
X110896510Y-163060261D01*
X110896498Y-163060264D01*
X110750827Y-163120602D01*
X110750814Y-163120609D01*
X110619711Y-163208210D01*
X110619707Y-163208213D01*
X110508213Y-163319707D01*
X110508210Y-163319711D01*
X110420609Y-163450814D01*
X110420602Y-163450827D01*
X110360264Y-163596498D01*
X110360261Y-163596510D01*
X110329500Y-163751153D01*
X103520500Y-163751153D01*
X103520500Y-161386153D01*
X124154500Y-161386153D01*
X124154500Y-161543846D01*
X124185261Y-161698489D01*
X124185264Y-161698501D01*
X124245602Y-161844172D01*
X124245609Y-161844185D01*
X124333210Y-161975288D01*
X124333213Y-161975292D01*
X124444707Y-162086786D01*
X124444711Y-162086789D01*
X124575814Y-162174390D01*
X124575827Y-162174397D01*
X124721498Y-162234735D01*
X124721503Y-162234737D01*
X124786147Y-162247595D01*
X124876849Y-162265638D01*
X124938760Y-162298023D01*
X124940339Y-162299574D01*
X125793181Y-163152416D01*
X125826666Y-163213739D01*
X125829500Y-163240097D01*
X125829500Y-170130234D01*
X125809815Y-170197273D01*
X125808602Y-170199125D01*
X125720609Y-170330814D01*
X125720602Y-170330827D01*
X125660264Y-170476498D01*
X125660261Y-170476510D01*
X125629500Y-170631153D01*
X125629500Y-170788846D01*
X125660261Y-170943489D01*
X125660264Y-170943501D01*
X125720602Y-171089172D01*
X125720609Y-171089185D01*
X125808210Y-171220288D01*
X125808213Y-171220292D01*
X125919707Y-171331786D01*
X125919711Y-171331789D01*
X126050814Y-171419390D01*
X126050827Y-171419397D01*
X126196498Y-171479735D01*
X126196503Y-171479737D01*
X126351153Y-171510499D01*
X126351156Y-171510500D01*
X126351158Y-171510500D01*
X126508844Y-171510500D01*
X126508845Y-171510499D01*
X126663497Y-171479737D01*
X126809179Y-171419394D01*
X126940289Y-171331789D01*
X127051789Y-171220289D01*
X127139394Y-171089179D01*
X127199737Y-170943497D01*
X127230500Y-170788842D01*
X127230500Y-170631158D01*
X127230500Y-170631155D01*
X127230499Y-170631153D01*
X127199738Y-170476510D01*
X127199737Y-170476503D01*
X127175818Y-170418757D01*
X127139397Y-170330827D01*
X127139390Y-170330814D01*
X127051398Y-170199125D01*
X127030520Y-170132447D01*
X127030500Y-170130234D01*
X127030500Y-165001153D01*
X134569500Y-165001153D01*
X134569500Y-165158846D01*
X134600261Y-165313489D01*
X134600264Y-165313501D01*
X134660602Y-165459172D01*
X134660609Y-165459185D01*
X134748210Y-165590288D01*
X134748213Y-165590292D01*
X134859707Y-165701786D01*
X134859711Y-165701789D01*
X134990814Y-165789390D01*
X134990827Y-165789397D01*
X135119577Y-165842726D01*
X135136503Y-165849737D01*
X135291153Y-165880499D01*
X135291156Y-165880500D01*
X135291158Y-165880500D01*
X135448844Y-165880500D01*
X135448845Y-165880499D01*
X135603497Y-165849737D01*
X135749179Y-165789394D01*
X135880289Y-165701789D01*
X135991789Y-165590289D01*
X136079394Y-165459179D01*
X136139737Y-165313497D01*
X136159113Y-165216085D01*
X136170638Y-165158150D01*
X136203023Y-165096239D01*
X136204517Y-165094717D01*
X138902417Y-162396819D01*
X138963740Y-162363334D01*
X138990098Y-162360500D01*
X139028844Y-162360500D01*
X139028845Y-162360499D01*
X139183497Y-162329737D01*
X139329179Y-162269394D01*
X139460289Y-162181789D01*
X139571789Y-162070289D01*
X139659394Y-161939179D01*
X139719737Y-161793497D01*
X139750500Y-161638842D01*
X139750500Y-161481158D01*
X139750500Y-161481155D01*
X139750499Y-161481153D01*
X139735739Y-161406949D01*
X139719737Y-161326503D01*
X139680385Y-161231498D01*
X139659397Y-161180827D01*
X139659390Y-161180814D01*
X139571789Y-161049711D01*
X139571786Y-161049707D01*
X139460292Y-160938213D01*
X139460288Y-160938210D01*
X139329185Y-160850609D01*
X139329172Y-160850602D01*
X139183501Y-160790264D01*
X139183489Y-160790261D01*
X139028845Y-160759500D01*
X139028842Y-160759500D01*
X138871158Y-160759500D01*
X138871155Y-160759500D01*
X138716510Y-160790261D01*
X138716498Y-160790264D01*
X138570827Y-160850602D01*
X138570814Y-160850609D01*
X138439711Y-160938210D01*
X138439707Y-160938213D01*
X138328213Y-161049707D01*
X138328210Y-161049711D01*
X138240609Y-161180814D01*
X138240602Y-161180827D01*
X138180263Y-161326500D01*
X138180261Y-161326508D01*
X138164260Y-161406949D01*
X138131875Y-161468860D01*
X138130324Y-161470438D01*
X135355339Y-164245425D01*
X135294016Y-164278910D01*
X135291850Y-164279361D01*
X135136508Y-164310261D01*
X135136498Y-164310264D01*
X134990827Y-164370602D01*
X134990814Y-164370609D01*
X134859711Y-164458210D01*
X134859707Y-164458213D01*
X134748213Y-164569707D01*
X134748210Y-164569711D01*
X134660609Y-164700814D01*
X134660602Y-164700827D01*
X134600264Y-164846498D01*
X134600261Y-164846510D01*
X134569500Y-165001153D01*
X127030500Y-165001153D01*
X127030500Y-162860945D01*
X127030500Y-162860943D01*
X126989577Y-162708216D01*
X126989577Y-162708215D01*
X126989577Y-162708214D01*
X126960639Y-162658095D01*
X126960637Y-162658092D01*
X126910520Y-162571284D01*
X126798716Y-162459480D01*
X126798715Y-162459479D01*
X126794385Y-162455149D01*
X126794374Y-162455139D01*
X125789574Y-161450339D01*
X125756089Y-161389016D01*
X125755638Y-161386849D01*
X125724738Y-161231510D01*
X125724737Y-161231503D01*
X125724735Y-161231498D01*
X125664397Y-161085827D01*
X125664390Y-161085814D01*
X125576789Y-160954711D01*
X125576786Y-160954707D01*
X125465292Y-160843213D01*
X125465288Y-160843210D01*
X125334185Y-160755609D01*
X125334172Y-160755602D01*
X125188501Y-160695264D01*
X125188489Y-160695261D01*
X125033845Y-160664500D01*
X125033842Y-160664500D01*
X124876158Y-160664500D01*
X124876155Y-160664500D01*
X124721510Y-160695261D01*
X124721498Y-160695264D01*
X124575827Y-160755602D01*
X124575814Y-160755609D01*
X124444711Y-160843210D01*
X124444707Y-160843213D01*
X124333213Y-160954707D01*
X124333210Y-160954711D01*
X124245609Y-161085814D01*
X124245602Y-161085827D01*
X124185264Y-161231498D01*
X124185261Y-161231510D01*
X124154500Y-161386153D01*
X103520500Y-161386153D01*
X103520500Y-159871153D01*
X128209500Y-159871153D01*
X128209500Y-160028846D01*
X128240261Y-160183489D01*
X128240264Y-160183501D01*
X128300602Y-160329172D01*
X128300609Y-160329185D01*
X128388210Y-160460288D01*
X128388213Y-160460292D01*
X128499707Y-160571786D01*
X128499711Y-160571789D01*
X128630814Y-160659390D01*
X128630827Y-160659397D01*
X128775665Y-160719390D01*
X128776503Y-160719737D01*
X128931153Y-160750499D01*
X128931156Y-160750500D01*
X128931158Y-160750500D01*
X129088844Y-160750500D01*
X129088845Y-160750499D01*
X129243497Y-160719737D01*
X129389179Y-160659394D01*
X129430493Y-160631789D01*
X129520875Y-160571398D01*
X129587553Y-160550520D01*
X129589766Y-160550500D01*
X130397060Y-160550500D01*
X130464099Y-160570185D01*
X130484742Y-160586820D01*
X130529707Y-160631786D01*
X130529711Y-160631789D01*
X130660814Y-160719390D01*
X130660827Y-160719397D01*
X130748245Y-160755606D01*
X130806503Y-160779737D01*
X130961153Y-160810499D01*
X130961156Y-160810500D01*
X130961158Y-160810500D01*
X131118844Y-160810500D01*
X131118845Y-160810499D01*
X131273497Y-160779737D01*
X131419179Y-160719394D01*
X131550289Y-160631789D01*
X131661789Y-160520289D01*
X131749394Y-160389179D01*
X131809737Y-160243497D01*
X131840500Y-160088842D01*
X131840500Y-159931158D01*
X131840500Y-159931155D01*
X131840499Y-159931153D01*
X131809738Y-159776510D01*
X131809737Y-159776503D01*
X131809735Y-159776498D01*
X131749397Y-159630827D01*
X131749390Y-159630814D01*
X131661789Y-159499711D01*
X131661786Y-159499707D01*
X131550292Y-159388213D01*
X131550288Y-159388210D01*
X131419185Y-159300609D01*
X131419172Y-159300602D01*
X131273501Y-159240264D01*
X131273489Y-159240261D01*
X131118845Y-159209500D01*
X131118842Y-159209500D01*
X130961158Y-159209500D01*
X130961155Y-159209500D01*
X130806510Y-159240261D01*
X130806498Y-159240264D01*
X130660827Y-159300602D01*
X130660820Y-159300606D01*
X130639343Y-159314957D01*
X130618921Y-159328602D01*
X130552245Y-159349480D01*
X130550031Y-159349500D01*
X129589766Y-159349500D01*
X129522727Y-159329815D01*
X129520875Y-159328602D01*
X129389185Y-159240609D01*
X129389172Y-159240602D01*
X129243501Y-159180264D01*
X129243489Y-159180261D01*
X129088845Y-159149500D01*
X129088842Y-159149500D01*
X128931158Y-159149500D01*
X128931155Y-159149500D01*
X128776510Y-159180261D01*
X128776498Y-159180264D01*
X128630827Y-159240602D01*
X128630814Y-159240609D01*
X128499711Y-159328210D01*
X128499707Y-159328213D01*
X128388213Y-159439707D01*
X128388210Y-159439711D01*
X128300609Y-159570814D01*
X128300602Y-159570827D01*
X128240264Y-159716498D01*
X128240261Y-159716510D01*
X128209500Y-159871153D01*
X103520500Y-159871153D01*
X103520500Y-156898685D01*
X103540185Y-156831646D01*
X103592989Y-156785891D01*
X103597048Y-156784124D01*
X103729172Y-156729397D01*
X103729172Y-156729396D01*
X103729179Y-156729394D01*
X103860289Y-156641789D01*
X103971789Y-156530289D01*
X104059394Y-156399179D01*
X104119737Y-156253497D01*
X104150500Y-156098842D01*
X104150500Y-155941158D01*
X104150500Y-155941155D01*
X104150499Y-155941153D01*
X104119738Y-155786510D01*
X104119738Y-155786508D01*
X104119737Y-155786503D01*
X104119735Y-155786498D01*
X104059397Y-155640827D01*
X104059390Y-155640814D01*
X103971789Y-155509711D01*
X103971786Y-155509707D01*
X103860292Y-155398213D01*
X103860288Y-155398210D01*
X103729185Y-155310609D01*
X103729172Y-155310602D01*
X103583501Y-155250264D01*
X103583489Y-155250261D01*
X103428845Y-155219500D01*
X103428842Y-155219500D01*
X103271158Y-155219500D01*
X103271155Y-155219500D01*
X103116510Y-155250261D01*
X103116498Y-155250264D01*
X102970827Y-155310602D01*
X102970814Y-155310609D01*
X102839711Y-155398210D01*
X102839707Y-155398213D01*
X102728213Y-155509707D01*
X102728210Y-155509711D01*
X102640609Y-155640814D01*
X102640602Y-155640827D01*
X102580264Y-155786498D01*
X102580261Y-155786508D01*
X102549362Y-155941848D01*
X102525824Y-155993528D01*
X102520999Y-155999764D01*
X102439480Y-156081284D01*
X102389360Y-156168095D01*
X102385177Y-156175339D01*
X102385170Y-156175349D01*
X102360425Y-156218209D01*
X102360424Y-156218210D01*
X102351428Y-156251785D01*
X102319499Y-156370943D01*
X102319499Y-156370945D01*
X102319499Y-156539046D01*
X102319500Y-156539059D01*
X102319500Y-165930234D01*
X102299815Y-165997273D01*
X102298602Y-165999125D01*
X102207602Y-166135315D01*
X102153990Y-166180120D01*
X102084665Y-166188827D01*
X102021637Y-166158672D01*
X101984918Y-166099229D01*
X101980500Y-166066424D01*
X101980500Y-152029765D01*
X102000185Y-151962726D01*
X102001398Y-151960874D01*
X102089390Y-151829185D01*
X102089390Y-151829184D01*
X102089394Y-151829179D01*
X102149737Y-151683497D01*
X102180500Y-151528842D01*
X102180500Y-151371158D01*
X102180500Y-151371155D01*
X102180499Y-151371153D01*
X102149738Y-151216510D01*
X102149737Y-151216503D01*
X102149735Y-151216498D01*
X102089397Y-151070827D01*
X102089390Y-151070814D01*
X102001789Y-150939711D01*
X102001786Y-150939707D01*
X101890292Y-150828213D01*
X101890288Y-150828210D01*
X101759185Y-150740609D01*
X101759172Y-150740602D01*
X101613501Y-150680264D01*
X101613489Y-150680261D01*
X101458845Y-150649500D01*
X101458842Y-150649500D01*
X101301158Y-150649500D01*
X101301155Y-150649500D01*
X101146510Y-150680261D01*
X101146498Y-150680264D01*
X101000827Y-150740602D01*
X101000814Y-150740609D01*
X100869711Y-150828210D01*
X100869707Y-150828213D01*
X100758213Y-150939707D01*
X100758210Y-150939711D01*
X100670609Y-151070814D01*
X100670602Y-151070827D01*
X100610264Y-151216498D01*
X100610261Y-151216510D01*
X100579500Y-151371153D01*
X88338306Y-151371153D01*
X88338306Y-137072332D01*
X103129500Y-137072332D01*
X103129500Y-137347667D01*
X103129501Y-137347684D01*
X103165438Y-137620655D01*
X103165439Y-137620660D01*
X103165440Y-137620666D01*
X103185762Y-137696508D01*
X103236704Y-137886630D01*
X103342075Y-138141017D01*
X103342080Y-138141028D01*
X103364580Y-138179998D01*
X103479751Y-138379479D01*
X103479753Y-138379482D01*
X103479754Y-138379483D01*
X103647370Y-138597926D01*
X103647376Y-138597933D01*
X103842066Y-138792623D01*
X103842072Y-138792628D01*
X104060521Y-138960249D01*
X104212155Y-139047795D01*
X104298971Y-139097919D01*
X104298976Y-139097921D01*
X104298979Y-139097923D01*
X104553368Y-139203295D01*
X104819334Y-139274560D01*
X105092326Y-139310500D01*
X105092333Y-139310500D01*
X105367667Y-139310500D01*
X105367674Y-139310500D01*
X105640666Y-139274560D01*
X105906632Y-139203295D01*
X106161021Y-139097923D01*
X106399479Y-138960249D01*
X106617928Y-138792628D01*
X106812628Y-138597928D01*
X106980249Y-138379479D01*
X107117923Y-138141021D01*
X107223295Y-137886632D01*
X107294560Y-137620666D01*
X107330500Y-137347674D01*
X107330500Y-137072332D01*
X109279500Y-137072332D01*
X109279500Y-137347667D01*
X109279501Y-137347684D01*
X109315438Y-137620655D01*
X109315439Y-137620660D01*
X109315440Y-137620666D01*
X109335762Y-137696508D01*
X109386704Y-137886630D01*
X109492075Y-138141017D01*
X109492080Y-138141028D01*
X109514580Y-138179998D01*
X109629751Y-138379479D01*
X109629753Y-138379482D01*
X109629754Y-138379483D01*
X109797370Y-138597926D01*
X109797376Y-138597933D01*
X109992066Y-138792623D01*
X109992072Y-138792628D01*
X110210521Y-138960249D01*
X110362155Y-139047795D01*
X110448971Y-139097919D01*
X110448976Y-139097921D01*
X110448979Y-139097923D01*
X110703368Y-139203295D01*
X110969334Y-139274560D01*
X111242326Y-139310500D01*
X111242333Y-139310500D01*
X111517667Y-139310500D01*
X111517674Y-139310500D01*
X111790666Y-139274560D01*
X112056632Y-139203295D01*
X112311021Y-139097923D01*
X112549479Y-138960249D01*
X112767928Y-138792628D01*
X112962628Y-138597928D01*
X113130249Y-138379479D01*
X113267923Y-138141021D01*
X113373295Y-137886632D01*
X113444560Y-137620666D01*
X113480500Y-137347674D01*
X113480500Y-137072326D01*
X113444560Y-136799334D01*
X113373295Y-136533368D01*
X113267923Y-136278979D01*
X113267921Y-136278976D01*
X113267919Y-136278971D01*
X113205064Y-136170104D01*
X113130249Y-136040521D01*
X112962628Y-135822072D01*
X112962623Y-135822066D01*
X112767933Y-135627376D01*
X112767926Y-135627370D01*
X112549483Y-135459754D01*
X112549482Y-135459753D01*
X112549479Y-135459751D01*
X112419546Y-135384734D01*
X112311028Y-135322080D01*
X112311017Y-135322075D01*
X112056630Y-135216704D01*
X111923649Y-135181072D01*
X111790666Y-135145440D01*
X111790660Y-135145439D01*
X111790655Y-135145438D01*
X111517684Y-135109501D01*
X111517679Y-135109500D01*
X111517674Y-135109500D01*
X111242326Y-135109500D01*
X111242320Y-135109500D01*
X111242315Y-135109501D01*
X110969344Y-135145438D01*
X110969337Y-135145439D01*
X110969334Y-135145440D01*
X110944094Y-135152203D01*
X110703369Y-135216704D01*
X110448982Y-135322075D01*
X110448971Y-135322080D01*
X110210516Y-135459754D01*
X109992073Y-135627370D01*
X109992066Y-135627376D01*
X109797376Y-135822066D01*
X109797370Y-135822073D01*
X109629754Y-136040516D01*
X109492080Y-136278971D01*
X109492075Y-136278982D01*
X109386704Y-136533369D01*
X109315441Y-136799331D01*
X109315438Y-136799344D01*
X109279501Y-137072315D01*
X109279500Y-137072332D01*
X107330500Y-137072332D01*
X107330500Y-137072326D01*
X107294560Y-136799334D01*
X107223295Y-136533368D01*
X107117923Y-136278979D01*
X107117921Y-136278976D01*
X107117919Y-136278971D01*
X107055064Y-136170104D01*
X106980249Y-136040521D01*
X106812628Y-135822072D01*
X106812623Y-135822066D01*
X106617933Y-135627376D01*
X106617926Y-135627370D01*
X106399483Y-135459754D01*
X106399482Y-135459753D01*
X106399479Y-135459751D01*
X106269546Y-135384734D01*
X106161028Y-135322080D01*
X106161017Y-135322075D01*
X105906630Y-135216704D01*
X105773649Y-135181072D01*
X105640666Y-135145440D01*
X105640660Y-135145439D01*
X105640655Y-135145438D01*
X105367684Y-135109501D01*
X105367679Y-135109500D01*
X105367674Y-135109500D01*
X105092326Y-135109500D01*
X105092320Y-135109500D01*
X105092315Y-135109501D01*
X104819344Y-135145438D01*
X104819337Y-135145439D01*
X104819334Y-135145440D01*
X104794094Y-135152203D01*
X104553369Y-135216704D01*
X104298982Y-135322075D01*
X104298971Y-135322080D01*
X104060516Y-135459754D01*
X103842073Y-135627370D01*
X103842066Y-135627376D01*
X103647376Y-135822066D01*
X103647370Y-135822073D01*
X103479754Y-136040516D01*
X103342080Y-136278971D01*
X103342075Y-136278982D01*
X103236704Y-136533369D01*
X103165441Y-136799331D01*
X103165438Y-136799344D01*
X103129501Y-137072315D01*
X103129500Y-137072332D01*
X88338306Y-137072332D01*
X88338306Y-121522135D01*
X88759500Y-121522135D01*
X88759500Y-123317870D01*
X88759501Y-123317876D01*
X88765908Y-123377483D01*
X88816202Y-123512328D01*
X88816206Y-123512335D01*
X88902452Y-123627544D01*
X88902455Y-123627547D01*
X89017664Y-123713793D01*
X89017671Y-123713797D01*
X89149082Y-123762810D01*
X89205016Y-123804681D01*
X89229433Y-123870145D01*
X89214582Y-123938418D01*
X89193431Y-123966673D01*
X89079889Y-124080215D01*
X88954951Y-124252179D01*
X88858444Y-124441585D01*
X88858443Y-124441587D01*
X88858443Y-124441588D01*
X88837836Y-124505009D01*
X88792753Y-124643760D01*
X88759500Y-124853713D01*
X88759500Y-125066286D01*
X88786418Y-125236243D01*
X88792754Y-125276243D01*
X88799252Y-125296243D01*
X88858444Y-125478414D01*
X88954951Y-125667820D01*
X89079890Y-125839786D01*
X89230213Y-125990109D01*
X89402182Y-126115050D01*
X89410946Y-126119516D01*
X89461742Y-126167491D01*
X89478536Y-126235312D01*
X89455998Y-126301447D01*
X89410946Y-126340484D01*
X89402182Y-126344949D01*
X89230213Y-126469890D01*
X89079890Y-126620213D01*
X88954951Y-126792179D01*
X88858444Y-126981585D01*
X88792753Y-127183760D01*
X88765835Y-127353713D01*
X88759500Y-127393713D01*
X88759500Y-127606287D01*
X88769534Y-127669644D01*
X88790181Y-127800001D01*
X88792754Y-127816243D01*
X88841019Y-127964788D01*
X88858444Y-128018414D01*
X88954951Y-128207820D01*
X89079890Y-128379786D01*
X89230213Y-128530109D01*
X89402182Y-128655050D01*
X89410946Y-128659516D01*
X89461742Y-128707491D01*
X89478536Y-128775312D01*
X89455998Y-128841447D01*
X89410946Y-128880484D01*
X89402182Y-128884949D01*
X89230213Y-129009890D01*
X89079890Y-129160213D01*
X88954951Y-129332179D01*
X88858444Y-129521585D01*
X88792753Y-129723760D01*
X88759500Y-129933713D01*
X88759500Y-130146286D01*
X88792626Y-130355440D01*
X88792754Y-130356243D01*
X88854561Y-130546466D01*
X88858444Y-130558414D01*
X88954951Y-130747820D01*
X89079890Y-130919786D01*
X89230213Y-131070109D01*
X89402182Y-131195050D01*
X89410946Y-131199516D01*
X89461742Y-131247491D01*
X89478536Y-131315312D01*
X89455998Y-131381447D01*
X89410946Y-131420484D01*
X89402182Y-131424949D01*
X89230213Y-131549890D01*
X89079890Y-131700213D01*
X88954951Y-131872179D01*
X88858444Y-132061585D01*
X88792753Y-132263760D01*
X88759500Y-132473713D01*
X88759500Y-132686286D01*
X88790277Y-132880608D01*
X88792754Y-132896243D01*
X88826674Y-133000639D01*
X88858444Y-133098414D01*
X88954951Y-133287820D01*
X89079890Y-133459786D01*
X89230213Y-133610109D01*
X89402182Y-133735050D01*
X89410946Y-133739516D01*
X89461742Y-133787491D01*
X89478536Y-133855312D01*
X89455998Y-133921447D01*
X89410946Y-133960484D01*
X89402182Y-133964949D01*
X89230213Y-134089890D01*
X89079890Y-134240213D01*
X88954951Y-134412179D01*
X88858444Y-134601585D01*
X88858443Y-134601587D01*
X88858443Y-134601588D01*
X88845587Y-134641155D01*
X88792753Y-134803760D01*
X88769038Y-134953491D01*
X88759500Y-135013713D01*
X88759500Y-135226287D01*
X88764047Y-135254998D01*
X88791669Y-135429397D01*
X88792754Y-135436243D01*
X88854857Y-135627376D01*
X88858444Y-135638414D01*
X88954951Y-135827820D01*
X89079890Y-135999786D01*
X89230213Y-136150109D01*
X89402179Y-136275048D01*
X89402181Y-136275049D01*
X89402184Y-136275051D01*
X89591588Y-136371557D01*
X89793757Y-136437246D01*
X90003713Y-136470500D01*
X90003714Y-136470500D01*
X90216286Y-136470500D01*
X90216287Y-136470500D01*
X90426243Y-136437246D01*
X90628412Y-136371557D01*
X90817816Y-136275051D01*
X90944216Y-136183217D01*
X90989786Y-136150109D01*
X90989788Y-136150106D01*
X90989792Y-136150104D01*
X91140104Y-135999792D01*
X91140106Y-135999788D01*
X91140109Y-135999786D01*
X91265048Y-135827820D01*
X91265047Y-135827820D01*
X91265051Y-135827816D01*
X91361557Y-135638412D01*
X91427246Y-135436243D01*
X91460500Y-135226287D01*
X91460500Y-135013713D01*
X91427246Y-134803757D01*
X91361557Y-134601588D01*
X91265051Y-134412184D01*
X91265049Y-134412181D01*
X91265048Y-134412179D01*
X91140109Y-134240213D01*
X90989786Y-134089890D01*
X90817820Y-133964951D01*
X90817115Y-133964591D01*
X90809054Y-133960485D01*
X90758259Y-133912512D01*
X90741463Y-133844692D01*
X90763999Y-133778556D01*
X90809054Y-133739515D01*
X90817816Y-133735051D01*
X90872876Y-133695048D01*
X90989786Y-133610109D01*
X90989788Y-133610106D01*
X90989792Y-133610104D01*
X91140104Y-133459792D01*
X91140106Y-133459788D01*
X91140109Y-133459786D01*
X91265048Y-133287820D01*
X91265047Y-133287820D01*
X91265051Y-133287816D01*
X91361557Y-133098412D01*
X91427246Y-132896243D01*
X91460500Y-132686287D01*
X91460500Y-132473713D01*
X91427246Y-132263757D01*
X91361557Y-132061588D01*
X91265051Y-131872184D01*
X91265049Y-131872181D01*
X91265048Y-131872179D01*
X91140109Y-131700213D01*
X90989786Y-131549890D01*
X90817820Y-131424951D01*
X90817115Y-131424591D01*
X90809054Y-131420485D01*
X90758259Y-131372512D01*
X90741463Y-131304692D01*
X90763999Y-131238556D01*
X90809054Y-131199515D01*
X90817816Y-131195051D01*
X90851379Y-131170666D01*
X90989786Y-131070109D01*
X90989788Y-131070106D01*
X90989792Y-131070104D01*
X91140104Y-130919792D01*
X91140106Y-130919788D01*
X91140109Y-130919786D01*
X91256199Y-130760000D01*
X91265051Y-130747816D01*
X91361557Y-130558412D01*
X91427246Y-130356243D01*
X91460500Y-130146287D01*
X91460500Y-129933713D01*
X91427246Y-129723757D01*
X91361557Y-129521588D01*
X91265051Y-129332184D01*
X91265049Y-129332181D01*
X91265048Y-129332179D01*
X91140109Y-129160213D01*
X90989786Y-129009890D01*
X90817820Y-128884951D01*
X90817115Y-128884591D01*
X90809054Y-128880485D01*
X90758259Y-128832512D01*
X90741463Y-128764692D01*
X90763999Y-128698556D01*
X90809054Y-128659515D01*
X90817816Y-128655051D01*
X90872876Y-128615048D01*
X90989786Y-128530109D01*
X90989788Y-128530106D01*
X90989792Y-128530104D01*
X91140104Y-128379792D01*
X91140106Y-128379788D01*
X91140109Y-128379786D01*
X91265048Y-128207820D01*
X91265047Y-128207820D01*
X91265051Y-128207816D01*
X91361557Y-128018412D01*
X91427246Y-127816243D01*
X91460500Y-127606287D01*
X91460500Y-127393713D01*
X91427246Y-127183757D01*
X91361557Y-126981588D01*
X91265051Y-126792184D01*
X91265049Y-126792181D01*
X91265048Y-126792179D01*
X91140109Y-126620213D01*
X90989786Y-126469890D01*
X90817820Y-126344951D01*
X90817115Y-126344591D01*
X90809054Y-126340485D01*
X90758259Y-126292512D01*
X90741463Y-126224692D01*
X90763999Y-126158556D01*
X90809054Y-126119515D01*
X90817816Y-126115051D01*
X90872876Y-126075048D01*
X90989786Y-125990109D01*
X90989788Y-125990106D01*
X90989792Y-125990104D01*
X91140104Y-125839792D01*
X91140106Y-125839788D01*
X91140109Y-125839786D01*
X91265048Y-125667820D01*
X91265047Y-125667820D01*
X91265051Y-125667816D01*
X91361557Y-125478412D01*
X91427246Y-125276243D01*
X91460500Y-125066287D01*
X91460500Y-124853713D01*
X91427246Y-124643757D01*
X91361557Y-124441588D01*
X91265051Y-124252184D01*
X91265049Y-124252181D01*
X91265048Y-124252179D01*
X91140109Y-124080213D01*
X91026569Y-123966673D01*
X90993084Y-123905350D01*
X90998068Y-123835658D01*
X91039940Y-123779725D01*
X91070915Y-123762810D01*
X91202331Y-123713796D01*
X91317546Y-123627546D01*
X91403796Y-123512331D01*
X91454091Y-123377483D01*
X91460500Y-123317873D01*
X91460499Y-121542135D01*
X92909500Y-121542135D01*
X92909500Y-123337870D01*
X92909501Y-123337876D01*
X92915908Y-123397483D01*
X92966202Y-123532328D01*
X92966206Y-123532335D01*
X93052452Y-123647544D01*
X93052455Y-123647547D01*
X93167664Y-123733793D01*
X93167671Y-123733797D01*
X93299082Y-123782810D01*
X93355016Y-123824681D01*
X93379433Y-123890145D01*
X93364582Y-123958418D01*
X93343431Y-123986673D01*
X93229889Y-124100215D01*
X93104951Y-124272179D01*
X93008444Y-124461585D01*
X92942753Y-124663760D01*
X92909500Y-124873713D01*
X92909500Y-125086286D01*
X92939585Y-125276239D01*
X92942754Y-125296243D01*
X93001945Y-125478414D01*
X93008444Y-125498414D01*
X93104951Y-125687820D01*
X93229890Y-125859786D01*
X93380213Y-126010109D01*
X93552182Y-126135050D01*
X93560946Y-126139516D01*
X93611742Y-126187491D01*
X93628536Y-126255312D01*
X93605998Y-126321447D01*
X93560946Y-126360484D01*
X93552182Y-126364949D01*
X93380213Y-126489890D01*
X93229890Y-126640213D01*
X93104951Y-126812179D01*
X93008444Y-127001585D01*
X92942753Y-127203760D01*
X92909500Y-127413713D01*
X92909500Y-127626286D01*
X92939785Y-127817501D01*
X92942754Y-127836243D01*
X93001945Y-128018414D01*
X93008444Y-128038414D01*
X93104951Y-128227820D01*
X93229890Y-128399786D01*
X93380213Y-128550109D01*
X93552182Y-128675050D01*
X93560946Y-128679516D01*
X93611742Y-128727491D01*
X93628536Y-128795312D01*
X93605998Y-128861447D01*
X93560946Y-128900484D01*
X93552182Y-128904949D01*
X93380213Y-129029890D01*
X93229890Y-129180213D01*
X93104951Y-129352179D01*
X93008444Y-129541585D01*
X92942753Y-129743760D01*
X92909500Y-129953713D01*
X92909500Y-130166286D01*
X92941210Y-130366498D01*
X92942754Y-130376243D01*
X93003136Y-130562080D01*
X93008444Y-130578414D01*
X93104951Y-130767820D01*
X93229890Y-130939786D01*
X93380213Y-131090109D01*
X93552182Y-131215050D01*
X93560946Y-131219516D01*
X93611742Y-131267491D01*
X93628536Y-131335312D01*
X93605998Y-131401447D01*
X93560946Y-131440484D01*
X93552182Y-131444949D01*
X93380213Y-131569890D01*
X93229890Y-131720213D01*
X93104951Y-131892179D01*
X93008444Y-132081585D01*
X92942753Y-132283760D01*
X92909500Y-132493713D01*
X92909500Y-132706286D01*
X92942439Y-132914259D01*
X92942754Y-132916243D01*
X93001945Y-133098414D01*
X93008444Y-133118414D01*
X93104951Y-133307820D01*
X93229890Y-133479786D01*
X93380213Y-133630109D01*
X93552182Y-133755050D01*
X93560946Y-133759516D01*
X93611742Y-133807491D01*
X93628536Y-133875312D01*
X93605998Y-133941447D01*
X93560946Y-133980484D01*
X93552182Y-133984949D01*
X93380213Y-134109890D01*
X93229890Y-134260213D01*
X93104951Y-134432179D01*
X93008444Y-134621585D01*
X92942753Y-134823760D01*
X92922206Y-134953489D01*
X92909500Y-135033713D01*
X92909500Y-135246287D01*
X92917725Y-135298215D01*
X92941914Y-135450943D01*
X92942754Y-135456243D01*
X93001945Y-135638414D01*
X93008444Y-135658414D01*
X93104951Y-135847820D01*
X93229890Y-136019786D01*
X93380213Y-136170109D01*
X93552179Y-136295048D01*
X93552181Y-136295049D01*
X93552184Y-136295051D01*
X93741588Y-136391557D01*
X93943757Y-136457246D01*
X94153713Y-136490500D01*
X94153714Y-136490500D01*
X94366286Y-136490500D01*
X94366287Y-136490500D01*
X94576243Y-136457246D01*
X94778412Y-136391557D01*
X94967816Y-136295051D01*
X94995348Y-136275048D01*
X95139786Y-136170109D01*
X95139788Y-136170106D01*
X95139792Y-136170104D01*
X95290104Y-136019792D01*
X95290106Y-136019788D01*
X95290109Y-136019786D01*
X95399086Y-135869789D01*
X95415051Y-135847816D01*
X95511557Y-135658412D01*
X95577246Y-135456243D01*
X95610500Y-135246287D01*
X95610500Y-135033713D01*
X95577246Y-134823757D01*
X95511557Y-134621588D01*
X95415051Y-134432184D01*
X95415049Y-134432181D01*
X95415048Y-134432179D01*
X95290109Y-134260213D01*
X95139786Y-134109890D01*
X94967820Y-133984951D01*
X94967115Y-133984591D01*
X94959054Y-133980485D01*
X94908259Y-133932512D01*
X94891463Y-133864692D01*
X94913999Y-133798556D01*
X94959054Y-133759515D01*
X94967816Y-133755051D01*
X95044257Y-133699514D01*
X95139786Y-133630109D01*
X95139788Y-133630106D01*
X95139792Y-133630104D01*
X95290104Y-133479792D01*
X95290106Y-133479788D01*
X95290109Y-133479786D01*
X95415048Y-133307820D01*
X95415047Y-133307820D01*
X95415051Y-133307816D01*
X95511557Y-133118412D01*
X95577246Y-132916243D01*
X95610500Y-132706287D01*
X95610500Y-132493713D01*
X95577246Y-132283757D01*
X95511557Y-132081588D01*
X95415051Y-131892184D01*
X95415049Y-131892181D01*
X95415048Y-131892179D01*
X95290109Y-131720213D01*
X95139786Y-131569890D01*
X94967820Y-131444951D01*
X94967115Y-131444591D01*
X94959054Y-131440485D01*
X94908259Y-131392512D01*
X94891463Y-131324692D01*
X94913999Y-131258556D01*
X94959054Y-131219515D01*
X94967816Y-131215051D01*
X94999607Y-131191954D01*
X95139786Y-131090109D01*
X95139788Y-131090106D01*
X95139792Y-131090104D01*
X95290104Y-130939792D01*
X95290106Y-130939788D01*
X95290109Y-130939786D01*
X95415048Y-130767820D01*
X95415047Y-130767820D01*
X95415051Y-130767816D01*
X95511557Y-130578412D01*
X95577246Y-130376243D01*
X95610500Y-130166287D01*
X95610500Y-129953713D01*
X95577246Y-129743757D01*
X95511557Y-129541588D01*
X95415051Y-129352184D01*
X95415049Y-129352181D01*
X95415048Y-129352179D01*
X95290109Y-129180213D01*
X95139786Y-129029890D01*
X94967820Y-128904951D01*
X94967115Y-128904591D01*
X94959054Y-128900485D01*
X94908259Y-128852512D01*
X94891463Y-128784692D01*
X94913999Y-128718556D01*
X94959054Y-128679515D01*
X94967816Y-128675051D01*
X95044257Y-128619514D01*
X95139786Y-128550109D01*
X95139788Y-128550106D01*
X95139792Y-128550104D01*
X95290104Y-128399792D01*
X95290106Y-128399788D01*
X95290109Y-128399786D01*
X95407531Y-128238166D01*
X95415051Y-128227816D01*
X95511557Y-128038412D01*
X95577246Y-127836243D01*
X95610500Y-127626287D01*
X95610500Y-127413713D01*
X95577246Y-127203757D01*
X95511557Y-127001588D01*
X95415051Y-126812184D01*
X95415049Y-126812181D01*
X95415048Y-126812179D01*
X95290109Y-126640213D01*
X95139786Y-126489890D01*
X94967820Y-126364951D01*
X94967115Y-126364591D01*
X94959054Y-126360485D01*
X94908259Y-126312512D01*
X94891463Y-126244692D01*
X94913999Y-126178556D01*
X94959054Y-126139515D01*
X94967816Y-126135051D01*
X95044257Y-126079514D01*
X95139786Y-126010109D01*
X95139788Y-126010106D01*
X95139792Y-126010104D01*
X95290104Y-125859792D01*
X95290106Y-125859788D01*
X95290109Y-125859786D01*
X95415048Y-125687820D01*
X95415047Y-125687820D01*
X95415051Y-125687816D01*
X95511557Y-125498412D01*
X95577246Y-125296243D01*
X95610500Y-125086287D01*
X95610500Y-124873713D01*
X95577246Y-124663757D01*
X95511557Y-124461588D01*
X95415051Y-124272184D01*
X95415049Y-124272181D01*
X95415048Y-124272179D01*
X95290109Y-124100213D01*
X95176569Y-123986673D01*
X95143084Y-123925350D01*
X95148068Y-123855658D01*
X95189940Y-123799725D01*
X95220915Y-123782810D01*
X95352331Y-123733796D01*
X95467546Y-123647546D01*
X95553796Y-123532331D01*
X95604091Y-123397483D01*
X95610500Y-123337873D01*
X95610499Y-121542128D01*
X95604091Y-121482517D01*
X95603946Y-121482129D01*
X95553797Y-121347671D01*
X95553793Y-121347664D01*
X95467547Y-121232455D01*
X95467544Y-121232452D01*
X95352335Y-121146206D01*
X95352328Y-121146202D01*
X95217482Y-121095908D01*
X95217483Y-121095908D01*
X95157883Y-121089501D01*
X95157881Y-121089500D01*
X95157873Y-121089500D01*
X95157864Y-121089500D01*
X93362129Y-121089500D01*
X93362123Y-121089501D01*
X93302516Y-121095908D01*
X93167671Y-121146202D01*
X93167664Y-121146206D01*
X93052455Y-121232452D01*
X93052452Y-121232455D01*
X92966206Y-121347664D01*
X92966202Y-121347671D01*
X92915908Y-121482517D01*
X92910189Y-121535715D01*
X92909501Y-121542123D01*
X92909500Y-121542135D01*
X91460499Y-121542135D01*
X91460499Y-121522128D01*
X91454091Y-121462517D01*
X91442032Y-121430186D01*
X91403797Y-121327671D01*
X91403793Y-121327664D01*
X91317547Y-121212455D01*
X91317544Y-121212452D01*
X91202335Y-121126206D01*
X91202328Y-121126202D01*
X91067482Y-121075908D01*
X91067483Y-121075908D01*
X91007883Y-121069501D01*
X91007881Y-121069500D01*
X91007873Y-121069500D01*
X91007864Y-121069500D01*
X89212129Y-121069500D01*
X89212123Y-121069501D01*
X89152516Y-121075908D01*
X89017671Y-121126202D01*
X89017664Y-121126206D01*
X88902455Y-121212452D01*
X88902452Y-121212455D01*
X88816206Y-121327664D01*
X88816202Y-121327671D01*
X88765908Y-121462517D01*
X88759501Y-121522116D01*
X88759501Y-121522123D01*
X88759500Y-121522135D01*
X88338306Y-121522135D01*
X88338306Y-109174500D01*
X88357991Y-109107461D01*
X88410795Y-109061706D01*
X88462306Y-109050500D01*
X88958743Y-109050500D01*
X89025782Y-109070185D01*
X89071537Y-109122989D01*
X89081481Y-109192147D01*
X89069228Y-109230795D01*
X89048444Y-109271585D01*
X88982753Y-109473760D01*
X88949500Y-109683713D01*
X88949500Y-109896286D01*
X88972544Y-110041784D01*
X88982754Y-110106243D01*
X89041677Y-110287590D01*
X89048444Y-110308414D01*
X89144951Y-110497820D01*
X89269890Y-110669786D01*
X89420213Y-110820109D01*
X89592182Y-110945050D01*
X89600946Y-110949516D01*
X89651742Y-110997491D01*
X89668536Y-111065312D01*
X89645998Y-111131447D01*
X89600946Y-111170484D01*
X89592182Y-111174949D01*
X89420213Y-111299890D01*
X89269890Y-111450213D01*
X89144951Y-111622179D01*
X89048444Y-111811585D01*
X88982753Y-112013760D01*
X88949500Y-112223713D01*
X88949500Y-112436286D01*
X88977143Y-112610821D01*
X88982754Y-112646243D01*
X89022516Y-112768618D01*
X89048444Y-112848414D01*
X89144951Y-113037820D01*
X89269890Y-113209786D01*
X89420213Y-113360109D01*
X89592182Y-113485050D01*
X89600946Y-113489516D01*
X89651742Y-113537491D01*
X89668536Y-113605312D01*
X89645998Y-113671447D01*
X89600946Y-113710484D01*
X89592182Y-113714949D01*
X89420213Y-113839890D01*
X89269890Y-113990213D01*
X89144951Y-114162179D01*
X89048444Y-114351585D01*
X88982753Y-114553760D01*
X88963113Y-114677765D01*
X88949500Y-114763713D01*
X88949500Y-114976287D01*
X88958053Y-115030289D01*
X88981002Y-115175186D01*
X88982754Y-115186243D01*
X89039647Y-115361342D01*
X89048444Y-115388414D01*
X89144951Y-115577820D01*
X89269890Y-115749786D01*
X89420213Y-115900109D01*
X89592179Y-116025048D01*
X89592181Y-116025049D01*
X89592184Y-116025051D01*
X89781588Y-116121557D01*
X89983757Y-116187246D01*
X90193713Y-116220500D01*
X90193714Y-116220500D01*
X90406286Y-116220500D01*
X90406287Y-116220500D01*
X90616243Y-116187246D01*
X90818412Y-116121557D01*
X91007816Y-116025051D01*
X91029789Y-116009086D01*
X91179786Y-115900109D01*
X91179788Y-115900106D01*
X91179792Y-115900104D01*
X91330104Y-115749792D01*
X91330106Y-115749788D01*
X91330109Y-115749786D01*
X91388661Y-115669193D01*
X91455051Y-115577816D01*
X91455349Y-115577230D01*
X91475235Y-115538205D01*
X91523209Y-115487409D01*
X91585719Y-115470500D01*
X92725501Y-115470500D01*
X92792540Y-115490185D01*
X92838295Y-115542989D01*
X92849501Y-115594500D01*
X92849501Y-115777876D01*
X92855908Y-115837483D01*
X92906202Y-115972328D01*
X92906206Y-115972335D01*
X92992452Y-116087544D01*
X92992455Y-116087547D01*
X93107664Y-116173793D01*
X93107671Y-116173797D01*
X93242517Y-116224091D01*
X93242516Y-116224091D01*
X93249444Y-116224835D01*
X93302127Y-116230500D01*
X95097872Y-116230499D01*
X95157483Y-116224091D01*
X95292331Y-116173796D01*
X95407546Y-116087546D01*
X95493796Y-115972331D01*
X95544091Y-115837483D01*
X95550500Y-115777873D01*
X95550499Y-113982128D01*
X95544091Y-113922517D01*
X95535026Y-113898213D01*
X95493797Y-113787671D01*
X95493793Y-113787664D01*
X95407547Y-113672455D01*
X95407544Y-113672452D01*
X95292335Y-113586206D01*
X95292328Y-113586202D01*
X95160917Y-113537189D01*
X95104983Y-113495318D01*
X95080566Y-113429853D01*
X95095418Y-113361580D01*
X95116563Y-113333332D01*
X95230104Y-113219792D01*
X95237370Y-113209792D01*
X95355048Y-113047820D01*
X95355047Y-113047820D01*
X95355051Y-113047816D01*
X95451557Y-112858412D01*
X95517246Y-112656243D01*
X95550500Y-112446287D01*
X95550500Y-112233713D01*
X95517246Y-112023757D01*
X95451557Y-111821588D01*
X95355051Y-111632184D01*
X95355049Y-111632181D01*
X95355048Y-111632179D01*
X95230109Y-111460213D01*
X95079786Y-111309890D01*
X94907820Y-111184951D01*
X94907115Y-111184591D01*
X94899054Y-111180485D01*
X94848259Y-111132512D01*
X94831463Y-111064692D01*
X94853999Y-110998556D01*
X94899054Y-110959515D01*
X94907816Y-110955051D01*
X94994138Y-110892335D01*
X95079786Y-110830109D01*
X95079788Y-110830106D01*
X95079792Y-110830104D01*
X95230104Y-110679792D01*
X95230106Y-110679788D01*
X95230109Y-110679786D01*
X95355048Y-110507820D01*
X95355047Y-110507820D01*
X95355051Y-110507816D01*
X95451557Y-110318412D01*
X95517246Y-110116243D01*
X95550500Y-109906287D01*
X95550500Y-109693713D01*
X95517246Y-109483757D01*
X95451557Y-109281588D01*
X95425677Y-109230795D01*
X95412781Y-109162125D01*
X95439058Y-109097385D01*
X95496164Y-109057128D01*
X95536162Y-109050500D01*
X96419903Y-109050500D01*
X96486942Y-109070185D01*
X96507584Y-109086819D01*
X96683181Y-109262416D01*
X96716666Y-109323739D01*
X96719500Y-109350097D01*
X96719500Y-110697870D01*
X96719501Y-110697876D01*
X96725908Y-110757483D01*
X96776202Y-110892328D01*
X96776206Y-110892335D01*
X96862452Y-111007544D01*
X96862455Y-111007547D01*
X96977664Y-111093793D01*
X96977671Y-111093797D01*
X97109082Y-111142810D01*
X97165016Y-111184681D01*
X97189433Y-111250145D01*
X97174582Y-111318418D01*
X97153431Y-111346673D01*
X97039889Y-111460215D01*
X96914951Y-111632179D01*
X96818444Y-111821585D01*
X96752753Y-112023760D01*
X96719500Y-112233713D01*
X96719500Y-112446286D01*
X96751169Y-112646239D01*
X96752754Y-112656243D01*
X96815194Y-112848414D01*
X96818444Y-112858414D01*
X96914951Y-113047820D01*
X97039890Y-113219786D01*
X97190213Y-113370109D01*
X97362182Y-113495050D01*
X97370946Y-113499516D01*
X97421742Y-113547491D01*
X97438536Y-113615312D01*
X97415998Y-113681447D01*
X97370946Y-113720484D01*
X97362182Y-113724949D01*
X97190213Y-113849890D01*
X97039890Y-114000213D01*
X96914951Y-114172179D01*
X96818444Y-114361585D01*
X96752753Y-114563760D01*
X96733016Y-114688376D01*
X96719500Y-114773713D01*
X96719500Y-114986287D01*
X96721363Y-114998047D01*
X96751169Y-115186239D01*
X96752754Y-115196243D01*
X96816146Y-115391344D01*
X96818444Y-115398414D01*
X96914951Y-115587820D01*
X97039890Y-115759786D01*
X97190213Y-115910109D01*
X97362182Y-116035050D01*
X97362184Y-116035051D01*
X97428644Y-116068914D01*
X97479439Y-116116886D01*
X97496235Y-116184707D01*
X97473698Y-116250842D01*
X97460030Y-116267079D01*
X96551286Y-117175824D01*
X96439481Y-117287628D01*
X96439479Y-117287631D01*
X96389361Y-117374440D01*
X96389359Y-117374442D01*
X96360425Y-117424555D01*
X96360424Y-117424556D01*
X96360423Y-117424561D01*
X96319499Y-117577289D01*
X96319499Y-117577291D01*
X96319499Y-117745392D01*
X96319500Y-117745405D01*
X96319500Y-128393330D01*
X96319499Y-128393348D01*
X96319499Y-128559054D01*
X96319498Y-128559054D01*
X96319499Y-128559057D01*
X96359272Y-128707491D01*
X96360424Y-128711788D01*
X96366754Y-128722751D01*
X96366756Y-128722754D01*
X96439477Y-128848712D01*
X96439481Y-128848717D01*
X96558349Y-128967585D01*
X96558355Y-128967590D01*
X97106241Y-129515476D01*
X97139726Y-129576799D01*
X97136492Y-129641473D01*
X97122753Y-129683757D01*
X97089500Y-129893713D01*
X97089500Y-130106286D01*
X97114398Y-130263489D01*
X97122754Y-130316243D01*
X97158645Y-130426705D01*
X97188444Y-130518414D01*
X97284951Y-130707820D01*
X97409890Y-130879786D01*
X97560213Y-131030109D01*
X97732182Y-131155050D01*
X97740946Y-131159516D01*
X97791742Y-131207491D01*
X97808536Y-131275312D01*
X97785998Y-131341447D01*
X97740946Y-131380484D01*
X97732182Y-131384949D01*
X97560213Y-131509890D01*
X97409890Y-131660213D01*
X97284951Y-131832179D01*
X97188444Y-132021585D01*
X97188443Y-132021587D01*
X97188443Y-132021588D01*
X97175447Y-132061585D01*
X97122753Y-132223760D01*
X97089500Y-132433713D01*
X97089500Y-132646286D01*
X97119637Y-132836568D01*
X97122754Y-132856243D01*
X97169671Y-133000639D01*
X97188444Y-133058414D01*
X97284951Y-133247820D01*
X97409890Y-133419786D01*
X97560213Y-133570109D01*
X97732182Y-133695050D01*
X97740946Y-133699516D01*
X97791742Y-133747491D01*
X97808536Y-133815312D01*
X97785998Y-133881447D01*
X97740946Y-133920484D01*
X97732182Y-133924949D01*
X97560213Y-134049890D01*
X97409890Y-134200213D01*
X97284951Y-134372179D01*
X97188444Y-134561585D01*
X97122753Y-134763760D01*
X97089500Y-134973713D01*
X97089500Y-135186286D01*
X97122238Y-135392989D01*
X97122754Y-135396243D01*
X97187426Y-135595283D01*
X97188444Y-135598414D01*
X97284951Y-135787820D01*
X97409890Y-135959786D01*
X97560213Y-136110109D01*
X97732179Y-136235048D01*
X97732181Y-136235049D01*
X97732184Y-136235051D01*
X97921588Y-136331557D01*
X98123757Y-136397246D01*
X98333713Y-136430500D01*
X98333714Y-136430500D01*
X98546286Y-136430500D01*
X98546287Y-136430500D01*
X98756243Y-136397246D01*
X98958412Y-136331557D01*
X99147816Y-136235051D01*
X99256832Y-136155847D01*
X99319786Y-136110109D01*
X99319788Y-136110106D01*
X99319792Y-136110104D01*
X99470104Y-135959792D01*
X99470106Y-135959788D01*
X99470109Y-135959786D01*
X99595048Y-135787820D01*
X99595047Y-135787820D01*
X99595051Y-135787816D01*
X99691557Y-135598412D01*
X99757246Y-135396243D01*
X99790500Y-135186287D01*
X99790500Y-134973713D01*
X99757246Y-134763757D01*
X99691557Y-134561588D01*
X99595051Y-134372184D01*
X99595049Y-134372181D01*
X99595048Y-134372179D01*
X99470109Y-134200213D01*
X99319786Y-134049890D01*
X99147820Y-133924951D01*
X99147205Y-133924637D01*
X99139054Y-133920484D01*
X99088259Y-133872512D01*
X99071463Y-133804692D01*
X99093999Y-133738556D01*
X99139054Y-133699515D01*
X99147816Y-133695051D01*
X99237209Y-133630104D01*
X99319786Y-133570109D01*
X99319788Y-133570106D01*
X99319792Y-133570104D01*
X99470104Y-133419792D01*
X99470106Y-133419788D01*
X99470109Y-133419786D01*
X99595048Y-133247820D01*
X99595047Y-133247820D01*
X99595051Y-133247816D01*
X99691557Y-133058412D01*
X99757246Y-132856243D01*
X99790500Y-132646287D01*
X99790500Y-132433713D01*
X99789411Y-132426836D01*
X99773704Y-132327664D01*
X99771275Y-132312332D01*
X103189500Y-132312332D01*
X103189500Y-132587667D01*
X103189501Y-132587684D01*
X103225438Y-132860655D01*
X103225439Y-132860660D01*
X103225440Y-132860666D01*
X103248576Y-132947011D01*
X103296704Y-133126630D01*
X103402075Y-133381017D01*
X103402080Y-133381028D01*
X103464525Y-133489184D01*
X103539751Y-133619479D01*
X103539753Y-133619482D01*
X103539754Y-133619483D01*
X103707370Y-133837926D01*
X103707376Y-133837933D01*
X103902066Y-134032623D01*
X103902073Y-134032629D01*
X103987542Y-134098211D01*
X104120521Y-134200249D01*
X104224373Y-134260208D01*
X104358971Y-134337919D01*
X104358976Y-134337921D01*
X104358979Y-134337923D01*
X104613368Y-134443295D01*
X104879334Y-134514560D01*
X105152326Y-134550500D01*
X105152333Y-134550500D01*
X105427667Y-134550500D01*
X105427674Y-134550500D01*
X105700666Y-134514560D01*
X105966632Y-134443295D01*
X106221021Y-134337923D01*
X106459479Y-134200249D01*
X106677928Y-134032628D01*
X106872628Y-133837928D01*
X107040249Y-133619479D01*
X107177923Y-133381021D01*
X107283295Y-133126632D01*
X107354560Y-132860666D01*
X107390500Y-132587674D01*
X107390500Y-132312326D01*
X107386551Y-132282332D01*
X109219500Y-132282332D01*
X109219500Y-132557667D01*
X109219501Y-132557684D01*
X109255438Y-132830655D01*
X109255439Y-132830660D01*
X109255440Y-132830666D01*
X109277839Y-132914259D01*
X109326704Y-133096630D01*
X109432075Y-133351017D01*
X109432080Y-133351028D01*
X109494876Y-133459792D01*
X109569751Y-133589479D01*
X109569753Y-133589482D01*
X109569754Y-133589483D01*
X109737370Y-133807926D01*
X109737376Y-133807933D01*
X109932066Y-134002623D01*
X109932072Y-134002628D01*
X110150521Y-134170249D01*
X110271702Y-134240213D01*
X110388971Y-134307919D01*
X110388976Y-134307921D01*
X110388979Y-134307923D01*
X110643368Y-134413295D01*
X110909334Y-134484560D01*
X111182326Y-134520500D01*
X111182333Y-134520500D01*
X111457667Y-134520500D01*
X111457674Y-134520500D01*
X111730666Y-134484560D01*
X111996632Y-134413295D01*
X112251021Y-134307923D01*
X112489479Y-134170249D01*
X112707928Y-134002628D01*
X112902628Y-133807928D01*
X113070249Y-133589479D01*
X113207923Y-133351021D01*
X113313295Y-133096632D01*
X113384560Y-132830666D01*
X113420500Y-132557674D01*
X113420500Y-132282326D01*
X113384560Y-132009334D01*
X113313295Y-131743368D01*
X113207923Y-131488979D01*
X113207921Y-131488976D01*
X113207919Y-131488971D01*
X113145283Y-131380484D01*
X113070249Y-131250521D01*
X112931811Y-131070104D01*
X112902629Y-131032073D01*
X112902623Y-131032066D01*
X112707933Y-130837376D01*
X112707926Y-130837370D01*
X112489483Y-130669754D01*
X112489482Y-130669753D01*
X112489479Y-130669751D01*
X112394407Y-130614861D01*
X112251028Y-130532080D01*
X112251017Y-130532075D01*
X111996630Y-130426704D01*
X111842628Y-130385440D01*
X111730666Y-130355440D01*
X111730660Y-130355439D01*
X111730655Y-130355438D01*
X111457684Y-130319501D01*
X111457679Y-130319500D01*
X111457674Y-130319500D01*
X111182326Y-130319500D01*
X111182320Y-130319500D01*
X111182315Y-130319501D01*
X110909344Y-130355438D01*
X110909337Y-130355439D01*
X110909334Y-130355440D01*
X110868065Y-130366498D01*
X110643369Y-130426704D01*
X110388982Y-130532075D01*
X110388971Y-130532080D01*
X110150516Y-130669754D01*
X109932073Y-130837370D01*
X109932066Y-130837376D01*
X109737376Y-131032066D01*
X109737370Y-131032073D01*
X109569754Y-131250516D01*
X109432080Y-131488971D01*
X109432075Y-131488982D01*
X109326704Y-131743369D01*
X109309071Y-131809179D01*
X109256254Y-132006298D01*
X109255441Y-132009331D01*
X109255438Y-132009344D01*
X109219501Y-132282315D01*
X109219500Y-132282332D01*
X107386551Y-132282332D01*
X107386550Y-132282326D01*
X107367733Y-132139394D01*
X107354560Y-132039334D01*
X107283295Y-131773368D01*
X107177923Y-131518979D01*
X107177921Y-131518976D01*
X107177919Y-131518971D01*
X107104907Y-131392512D01*
X107040249Y-131280521D01*
X106950200Y-131163166D01*
X106872629Y-131062073D01*
X106872623Y-131062066D01*
X106677933Y-130867376D01*
X106677926Y-130867370D01*
X106459483Y-130699754D01*
X106459482Y-130699753D01*
X106459479Y-130699751D01*
X106364407Y-130644861D01*
X106221028Y-130562080D01*
X106221017Y-130562075D01*
X105966630Y-130456704D01*
X105833649Y-130421072D01*
X105700666Y-130385440D01*
X105700660Y-130385439D01*
X105700655Y-130385438D01*
X105427684Y-130349501D01*
X105427679Y-130349500D01*
X105427674Y-130349500D01*
X105152326Y-130349500D01*
X105152320Y-130349500D01*
X105152315Y-130349501D01*
X104879344Y-130385438D01*
X104879337Y-130385439D01*
X104879334Y-130385440D01*
X104823125Y-130400500D01*
X104613369Y-130456704D01*
X104358982Y-130562075D01*
X104358971Y-130562080D01*
X104120516Y-130699754D01*
X103902073Y-130867370D01*
X103902066Y-130867376D01*
X103707376Y-131062066D01*
X103707370Y-131062073D01*
X103539754Y-131280516D01*
X103402080Y-131518971D01*
X103402075Y-131518982D01*
X103296704Y-131773369D01*
X103263217Y-131898348D01*
X103233479Y-132009334D01*
X103225441Y-132039331D01*
X103225438Y-132039344D01*
X103189501Y-132312315D01*
X103189500Y-132312332D01*
X99771275Y-132312332D01*
X99763581Y-132263757D01*
X99757246Y-132223757D01*
X99691557Y-132021588D01*
X99595051Y-131832184D01*
X99595049Y-131832181D01*
X99595048Y-131832179D01*
X99470109Y-131660213D01*
X99319786Y-131509890D01*
X99147820Y-131384951D01*
X99147205Y-131384637D01*
X99139054Y-131380484D01*
X99088259Y-131332512D01*
X99071463Y-131264692D01*
X99093999Y-131198556D01*
X99139054Y-131159515D01*
X99147816Y-131155051D01*
X99209426Y-131110289D01*
X99319786Y-131030109D01*
X99319788Y-131030106D01*
X99319792Y-131030104D01*
X99470104Y-130879792D01*
X99470106Y-130879788D01*
X99470109Y-130879786D01*
X99595048Y-130707820D01*
X99595047Y-130707820D01*
X99595051Y-130707816D01*
X99691557Y-130518412D01*
X99757246Y-130316243D01*
X99790500Y-130106287D01*
X99790500Y-129893713D01*
X99757246Y-129683757D01*
X99691557Y-129481588D01*
X99595051Y-129292184D01*
X99595049Y-129292181D01*
X99595048Y-129292179D01*
X99470109Y-129120213D01*
X99319786Y-128969890D01*
X99147820Y-128844951D01*
X99147115Y-128844591D01*
X99139054Y-128840485D01*
X99088259Y-128792512D01*
X99071463Y-128724692D01*
X99093999Y-128658556D01*
X99139054Y-128619515D01*
X99147816Y-128615051D01*
X99237209Y-128550104D01*
X99319786Y-128490109D01*
X99319788Y-128490106D01*
X99319792Y-128490104D01*
X99470104Y-128339792D01*
X99470106Y-128339788D01*
X99470109Y-128339786D01*
X99595048Y-128167820D01*
X99595047Y-128167820D01*
X99595051Y-128167816D01*
X99691557Y-127978412D01*
X99757246Y-127776243D01*
X99790500Y-127566287D01*
X99790500Y-127353713D01*
X99757246Y-127143757D01*
X99691557Y-126941588D01*
X99595051Y-126752184D01*
X99595049Y-126752181D01*
X99595048Y-126752179D01*
X99470109Y-126580213D01*
X99319786Y-126429890D01*
X99147820Y-126304951D01*
X99147205Y-126304637D01*
X99139054Y-126300484D01*
X99088259Y-126252512D01*
X99071463Y-126184692D01*
X99093999Y-126118556D01*
X99139054Y-126079515D01*
X99147816Y-126075051D01*
X99237209Y-126010104D01*
X99319786Y-125950109D01*
X99319788Y-125950106D01*
X99319792Y-125950104D01*
X99470104Y-125799792D01*
X99470106Y-125799788D01*
X99470109Y-125799786D01*
X99595048Y-125627820D01*
X99595047Y-125627820D01*
X99595051Y-125627816D01*
X99691557Y-125438412D01*
X99757246Y-125236243D01*
X99790500Y-125026287D01*
X99790500Y-124813713D01*
X99757246Y-124603757D01*
X99691557Y-124401588D01*
X99595051Y-124212184D01*
X99595049Y-124212181D01*
X99595048Y-124212179D01*
X99470109Y-124040213D01*
X99356569Y-123926673D01*
X99323084Y-123865350D01*
X99328068Y-123795658D01*
X99369940Y-123739725D01*
X99400915Y-123722810D01*
X99532331Y-123673796D01*
X99647546Y-123587546D01*
X99733796Y-123472331D01*
X99784091Y-123337483D01*
X99790500Y-123277873D01*
X99790500Y-123104500D01*
X99810185Y-123037461D01*
X99862989Y-122991706D01*
X99914500Y-122980500D01*
X109518075Y-122980500D01*
X109518091Y-122980501D01*
X109525687Y-122980501D01*
X109683798Y-122980501D01*
X109683801Y-122980501D01*
X109836529Y-122939577D01*
X109891187Y-122908020D01*
X109973460Y-122860520D01*
X110085264Y-122748716D01*
X110085264Y-122748714D01*
X110095468Y-122738511D01*
X110095471Y-122738506D01*
X114047821Y-118786157D01*
X114109142Y-118752674D01*
X114178834Y-118757658D01*
X114234767Y-118799530D01*
X114259184Y-118864994D01*
X114259500Y-118873840D01*
X114259500Y-131898330D01*
X114259499Y-131898348D01*
X114259499Y-132064054D01*
X114259498Y-132064054D01*
X114300423Y-132216785D01*
X114325543Y-132260295D01*
X114325545Y-132260297D01*
X114364439Y-132327664D01*
X114379479Y-132353714D01*
X114379481Y-132353717D01*
X114498349Y-132472585D01*
X114498355Y-132472590D01*
X115978181Y-133952416D01*
X116011666Y-134013739D01*
X116014500Y-134040097D01*
X116014500Y-137233059D01*
X115994815Y-137300098D01*
X115942011Y-137345853D01*
X115872853Y-137355797D01*
X115809297Y-137326772D01*
X115802819Y-137320740D01*
X115790292Y-137308213D01*
X115790288Y-137308210D01*
X115659185Y-137220609D01*
X115659172Y-137220602D01*
X115513501Y-137160264D01*
X115513489Y-137160261D01*
X115358845Y-137129500D01*
X115358842Y-137129500D01*
X115201158Y-137129500D01*
X115201155Y-137129500D01*
X115046510Y-137160261D01*
X115046498Y-137160264D01*
X114900827Y-137220602D01*
X114900814Y-137220609D01*
X114769711Y-137308210D01*
X114769707Y-137308213D01*
X114658213Y-137419707D01*
X114658210Y-137419711D01*
X114570609Y-137550814D01*
X114570602Y-137550827D01*
X114510264Y-137696498D01*
X114510261Y-137696508D01*
X114479361Y-137851850D01*
X114446976Y-137913761D01*
X114445425Y-137915339D01*
X103317584Y-149043181D01*
X103256261Y-149076666D01*
X103229903Y-149079500D01*
X99379766Y-149079500D01*
X99312727Y-149059815D01*
X99310875Y-149058602D01*
X99179185Y-148970609D01*
X99179172Y-148970602D01*
X99033501Y-148910264D01*
X99033489Y-148910261D01*
X98878845Y-148879500D01*
X98878842Y-148879500D01*
X98721158Y-148879500D01*
X98721155Y-148879500D01*
X98566510Y-148910261D01*
X98566498Y-148910264D01*
X98420827Y-148970602D01*
X98420814Y-148970609D01*
X98289711Y-149058210D01*
X98289707Y-149058213D01*
X98178213Y-149169707D01*
X98178210Y-149169711D01*
X98090609Y-149300814D01*
X98090602Y-149300827D01*
X98030264Y-149446498D01*
X98030261Y-149446510D01*
X97999500Y-149601153D01*
X97999500Y-149758846D01*
X98030261Y-149913489D01*
X98030264Y-149913501D01*
X98090602Y-150059172D01*
X98090609Y-150059185D01*
X98178210Y-150190288D01*
X98178213Y-150190292D01*
X98289707Y-150301786D01*
X98289711Y-150301789D01*
X98420814Y-150389390D01*
X98420827Y-150389397D01*
X98483091Y-150415187D01*
X98566503Y-150449737D01*
X98721153Y-150480499D01*
X98721156Y-150480500D01*
X98721158Y-150480500D01*
X98878844Y-150480500D01*
X98878845Y-150480499D01*
X99033497Y-150449737D01*
X99179179Y-150389394D01*
X99238885Y-150349500D01*
X99310875Y-150301398D01*
X99377553Y-150280520D01*
X99379766Y-150280500D01*
X103341788Y-150280500D01*
X103408827Y-150300185D01*
X103454582Y-150352989D01*
X103464526Y-150422147D01*
X103435501Y-150485703D01*
X103416357Y-150501981D01*
X103417011Y-150502807D01*
X103411343Y-150507288D01*
X103287289Y-150631342D01*
X103195187Y-150780663D01*
X103195186Y-150780666D01*
X103140001Y-150947203D01*
X103140001Y-150947204D01*
X103140000Y-150947204D01*
X103129500Y-151049983D01*
X103129500Y-153850001D01*
X103129501Y-153850018D01*
X103140000Y-153952796D01*
X103140001Y-153952799D01*
X103188505Y-154099172D01*
X103195186Y-154119334D01*
X103287288Y-154268656D01*
X103411344Y-154392712D01*
X103560666Y-154484814D01*
X103727203Y-154539999D01*
X103829991Y-154550500D01*
X104621183Y-154550499D01*
X104688222Y-154570183D01*
X104714166Y-154592462D01*
X104722371Y-154601762D01*
X104749480Y-154648716D01*
X104861284Y-154760520D01*
X104861286Y-154760521D01*
X106311284Y-156210520D01*
X106311286Y-156210521D01*
X106311290Y-156210524D01*
X106448209Y-156289573D01*
X106448212Y-156289575D01*
X106448216Y-156289577D01*
X106600943Y-156330501D01*
X106600945Y-156330501D01*
X106766654Y-156330501D01*
X106766670Y-156330500D01*
X114373331Y-156330500D01*
X114373347Y-156330501D01*
X114380943Y-156330501D01*
X114539054Y-156330501D01*
X114539057Y-156330501D01*
X114691785Y-156289577D01*
X114757242Y-156251785D01*
X114828716Y-156210520D01*
X114940520Y-156098716D01*
X114940520Y-156098714D01*
X114950724Y-156088511D01*
X114950728Y-156088506D01*
X116428506Y-154610728D01*
X116428511Y-154610724D01*
X116438714Y-154600520D01*
X116438716Y-154600520D01*
X116550520Y-154488716D01*
X116601451Y-154400500D01*
X116629577Y-154351785D01*
X116670501Y-154199057D01*
X116670501Y-154040943D01*
X116670501Y-154033348D01*
X116670500Y-154033330D01*
X116670500Y-153641153D01*
X127129500Y-153641153D01*
X127129500Y-153798846D01*
X127160261Y-153953489D01*
X127160264Y-153953501D01*
X127220602Y-154099172D01*
X127220609Y-154099185D01*
X127308210Y-154230288D01*
X127308213Y-154230292D01*
X127419707Y-154341786D01*
X127419711Y-154341789D01*
X127550814Y-154429390D01*
X127550827Y-154429397D01*
X127694028Y-154488712D01*
X127696503Y-154489737D01*
X127847312Y-154519735D01*
X127851153Y-154520499D01*
X127851156Y-154520500D01*
X127851158Y-154520500D01*
X128008844Y-154520500D01*
X128008845Y-154520499D01*
X128163497Y-154489737D01*
X128309179Y-154429394D01*
X128352422Y-154400500D01*
X128440875Y-154341398D01*
X128507553Y-154320520D01*
X128509766Y-154320500D01*
X131447059Y-154320500D01*
X131514098Y-154340185D01*
X131534740Y-154356819D01*
X131549707Y-154371786D01*
X131549711Y-154371789D01*
X131680814Y-154459390D01*
X131680827Y-154459397D01*
X131754078Y-154489738D01*
X131826503Y-154519737D01*
X131978428Y-154549957D01*
X131981153Y-154550499D01*
X131981156Y-154550500D01*
X131981158Y-154550500D01*
X132138844Y-154550500D01*
X132138845Y-154550499D01*
X132293497Y-154519737D01*
X132439179Y-154459394D01*
X132570289Y-154371789D01*
X132681789Y-154260289D01*
X132769394Y-154129179D01*
X132829737Y-153983497D01*
X132860500Y-153828842D01*
X132860500Y-153671158D01*
X132860500Y-153671155D01*
X132860499Y-153671153D01*
X132829738Y-153516510D01*
X132829737Y-153516503D01*
X132817309Y-153486498D01*
X132769397Y-153370827D01*
X132769390Y-153370814D01*
X132681789Y-153239711D01*
X132681786Y-153239707D01*
X132570292Y-153128213D01*
X132570288Y-153128210D01*
X132439185Y-153040609D01*
X132439172Y-153040602D01*
X132293501Y-152980264D01*
X132293489Y-152980261D01*
X132138845Y-152949500D01*
X132138842Y-152949500D01*
X131981158Y-152949500D01*
X131981155Y-152949500D01*
X131826510Y-152980261D01*
X131826498Y-152980264D01*
X131680827Y-153040602D01*
X131680815Y-153040609D01*
X131594024Y-153098602D01*
X131527347Y-153119480D01*
X131525133Y-153119500D01*
X128509766Y-153119500D01*
X128442727Y-153099815D01*
X128440875Y-153098602D01*
X128309185Y-153010609D01*
X128309172Y-153010602D01*
X128163501Y-152950264D01*
X128163489Y-152950261D01*
X128008845Y-152919500D01*
X128008842Y-152919500D01*
X127851158Y-152919500D01*
X127851155Y-152919500D01*
X127696510Y-152950261D01*
X127696498Y-152950264D01*
X127550827Y-153010602D01*
X127550814Y-153010609D01*
X127419711Y-153098210D01*
X127419707Y-153098213D01*
X127308213Y-153209707D01*
X127308210Y-153209711D01*
X127220609Y-153340814D01*
X127220602Y-153340827D01*
X127160264Y-153486498D01*
X127160261Y-153486510D01*
X127129500Y-153641153D01*
X116670500Y-153641153D01*
X116670500Y-147021153D01*
X118749500Y-147021153D01*
X118749500Y-147178846D01*
X118780261Y-147333489D01*
X118780264Y-147333501D01*
X118840602Y-147479172D01*
X118840609Y-147479185D01*
X118928210Y-147610288D01*
X118928213Y-147610292D01*
X119039707Y-147721786D01*
X119039711Y-147721789D01*
X119170814Y-147809390D01*
X119170827Y-147809397D01*
X119244078Y-147839738D01*
X119316503Y-147869737D01*
X119471153Y-147900499D01*
X119471156Y-147900500D01*
X119471158Y-147900500D01*
X119628844Y-147900500D01*
X119628845Y-147900499D01*
X119783497Y-147869737D01*
X119929179Y-147809394D01*
X120060289Y-147721789D01*
X120060292Y-147721786D01*
X120075260Y-147706819D01*
X120136583Y-147673334D01*
X120162941Y-147670500D01*
X122150234Y-147670500D01*
X122217273Y-147690185D01*
X122219125Y-147691398D01*
X122350814Y-147779390D01*
X122350827Y-147779397D01*
X122496498Y-147839735D01*
X122496503Y-147839737D01*
X122647312Y-147869735D01*
X122651153Y-147870499D01*
X122651156Y-147870500D01*
X122651158Y-147870500D01*
X122808844Y-147870500D01*
X122808845Y-147870499D01*
X122963497Y-147839737D01*
X123109179Y-147779394D01*
X123240289Y-147691789D01*
X123351789Y-147580289D01*
X123439394Y-147449179D01*
X123499737Y-147303497D01*
X123530500Y-147148842D01*
X123530500Y-146991158D01*
X123530500Y-146991155D01*
X123530499Y-146991153D01*
X123499737Y-146836503D01*
X123451823Y-146720827D01*
X123439397Y-146690827D01*
X123439390Y-146690814D01*
X123351789Y-146559711D01*
X123351786Y-146559707D01*
X123240292Y-146448213D01*
X123240288Y-146448210D01*
X123109185Y-146360609D01*
X123109172Y-146360602D01*
X122963501Y-146300264D01*
X122963489Y-146300261D01*
X122808845Y-146269500D01*
X122808842Y-146269500D01*
X122651158Y-146269500D01*
X122651155Y-146269500D01*
X122496510Y-146300261D01*
X122496498Y-146300264D01*
X122350827Y-146360602D01*
X122350814Y-146360609D01*
X122219125Y-146448602D01*
X122152447Y-146469480D01*
X122150234Y-146469500D01*
X120084867Y-146469500D01*
X120017828Y-146449815D01*
X120015976Y-146448602D01*
X119929184Y-146390609D01*
X119929172Y-146390602D01*
X119783501Y-146330264D01*
X119783489Y-146330261D01*
X119628845Y-146299500D01*
X119628842Y-146299500D01*
X119471158Y-146299500D01*
X119471155Y-146299500D01*
X119316510Y-146330261D01*
X119316498Y-146330264D01*
X119170827Y-146390602D01*
X119170814Y-146390609D01*
X119039711Y-146478210D01*
X119039707Y-146478213D01*
X118928213Y-146589707D01*
X118928210Y-146589711D01*
X118840609Y-146720814D01*
X118840602Y-146720827D01*
X118780264Y-146866498D01*
X118780261Y-146866510D01*
X118749500Y-147021153D01*
X116670500Y-147021153D01*
X116670500Y-145865877D01*
X116690185Y-145798838D01*
X116742989Y-145753083D01*
X116812147Y-145743139D01*
X116820475Y-145744628D01*
X116822190Y-145744994D01*
X116822203Y-145744999D01*
X116924991Y-145755500D01*
X118275008Y-145755499D01*
X118377797Y-145744999D01*
X118544334Y-145689814D01*
X118693656Y-145597712D01*
X118817712Y-145473656D01*
X118909814Y-145324334D01*
X118909814Y-145324332D01*
X118911313Y-145321903D01*
X118963261Y-145275179D01*
X119016852Y-145263000D01*
X122501652Y-145263000D01*
X122568691Y-145282685D01*
X122607189Y-145321901D01*
X122682288Y-145443656D01*
X122806344Y-145567712D01*
X122955666Y-145659814D01*
X123122203Y-145714999D01*
X123224991Y-145725500D01*
X124575008Y-145725499D01*
X124677797Y-145714999D01*
X124844334Y-145659814D01*
X124993656Y-145567712D01*
X125117712Y-145443656D01*
X125192809Y-145321902D01*
X125244757Y-145275179D01*
X125298348Y-145263000D01*
X126580831Y-145263000D01*
X126580847Y-145263001D01*
X126588443Y-145263001D01*
X126746554Y-145263001D01*
X126746557Y-145263001D01*
X126899285Y-145222077D01*
X126949404Y-145193139D01*
X127036216Y-145143020D01*
X127148020Y-145031216D01*
X127148020Y-145031214D01*
X127158228Y-145021007D01*
X127158230Y-145021004D01*
X130958506Y-141220728D01*
X130958511Y-141220724D01*
X130968714Y-141210520D01*
X130968716Y-141210520D01*
X131080520Y-141098716D01*
X131137802Y-140999500D01*
X131159577Y-140961785D01*
X131200501Y-140809057D01*
X131200501Y-140650943D01*
X131200501Y-140643348D01*
X131200500Y-140643330D01*
X131200500Y-137049765D01*
X131220185Y-136982726D01*
X131221398Y-136980874D01*
X131309390Y-136849185D01*
X131309390Y-136849184D01*
X131309394Y-136849179D01*
X131369737Y-136703497D01*
X131400500Y-136548842D01*
X131400500Y-136391158D01*
X131400500Y-136391155D01*
X131400499Y-136391153D01*
X131392702Y-136351954D01*
X131369737Y-136236503D01*
X131369134Y-136235048D01*
X131309397Y-136090827D01*
X131309390Y-136090814D01*
X131221789Y-135959711D01*
X131221786Y-135959707D01*
X131110292Y-135848213D01*
X131110288Y-135848210D01*
X130979185Y-135760609D01*
X130979176Y-135760604D01*
X130845944Y-135705418D01*
X130791541Y-135661577D01*
X130769476Y-135595283D01*
X130786755Y-135527583D01*
X130837893Y-135479973D01*
X130845915Y-135476308D01*
X130959179Y-135429394D01*
X131090289Y-135341789D01*
X131201789Y-135230289D01*
X131289394Y-135099179D01*
X131349737Y-134953497D01*
X131380500Y-134798842D01*
X131380500Y-134641158D01*
X131380500Y-134641155D01*
X131380499Y-134641153D01*
X131364672Y-134561585D01*
X131349737Y-134486503D01*
X131327238Y-134432184D01*
X131289397Y-134340827D01*
X131289390Y-134340814D01*
X131201789Y-134209711D01*
X131201786Y-134209707D01*
X131090292Y-134098213D01*
X131090288Y-134098210D01*
X130959185Y-134010609D01*
X130959172Y-134010602D01*
X130813501Y-133950264D01*
X130813491Y-133950261D01*
X130658149Y-133919361D01*
X130596238Y-133886976D01*
X130594660Y-133885425D01*
X130437590Y-133728355D01*
X130437588Y-133728352D01*
X130318717Y-133609481D01*
X130318716Y-133609480D01*
X130214643Y-133549394D01*
X130214642Y-133549393D01*
X130181783Y-133530422D01*
X130125881Y-133515443D01*
X130029057Y-133489499D01*
X129870943Y-133489499D01*
X129863347Y-133489499D01*
X129863331Y-133489500D01*
X128309097Y-133489500D01*
X128242058Y-133469815D01*
X128196303Y-133417011D01*
X128186359Y-133347853D01*
X128215384Y-133284297D01*
X128221416Y-133277819D01*
X129323794Y-132175441D01*
X130634664Y-130864571D01*
X130695985Y-130831088D01*
X130698152Y-130830637D01*
X130698841Y-130830500D01*
X130698842Y-130830500D01*
X130853497Y-130799737D01*
X130991678Y-130742501D01*
X130999172Y-130739397D01*
X130999172Y-130739396D01*
X130999179Y-130739394D01*
X131130289Y-130651789D01*
X131241789Y-130540289D01*
X131329394Y-130409179D01*
X131389737Y-130263497D01*
X131420500Y-130108842D01*
X131420500Y-129951158D01*
X131420500Y-129951155D01*
X131420499Y-129951153D01*
X131420369Y-129950498D01*
X131389737Y-129796503D01*
X131380917Y-129775210D01*
X131329397Y-129650827D01*
X131329390Y-129650814D01*
X131241789Y-129519711D01*
X131241786Y-129519707D01*
X131130292Y-129408213D01*
X131130288Y-129408210D01*
X130999185Y-129320609D01*
X130999172Y-129320602D01*
X130853501Y-129260264D01*
X130853489Y-129260261D01*
X130698845Y-129229500D01*
X130698842Y-129229500D01*
X130541158Y-129229500D01*
X130541155Y-129229500D01*
X130386510Y-129260261D01*
X130386498Y-129260264D01*
X130240827Y-129320602D01*
X130240814Y-129320609D01*
X130109711Y-129408210D01*
X130109707Y-129408213D01*
X129998213Y-129519707D01*
X129998210Y-129519711D01*
X129910609Y-129650814D01*
X129910602Y-129650827D01*
X129850264Y-129796498D01*
X129850261Y-129796508D01*
X129819362Y-129951848D01*
X129786977Y-130013759D01*
X129785426Y-130015337D01*
X126817584Y-132983181D01*
X126756261Y-133016666D01*
X126729903Y-133019500D01*
X126433245Y-133019500D01*
X126366206Y-132999815D01*
X126320451Y-132947011D01*
X126310507Y-132877853D01*
X126339532Y-132814297D01*
X126368149Y-132789961D01*
X126378742Y-132783426D01*
X126513656Y-132700212D01*
X126637712Y-132576156D01*
X126729814Y-132426834D01*
X126784999Y-132260297D01*
X126795500Y-132157509D01*
X126795499Y-131432492D01*
X126794728Y-131424949D01*
X126784999Y-131329703D01*
X126784998Y-131329700D01*
X126784581Y-131328443D01*
X126729814Y-131163166D01*
X126637712Y-131013844D01*
X126513656Y-130889788D01*
X126367661Y-130799738D01*
X126364336Y-130797687D01*
X126364331Y-130797685D01*
X126362862Y-130797198D01*
X126197797Y-130742501D01*
X126197795Y-130742500D01*
X126095010Y-130732000D01*
X124744998Y-130732000D01*
X124744981Y-130732001D01*
X124642203Y-130742500D01*
X124642200Y-130742501D01*
X124475668Y-130797685D01*
X124475663Y-130797687D01*
X124326342Y-130889789D01*
X124202289Y-131013842D01*
X124110187Y-131163163D01*
X124110185Y-131163168D01*
X124099620Y-131195051D01*
X124055001Y-131329703D01*
X124055001Y-131329704D01*
X124055000Y-131329704D01*
X124044500Y-131432483D01*
X124044500Y-131565280D01*
X124024815Y-131632319D01*
X123972011Y-131678074D01*
X123902853Y-131688018D01*
X123896310Y-131686898D01*
X123808842Y-131669500D01*
X123651158Y-131669500D01*
X123651153Y-131669500D01*
X123523690Y-131694854D01*
X123454098Y-131688627D01*
X123398921Y-131645764D01*
X123375677Y-131579874D01*
X123375499Y-131573237D01*
X123375499Y-131449998D01*
X123375498Y-131449981D01*
X123364999Y-131347203D01*
X123364998Y-131347200D01*
X123359199Y-131329700D01*
X123309814Y-131180666D01*
X123217712Y-131031344D01*
X123093656Y-130907288D01*
X122980310Y-130837376D01*
X122944336Y-130815187D01*
X122944331Y-130815185D01*
X122897706Y-130799735D01*
X122777797Y-130760001D01*
X122777795Y-130760000D01*
X122675010Y-130749500D01*
X121324998Y-130749500D01*
X121324981Y-130749501D01*
X121222203Y-130760000D01*
X121222200Y-130760001D01*
X121055668Y-130815185D01*
X121055663Y-130815187D01*
X120906342Y-130907289D01*
X120782289Y-131031342D01*
X120690187Y-131180663D01*
X120690185Y-131180668D01*
X120681297Y-131207491D01*
X120635001Y-131347203D01*
X120635001Y-131347204D01*
X120635000Y-131347204D01*
X120624500Y-131449983D01*
X120624500Y-131939259D01*
X120604815Y-132006298D01*
X120552011Y-132052053D01*
X120482853Y-132061997D01*
X120476309Y-132060876D01*
X120368845Y-132039500D01*
X120368842Y-132039500D01*
X120211158Y-132039500D01*
X120211155Y-132039500D01*
X120088690Y-132063860D01*
X120019099Y-132057633D01*
X119963921Y-132014770D01*
X119940677Y-131948880D01*
X119940499Y-131942243D01*
X119940499Y-131439998D01*
X119940498Y-131439981D01*
X119929999Y-131337203D01*
X119929998Y-131337200D01*
X119909490Y-131275312D01*
X119874814Y-131170666D01*
X119782712Y-131021344D01*
X119658656Y-130897288D01*
X119550375Y-130830500D01*
X119509336Y-130805187D01*
X119509331Y-130805185D01*
X119492884Y-130799735D01*
X119342797Y-130750001D01*
X119342795Y-130750000D01*
X119240010Y-130739500D01*
X117839998Y-130739500D01*
X117839973Y-130739502D01*
X117824465Y-130741086D01*
X117755772Y-130728314D01*
X117704889Y-130680432D01*
X117687971Y-130612642D01*
X117710389Y-130546466D01*
X117724180Y-130530053D01*
X118277416Y-129976818D01*
X118338739Y-129943333D01*
X118365097Y-129940499D01*
X119240002Y-129940499D01*
X119240008Y-129940499D01*
X119342797Y-129929999D01*
X119509334Y-129874814D01*
X119658656Y-129782712D01*
X119782712Y-129658656D01*
X119865519Y-129524402D01*
X119917467Y-129477679D01*
X119971058Y-129465500D01*
X120587774Y-129465500D01*
X120654813Y-129485185D01*
X120693311Y-129524401D01*
X120782288Y-129668656D01*
X120906344Y-129792712D01*
X121055666Y-129884814D01*
X121222203Y-129939999D01*
X121324991Y-129950500D01*
X122675008Y-129950499D01*
X122777797Y-129939999D01*
X122944334Y-129884814D01*
X123093656Y-129792712D01*
X123217712Y-129668656D01*
X123303603Y-129529402D01*
X123355551Y-129482679D01*
X123409142Y-129470500D01*
X124021652Y-129470500D01*
X124088691Y-129490185D01*
X124127189Y-129529401D01*
X124202288Y-129651156D01*
X124326344Y-129775212D01*
X124475666Y-129867314D01*
X124642203Y-129922499D01*
X124744991Y-129933000D01*
X126095008Y-129932999D01*
X126197797Y-129922499D01*
X126364334Y-129867314D01*
X126513656Y-129775212D01*
X126637712Y-129651156D01*
X126729814Y-129501834D01*
X126784999Y-129335297D01*
X126795500Y-129232509D01*
X126795499Y-128507492D01*
X126784999Y-128404703D01*
X126729814Y-128238166D01*
X126637712Y-128088844D01*
X126513656Y-127964788D01*
X126364334Y-127872686D01*
X126197797Y-127817501D01*
X126197795Y-127817500D01*
X126095010Y-127807000D01*
X124744998Y-127807000D01*
X124744981Y-127807001D01*
X124642203Y-127817500D01*
X124642200Y-127817501D01*
X124475668Y-127872685D01*
X124475663Y-127872687D01*
X124326342Y-127964789D01*
X124202289Y-128088842D01*
X124202288Y-128088844D01*
X124128904Y-128207820D01*
X124127191Y-128210597D01*
X124075243Y-128257321D01*
X124021652Y-128269500D01*
X123387554Y-128269500D01*
X123320515Y-128249815D01*
X123282015Y-128210597D01*
X123217712Y-128106344D01*
X123093656Y-127982288D01*
X122944334Y-127890186D01*
X122777797Y-127835001D01*
X122777795Y-127835000D01*
X122675010Y-127824500D01*
X121324998Y-127824500D01*
X121324981Y-127824501D01*
X121222203Y-127835000D01*
X121222200Y-127835001D01*
X121055668Y-127890185D01*
X121055663Y-127890187D01*
X120906342Y-127982289D01*
X120782289Y-128106342D01*
X120721069Y-128205597D01*
X120669121Y-128252321D01*
X120615530Y-128264500D01*
X119971058Y-128264500D01*
X119904019Y-128244815D01*
X119865519Y-128205597D01*
X119782712Y-128071344D01*
X119658656Y-127947288D01*
X119509334Y-127855186D01*
X119342797Y-127800001D01*
X119342795Y-127800000D01*
X119240016Y-127789500D01*
X119240009Y-127789500D01*
X119004353Y-127789500D01*
X118937314Y-127769815D01*
X118891559Y-127717011D01*
X118881615Y-127647853D01*
X118910640Y-127584297D01*
X118916672Y-127577819D01*
X119642673Y-126851819D01*
X119703996Y-126818334D01*
X119730354Y-126815500D01*
X120755831Y-126815500D01*
X120755847Y-126815501D01*
X120763443Y-126815501D01*
X120921554Y-126815501D01*
X120921557Y-126815501D01*
X121074285Y-126774577D01*
X121129218Y-126742861D01*
X121211216Y-126695520D01*
X121323020Y-126583716D01*
X121323020Y-126583714D01*
X121333224Y-126573511D01*
X121333228Y-126573506D01*
X122674749Y-125231984D01*
X122736070Y-125198501D01*
X122775027Y-125196309D01*
X122864991Y-125205500D01*
X123590008Y-125205499D01*
X123590016Y-125205498D01*
X123590019Y-125205498D01*
X123658514Y-125198501D01*
X123692797Y-125194999D01*
X123859334Y-125139814D01*
X124008656Y-125047712D01*
X124132712Y-124923656D01*
X124224814Y-124774334D01*
X124279999Y-124607797D01*
X124290500Y-124505009D01*
X124290499Y-123379499D01*
X124310184Y-123312461D01*
X124362987Y-123266706D01*
X124414499Y-123255500D01*
X124677403Y-123255500D01*
X124744442Y-123275185D01*
X124765084Y-123291819D01*
X125053181Y-123579916D01*
X125086666Y-123641239D01*
X125089500Y-123667597D01*
X125089500Y-124505001D01*
X125089501Y-124505019D01*
X125100000Y-124607796D01*
X125100001Y-124607799D01*
X125118544Y-124663757D01*
X125155186Y-124774334D01*
X125247288Y-124923656D01*
X125371344Y-125047712D01*
X125520666Y-125139814D01*
X125687203Y-125194999D01*
X125789991Y-125205500D01*
X126515008Y-125205499D01*
X126515016Y-125205498D01*
X126515019Y-125205498D01*
X126583514Y-125198501D01*
X126617797Y-125194999D01*
X126784334Y-125139814D01*
X126933656Y-125047712D01*
X127057712Y-124923656D01*
X127149814Y-124774334D01*
X127204999Y-124607797D01*
X127215500Y-124505009D01*
X127215499Y-123154992D01*
X127204999Y-123052203D01*
X127149814Y-122885666D01*
X127057712Y-122736344D01*
X126933656Y-122612288D01*
X126811902Y-122537190D01*
X126765179Y-122485243D01*
X126753000Y-122431652D01*
X126753000Y-122067597D01*
X126772685Y-122000558D01*
X126789319Y-121979916D01*
X127863735Y-120905500D01*
X131464662Y-117304572D01*
X131525983Y-117271089D01*
X131528150Y-117270638D01*
X131586085Y-117259113D01*
X131683497Y-117239737D01*
X131829179Y-117179394D01*
X131960289Y-117091789D01*
X132071789Y-116980289D01*
X132159394Y-116849179D01*
X132219737Y-116703497D01*
X132250500Y-116548842D01*
X132250500Y-116391158D01*
X132250500Y-116391155D01*
X132250499Y-116391153D01*
X132219738Y-116236510D01*
X132219738Y-116236508D01*
X132219737Y-116236503D01*
X132219735Y-116236498D01*
X132159397Y-116090827D01*
X132159390Y-116090814D01*
X132071789Y-115959711D01*
X132071786Y-115959707D01*
X131960292Y-115848213D01*
X131960288Y-115848210D01*
X131829185Y-115760609D01*
X131829172Y-115760602D01*
X131683501Y-115700264D01*
X131683489Y-115700261D01*
X131528845Y-115669500D01*
X131528842Y-115669500D01*
X131371158Y-115669500D01*
X131371155Y-115669500D01*
X131216510Y-115700261D01*
X131216498Y-115700264D01*
X131070827Y-115760602D01*
X131070814Y-115760609D01*
X130939711Y-115848210D01*
X130939707Y-115848213D01*
X130828213Y-115959707D01*
X130828210Y-115959711D01*
X130740609Y-116090814D01*
X130740602Y-116090827D01*
X130680264Y-116236498D01*
X130680261Y-116236508D01*
X130649361Y-116391850D01*
X130616976Y-116453761D01*
X130615425Y-116455339D01*
X125671981Y-121398782D01*
X125671980Y-121398784D01*
X125624349Y-121481284D01*
X125592923Y-121535715D01*
X125551999Y-121688443D01*
X125551999Y-121688445D01*
X125551999Y-121856553D01*
X125547846Y-121856553D01*
X125541917Y-121905537D01*
X125531276Y-121925188D01*
X125495655Y-121978790D01*
X125539158Y-122025982D01*
X125551222Y-122094802D01*
X125524165Y-122159220D01*
X125466576Y-122198783D01*
X125396739Y-122200931D01*
X125352515Y-122179313D01*
X125346217Y-122174481D01*
X125346216Y-122174480D01*
X125259404Y-122124360D01*
X125259404Y-122124359D01*
X125259400Y-122124358D01*
X125209285Y-122095423D01*
X125056557Y-122054499D01*
X124898443Y-122054499D01*
X124890847Y-122054499D01*
X124890831Y-122054500D01*
X122644500Y-122054500D01*
X122577461Y-122034815D01*
X122531706Y-121982011D01*
X122520500Y-121930500D01*
X122520500Y-121771155D01*
X122520499Y-121771153D01*
X122497494Y-121655500D01*
X122489737Y-121616503D01*
X122450713Y-121522289D01*
X122429397Y-121470827D01*
X122429390Y-121470814D01*
X122341789Y-121339711D01*
X122341786Y-121339707D01*
X122230292Y-121228213D01*
X122230288Y-121228210D01*
X122099185Y-121140609D01*
X122099172Y-121140602D01*
X121953501Y-121080264D01*
X121953489Y-121080261D01*
X121798845Y-121049500D01*
X121798842Y-121049500D01*
X121641158Y-121049500D01*
X121641155Y-121049500D01*
X121486510Y-121080261D01*
X121486498Y-121080264D01*
X121340827Y-121140602D01*
X121340814Y-121140609D01*
X121209711Y-121228210D01*
X121209707Y-121228213D01*
X121098213Y-121339707D01*
X121098210Y-121339711D01*
X121010609Y-121470814D01*
X121010602Y-121470827D01*
X120950264Y-121616498D01*
X120950261Y-121616510D01*
X120928245Y-121727191D01*
X120895860Y-121789102D01*
X120835144Y-121823677D01*
X120806628Y-121827000D01*
X120148348Y-121827000D01*
X120081309Y-121807315D01*
X120042809Y-121768097D01*
X120027441Y-121743181D01*
X119967712Y-121646344D01*
X119843656Y-121522288D01*
X119694334Y-121430186D01*
X119527797Y-121375001D01*
X119527795Y-121375000D01*
X119425010Y-121364500D01*
X118074998Y-121364500D01*
X118074981Y-121364501D01*
X117972203Y-121375000D01*
X117972200Y-121375001D01*
X117805668Y-121430185D01*
X117805663Y-121430187D01*
X117656342Y-121522289D01*
X117532289Y-121646342D01*
X117440187Y-121795663D01*
X117440185Y-121795668D01*
X117436326Y-121807315D01*
X117385001Y-121962203D01*
X117385001Y-121962204D01*
X117385000Y-121962204D01*
X117374500Y-122064983D01*
X117374500Y-122790001D01*
X117374501Y-122790019D01*
X117385000Y-122892796D01*
X117385001Y-122892799D01*
X117440185Y-123059331D01*
X117440187Y-123059336D01*
X117465572Y-123100491D01*
X117532288Y-123208656D01*
X117656344Y-123332712D01*
X117805666Y-123424814D01*
X117972203Y-123479999D01*
X118074991Y-123490500D01*
X119425008Y-123490499D01*
X119527797Y-123479999D01*
X119694334Y-123424814D01*
X119843656Y-123332712D01*
X119967712Y-123208656D01*
X120042809Y-123086902D01*
X120094757Y-123040179D01*
X120148348Y-123028000D01*
X121055832Y-123028000D01*
X121063439Y-123028000D01*
X121063443Y-123028001D01*
X121158658Y-123028001D01*
X121225697Y-123047686D01*
X121271452Y-123100491D01*
X121278834Y-123151836D01*
X121281395Y-123169648D01*
X121252370Y-123233204D01*
X121246338Y-123239682D01*
X120028875Y-124457145D01*
X119967552Y-124490630D01*
X119897860Y-124485646D01*
X119853513Y-124457145D01*
X119843657Y-124447289D01*
X119843656Y-124447288D01*
X119694334Y-124355186D01*
X119527797Y-124300001D01*
X119527795Y-124300000D01*
X119425010Y-124289500D01*
X118074998Y-124289500D01*
X118074981Y-124289501D01*
X117972203Y-124300000D01*
X117972200Y-124300001D01*
X117805668Y-124355185D01*
X117805663Y-124355187D01*
X117656342Y-124447289D01*
X117532289Y-124571342D01*
X117440187Y-124720663D01*
X117440186Y-124720666D01*
X117385001Y-124887203D01*
X117385001Y-124887204D01*
X117385000Y-124887204D01*
X117374500Y-124989983D01*
X117374500Y-125715001D01*
X117374501Y-125715019D01*
X117385000Y-125817796D01*
X117385001Y-125817799D01*
X117415685Y-125910396D01*
X117440186Y-125984334D01*
X117532288Y-126133656D01*
X117656344Y-126257712D01*
X117805666Y-126349814D01*
X117972203Y-126404999D01*
X118074991Y-126415500D01*
X118081147Y-126415499D01*
X118148185Y-126435176D01*
X118193946Y-126487975D01*
X118203897Y-126557133D01*
X118174879Y-126620692D01*
X118168838Y-126627180D01*
X115672181Y-129123838D01*
X115610858Y-129157323D01*
X115541166Y-129152339D01*
X115485233Y-129110467D01*
X115460816Y-129045003D01*
X115460500Y-129036157D01*
X115460500Y-118300097D01*
X115480185Y-118233058D01*
X115496819Y-118212416D01*
X118912416Y-114796820D01*
X118973739Y-114763335D01*
X119000097Y-114760501D01*
X128986237Y-114760501D01*
X129053276Y-114780186D01*
X129099031Y-114832990D01*
X129102419Y-114841169D01*
X129114002Y-114872227D01*
X129114007Y-114872236D01*
X129200253Y-114987445D01*
X129200256Y-114987448D01*
X129315465Y-115073694D01*
X129315472Y-115073698D01*
X129450318Y-115123992D01*
X129450317Y-115123992D01*
X129457245Y-115124736D01*
X129509928Y-115130401D01*
X130926473Y-115130400D01*
X130986084Y-115123992D01*
X131120932Y-115073697D01*
X131236147Y-114987447D01*
X131322397Y-114872232D01*
X131372692Y-114737384D01*
X131379101Y-114677774D01*
X131379100Y-113642229D01*
X131373078Y-113586206D01*
X131372692Y-113582617D01*
X131322398Y-113447772D01*
X131322394Y-113447765D01*
X131236148Y-113332556D01*
X131236145Y-113332553D01*
X131120936Y-113246307D01*
X131120929Y-113246303D01*
X130986083Y-113196009D01*
X130986084Y-113196009D01*
X130926484Y-113189602D01*
X130926482Y-113189601D01*
X130926474Y-113189601D01*
X130926465Y-113189601D01*
X129509930Y-113189601D01*
X129509924Y-113189602D01*
X129450317Y-113196009D01*
X129315472Y-113246303D01*
X129315465Y-113246307D01*
X129200256Y-113332553D01*
X129200253Y-113332556D01*
X129114007Y-113447765D01*
X129114002Y-113447774D01*
X129102419Y-113478833D01*
X129060549Y-113534767D01*
X128995085Y-113559185D01*
X128986237Y-113559501D01*
X118786669Y-113559501D01*
X118786653Y-113559500D01*
X118779057Y-113559500D01*
X118620942Y-113559500D01*
X118544578Y-113579962D01*
X118468213Y-113600424D01*
X118468208Y-113600427D01*
X118331289Y-113679476D01*
X118331281Y-113679482D01*
X116642181Y-115368583D01*
X116580858Y-115402068D01*
X116511166Y-115397084D01*
X116455233Y-115355212D01*
X116430816Y-115289748D01*
X116430500Y-115280902D01*
X116430500Y-115099765D01*
X116450185Y-115032726D01*
X116451398Y-115030874D01*
X116539390Y-114899185D01*
X116539390Y-114899184D01*
X116539394Y-114899179D01*
X116599737Y-114753497D01*
X116630500Y-114598842D01*
X116630500Y-114441158D01*
X116630500Y-114441155D01*
X116630499Y-114441153D01*
X116612683Y-114351588D01*
X116599737Y-114286503D01*
X116588053Y-114258294D01*
X116539397Y-114140827D01*
X116539390Y-114140814D01*
X116451789Y-114009711D01*
X116451786Y-114009707D01*
X116340292Y-113898213D01*
X116340288Y-113898210D01*
X116209185Y-113810609D01*
X116209172Y-113810602D01*
X116063501Y-113750264D01*
X116063491Y-113750261D01*
X115903570Y-113718450D01*
X115841659Y-113686065D01*
X115807085Y-113625349D01*
X115810826Y-113555579D01*
X115840076Y-113509157D01*
X116052418Y-113296816D01*
X116113739Y-113263334D01*
X116140097Y-113260500D01*
X125029055Y-113260500D01*
X125029057Y-113260500D01*
X125181784Y-113219577D01*
X125318716Y-113140520D01*
X125430520Y-113028716D01*
X125476999Y-112948209D01*
X125496702Y-112922531D01*
X126258506Y-112160728D01*
X126258511Y-112160724D01*
X126268714Y-112150520D01*
X126268716Y-112150520D01*
X126380520Y-112038716D01*
X126459577Y-111901785D01*
X126500501Y-111749058D01*
X126500501Y-111590943D01*
X126487195Y-111541284D01*
X126459577Y-111438215D01*
X126424782Y-111377949D01*
X126380520Y-111301284D01*
X125597589Y-110518354D01*
X125597588Y-110518352D01*
X125478717Y-110399481D01*
X125478716Y-110399480D01*
X125391904Y-110349360D01*
X125391904Y-110349359D01*
X125391900Y-110349358D01*
X125341785Y-110320423D01*
X125189057Y-110279499D01*
X125030943Y-110279499D01*
X125023347Y-110279499D01*
X125023331Y-110279500D01*
X115280098Y-110279500D01*
X115213059Y-110259815D01*
X115192417Y-110243181D01*
X114546819Y-109597583D01*
X114513334Y-109536260D01*
X114510500Y-109509902D01*
X114510500Y-107650946D01*
X114510499Y-107650939D01*
X114494032Y-107589481D01*
X114469577Y-107498215D01*
X114465079Y-107490425D01*
X114441451Y-107449500D01*
X114432932Y-107434744D01*
X114432932Y-107434743D01*
X114390524Y-107361290D01*
X114390521Y-107361286D01*
X114390520Y-107361284D01*
X114278716Y-107249480D01*
X114278715Y-107249479D01*
X114274385Y-107245149D01*
X114274374Y-107245139D01*
X112906819Y-105877584D01*
X112873334Y-105816261D01*
X112870500Y-105789903D01*
X112870500Y-104857847D01*
X112890185Y-104790808D01*
X112942989Y-104745053D01*
X112970309Y-104736230D01*
X112986291Y-104733050D01*
X113103497Y-104709737D01*
X113249179Y-104649394D01*
X113380289Y-104561789D01*
X113445260Y-104496817D01*
X113506581Y-104463334D01*
X113532940Y-104460500D01*
X123169903Y-104460500D01*
X123236942Y-104480185D01*
X123257584Y-104496819D01*
X128785138Y-110024373D01*
X128785148Y-110024384D01*
X128789478Y-110028714D01*
X128789479Y-110028715D01*
X128901283Y-110140519D01*
X128965806Y-110177771D01*
X129023639Y-110211161D01*
X129071854Y-110261729D01*
X129077820Y-110275215D01*
X129114003Y-110372227D01*
X129114007Y-110372234D01*
X129200253Y-110487443D01*
X129200256Y-110487446D01*
X129315465Y-110573692D01*
X129315472Y-110573696D01*
X129450318Y-110623990D01*
X129450317Y-110623990D01*
X129457245Y-110624734D01*
X129509928Y-110630399D01*
X130926473Y-110630398D01*
X130986084Y-110623990D01*
X131120932Y-110573695D01*
X131236147Y-110487445D01*
X131322397Y-110372230D01*
X131372692Y-110237382D01*
X131379101Y-110177772D01*
X131379100Y-109142227D01*
X131377961Y-109131635D01*
X133759900Y-109131635D01*
X133759900Y-114688370D01*
X133759901Y-114688376D01*
X133766308Y-114747983D01*
X133816602Y-114882828D01*
X133816606Y-114882835D01*
X133902852Y-114998044D01*
X133902855Y-114998047D01*
X134018064Y-115084293D01*
X134018071Y-115084297D01*
X134152917Y-115134591D01*
X134152916Y-115134591D01*
X134159844Y-115135335D01*
X134212527Y-115141000D01*
X140607472Y-115140999D01*
X140667083Y-115134591D01*
X140801931Y-115084296D01*
X140917146Y-114998046D01*
X141003396Y-114882831D01*
X141053691Y-114747983D01*
X141060100Y-114688373D01*
X141060099Y-113958695D01*
X141079783Y-113891657D01*
X141132587Y-113845902D01*
X141201746Y-113835958D01*
X141265302Y-113864983D01*
X141271780Y-113871015D01*
X142183181Y-114782416D01*
X142216666Y-114843739D01*
X142219500Y-114870097D01*
X142219500Y-129957059D01*
X142199815Y-130024098D01*
X142183181Y-130044740D01*
X142138213Y-130089707D01*
X142138210Y-130089711D01*
X142050609Y-130220814D01*
X142050602Y-130220827D01*
X141990264Y-130366498D01*
X141990261Y-130366510D01*
X141959500Y-130521153D01*
X141959500Y-130678846D01*
X141990261Y-130833489D01*
X141990264Y-130833501D01*
X142050602Y-130979172D01*
X142050609Y-130979185D01*
X142138210Y-131110288D01*
X142138213Y-131110292D01*
X142249707Y-131221786D01*
X142249711Y-131221789D01*
X142380814Y-131309390D01*
X142380827Y-131309397D01*
X142526498Y-131369735D01*
X142526503Y-131369737D01*
X142641000Y-131392512D01*
X142681153Y-131400499D01*
X142681156Y-131400500D01*
X142681158Y-131400500D01*
X142838844Y-131400500D01*
X142838845Y-131400499D01*
X142993497Y-131369737D01*
X143139179Y-131309394D01*
X143270289Y-131221789D01*
X143381789Y-131110289D01*
X143469394Y-130979179D01*
X143529737Y-130833497D01*
X143560500Y-130678842D01*
X143560500Y-130521158D01*
X143560500Y-130521155D01*
X143560499Y-130521153D01*
X143533504Y-130385441D01*
X143529737Y-130366503D01*
X143487068Y-130263489D01*
X143469397Y-130220827D01*
X143469390Y-130220814D01*
X143441398Y-130178921D01*
X143420520Y-130112243D01*
X143420500Y-130110030D01*
X143420500Y-114490945D01*
X143420500Y-114490943D01*
X143393931Y-114391785D01*
X143379577Y-114338215D01*
X143339904Y-114269500D01*
X143300520Y-114201284D01*
X143188716Y-114089480D01*
X143184385Y-114085149D01*
X143184374Y-114085139D01*
X141096418Y-111997183D01*
X141062933Y-111935860D01*
X141060099Y-111909502D01*
X141060099Y-109131629D01*
X141060098Y-109131623D01*
X141060097Y-109131616D01*
X141053691Y-109072017D01*
X141049845Y-109061706D01*
X141003397Y-108937171D01*
X141003393Y-108937164D01*
X140917147Y-108821955D01*
X140917144Y-108821952D01*
X140801935Y-108735706D01*
X140801928Y-108735702D01*
X140667082Y-108685408D01*
X140667083Y-108685408D01*
X140607483Y-108679001D01*
X140607481Y-108679000D01*
X140607473Y-108679000D01*
X140607464Y-108679000D01*
X134212529Y-108679000D01*
X134212523Y-108679001D01*
X134152916Y-108685408D01*
X134018071Y-108735702D01*
X134018064Y-108735706D01*
X133902855Y-108821952D01*
X133902852Y-108821955D01*
X133816606Y-108937164D01*
X133816602Y-108937171D01*
X133766308Y-109072017D01*
X133759901Y-109131616D01*
X133759901Y-109131623D01*
X133759900Y-109131635D01*
X131377961Y-109131635D01*
X131372692Y-109082616D01*
X131368738Y-109072016D01*
X131322398Y-108947770D01*
X131322394Y-108947763D01*
X131236148Y-108832554D01*
X131236145Y-108832551D01*
X131120936Y-108746305D01*
X131120929Y-108746301D01*
X130986083Y-108696007D01*
X130986084Y-108696007D01*
X130926484Y-108689600D01*
X130926482Y-108689599D01*
X130926474Y-108689599D01*
X130926465Y-108689599D01*
X129509930Y-108689599D01*
X129509924Y-108689600D01*
X129450317Y-108696007D01*
X129310066Y-108748318D01*
X129240374Y-108753302D01*
X129179052Y-108719817D01*
X123957590Y-103498355D01*
X123957588Y-103498352D01*
X123838717Y-103379481D01*
X123838712Y-103379477D01*
X123726165Y-103314499D01*
X123701785Y-103300423D01*
X123549057Y-103259499D01*
X123390943Y-103259499D01*
X123383347Y-103259499D01*
X123383331Y-103259500D01*
X114374501Y-103259500D01*
X114307462Y-103239815D01*
X114261707Y-103187011D01*
X114250501Y-103135502D01*
X114250501Y-103113824D01*
X114250501Y-103080942D01*
X114250500Y-103080938D01*
X114250500Y-101579097D01*
X114270185Y-101512058D01*
X114322989Y-101466303D01*
X114392147Y-101456359D01*
X114455703Y-101485384D01*
X114462181Y-101491416D01*
X114785425Y-101814660D01*
X114818910Y-101875983D01*
X114819361Y-101878149D01*
X114850261Y-102033491D01*
X114850264Y-102033501D01*
X114910602Y-102179172D01*
X114910609Y-102179185D01*
X114998210Y-102310288D01*
X114998213Y-102310292D01*
X115109707Y-102421786D01*
X115109711Y-102421789D01*
X115240814Y-102509390D01*
X115240827Y-102509397D01*
X115362872Y-102559949D01*
X115386503Y-102569737D01*
X115541153Y-102600499D01*
X115541156Y-102600500D01*
X115541158Y-102600500D01*
X115698844Y-102600500D01*
X115698845Y-102600499D01*
X115853497Y-102569737D01*
X115973697Y-102519949D01*
X115999172Y-102509397D01*
X115999172Y-102509396D01*
X115999179Y-102509394D01*
X116130289Y-102421789D01*
X116241789Y-102310289D01*
X116329394Y-102179179D01*
X116389737Y-102033497D01*
X116420500Y-101878842D01*
X116420500Y-101721158D01*
X116420500Y-101721155D01*
X116420499Y-101721153D01*
X116407024Y-101653412D01*
X116389737Y-101566503D01*
X116373714Y-101527819D01*
X116329397Y-101420827D01*
X116329390Y-101420814D01*
X116241789Y-101289711D01*
X116241786Y-101289707D01*
X116130292Y-101178213D01*
X116130288Y-101178210D01*
X115999185Y-101090609D01*
X115999172Y-101090602D01*
X115853501Y-101030264D01*
X115853491Y-101030261D01*
X115698149Y-100999361D01*
X115636238Y-100966976D01*
X115634660Y-100965425D01*
X114466916Y-99797681D01*
X114433431Y-99736358D01*
X114438415Y-99666666D01*
X114466916Y-99622319D01*
X116192416Y-97896819D01*
X116253739Y-97863334D01*
X116280097Y-97860500D01*
X116500234Y-97860500D01*
X116567273Y-97880185D01*
X116569125Y-97881398D01*
X116700814Y-97969390D01*
X116700827Y-97969397D01*
X116830378Y-98023058D01*
X116846503Y-98029737D01*
X116935713Y-98047482D01*
X117001153Y-98060499D01*
X117001156Y-98060500D01*
X117001158Y-98060500D01*
X117158844Y-98060500D01*
X117232818Y-98045785D01*
X117311309Y-98030172D01*
X117380900Y-98036399D01*
X117436077Y-98079262D01*
X117459322Y-98145151D01*
X117459500Y-98151789D01*
X117459500Y-98560234D01*
X117439815Y-98627273D01*
X117438602Y-98629125D01*
X117350609Y-98760814D01*
X117350602Y-98760827D01*
X117290264Y-98906498D01*
X117290261Y-98906510D01*
X117259500Y-99061153D01*
X117259500Y-99218846D01*
X117290261Y-99373489D01*
X117290264Y-99373501D01*
X117350602Y-99519172D01*
X117350609Y-99519185D01*
X117438210Y-99650288D01*
X117438213Y-99650292D01*
X117549707Y-99761786D01*
X117549711Y-99761789D01*
X117680814Y-99849390D01*
X117680827Y-99849397D01*
X117826498Y-99909735D01*
X117826503Y-99909737D01*
X117967635Y-99937810D01*
X117981153Y-99940499D01*
X117981156Y-99940500D01*
X117981158Y-99940500D01*
X118138844Y-99940500D01*
X118138845Y-99940499D01*
X118293497Y-99909737D01*
X118406166Y-99863067D01*
X118439172Y-99849397D01*
X118439172Y-99849396D01*
X118439179Y-99849394D01*
X118570289Y-99761789D01*
X118681789Y-99650289D01*
X118769394Y-99519179D01*
X118772113Y-99512616D01*
X118829735Y-99373501D01*
X118829737Y-99373497D01*
X118860500Y-99218842D01*
X118860500Y-99061158D01*
X118860500Y-99061155D01*
X118860499Y-99061153D01*
X118855597Y-99036511D01*
X118829737Y-98906503D01*
X118818966Y-98880499D01*
X118769397Y-98760827D01*
X118769390Y-98760814D01*
X118681398Y-98629125D01*
X118660520Y-98562447D01*
X118660500Y-98560234D01*
X118660500Y-98090097D01*
X118680185Y-98023058D01*
X118696819Y-98002416D01*
X121259845Y-95439390D01*
X123900520Y-92798716D01*
X123979577Y-92661784D01*
X124020501Y-92509057D01*
X124020501Y-92350942D01*
X124020501Y-92343347D01*
X124020500Y-92343329D01*
X124020500Y-91319097D01*
X124040185Y-91252058D01*
X124092989Y-91206303D01*
X124162147Y-91196359D01*
X124225703Y-91225384D01*
X124232181Y-91231416D01*
X125083181Y-92082416D01*
X125116666Y-92143739D01*
X125119500Y-92170097D01*
X125119500Y-103000234D01*
X125099815Y-103067273D01*
X125098602Y-103069125D01*
X125010609Y-103200814D01*
X125010602Y-103200827D01*
X124950264Y-103346498D01*
X124950261Y-103346510D01*
X124919500Y-103501153D01*
X124919500Y-103658846D01*
X124950261Y-103813489D01*
X124950264Y-103813501D01*
X125010602Y-103959172D01*
X125010609Y-103959185D01*
X125098210Y-104090288D01*
X125098213Y-104090292D01*
X125209707Y-104201786D01*
X125209711Y-104201789D01*
X125340814Y-104289390D01*
X125340827Y-104289397D01*
X125421263Y-104322714D01*
X125486503Y-104349737D01*
X125641153Y-104380499D01*
X125641156Y-104380500D01*
X125641158Y-104380500D01*
X125798844Y-104380500D01*
X125798845Y-104380499D01*
X125953497Y-104349737D01*
X126099179Y-104289394D01*
X126230289Y-104201789D01*
X126341789Y-104090289D01*
X126429394Y-103959179D01*
X126489737Y-103813497D01*
X126520500Y-103658842D01*
X126520500Y-103501158D01*
X126520500Y-103501155D01*
X126520499Y-103501153D01*
X126504612Y-103421284D01*
X126489737Y-103346503D01*
X126470650Y-103300423D01*
X126429397Y-103200827D01*
X126429390Y-103200814D01*
X126341398Y-103069125D01*
X126320520Y-103002447D01*
X126320500Y-103000234D01*
X126320500Y-97697135D01*
X133474500Y-97697135D01*
X133474500Y-99492870D01*
X133474501Y-99492876D01*
X133480908Y-99552483D01*
X133531202Y-99687328D01*
X133531206Y-99687335D01*
X133617452Y-99802544D01*
X133617455Y-99802547D01*
X133732664Y-99888793D01*
X133732671Y-99888797D01*
X133864082Y-99937810D01*
X133920016Y-99979681D01*
X133944433Y-100045145D01*
X133929582Y-100113418D01*
X133908431Y-100141673D01*
X133794889Y-100255215D01*
X133669951Y-100427179D01*
X133573444Y-100616585D01*
X133507753Y-100818760D01*
X133474500Y-101028713D01*
X133474500Y-101241286D01*
X133502936Y-101420827D01*
X133507754Y-101451243D01*
X133572850Y-101651588D01*
X133573444Y-101653414D01*
X133669951Y-101842820D01*
X133794890Y-102014786D01*
X133945213Y-102165109D01*
X134117182Y-102290050D01*
X134125946Y-102294516D01*
X134176742Y-102342491D01*
X134193536Y-102410312D01*
X134170998Y-102476447D01*
X134125946Y-102515484D01*
X134117182Y-102519949D01*
X133945213Y-102644890D01*
X133794890Y-102795213D01*
X133669951Y-102967179D01*
X133573444Y-103156585D01*
X133507753Y-103358760D01*
X133474500Y-103568713D01*
X133474500Y-103781286D01*
X133502675Y-103959179D01*
X133507754Y-103991243D01*
X133571538Y-104187550D01*
X133573444Y-104193414D01*
X133669951Y-104382820D01*
X133794890Y-104554786D01*
X133945213Y-104705109D01*
X134117179Y-104830048D01*
X134117181Y-104830049D01*
X134117184Y-104830051D01*
X134306588Y-104926557D01*
X134508757Y-104992246D01*
X134718713Y-105025500D01*
X134718714Y-105025500D01*
X134931286Y-105025500D01*
X134931287Y-105025500D01*
X135141243Y-104992246D01*
X135343412Y-104926557D01*
X135532816Y-104830051D01*
X135586830Y-104790808D01*
X135704786Y-104705109D01*
X135704788Y-104705106D01*
X135704792Y-104705104D01*
X135855104Y-104554792D01*
X135855106Y-104554788D01*
X135855109Y-104554786D01*
X135980048Y-104382820D01*
X135980047Y-104382820D01*
X135980051Y-104382816D01*
X136076557Y-104193412D01*
X136142246Y-103991243D01*
X136175500Y-103781287D01*
X136175500Y-103568713D01*
X136142246Y-103358757D01*
X136076557Y-103156588D01*
X135980051Y-102967184D01*
X135980049Y-102967181D01*
X135980048Y-102967179D01*
X135855109Y-102795213D01*
X135704786Y-102644890D01*
X135532820Y-102519951D01*
X135532115Y-102519591D01*
X135524054Y-102515485D01*
X135473259Y-102467512D01*
X135456463Y-102399692D01*
X135478999Y-102333556D01*
X135524054Y-102294515D01*
X135532816Y-102290051D01*
X135554789Y-102274086D01*
X135704786Y-102165109D01*
X135704788Y-102165106D01*
X135704792Y-102165104D01*
X135855104Y-102014792D01*
X135855106Y-102014788D01*
X135855109Y-102014786D01*
X135980048Y-101842820D01*
X135980047Y-101842820D01*
X135980051Y-101842816D01*
X136076557Y-101653412D01*
X136142246Y-101451243D01*
X136175500Y-101241287D01*
X136175500Y-101028713D01*
X136142246Y-100818757D01*
X136076557Y-100616588D01*
X135980051Y-100427184D01*
X135980049Y-100427181D01*
X135980048Y-100427179D01*
X135855109Y-100255213D01*
X135741569Y-100141673D01*
X135708084Y-100080350D01*
X135713068Y-100010658D01*
X135754940Y-99954725D01*
X135785915Y-99937810D01*
X135917331Y-99888796D01*
X136032546Y-99802546D01*
X136118796Y-99687331D01*
X136169091Y-99552483D01*
X136175500Y-99492873D01*
X136175499Y-97737135D01*
X137434500Y-97737135D01*
X137434500Y-99532870D01*
X137434501Y-99532876D01*
X137440908Y-99592483D01*
X137491202Y-99727328D01*
X137491206Y-99727335D01*
X137577452Y-99842544D01*
X137577455Y-99842547D01*
X137692664Y-99928793D01*
X137692671Y-99928797D01*
X137824082Y-99977810D01*
X137880016Y-100019681D01*
X137904433Y-100085145D01*
X137889582Y-100153418D01*
X137868431Y-100181673D01*
X137754889Y-100295215D01*
X137629951Y-100467179D01*
X137533444Y-100656585D01*
X137467753Y-100858760D01*
X137434500Y-101068713D01*
X137434500Y-101281286D01*
X137462522Y-101458213D01*
X137467754Y-101491243D01*
X137519853Y-101651588D01*
X137533444Y-101693414D01*
X137629951Y-101882820D01*
X137754890Y-102054786D01*
X137905213Y-102205109D01*
X138077182Y-102330050D01*
X138085946Y-102334516D01*
X138136742Y-102382491D01*
X138153536Y-102450312D01*
X138130998Y-102516447D01*
X138085946Y-102555484D01*
X138077182Y-102559949D01*
X137905213Y-102684890D01*
X137754890Y-102835213D01*
X137629951Y-103007179D01*
X137533444Y-103196585D01*
X137467753Y-103398760D01*
X137434500Y-103608713D01*
X137434500Y-103821286D01*
X137463101Y-104001870D01*
X137467754Y-104031243D01*
X137529503Y-104221287D01*
X137533444Y-104233414D01*
X137629951Y-104422820D01*
X137754890Y-104594786D01*
X137905213Y-104745109D01*
X138077179Y-104870048D01*
X138077181Y-104870049D01*
X138077184Y-104870051D01*
X138266588Y-104966557D01*
X138468757Y-105032246D01*
X138678713Y-105065500D01*
X138678714Y-105065500D01*
X138891286Y-105065500D01*
X138891287Y-105065500D01*
X139101243Y-105032246D01*
X139303412Y-104966557D01*
X139492816Y-104870051D01*
X139580616Y-104806261D01*
X139664786Y-104745109D01*
X139664788Y-104745106D01*
X139664792Y-104745104D01*
X139815104Y-104594792D01*
X139815106Y-104594788D01*
X139815109Y-104594786D01*
X139940048Y-104422820D01*
X139940047Y-104422820D01*
X139940051Y-104422816D01*
X140036557Y-104233412D01*
X140102246Y-104031243D01*
X140135500Y-103821287D01*
X140135500Y-103608713D01*
X140102246Y-103398757D01*
X140036557Y-103196588D01*
X139940051Y-103007184D01*
X139940049Y-103007181D01*
X139940048Y-103007179D01*
X139815109Y-102835213D01*
X139664786Y-102684890D01*
X139492820Y-102559951D01*
X139492115Y-102559591D01*
X139484054Y-102555485D01*
X139433259Y-102507512D01*
X139416463Y-102439692D01*
X139438999Y-102373556D01*
X139484054Y-102334515D01*
X139492816Y-102330051D01*
X139547876Y-102290048D01*
X139664786Y-102205109D01*
X139664788Y-102205106D01*
X139664792Y-102205104D01*
X139815104Y-102054792D01*
X139815106Y-102054788D01*
X139815109Y-102054786D01*
X139940048Y-101882820D01*
X139940047Y-101882820D01*
X139940051Y-101882816D01*
X140036557Y-101693412D01*
X140102246Y-101491243D01*
X140135500Y-101281287D01*
X140135500Y-101068713D01*
X140102246Y-100858757D01*
X140036557Y-100656588D01*
X139940051Y-100467184D01*
X139940049Y-100467181D01*
X139940048Y-100467179D01*
X139815109Y-100295213D01*
X139701569Y-100181673D01*
X139668084Y-100120350D01*
X139673068Y-100050658D01*
X139714940Y-99994725D01*
X139745915Y-99977810D01*
X139877331Y-99928796D01*
X139992546Y-99842546D01*
X140078796Y-99727331D01*
X140129091Y-99592483D01*
X140135500Y-99532873D01*
X140135499Y-97737135D01*
X141364500Y-97737135D01*
X141364500Y-99532870D01*
X141364501Y-99532876D01*
X141370908Y-99592483D01*
X141421202Y-99727328D01*
X141421206Y-99727335D01*
X141507452Y-99842544D01*
X141507455Y-99842547D01*
X141622664Y-99928793D01*
X141622671Y-99928797D01*
X141754082Y-99977810D01*
X141810016Y-100019681D01*
X141834433Y-100085145D01*
X141819582Y-100153418D01*
X141798431Y-100181673D01*
X141684889Y-100295215D01*
X141559951Y-100467179D01*
X141463444Y-100656585D01*
X141397753Y-100858760D01*
X141364500Y-101068713D01*
X141364500Y-101281286D01*
X141392522Y-101458213D01*
X141397754Y-101491243D01*
X141449853Y-101651588D01*
X141463444Y-101693414D01*
X141559951Y-101882820D01*
X141684890Y-102054786D01*
X141835213Y-102205109D01*
X142007182Y-102330050D01*
X142015946Y-102334516D01*
X142066742Y-102382491D01*
X142083536Y-102450312D01*
X142060998Y-102516447D01*
X142015946Y-102555484D01*
X142007182Y-102559949D01*
X141835213Y-102684890D01*
X141684890Y-102835213D01*
X141559951Y-103007179D01*
X141463444Y-103196585D01*
X141397753Y-103398760D01*
X141364500Y-103608713D01*
X141364500Y-103821286D01*
X141393101Y-104001870D01*
X141397754Y-104031243D01*
X141459503Y-104221287D01*
X141463444Y-104233414D01*
X141559951Y-104422820D01*
X141684890Y-104594786D01*
X141835213Y-104745109D01*
X142007179Y-104870048D01*
X142007181Y-104870049D01*
X142007184Y-104870051D01*
X142196588Y-104966557D01*
X142398757Y-105032246D01*
X142608713Y-105065500D01*
X142608714Y-105065500D01*
X142821286Y-105065500D01*
X142821287Y-105065500D01*
X143031243Y-105032246D01*
X143233412Y-104966557D01*
X143422816Y-104870051D01*
X143510616Y-104806261D01*
X143594786Y-104745109D01*
X143594788Y-104745106D01*
X143594792Y-104745104D01*
X143745104Y-104594792D01*
X143745106Y-104594788D01*
X143745109Y-104594786D01*
X143870048Y-104422820D01*
X143870047Y-104422820D01*
X143870051Y-104422816D01*
X143966557Y-104233412D01*
X144032246Y-104031243D01*
X144065500Y-103821287D01*
X144065500Y-103608713D01*
X144032246Y-103398757D01*
X143966557Y-103196588D01*
X143870051Y-103007184D01*
X143870049Y-103007181D01*
X143870048Y-103007179D01*
X143745109Y-102835213D01*
X143594786Y-102684890D01*
X143422820Y-102559951D01*
X143422115Y-102559591D01*
X143414054Y-102555485D01*
X143363259Y-102507512D01*
X143346463Y-102439692D01*
X143368999Y-102373556D01*
X143414054Y-102334515D01*
X143422816Y-102330051D01*
X143477876Y-102290048D01*
X143594786Y-102205109D01*
X143594788Y-102205106D01*
X143594792Y-102205104D01*
X143745104Y-102054792D01*
X143745106Y-102054788D01*
X143745109Y-102054786D01*
X143870048Y-101882820D01*
X143870047Y-101882820D01*
X143870051Y-101882816D01*
X143966557Y-101693412D01*
X144032246Y-101491243D01*
X144065500Y-101281287D01*
X144065500Y-101068713D01*
X144032246Y-100858757D01*
X143966557Y-100656588D01*
X143870051Y-100467184D01*
X143870049Y-100467181D01*
X143870048Y-100467179D01*
X143745109Y-100295213D01*
X143631569Y-100181673D01*
X143598084Y-100120350D01*
X143603068Y-100050658D01*
X143644940Y-99994725D01*
X143675915Y-99977810D01*
X143807331Y-99928796D01*
X143922546Y-99842546D01*
X144008796Y-99727331D01*
X144059091Y-99592483D01*
X144065500Y-99532873D01*
X144065499Y-97737128D01*
X144059091Y-97677517D01*
X144048524Y-97649186D01*
X144008797Y-97542671D01*
X144008793Y-97542664D01*
X143922547Y-97427455D01*
X143922544Y-97427452D01*
X143807335Y-97341206D01*
X143807328Y-97341202D01*
X143672482Y-97290908D01*
X143672483Y-97290908D01*
X143612883Y-97284501D01*
X143612881Y-97284500D01*
X143612873Y-97284500D01*
X143612864Y-97284500D01*
X141817129Y-97284500D01*
X141817123Y-97284501D01*
X141757516Y-97290908D01*
X141622671Y-97341202D01*
X141622664Y-97341206D01*
X141507455Y-97427452D01*
X141507452Y-97427455D01*
X141421206Y-97542664D01*
X141421202Y-97542671D01*
X141370908Y-97677517D01*
X141365830Y-97724753D01*
X141364501Y-97737123D01*
X141364500Y-97737135D01*
X140135499Y-97737135D01*
X140135499Y-97737128D01*
X140129091Y-97677517D01*
X140118524Y-97649186D01*
X140078797Y-97542671D01*
X140078793Y-97542664D01*
X139992547Y-97427455D01*
X139992544Y-97427452D01*
X139877335Y-97341206D01*
X139877328Y-97341202D01*
X139742482Y-97290908D01*
X139742483Y-97290908D01*
X139682883Y-97284501D01*
X139682881Y-97284500D01*
X139682873Y-97284500D01*
X139682864Y-97284500D01*
X137887129Y-97284500D01*
X137887123Y-97284501D01*
X137827516Y-97290908D01*
X137692671Y-97341202D01*
X137692664Y-97341206D01*
X137577455Y-97427452D01*
X137577452Y-97427455D01*
X137491206Y-97542664D01*
X137491202Y-97542671D01*
X137440908Y-97677517D01*
X137435830Y-97724753D01*
X137434501Y-97737123D01*
X137434500Y-97737135D01*
X136175499Y-97737135D01*
X136175499Y-97697128D01*
X136169091Y-97637517D01*
X136167796Y-97634046D01*
X136118797Y-97502671D01*
X136118793Y-97502664D01*
X136032547Y-97387455D01*
X136032544Y-97387452D01*
X135917335Y-97301206D01*
X135917328Y-97301202D01*
X135782482Y-97250908D01*
X135782483Y-97250908D01*
X135722883Y-97244501D01*
X135722881Y-97244500D01*
X135722873Y-97244500D01*
X135722864Y-97244500D01*
X133927129Y-97244500D01*
X133927123Y-97244501D01*
X133867516Y-97250908D01*
X133732671Y-97301202D01*
X133732664Y-97301206D01*
X133617455Y-97387452D01*
X133617452Y-97387455D01*
X133531206Y-97502664D01*
X133531202Y-97502671D01*
X133480908Y-97637517D01*
X133474849Y-97693881D01*
X133474501Y-97697123D01*
X133474500Y-97697135D01*
X126320500Y-97697135D01*
X126320500Y-94651153D01*
X133259500Y-94651153D01*
X133259500Y-94808846D01*
X133290261Y-94963489D01*
X133290264Y-94963501D01*
X133350602Y-95109172D01*
X133350609Y-95109185D01*
X133438210Y-95240288D01*
X133438213Y-95240292D01*
X133549707Y-95351786D01*
X133549711Y-95351789D01*
X133680814Y-95439390D01*
X133680827Y-95439397D01*
X133826498Y-95499735D01*
X133826503Y-95499737D01*
X133967680Y-95527819D01*
X133981153Y-95530499D01*
X133981156Y-95530500D01*
X133981158Y-95530500D01*
X134138844Y-95530500D01*
X134138845Y-95530499D01*
X134293497Y-95499737D01*
X134439179Y-95439394D01*
X134439185Y-95439390D01*
X134570875Y-95351398D01*
X134637553Y-95330520D01*
X134639766Y-95330500D01*
X135643331Y-95330500D01*
X135643347Y-95330501D01*
X135650943Y-95330501D01*
X135809054Y-95330501D01*
X135809057Y-95330501D01*
X135961785Y-95289577D01*
X136011904Y-95260639D01*
X136098716Y-95210520D01*
X136210520Y-95098716D01*
X136210520Y-95098714D01*
X136220728Y-95088507D01*
X136220730Y-95088504D01*
X137190412Y-94118821D01*
X137251733Y-94085338D01*
X137321425Y-94090322D01*
X137377358Y-94132193D01*
X137381203Y-94137330D01*
X137381204Y-94137331D01*
X137467454Y-94252546D01*
X137513643Y-94287123D01*
X137582664Y-94338793D01*
X137582671Y-94338797D01*
X137717517Y-94389091D01*
X137717516Y-94389091D01*
X137724444Y-94389835D01*
X137777127Y-94395500D01*
X139572872Y-94395499D01*
X139632483Y-94389091D01*
X139767331Y-94338796D01*
X139882546Y-94252546D01*
X139968796Y-94137331D01*
X140019091Y-94002483D01*
X140025500Y-93942873D01*
X140025499Y-92147128D01*
X140019091Y-92087517D01*
X140017188Y-92082416D01*
X139968797Y-91952671D01*
X139968793Y-91952664D01*
X139882547Y-91837455D01*
X139882544Y-91837452D01*
X139767335Y-91751206D01*
X139767328Y-91751202D01*
X139635917Y-91702189D01*
X139579983Y-91660318D01*
X139555566Y-91594853D01*
X139570418Y-91526580D01*
X139591563Y-91498332D01*
X139705104Y-91384792D01*
X139754714Y-91316510D01*
X139830048Y-91212820D01*
X139830047Y-91212820D01*
X139830051Y-91212816D01*
X139926557Y-91023412D01*
X139992246Y-90821243D01*
X140025500Y-90611287D01*
X140025500Y-90398713D01*
X139992246Y-90188757D01*
X139926557Y-89986588D01*
X139830051Y-89797184D01*
X139830049Y-89797181D01*
X139830048Y-89797179D01*
X139705109Y-89625213D01*
X139554786Y-89474890D01*
X139382820Y-89349951D01*
X139382115Y-89349591D01*
X139374054Y-89345485D01*
X139323259Y-89297512D01*
X139306463Y-89229692D01*
X139328999Y-89163556D01*
X139374054Y-89124515D01*
X139382816Y-89120051D01*
X139423490Y-89090500D01*
X139554786Y-88995109D01*
X139554788Y-88995106D01*
X139554792Y-88995104D01*
X139705104Y-88844792D01*
X139705106Y-88844788D01*
X139705109Y-88844786D01*
X139830048Y-88672820D01*
X139830047Y-88672820D01*
X139830051Y-88672816D01*
X139926557Y-88483412D01*
X139992246Y-88281243D01*
X140025500Y-88071287D01*
X140025500Y-87858713D01*
X139992246Y-87648757D01*
X139926557Y-87446588D01*
X139830051Y-87257184D01*
X139830049Y-87257181D01*
X139830048Y-87257179D01*
X139705109Y-87085213D01*
X139554786Y-86934890D01*
X139382820Y-86809951D01*
X139193414Y-86713444D01*
X139193413Y-86713443D01*
X139193412Y-86713443D01*
X138991243Y-86647754D01*
X138991241Y-86647753D01*
X138991240Y-86647753D01*
X138829957Y-86622208D01*
X138781287Y-86614500D01*
X138568713Y-86614500D01*
X138520042Y-86622208D01*
X138358760Y-86647753D01*
X138358757Y-86647754D01*
X138197063Y-86700292D01*
X138156582Y-86713445D01*
X138020794Y-86782632D01*
X137952125Y-86795528D01*
X137887385Y-86769251D01*
X137847128Y-86712145D01*
X137840500Y-86672147D01*
X137840500Y-85039060D01*
X137840501Y-85039047D01*
X137840501Y-84870944D01*
X137832431Y-84840827D01*
X137799577Y-84718216D01*
X137766444Y-84660827D01*
X137720524Y-84581290D01*
X137720518Y-84581282D01*
X136651319Y-83512083D01*
X136617834Y-83450760D01*
X136615000Y-83424402D01*
X136615000Y-82490694D01*
X136634685Y-82423655D01*
X136687489Y-82377900D01*
X136691547Y-82376133D01*
X136799252Y-82331520D01*
X137000248Y-82215476D01*
X137184377Y-82074189D01*
X137348489Y-81910077D01*
X137489776Y-81725948D01*
X137605820Y-81524952D01*
X137694637Y-81310530D01*
X137754706Y-81086349D01*
X137785000Y-80856245D01*
X137785000Y-80624155D01*
X137784999Y-80624147D01*
X138435000Y-80624147D01*
X138435000Y-80856252D01*
X138465294Y-81086348D01*
X138525362Y-81310528D01*
X138614177Y-81524945D01*
X138614185Y-81524962D01*
X138730220Y-81725943D01*
X138730221Y-81725945D01*
X138871509Y-81910075D01*
X138871515Y-81910082D01*
X139035617Y-82074184D01*
X139035624Y-82074190D01*
X139219754Y-82215478D01*
X139219756Y-82215479D01*
X139420737Y-82331514D01*
X139420740Y-82331515D01*
X139420748Y-82331520D01*
X139635170Y-82420337D01*
X139859351Y-82480406D01*
X140089455Y-82510700D01*
X140089462Y-82510700D01*
X140321538Y-82510700D01*
X140321545Y-82510700D01*
X140551649Y-82480406D01*
X140775830Y-82420337D01*
X140990252Y-82331520D01*
X141191248Y-82215476D01*
X141375377Y-82074189D01*
X141539489Y-81910077D01*
X141680776Y-81725948D01*
X141796820Y-81524952D01*
X141885637Y-81310530D01*
X141945706Y-81086349D01*
X141976000Y-80856245D01*
X141976000Y-80624155D01*
X141945706Y-80394051D01*
X141885637Y-80169870D01*
X141796820Y-79955448D01*
X141793732Y-79950099D01*
X141680779Y-79754456D01*
X141680778Y-79754454D01*
X141539490Y-79570324D01*
X141539484Y-79570317D01*
X141375382Y-79406215D01*
X141375375Y-79406209D01*
X141191245Y-79264921D01*
X141191243Y-79264920D01*
X140990262Y-79148885D01*
X140990254Y-79148881D01*
X140990252Y-79148880D01*
X140775830Y-79060063D01*
X140775831Y-79060063D01*
X140775828Y-79060062D01*
X140633703Y-79021980D01*
X140551649Y-78999994D01*
X140522886Y-78996207D01*
X140321552Y-78969700D01*
X140321545Y-78969700D01*
X140089455Y-78969700D01*
X140089447Y-78969700D01*
X139859351Y-78999994D01*
X139635171Y-79060062D01*
X139420754Y-79148877D01*
X139420737Y-79148885D01*
X139219756Y-79264920D01*
X139219754Y-79264921D01*
X139035624Y-79406209D01*
X139035617Y-79406215D01*
X138871515Y-79570317D01*
X138871509Y-79570324D01*
X138730221Y-79754454D01*
X138730220Y-79754456D01*
X138614185Y-79955437D01*
X138614177Y-79955454D01*
X138525362Y-80169871D01*
X138465294Y-80394051D01*
X138435000Y-80624147D01*
X137784999Y-80624147D01*
X137754706Y-80394051D01*
X137694637Y-80169870D01*
X137605820Y-79955448D01*
X137602732Y-79950099D01*
X137489779Y-79754456D01*
X137489778Y-79754454D01*
X137348490Y-79570324D01*
X137348484Y-79570317D01*
X137184382Y-79406215D01*
X137184375Y-79406209D01*
X137000245Y-79264921D01*
X137000243Y-79264920D01*
X136799262Y-79148885D01*
X136799254Y-79148881D01*
X136799252Y-79148880D01*
X136584830Y-79060063D01*
X136584831Y-79060063D01*
X136584828Y-79060062D01*
X136442703Y-79021980D01*
X136360649Y-78999994D01*
X136331886Y-78996207D01*
X136130552Y-78969700D01*
X136130545Y-78969700D01*
X135898455Y-78969700D01*
X135898447Y-78969700D01*
X135668351Y-78999994D01*
X135444171Y-79060062D01*
X135229754Y-79148877D01*
X135229737Y-79148885D01*
X135028756Y-79264920D01*
X135028754Y-79264921D01*
X134844624Y-79406209D01*
X134844617Y-79406215D01*
X134680515Y-79570317D01*
X134680509Y-79570324D01*
X134539221Y-79754454D01*
X134539220Y-79754456D01*
X134423185Y-79955437D01*
X134423177Y-79955454D01*
X134334362Y-80169871D01*
X134274294Y-80394051D01*
X134244000Y-80624147D01*
X134244000Y-80856252D01*
X134274294Y-81086348D01*
X134334362Y-81310528D01*
X134423177Y-81524945D01*
X134423185Y-81524962D01*
X134539220Y-81725943D01*
X134539221Y-81725945D01*
X134680509Y-81910075D01*
X134680515Y-81910082D01*
X134844617Y-82074184D01*
X134844624Y-82074190D01*
X135028754Y-82215478D01*
X135028756Y-82215479D01*
X135229737Y-82331514D01*
X135229740Y-82331515D01*
X135229748Y-82331520D01*
X135337453Y-82376133D01*
X135391856Y-82419974D01*
X135413921Y-82486268D01*
X135414000Y-82490694D01*
X135414000Y-83637830D01*
X135413999Y-83637848D01*
X135413999Y-83803554D01*
X135413998Y-83803554D01*
X135454923Y-83956285D01*
X135463086Y-83970423D01*
X135463087Y-83970426D01*
X135533975Y-84093209D01*
X135533981Y-84093217D01*
X135652849Y-84212085D01*
X135652855Y-84212090D01*
X136603181Y-85162416D01*
X136636666Y-85223739D01*
X136639500Y-85250097D01*
X136639500Y-92919903D01*
X136619815Y-92986942D01*
X136603181Y-93007584D01*
X135517584Y-94093181D01*
X135456261Y-94126666D01*
X135429903Y-94129500D01*
X134639766Y-94129500D01*
X134572727Y-94109815D01*
X134570875Y-94108602D01*
X134439185Y-94020609D01*
X134439172Y-94020602D01*
X134293501Y-93960264D01*
X134293489Y-93960261D01*
X134138845Y-93929500D01*
X134138842Y-93929500D01*
X133981158Y-93929500D01*
X133981155Y-93929500D01*
X133826510Y-93960261D01*
X133826498Y-93960264D01*
X133680827Y-94020602D01*
X133680814Y-94020609D01*
X133549711Y-94108210D01*
X133549707Y-94108213D01*
X133438213Y-94219707D01*
X133438210Y-94219711D01*
X133350609Y-94350814D01*
X133350602Y-94350827D01*
X133290264Y-94496498D01*
X133290261Y-94496510D01*
X133259500Y-94651153D01*
X126320500Y-94651153D01*
X126320500Y-91959060D01*
X126320501Y-91959047D01*
X126320501Y-91790944D01*
X126314410Y-91768211D01*
X126279577Y-91638216D01*
X126251451Y-91589500D01*
X126200524Y-91501290D01*
X126200518Y-91501282D01*
X123074640Y-88375405D01*
X123041155Y-88314082D01*
X123040733Y-88312058D01*
X123019737Y-88206503D01*
X123004651Y-88170082D01*
X122959397Y-88060827D01*
X122959390Y-88060814D01*
X122871789Y-87929711D01*
X122871786Y-87929707D01*
X122760292Y-87818213D01*
X122760288Y-87818210D01*
X122629185Y-87730609D01*
X122629172Y-87730602D01*
X122483501Y-87670264D01*
X122483489Y-87670261D01*
X122328845Y-87639500D01*
X122328842Y-87639500D01*
X122171158Y-87639500D01*
X122171155Y-87639500D01*
X122016510Y-87670261D01*
X122016498Y-87670264D01*
X121870827Y-87730602D01*
X121870814Y-87730609D01*
X121739711Y-87818210D01*
X121739707Y-87818213D01*
X121628213Y-87929707D01*
X121628210Y-87929711D01*
X121540609Y-88060814D01*
X121540602Y-88060827D01*
X121480264Y-88206498D01*
X121480261Y-88206510D01*
X121449500Y-88361153D01*
X121449500Y-88518846D01*
X121480261Y-88673489D01*
X121480264Y-88673501D01*
X121540602Y-88819172D01*
X121540609Y-88819185D01*
X121628210Y-88950288D01*
X121628213Y-88950292D01*
X121739707Y-89061786D01*
X121739711Y-89061789D01*
X121870814Y-89149390D01*
X121870827Y-89149397D01*
X122016498Y-89209735D01*
X122016503Y-89209737D01*
X122119699Y-89230264D01*
X122171153Y-89240499D01*
X122171156Y-89240500D01*
X122171158Y-89240500D01*
X122189903Y-89240500D01*
X122256942Y-89260185D01*
X122277584Y-89276819D01*
X122354895Y-89354130D01*
X122388380Y-89415453D01*
X122383396Y-89485145D01*
X122341524Y-89541078D01*
X122291406Y-89563428D01*
X122156508Y-89590261D01*
X122156498Y-89590264D01*
X122010827Y-89650602D01*
X122010814Y-89650609D01*
X121879711Y-89738210D01*
X121879707Y-89738213D01*
X121768213Y-89849707D01*
X121768210Y-89849711D01*
X121680609Y-89980814D01*
X121680602Y-89980827D01*
X121620264Y-90126498D01*
X121620261Y-90126510D01*
X121589500Y-90281153D01*
X121589500Y-90438846D01*
X121620261Y-90593489D01*
X121620264Y-90593501D01*
X121680602Y-90739172D01*
X121680609Y-90739185D01*
X121768210Y-90870288D01*
X121768213Y-90870292D01*
X121879707Y-90981786D01*
X121879711Y-90981789D01*
X122010814Y-91069390D01*
X122010827Y-91069397D01*
X122156498Y-91129735D01*
X122156503Y-91129737D01*
X122302672Y-91158812D01*
X122311153Y-91160499D01*
X122311156Y-91160500D01*
X122467296Y-91160500D01*
X122472943Y-91160629D01*
X122486391Y-91161242D01*
X122520943Y-91170501D01*
X122679057Y-91170501D01*
X122679061Y-91170500D01*
X122695500Y-91170500D01*
X122762539Y-91190185D01*
X122808294Y-91242989D01*
X122819500Y-91294500D01*
X122819500Y-91515871D01*
X122799815Y-91582910D01*
X122747011Y-91628665D01*
X122677853Y-91638609D01*
X122648048Y-91630432D01*
X122623501Y-91620264D01*
X122623489Y-91620261D01*
X122468845Y-91589500D01*
X122468842Y-91589500D01*
X122311158Y-91589500D01*
X122311155Y-91589500D01*
X122156510Y-91620261D01*
X122156498Y-91620264D01*
X122010827Y-91680602D01*
X122010814Y-91680609D01*
X121879711Y-91768210D01*
X121879707Y-91768213D01*
X121768213Y-91879707D01*
X121768210Y-91879711D01*
X121680609Y-92010814D01*
X121680602Y-92010827D01*
X121620264Y-92156498D01*
X121620261Y-92156508D01*
X121589362Y-92311848D01*
X121556977Y-92373759D01*
X121555426Y-92375337D01*
X118157584Y-95773181D01*
X118096261Y-95806666D01*
X118069903Y-95809500D01*
X104880568Y-95809500D01*
X104813529Y-95789815D01*
X104767774Y-95737011D01*
X104757830Y-95667853D01*
X104786855Y-95604297D01*
X104792887Y-95597819D01*
X105894208Y-94496498D01*
X107145235Y-93245470D01*
X107206556Y-93211987D01*
X107276248Y-93216971D01*
X107295338Y-93226741D01*
X107295454Y-93226525D01*
X107300825Y-93229396D01*
X107446498Y-93289735D01*
X107446503Y-93289737D01*
X107601153Y-93320499D01*
X107601156Y-93320500D01*
X107601158Y-93320500D01*
X107758844Y-93320500D01*
X107758845Y-93320499D01*
X107913497Y-93289737D01*
X108059179Y-93229394D01*
X108190289Y-93141789D01*
X108301789Y-93030289D01*
X108389394Y-92899179D01*
X108449737Y-92753497D01*
X108480500Y-92598842D01*
X108480500Y-92441158D01*
X108480500Y-92441155D01*
X108480499Y-92441153D01*
X108461040Y-92343329D01*
X108449737Y-92286503D01*
X108449735Y-92286498D01*
X108389397Y-92140827D01*
X108389390Y-92140814D01*
X108301789Y-92009711D01*
X108301786Y-92009707D01*
X108190292Y-91898213D01*
X108190288Y-91898210D01*
X108059185Y-91810609D01*
X108059172Y-91810602D01*
X107913501Y-91750264D01*
X107913491Y-91750261D01*
X107800308Y-91727747D01*
X107738397Y-91695362D01*
X107703823Y-91634646D01*
X107700500Y-91606130D01*
X107700500Y-91471155D01*
X107700499Y-91471153D01*
X107669737Y-91316503D01*
X107631995Y-91225384D01*
X107609397Y-91170827D01*
X107609390Y-91170814D01*
X107521789Y-91039711D01*
X107521786Y-91039707D01*
X107410292Y-90928213D01*
X107410288Y-90928210D01*
X107279185Y-90840609D01*
X107279178Y-90840605D01*
X107275451Y-90839062D01*
X107221047Y-90795222D01*
X107198981Y-90728928D01*
X107216259Y-90661229D01*
X107267395Y-90613617D01*
X107322902Y-90600500D01*
X113750234Y-90600500D01*
X113817273Y-90620185D01*
X113819125Y-90621398D01*
X113950814Y-90709390D01*
X113950827Y-90709397D01*
X114022743Y-90739185D01*
X114096503Y-90769737D01*
X114224624Y-90795222D01*
X114251153Y-90800499D01*
X114251156Y-90800500D01*
X114251158Y-90800500D01*
X114408844Y-90800500D01*
X114408845Y-90800499D01*
X114563497Y-90769737D01*
X114709179Y-90709394D01*
X114840289Y-90621789D01*
X114951789Y-90510289D01*
X115039394Y-90379179D01*
X115099737Y-90233497D01*
X115130500Y-90078842D01*
X115130500Y-89921158D01*
X115130500Y-89921155D01*
X115130499Y-89921153D01*
X115099738Y-89766510D01*
X115099737Y-89766503D01*
X115088018Y-89738210D01*
X115039397Y-89620827D01*
X115039390Y-89620814D01*
X114951789Y-89489711D01*
X114951786Y-89489707D01*
X114840292Y-89378213D01*
X114840288Y-89378210D01*
X114709185Y-89290609D01*
X114709172Y-89290602D01*
X114563501Y-89230264D01*
X114563489Y-89230261D01*
X114408845Y-89199500D01*
X114408842Y-89199500D01*
X114251158Y-89199500D01*
X114251155Y-89199500D01*
X114096510Y-89230261D01*
X114096498Y-89230264D01*
X113950827Y-89290602D01*
X113950814Y-89290609D01*
X113819125Y-89378602D01*
X113752447Y-89399480D01*
X113750234Y-89399500D01*
X96189097Y-89399500D01*
X96122058Y-89379815D01*
X96076303Y-89327011D01*
X96066359Y-89257853D01*
X96095384Y-89194297D01*
X96101401Y-89187833D01*
X96164663Y-89124571D01*
X96225982Y-89091089D01*
X96228150Y-89090638D01*
X96286085Y-89079113D01*
X96383497Y-89059737D01*
X96529179Y-88999394D01*
X96660289Y-88911789D01*
X96771789Y-88800289D01*
X96859394Y-88669179D01*
X96919737Y-88523497D01*
X96950500Y-88368842D01*
X96950500Y-88211158D01*
X96950500Y-88211155D01*
X96950499Y-88211153D01*
X96949573Y-88206498D01*
X96919737Y-88056503D01*
X96919735Y-88056498D01*
X96859397Y-87910827D01*
X96859390Y-87910814D01*
X96771789Y-87779711D01*
X96771786Y-87779707D01*
X96660292Y-87668213D01*
X96660288Y-87668210D01*
X96529185Y-87580609D01*
X96529172Y-87580602D01*
X96383501Y-87520264D01*
X96383489Y-87520261D01*
X96228845Y-87489500D01*
X96228842Y-87489500D01*
X96071158Y-87489500D01*
X96071155Y-87489500D01*
X95916510Y-87520261D01*
X95916498Y-87520264D01*
X95770827Y-87580602D01*
X95770814Y-87580609D01*
X95639711Y-87668210D01*
X95639707Y-87668213D01*
X95528213Y-87779707D01*
X95528210Y-87779711D01*
X95440609Y-87910814D01*
X95440602Y-87910827D01*
X95380264Y-88056498D01*
X95380261Y-88056508D01*
X95349361Y-88211850D01*
X95316976Y-88273761D01*
X95315425Y-88275339D01*
X88549987Y-95040778D01*
X88488664Y-95074263D01*
X88418972Y-95069279D01*
X88363039Y-95027407D01*
X88338622Y-94961943D01*
X88338306Y-94953097D01*
X88338306Y-84961153D01*
X90299500Y-84961153D01*
X90299500Y-85118846D01*
X90330261Y-85273489D01*
X90330264Y-85273501D01*
X90390602Y-85419172D01*
X90390609Y-85419185D01*
X90478210Y-85550288D01*
X90478213Y-85550292D01*
X90589707Y-85661786D01*
X90589711Y-85661789D01*
X90720814Y-85749390D01*
X90720827Y-85749397D01*
X90866498Y-85809735D01*
X90866503Y-85809737D01*
X91021153Y-85840499D01*
X91021156Y-85840500D01*
X91021158Y-85840500D01*
X91178844Y-85840500D01*
X91178845Y-85840499D01*
X91333497Y-85809737D01*
X91479179Y-85749394D01*
X91573459Y-85686398D01*
X91640136Y-85665520D01*
X91642350Y-85665500D01*
X101331607Y-85665500D01*
X101392029Y-85653481D01*
X101452452Y-85641463D01*
X101485792Y-85627652D01*
X101566286Y-85594312D01*
X101632169Y-85550289D01*
X101668733Y-85525858D01*
X101755858Y-85438733D01*
X101755859Y-85438731D01*
X101762925Y-85431665D01*
X101762928Y-85431661D01*
X104006245Y-83188343D01*
X104067566Y-83154860D01*
X104069635Y-83154428D01*
X104143497Y-83139737D01*
X104289179Y-83079394D01*
X104420289Y-82991789D01*
X104531789Y-82880289D01*
X104619394Y-82749179D01*
X104679737Y-82603497D01*
X104710500Y-82448842D01*
X104710500Y-82291158D01*
X104710500Y-82291155D01*
X104710499Y-82291153D01*
X104691629Y-82196287D01*
X104679737Y-82136503D01*
X104679735Y-82136498D01*
X104619397Y-81990827D01*
X104619390Y-81990814D01*
X104531789Y-81859711D01*
X104531786Y-81859707D01*
X104420292Y-81748213D01*
X104420288Y-81748210D01*
X104289185Y-81660609D01*
X104289172Y-81660602D01*
X104143501Y-81600264D01*
X104143489Y-81600261D01*
X103988845Y-81569500D01*
X103988842Y-81569500D01*
X103831158Y-81569500D01*
X103831155Y-81569500D01*
X103676510Y-81600261D01*
X103676498Y-81600264D01*
X103530827Y-81660602D01*
X103530814Y-81660609D01*
X103399711Y-81748210D01*
X103399707Y-81748213D01*
X103288213Y-81859707D01*
X103288210Y-81859711D01*
X103200609Y-81990814D01*
X103200602Y-81990827D01*
X103140264Y-82136498D01*
X103140261Y-82136508D01*
X103110691Y-82285165D01*
X103078306Y-82347076D01*
X103076755Y-82348654D01*
X101047229Y-84378181D01*
X100985906Y-84411666D01*
X100959548Y-84414500D01*
X91642350Y-84414500D01*
X91575311Y-84394815D01*
X91573459Y-84393602D01*
X91479184Y-84330609D01*
X91479172Y-84330602D01*
X91333501Y-84270264D01*
X91333489Y-84270261D01*
X91178845Y-84239500D01*
X91178842Y-84239500D01*
X91021158Y-84239500D01*
X91021155Y-84239500D01*
X90866510Y-84270261D01*
X90866498Y-84270264D01*
X90720827Y-84330602D01*
X90720814Y-84330609D01*
X90589711Y-84418210D01*
X90589707Y-84418213D01*
X90478213Y-84529707D01*
X90478210Y-84529711D01*
X90390609Y-84660814D01*
X90390602Y-84660827D01*
X90330264Y-84806498D01*
X90330261Y-84806510D01*
X90299500Y-84961153D01*
X88338306Y-84961153D01*
X88338306Y-68492135D01*
X88809500Y-68492135D01*
X88809500Y-70287870D01*
X88809501Y-70287876D01*
X88815908Y-70347483D01*
X88866202Y-70482328D01*
X88866206Y-70482335D01*
X88952452Y-70597544D01*
X88952455Y-70597547D01*
X89067664Y-70683793D01*
X89067671Y-70683797D01*
X89199082Y-70732810D01*
X89255016Y-70774681D01*
X89279433Y-70840145D01*
X89264582Y-70908418D01*
X89243431Y-70936673D01*
X89129889Y-71050215D01*
X89004951Y-71222179D01*
X88908444Y-71411585D01*
X88842753Y-71613760D01*
X88809500Y-71823713D01*
X88809500Y-72036286D01*
X88842753Y-72246239D01*
X88908444Y-72448414D01*
X89004951Y-72637820D01*
X89129890Y-72809786D01*
X89280213Y-72960109D01*
X89452182Y-73085050D01*
X89460946Y-73089516D01*
X89511742Y-73137491D01*
X89528536Y-73205312D01*
X89505998Y-73271447D01*
X89460946Y-73310484D01*
X89452182Y-73314949D01*
X89280213Y-73439890D01*
X89129890Y-73590213D01*
X89004951Y-73762179D01*
X88908444Y-73951585D01*
X88842753Y-74153760D01*
X88809500Y-74363713D01*
X88809500Y-74576286D01*
X88833588Y-74728376D01*
X88842754Y-74786243D01*
X88892758Y-74940140D01*
X88908444Y-74988414D01*
X89004951Y-75177820D01*
X89129890Y-75349786D01*
X89280213Y-75500109D01*
X89452182Y-75625050D01*
X89460946Y-75629516D01*
X89511742Y-75677491D01*
X89528536Y-75745312D01*
X89505998Y-75811447D01*
X89460946Y-75850484D01*
X89452182Y-75854949D01*
X89280213Y-75979890D01*
X89129890Y-76130213D01*
X89004951Y-76302179D01*
X88908444Y-76491585D01*
X88842753Y-76693760D01*
X88809500Y-76903713D01*
X88809500Y-77116286D01*
X88842753Y-77326239D01*
X88908444Y-77528414D01*
X89004951Y-77717820D01*
X89129890Y-77889786D01*
X89280213Y-78040109D01*
X89452179Y-78165048D01*
X89452181Y-78165049D01*
X89452184Y-78165051D01*
X89461493Y-78169794D01*
X89512290Y-78217766D01*
X89529087Y-78285587D01*
X89506552Y-78351722D01*
X89461505Y-78390760D01*
X89452446Y-78395376D01*
X89452440Y-78395380D01*
X89398282Y-78434727D01*
X89398282Y-78434728D01*
X90030591Y-79067037D01*
X89967007Y-79084075D01*
X89852993Y-79149901D01*
X89759901Y-79242993D01*
X89694075Y-79357007D01*
X89677037Y-79420591D01*
X89044728Y-78788282D01*
X89044727Y-78788282D01*
X89005380Y-78842439D01*
X88908904Y-79031782D01*
X88843242Y-79233869D01*
X88843242Y-79233872D01*
X88810000Y-79443753D01*
X88810000Y-79656246D01*
X88843242Y-79866127D01*
X88843242Y-79866130D01*
X88908904Y-80068217D01*
X89005375Y-80257550D01*
X89044728Y-80311716D01*
X89677037Y-79679408D01*
X89694075Y-79742993D01*
X89759901Y-79857007D01*
X89852993Y-79950099D01*
X89967007Y-80015925D01*
X90030590Y-80032962D01*
X89398282Y-80665269D01*
X89398282Y-80665270D01*
X89452452Y-80704626D01*
X89452451Y-80704626D01*
X89461495Y-80709234D01*
X89512292Y-80757208D01*
X89529087Y-80825029D01*
X89506550Y-80891164D01*
X89461499Y-80930202D01*
X89452182Y-80934949D01*
X89280213Y-81059890D01*
X89129890Y-81210213D01*
X89004951Y-81382179D01*
X88908444Y-81571585D01*
X88842753Y-81773760D01*
X88809500Y-81983713D01*
X88809500Y-82196286D01*
X88828446Y-82315910D01*
X88842754Y-82406243D01*
X88906847Y-82603501D01*
X88908444Y-82608414D01*
X89004951Y-82797820D01*
X89129890Y-82969786D01*
X89280213Y-83120109D01*
X89452179Y-83245048D01*
X89452181Y-83245049D01*
X89452184Y-83245051D01*
X89641588Y-83341557D01*
X89843757Y-83407246D01*
X90053713Y-83440500D01*
X90053714Y-83440500D01*
X90266286Y-83440500D01*
X90266287Y-83440500D01*
X90476243Y-83407246D01*
X90678412Y-83341557D01*
X90867816Y-83245051D01*
X90982475Y-83161747D01*
X91039786Y-83120109D01*
X91039788Y-83120106D01*
X91039792Y-83120104D01*
X91190104Y-82969792D01*
X91190106Y-82969788D01*
X91190109Y-82969786D01*
X91315048Y-82797820D01*
X91315047Y-82797820D01*
X91315051Y-82797816D01*
X91411557Y-82608412D01*
X91477246Y-82406243D01*
X91510500Y-82196287D01*
X91510500Y-81983713D01*
X91477246Y-81773757D01*
X91411557Y-81571588D01*
X91315051Y-81382184D01*
X91315049Y-81382181D01*
X91315048Y-81382179D01*
X91190109Y-81210213D01*
X91039786Y-81059890D01*
X90867817Y-80934949D01*
X90858504Y-80930204D01*
X90807707Y-80882230D01*
X90790912Y-80814409D01*
X90813449Y-80748274D01*
X90858507Y-80709232D01*
X90867555Y-80704622D01*
X90921716Y-80665270D01*
X90921717Y-80665270D01*
X90289408Y-80032962D01*
X90352993Y-80015925D01*
X90467007Y-79950099D01*
X90560099Y-79857007D01*
X90625925Y-79742993D01*
X90642962Y-79679409D01*
X91275270Y-80311717D01*
X91275270Y-80311716D01*
X91314622Y-80257554D01*
X91411095Y-80068217D01*
X91476757Y-79866130D01*
X91476757Y-79866127D01*
X91510000Y-79656246D01*
X91510000Y-79443753D01*
X91476757Y-79233872D01*
X91476757Y-79233869D01*
X91411095Y-79031782D01*
X91314624Y-78842449D01*
X91275270Y-78788282D01*
X91275269Y-78788282D01*
X90642962Y-79420590D01*
X90625925Y-79357007D01*
X90560099Y-79242993D01*
X90467007Y-79149901D01*
X90352993Y-79084075D01*
X90289409Y-79067037D01*
X90921716Y-78434728D01*
X90867547Y-78395373D01*
X90867547Y-78395372D01*
X90858500Y-78390763D01*
X90807706Y-78342788D01*
X90790912Y-78274966D01*
X90813451Y-78208832D01*
X90858508Y-78169793D01*
X90867816Y-78165051D01*
X91011107Y-78060945D01*
X91039786Y-78040109D01*
X91039788Y-78040106D01*
X91039792Y-78040104D01*
X91190104Y-77889792D01*
X91190106Y-77889788D01*
X91190109Y-77889786D01*
X91315048Y-77717820D01*
X91315047Y-77717820D01*
X91315051Y-77717816D01*
X91411557Y-77528412D01*
X91477246Y-77326243D01*
X91510500Y-77116287D01*
X91510500Y-76903713D01*
X91477246Y-76693757D01*
X91411557Y-76491588D01*
X91315051Y-76302184D01*
X91315049Y-76302181D01*
X91315048Y-76302179D01*
X91190109Y-76130213D01*
X91039786Y-75979890D01*
X90867820Y-75854951D01*
X90867115Y-75854591D01*
X90859054Y-75850485D01*
X90808259Y-75802512D01*
X90791463Y-75734692D01*
X90813999Y-75668556D01*
X90859054Y-75629515D01*
X90867816Y-75625051D01*
X90889789Y-75609086D01*
X91039786Y-75500109D01*
X91039788Y-75500106D01*
X91039792Y-75500104D01*
X91190104Y-75349792D01*
X91190106Y-75349788D01*
X91190109Y-75349786D01*
X91315048Y-75177820D01*
X91315047Y-75177820D01*
X91315051Y-75177816D01*
X91411557Y-74988412D01*
X91477246Y-74786243D01*
X91510500Y-74576287D01*
X91510500Y-74363713D01*
X91477246Y-74153757D01*
X91411557Y-73951588D01*
X91315051Y-73762184D01*
X91315049Y-73762181D01*
X91315048Y-73762179D01*
X91190109Y-73590213D01*
X91039786Y-73439890D01*
X90867820Y-73314951D01*
X90867115Y-73314591D01*
X90859054Y-73310485D01*
X90808259Y-73262512D01*
X90791463Y-73194692D01*
X90813999Y-73128556D01*
X90859054Y-73089515D01*
X90867816Y-73085051D01*
X90889789Y-73069086D01*
X91039786Y-72960109D01*
X91039788Y-72960106D01*
X91039792Y-72960104D01*
X91190104Y-72809792D01*
X91190106Y-72809788D01*
X91190109Y-72809786D01*
X91315048Y-72637820D01*
X91315047Y-72637820D01*
X91315051Y-72637816D01*
X91411557Y-72448412D01*
X91477246Y-72246243D01*
X91510500Y-72036287D01*
X91510500Y-71823713D01*
X91477246Y-71613757D01*
X91411557Y-71411588D01*
X91315051Y-71222184D01*
X91315049Y-71222181D01*
X91315048Y-71222179D01*
X91190109Y-71050213D01*
X91076569Y-70936673D01*
X91043084Y-70875350D01*
X91048068Y-70805658D01*
X91089940Y-70749725D01*
X91120915Y-70732810D01*
X91252331Y-70683796D01*
X91367546Y-70597546D01*
X91453796Y-70482331D01*
X91504091Y-70347483D01*
X91510500Y-70287873D01*
X91510499Y-68492135D01*
X92869500Y-68492135D01*
X92869500Y-70287870D01*
X92869501Y-70287876D01*
X92875908Y-70347483D01*
X92926202Y-70482328D01*
X92926206Y-70482335D01*
X93012452Y-70597544D01*
X93012455Y-70597547D01*
X93127664Y-70683793D01*
X93127671Y-70683797D01*
X93262517Y-70734091D01*
X93262516Y-70734091D01*
X93269444Y-70734835D01*
X93322127Y-70740500D01*
X95117872Y-70740499D01*
X95177483Y-70734091D01*
X95312331Y-70683796D01*
X95427546Y-70597546D01*
X95513796Y-70482331D01*
X95564091Y-70347483D01*
X95570500Y-70287873D01*
X95570499Y-69354174D01*
X95570499Y-68522155D01*
X96800000Y-68522155D01*
X96800000Y-69170000D01*
X97716988Y-69170000D01*
X97684075Y-69227007D01*
X97650000Y-69354174D01*
X97650000Y-69485826D01*
X97684075Y-69612993D01*
X97716988Y-69670000D01*
X96800000Y-69670000D01*
X96800000Y-70317844D01*
X96806401Y-70377372D01*
X96806403Y-70377379D01*
X96856645Y-70512086D01*
X96856649Y-70512093D01*
X96942809Y-70627187D01*
X96942812Y-70627190D01*
X97057906Y-70713350D01*
X97057913Y-70713354D01*
X97192620Y-70763596D01*
X97192627Y-70763598D01*
X97252155Y-70769999D01*
X97252172Y-70770000D01*
X97900000Y-70770000D01*
X97900000Y-69853012D01*
X97957007Y-69885925D01*
X98084174Y-69920000D01*
X98215826Y-69920000D01*
X98342993Y-69885925D01*
X98400000Y-69853012D01*
X98400000Y-70770000D01*
X99047828Y-70770000D01*
X99047844Y-70769999D01*
X99107372Y-70763598D01*
X99107379Y-70763596D01*
X99242086Y-70713354D01*
X99242093Y-70713350D01*
X99357187Y-70627190D01*
X99357190Y-70627187D01*
X99443350Y-70512093D01*
X99443354Y-70512086D01*
X99493596Y-70377379D01*
X99493598Y-70377372D01*
X99499999Y-70317844D01*
X99500000Y-70317827D01*
X99500000Y-69670000D01*
X98583012Y-69670000D01*
X98615925Y-69612993D01*
X98650000Y-69485826D01*
X98650000Y-69354174D01*
X98615925Y-69227007D01*
X98583956Y-69171635D01*
X108688601Y-69171635D01*
X108688601Y-74728370D01*
X108688602Y-74728376D01*
X108695009Y-74787983D01*
X108745303Y-74922828D01*
X108745307Y-74922835D01*
X108831553Y-75038044D01*
X108831556Y-75038047D01*
X108946765Y-75124293D01*
X108946772Y-75124297D01*
X109081618Y-75174591D01*
X109081617Y-75174591D01*
X109088545Y-75175335D01*
X109141228Y-75181000D01*
X115536173Y-75180999D01*
X115595784Y-75174591D01*
X115730632Y-75124296D01*
X115845847Y-75038046D01*
X115932097Y-74922831D01*
X115982392Y-74787983D01*
X115988801Y-74728373D01*
X115988800Y-74197395D01*
X116008484Y-74130358D01*
X116061288Y-74084603D01*
X116130447Y-74074659D01*
X116194003Y-74103684D01*
X116200481Y-74109716D01*
X120443181Y-78352416D01*
X120476666Y-78413739D01*
X120479500Y-78440097D01*
X120479500Y-84443330D01*
X120479499Y-84443348D01*
X120479499Y-84609054D01*
X120479498Y-84609054D01*
X120520423Y-84761785D01*
X120545563Y-84805327D01*
X120545564Y-84805331D01*
X120545565Y-84805331D01*
X120599479Y-84898714D01*
X120599481Y-84898717D01*
X120718349Y-85017585D01*
X120718355Y-85017590D01*
X121905425Y-86204660D01*
X121938910Y-86265983D01*
X121939361Y-86268149D01*
X121970261Y-86423491D01*
X121970264Y-86423501D01*
X122030602Y-86569172D01*
X122030609Y-86569185D01*
X122118210Y-86700288D01*
X122118213Y-86700292D01*
X122229707Y-86811786D01*
X122229711Y-86811789D01*
X122360814Y-86899390D01*
X122360827Y-86899397D01*
X122506498Y-86959735D01*
X122506503Y-86959737D01*
X122661153Y-86990499D01*
X122661156Y-86990500D01*
X122661158Y-86990500D01*
X122818844Y-86990500D01*
X122818845Y-86990499D01*
X122973497Y-86959737D01*
X123119179Y-86899394D01*
X123250289Y-86811789D01*
X123361789Y-86700289D01*
X123449394Y-86569179D01*
X123509737Y-86423497D01*
X123540500Y-86268842D01*
X123540500Y-86111158D01*
X123540500Y-86111155D01*
X123540499Y-86111153D01*
X123522467Y-86020500D01*
X123509737Y-85956503D01*
X123509735Y-85956498D01*
X123449397Y-85810827D01*
X123449390Y-85810814D01*
X123361789Y-85679711D01*
X123361786Y-85679707D01*
X123250292Y-85568213D01*
X123250288Y-85568210D01*
X123119185Y-85480609D01*
X123119172Y-85480602D01*
X122973501Y-85420264D01*
X122973491Y-85420261D01*
X122818151Y-85389362D01*
X122756241Y-85356977D01*
X122754662Y-85355426D01*
X121716819Y-84317583D01*
X121683334Y-84256260D01*
X121680500Y-84229902D01*
X121680500Y-78229059D01*
X121680501Y-78229046D01*
X121680501Y-78060945D01*
X121680501Y-78060943D01*
X121639577Y-77908215D01*
X121610639Y-77858095D01*
X121560520Y-77771284D01*
X121448716Y-77659480D01*
X121448715Y-77659479D01*
X121444385Y-77655149D01*
X121444374Y-77655139D01*
X119171316Y-75382081D01*
X119137831Y-75320758D01*
X119142815Y-75251066D01*
X119184687Y-75195133D01*
X119250151Y-75170716D01*
X119258997Y-75170400D01*
X120238771Y-75170400D01*
X120238772Y-75170400D01*
X120298383Y-75163992D01*
X120433231Y-75113697D01*
X120548446Y-75027447D01*
X120582459Y-74982010D01*
X120638391Y-74940140D01*
X120708083Y-74935156D01*
X120769406Y-74968641D01*
X131035425Y-85234660D01*
X131068910Y-85295983D01*
X131069361Y-85298149D01*
X131100261Y-85453491D01*
X131100264Y-85453501D01*
X131160602Y-85599172D01*
X131160609Y-85599185D01*
X131248210Y-85730288D01*
X131248213Y-85730292D01*
X131359707Y-85841786D01*
X131359711Y-85841789D01*
X131490814Y-85929390D01*
X131490827Y-85929397D01*
X131556256Y-85956498D01*
X131636503Y-85989737D01*
X131791153Y-86020499D01*
X131791156Y-86020500D01*
X131791158Y-86020500D01*
X131948844Y-86020500D01*
X131948845Y-86020499D01*
X132103497Y-85989737D01*
X132249179Y-85929394D01*
X132380289Y-85841789D01*
X132491789Y-85730289D01*
X132579394Y-85599179D01*
X132639737Y-85453497D01*
X132670500Y-85298842D01*
X132670500Y-85141158D01*
X132670500Y-85141155D01*
X132670499Y-85141153D01*
X132650191Y-85039060D01*
X132639737Y-84986503D01*
X132603374Y-84898714D01*
X132579397Y-84840827D01*
X132579390Y-84840814D01*
X132491789Y-84709711D01*
X132491786Y-84709707D01*
X132380292Y-84598213D01*
X132380288Y-84598210D01*
X132249185Y-84510609D01*
X132249172Y-84510602D01*
X132103501Y-84450264D01*
X132103491Y-84450261D01*
X131948149Y-84419361D01*
X131886238Y-84386976D01*
X131884660Y-84385425D01*
X121337591Y-73838356D01*
X121337589Y-73838353D01*
X121218718Y-73719482D01*
X121218717Y-73719481D01*
X121131905Y-73669361D01*
X121131905Y-73669360D01*
X121131901Y-73669359D01*
X121081786Y-73640424D01*
X120929058Y-73599500D01*
X120770944Y-73599500D01*
X120763348Y-73599500D01*
X120763332Y-73599501D01*
X120762464Y-73599501D01*
X120695425Y-73579816D01*
X120649670Y-73527012D01*
X120646282Y-73518833D01*
X120634698Y-73487774D01*
X120634693Y-73487765D01*
X120548447Y-73372556D01*
X120548444Y-73372553D01*
X120433235Y-73286307D01*
X120433228Y-73286303D01*
X120298382Y-73236009D01*
X120298383Y-73236009D01*
X120238783Y-73229602D01*
X120238781Y-73229601D01*
X120238773Y-73229601D01*
X120238764Y-73229601D01*
X118822229Y-73229601D01*
X118822223Y-73229602D01*
X118762616Y-73236009D01*
X118627771Y-73286303D01*
X118627764Y-73286307D01*
X118512555Y-73372553D01*
X118512552Y-73372556D01*
X118426306Y-73487765D01*
X118426302Y-73487772D01*
X118376008Y-73622618D01*
X118369601Y-73682217D01*
X118369600Y-73682236D01*
X118369600Y-74281003D01*
X118349915Y-74348042D01*
X118297111Y-74393797D01*
X118227953Y-74403741D01*
X118164397Y-74374716D01*
X118157919Y-74368684D01*
X116025119Y-72235884D01*
X115991634Y-72174561D01*
X115988800Y-72148203D01*
X115988800Y-69182234D01*
X118369600Y-69182234D01*
X118369600Y-70217769D01*
X118369601Y-70217775D01*
X118376008Y-70277382D01*
X118426302Y-70412227D01*
X118426306Y-70412234D01*
X118512552Y-70527443D01*
X118512555Y-70527446D01*
X118627764Y-70613692D01*
X118627771Y-70613696D01*
X118762617Y-70663990D01*
X118762616Y-70663990D01*
X118769544Y-70664734D01*
X118822227Y-70670399D01*
X120238772Y-70670398D01*
X120298383Y-70663990D01*
X120433231Y-70613695D01*
X120525203Y-70544845D01*
X120590667Y-70520427D01*
X120658940Y-70535278D01*
X120687195Y-70556430D01*
X120875425Y-70744660D01*
X120908910Y-70805983D01*
X120909361Y-70808149D01*
X120940261Y-70963491D01*
X120940264Y-70963501D01*
X121000602Y-71109172D01*
X121000609Y-71109185D01*
X121088210Y-71240288D01*
X121088213Y-71240292D01*
X121199707Y-71351786D01*
X121199711Y-71351789D01*
X121330814Y-71439390D01*
X121330827Y-71439397D01*
X121476498Y-71499735D01*
X121476503Y-71499737D01*
X121631153Y-71530499D01*
X121631156Y-71530500D01*
X121631158Y-71530500D01*
X121788844Y-71530500D01*
X121788845Y-71530499D01*
X121943497Y-71499737D01*
X122089179Y-71439394D01*
X122220289Y-71351789D01*
X122331789Y-71240289D01*
X122419394Y-71109179D01*
X122479737Y-70963497D01*
X122510500Y-70808842D01*
X122510500Y-70651158D01*
X122510500Y-70651155D01*
X122510499Y-70651153D01*
X122485892Y-70527446D01*
X122479737Y-70496503D01*
X122479735Y-70496498D01*
X122419397Y-70350827D01*
X122419390Y-70350814D01*
X122331789Y-70219711D01*
X122331786Y-70219707D01*
X122220292Y-70108213D01*
X122220288Y-70108210D01*
X122089185Y-70020609D01*
X122089172Y-70020602D01*
X121943501Y-69960264D01*
X121943491Y-69960261D01*
X121788149Y-69929361D01*
X121726238Y-69896976D01*
X121724660Y-69895425D01*
X121167589Y-69338354D01*
X121167587Y-69338351D01*
X121048716Y-69219480D01*
X121048715Y-69219479D01*
X120961903Y-69169359D01*
X120961903Y-69169358D01*
X120961899Y-69169357D01*
X120911784Y-69140422D01*
X120845332Y-69122616D01*
X120759053Y-69099497D01*
X120750996Y-69098437D01*
X120751288Y-69096216D01*
X120695424Y-69079813D01*
X120649669Y-69027009D01*
X120646289Y-69018851D01*
X120634696Y-68987768D01*
X120634693Y-68987764D01*
X120634693Y-68987763D01*
X120548447Y-68872554D01*
X120548444Y-68872551D01*
X120433235Y-68786305D01*
X120433228Y-68786301D01*
X120298382Y-68736007D01*
X120298383Y-68736007D01*
X120238783Y-68729600D01*
X120238781Y-68729599D01*
X120238773Y-68729599D01*
X120238764Y-68729599D01*
X118822229Y-68729599D01*
X118822223Y-68729600D01*
X118762616Y-68736007D01*
X118627771Y-68786301D01*
X118627764Y-68786305D01*
X118512555Y-68872551D01*
X118512552Y-68872554D01*
X118426306Y-68987763D01*
X118426302Y-68987770D01*
X118376008Y-69122616D01*
X118369601Y-69182215D01*
X118369600Y-69182234D01*
X115988800Y-69182234D01*
X115988800Y-69171629D01*
X115988799Y-69171623D01*
X115988798Y-69171616D01*
X115982392Y-69112017D01*
X115977722Y-69099497D01*
X115932098Y-68977171D01*
X115932094Y-68977164D01*
X115845848Y-68861955D01*
X115845845Y-68861952D01*
X115730636Y-68775706D01*
X115730629Y-68775702D01*
X115595783Y-68725408D01*
X115595784Y-68725408D01*
X115536184Y-68719001D01*
X115536182Y-68719000D01*
X115536174Y-68719000D01*
X115536165Y-68719000D01*
X109141230Y-68719000D01*
X109141224Y-68719001D01*
X109081617Y-68725408D01*
X108946772Y-68775702D01*
X108946765Y-68775706D01*
X108831556Y-68861952D01*
X108831553Y-68861955D01*
X108745307Y-68977164D01*
X108745303Y-68977171D01*
X108695009Y-69112017D01*
X108688845Y-69169357D01*
X108688602Y-69171623D01*
X108688601Y-69171635D01*
X98583956Y-69171635D01*
X98583012Y-69170000D01*
X99500000Y-69170000D01*
X99500000Y-68522172D01*
X99499999Y-68522155D01*
X99493598Y-68462627D01*
X99493596Y-68462620D01*
X99443354Y-68327913D01*
X99443350Y-68327906D01*
X99357190Y-68212812D01*
X99357187Y-68212809D01*
X99242093Y-68126649D01*
X99242086Y-68126645D01*
X99107379Y-68076403D01*
X99107372Y-68076401D01*
X99047844Y-68070000D01*
X98400000Y-68070000D01*
X98400000Y-68986988D01*
X98342993Y-68954075D01*
X98215826Y-68920000D01*
X98084174Y-68920000D01*
X97957007Y-68954075D01*
X97900000Y-68986988D01*
X97900000Y-68070000D01*
X97252155Y-68070000D01*
X97192627Y-68076401D01*
X97192620Y-68076403D01*
X97057913Y-68126645D01*
X97057906Y-68126649D01*
X96942812Y-68212809D01*
X96942809Y-68212812D01*
X96856649Y-68327906D01*
X96856645Y-68327913D01*
X96806403Y-68462620D01*
X96806401Y-68462627D01*
X96800000Y-68522155D01*
X95570499Y-68522155D01*
X95570499Y-68518851D01*
X95570499Y-68492129D01*
X95570498Y-68492123D01*
X95570497Y-68492116D01*
X95564091Y-68432517D01*
X95525076Y-68327913D01*
X95513797Y-68297671D01*
X95513793Y-68297664D01*
X95427547Y-68182455D01*
X95427544Y-68182452D01*
X95312335Y-68096206D01*
X95312328Y-68096202D01*
X95177482Y-68045908D01*
X95177483Y-68045908D01*
X95117883Y-68039501D01*
X95117881Y-68039500D01*
X95117873Y-68039500D01*
X95117864Y-68039500D01*
X93322129Y-68039500D01*
X93322123Y-68039501D01*
X93262516Y-68045908D01*
X93127671Y-68096202D01*
X93127664Y-68096206D01*
X93012455Y-68182452D01*
X93012452Y-68182455D01*
X92926206Y-68297664D01*
X92926202Y-68297671D01*
X92875908Y-68432517D01*
X92869501Y-68492116D01*
X92869501Y-68492123D01*
X92869500Y-68492135D01*
X91510499Y-68492135D01*
X91510499Y-68492128D01*
X91504091Y-68432517D01*
X91465076Y-68327913D01*
X91453797Y-68297671D01*
X91453793Y-68297664D01*
X91367547Y-68182455D01*
X91367544Y-68182452D01*
X91252335Y-68096206D01*
X91252328Y-68096202D01*
X91117482Y-68045908D01*
X91117483Y-68045908D01*
X91057883Y-68039501D01*
X91057881Y-68039500D01*
X91057873Y-68039500D01*
X91057864Y-68039500D01*
X89262129Y-68039500D01*
X89262123Y-68039501D01*
X89202516Y-68045908D01*
X89067671Y-68096202D01*
X89067664Y-68096206D01*
X88952455Y-68182452D01*
X88952452Y-68182455D01*
X88866206Y-68297664D01*
X88866202Y-68297671D01*
X88815908Y-68432517D01*
X88809501Y-68492116D01*
X88809501Y-68492123D01*
X88809500Y-68492135D01*
X88338306Y-68492135D01*
X88338306Y-67524500D01*
X88357991Y-67457461D01*
X88410795Y-67411706D01*
X88462306Y-67400500D01*
X144365500Y-67400500D01*
X144432539Y-67420185D01*
G37*
%TD.AperFunction*%
%TA.AperFunction,Conductor*%
G36*
X129716942Y-134710185D02*
G01*
X129737584Y-134726819D01*
X129745425Y-134734660D01*
X129778910Y-134795983D01*
X129779361Y-134798149D01*
X129810261Y-134953491D01*
X129810264Y-134953501D01*
X129870602Y-135099172D01*
X129870609Y-135099185D01*
X129958210Y-135230288D01*
X129958213Y-135230292D01*
X130069707Y-135341786D01*
X130069711Y-135341789D01*
X130200814Y-135429390D01*
X130200827Y-135429397D01*
X130334054Y-135484581D01*
X130388458Y-135528422D01*
X130410523Y-135594716D01*
X130393244Y-135662415D01*
X130342107Y-135710026D01*
X130334055Y-135713703D01*
X130220823Y-135760604D01*
X130220814Y-135760609D01*
X130089711Y-135848210D01*
X130089707Y-135848213D01*
X129978213Y-135959707D01*
X129978210Y-135959711D01*
X129890609Y-136090814D01*
X129890602Y-136090827D01*
X129830264Y-136236498D01*
X129830261Y-136236510D01*
X129799500Y-136391153D01*
X129799500Y-136548846D01*
X129830261Y-136703489D01*
X129830264Y-136703501D01*
X129890602Y-136849172D01*
X129890609Y-136849185D01*
X129978602Y-136980874D01*
X129999480Y-137047551D01*
X129999500Y-137049765D01*
X129999500Y-140429903D01*
X129979815Y-140496942D01*
X129963181Y-140517584D01*
X128627320Y-141853444D01*
X128565997Y-141886929D01*
X128496305Y-141881945D01*
X128440372Y-141840073D01*
X128415955Y-141774609D01*
X128418021Y-141741573D01*
X128430500Y-141678842D01*
X128430500Y-141521158D01*
X128430500Y-141521155D01*
X128430499Y-141521153D01*
X128407393Y-141404992D01*
X128399737Y-141366503D01*
X128384093Y-141328735D01*
X128339397Y-141220827D01*
X128339390Y-141220814D01*
X128251789Y-141089711D01*
X128251786Y-141089707D01*
X128140292Y-140978213D01*
X128140288Y-140978210D01*
X128009185Y-140890609D01*
X128009172Y-140890602D01*
X127863501Y-140830264D01*
X127863489Y-140830261D01*
X127708845Y-140799500D01*
X127708842Y-140799500D01*
X127551158Y-140799500D01*
X127551155Y-140799500D01*
X127396510Y-140830261D01*
X127396498Y-140830264D01*
X127250827Y-140890602D01*
X127250814Y-140890609D01*
X127119711Y-140978210D01*
X127119707Y-140978213D01*
X127008221Y-141089699D01*
X127006617Y-141091655D01*
X127005515Y-141092405D01*
X127003903Y-141094018D01*
X127003597Y-141093712D01*
X126948875Y-141130995D01*
X126910755Y-141137000D01*
X125298348Y-141137000D01*
X125231309Y-141117315D01*
X125192809Y-141078097D01*
X125117712Y-140956344D01*
X124993656Y-140832288D01*
X124891983Y-140769576D01*
X124844336Y-140740187D01*
X124844331Y-140740185D01*
X124842862Y-140739698D01*
X124677797Y-140685001D01*
X124677795Y-140685000D01*
X124575010Y-140674500D01*
X123224998Y-140674500D01*
X123224981Y-140674501D01*
X123122203Y-140685000D01*
X123122200Y-140685001D01*
X122955668Y-140740185D01*
X122955663Y-140740187D01*
X122806342Y-140832289D01*
X122682289Y-140956342D01*
X122590187Y-141105663D01*
X122590186Y-141105666D01*
X122535001Y-141272203D01*
X122535001Y-141272204D01*
X122535000Y-141272204D01*
X122524500Y-141374983D01*
X122524500Y-142100001D01*
X122524501Y-142100019D01*
X122535000Y-142202796D01*
X122535001Y-142202799D01*
X122590185Y-142369331D01*
X122590187Y-142369336D01*
X122608688Y-142399331D01*
X122682288Y-142518656D01*
X122806344Y-142642712D01*
X122955666Y-142734814D01*
X123122203Y-142789999D01*
X123224991Y-142800500D01*
X124575008Y-142800499D01*
X124677797Y-142789999D01*
X124844334Y-142734814D01*
X124993656Y-142642712D01*
X125117712Y-142518656D01*
X125192809Y-142396902D01*
X125244757Y-142350179D01*
X125298348Y-142338000D01*
X127295218Y-142338000D01*
X127342670Y-142347438D01*
X127396503Y-142369737D01*
X127533075Y-142396903D01*
X127551153Y-142400499D01*
X127551156Y-142400500D01*
X127551158Y-142400500D01*
X127708843Y-142400500D01*
X127726925Y-142396903D01*
X127771571Y-142388022D01*
X127841162Y-142394249D01*
X127896340Y-142437111D01*
X127919585Y-142503000D01*
X127903518Y-142570998D01*
X127883444Y-142597320D01*
X126455084Y-144025681D01*
X126393761Y-144059166D01*
X126367403Y-144062000D01*
X125298348Y-144062000D01*
X125231309Y-144042315D01*
X125192809Y-144003097D01*
X125117712Y-143881344D01*
X124993656Y-143757288D01*
X124844334Y-143665186D01*
X124677797Y-143610001D01*
X124677795Y-143610000D01*
X124575010Y-143599500D01*
X123224998Y-143599500D01*
X123224981Y-143599501D01*
X123122203Y-143610000D01*
X123122200Y-143610001D01*
X122955668Y-143665185D01*
X122955663Y-143665187D01*
X122806342Y-143757289D01*
X122682289Y-143881342D01*
X122607191Y-144003097D01*
X122555243Y-144049821D01*
X122501652Y-144062000D01*
X118979844Y-144062000D01*
X118912805Y-144042315D01*
X118874305Y-144003097D01*
X118817712Y-143911344D01*
X118693656Y-143787288D01*
X118544334Y-143695186D01*
X118377797Y-143640001D01*
X118377795Y-143640000D01*
X118275010Y-143629500D01*
X116924998Y-143629500D01*
X116924975Y-143629502D01*
X116895545Y-143632508D01*
X116826852Y-143619737D01*
X116775969Y-143571855D01*
X116759050Y-143504065D01*
X116781467Y-143437889D01*
X116795260Y-143421474D01*
X117349916Y-142866817D01*
X117411239Y-142833333D01*
X117437597Y-142830499D01*
X118275002Y-142830499D01*
X118275008Y-142830499D01*
X118377797Y-142819999D01*
X118544334Y-142764814D01*
X118693656Y-142672712D01*
X118817712Y-142548656D01*
X118909814Y-142399334D01*
X118964999Y-142232797D01*
X118975500Y-142130009D01*
X118975499Y-141404992D01*
X118972434Y-141374991D01*
X118964999Y-141302203D01*
X118964998Y-141302200D01*
X118955058Y-141272203D01*
X118909814Y-141135666D01*
X118884125Y-141094018D01*
X118825886Y-140999596D01*
X118807446Y-140932204D01*
X118828369Y-140865541D01*
X118882011Y-140820771D01*
X118931425Y-140810500D01*
X119323331Y-140810500D01*
X119323347Y-140810501D01*
X119330943Y-140810501D01*
X119489054Y-140810501D01*
X119489057Y-140810501D01*
X119641785Y-140769577D01*
X119692691Y-140740186D01*
X119778716Y-140690520D01*
X119890520Y-140578716D01*
X119890520Y-140578714D01*
X119900724Y-140568511D01*
X119900728Y-140568506D01*
X122102821Y-138366412D01*
X122164142Y-138332929D01*
X122233834Y-138337913D01*
X122289767Y-138379785D01*
X122314184Y-138445249D01*
X122314500Y-138454095D01*
X122314500Y-138945001D01*
X122314501Y-138945019D01*
X122325000Y-139047796D01*
X122325001Y-139047799D01*
X122341611Y-139097923D01*
X122380186Y-139214334D01*
X122472288Y-139363656D01*
X122596344Y-139487712D01*
X122745666Y-139579814D01*
X122912203Y-139634999D01*
X123014991Y-139645500D01*
X124365008Y-139645499D01*
X124467797Y-139634999D01*
X124634334Y-139579814D01*
X124783656Y-139487712D01*
X124907712Y-139363656D01*
X124999814Y-139214334D01*
X125054999Y-139047797D01*
X125065500Y-138945009D01*
X125065499Y-138219992D01*
X125056309Y-138130029D01*
X125069079Y-138061338D01*
X125091983Y-138029751D01*
X126510520Y-136611216D01*
X126589577Y-136474284D01*
X126630501Y-136321557D01*
X126630501Y-136163442D01*
X126630501Y-136155847D01*
X126630500Y-136155829D01*
X126630500Y-135737346D01*
X126634725Y-135705252D01*
X126646428Y-135661577D01*
X126660501Y-135609057D01*
X126660501Y-135450943D01*
X126619577Y-135298215D01*
X126540519Y-135161284D01*
X126281416Y-134902181D01*
X126247931Y-134840858D01*
X126252915Y-134771166D01*
X126294787Y-134715233D01*
X126360251Y-134690816D01*
X126369097Y-134690500D01*
X129649903Y-134690500D01*
X129716942Y-134710185D01*
G37*
%TD.AperFunction*%
%TD*%
M02*
