%TF.GenerationSoftware,KiCad,Pcbnew,10.0.0*%
%TF.CreationDate,2026-04-10T01:19:07-06:00*%
%TF.ProjectId,stimbox_emg_combo,7374696d-626f-4785-9f65-6d675f636f6d,rev?*%
%TF.SameCoordinates,Original*%
%TF.FileFunction,Legend,Bot*%
%TF.FilePolarity,Positive*%
%FSLAX46Y46*%
G04 Gerber Fmt 4.6, Leading zero omitted, Abs format (unit mm)*
G04 Created by KiCad (PCBNEW 10.0.0) date 2026-04-10 01:19:07*
%MOMM*%
%LPD*%
G01*
G04 APERTURE LIST*
%ADD10C,0.150000*%
%ADD11C,0.120000*%
%ADD12C,0.152400*%
G04 APERTURE END LIST*
D10*
X124856666Y-122454819D02*
X125189999Y-121978628D01*
X125428094Y-122454819D02*
X125428094Y-121454819D01*
X125428094Y-121454819D02*
X125047142Y-121454819D01*
X125047142Y-121454819D02*
X124951904Y-121502438D01*
X124951904Y-121502438D02*
X124904285Y-121550057D01*
X124904285Y-121550057D02*
X124856666Y-121645295D01*
X124856666Y-121645295D02*
X124856666Y-121788152D01*
X124856666Y-121788152D02*
X124904285Y-121883390D01*
X124904285Y-121883390D02*
X124951904Y-121931009D01*
X124951904Y-121931009D02*
X125047142Y-121978628D01*
X125047142Y-121978628D02*
X125428094Y-121978628D01*
X124523332Y-121454819D02*
X123904285Y-121454819D01*
X123904285Y-121454819D02*
X124237618Y-121835771D01*
X124237618Y-121835771D02*
X124094761Y-121835771D01*
X124094761Y-121835771D02*
X123999523Y-121883390D01*
X123999523Y-121883390D02*
X123951904Y-121931009D01*
X123951904Y-121931009D02*
X123904285Y-122026247D01*
X123904285Y-122026247D02*
X123904285Y-122264342D01*
X123904285Y-122264342D02*
X123951904Y-122359580D01*
X123951904Y-122359580D02*
X123999523Y-122407200D01*
X123999523Y-122407200D02*
X124094761Y-122454819D01*
X124094761Y-122454819D02*
X124380475Y-122454819D01*
X124380475Y-122454819D02*
X124475713Y-122407200D01*
X124475713Y-122407200D02*
X124523332Y-122359580D01*
X117374819Y-123723333D02*
X116898628Y-123390000D01*
X117374819Y-123151905D02*
X116374819Y-123151905D01*
X116374819Y-123151905D02*
X116374819Y-123532857D01*
X116374819Y-123532857D02*
X116422438Y-123628095D01*
X116422438Y-123628095D02*
X116470057Y-123675714D01*
X116470057Y-123675714D02*
X116565295Y-123723333D01*
X116565295Y-123723333D02*
X116708152Y-123723333D01*
X116708152Y-123723333D02*
X116803390Y-123675714D01*
X116803390Y-123675714D02*
X116851009Y-123628095D01*
X116851009Y-123628095D02*
X116898628Y-123532857D01*
X116898628Y-123532857D02*
X116898628Y-123151905D01*
X117374819Y-124199524D02*
X117374819Y-124390000D01*
X117374819Y-124390000D02*
X117327200Y-124485238D01*
X117327200Y-124485238D02*
X117279580Y-124532857D01*
X117279580Y-124532857D02*
X117136723Y-124628095D01*
X117136723Y-124628095D02*
X116946247Y-124675714D01*
X116946247Y-124675714D02*
X116565295Y-124675714D01*
X116565295Y-124675714D02*
X116470057Y-124628095D01*
X116470057Y-124628095D02*
X116422438Y-124580476D01*
X116422438Y-124580476D02*
X116374819Y-124485238D01*
X116374819Y-124485238D02*
X116374819Y-124294762D01*
X116374819Y-124294762D02*
X116422438Y-124199524D01*
X116422438Y-124199524D02*
X116470057Y-124151905D01*
X116470057Y-124151905D02*
X116565295Y-124104286D01*
X116565295Y-124104286D02*
X116803390Y-124104286D01*
X116803390Y-124104286D02*
X116898628Y-124151905D01*
X116898628Y-124151905D02*
X116946247Y-124199524D01*
X116946247Y-124199524D02*
X116993866Y-124294762D01*
X116993866Y-124294762D02*
X116993866Y-124485238D01*
X116993866Y-124485238D02*
X116946247Y-124580476D01*
X116946247Y-124580476D02*
X116898628Y-124628095D01*
X116898628Y-124628095D02*
X116803390Y-124675714D01*
X142375180Y-113228094D02*
X141565657Y-113228094D01*
X141565657Y-113228094D02*
X141470419Y-113180475D01*
X141470419Y-113180475D02*
X141422800Y-113132856D01*
X141422800Y-113132856D02*
X141375180Y-113037618D01*
X141375180Y-113037618D02*
X141375180Y-112847142D01*
X141375180Y-112847142D02*
X141422800Y-112751904D01*
X141422800Y-112751904D02*
X141470419Y-112704285D01*
X141470419Y-112704285D02*
X141565657Y-112656666D01*
X141565657Y-112656666D02*
X142375180Y-112656666D01*
X141422800Y-112228094D02*
X141375180Y-112085237D01*
X141375180Y-112085237D02*
X141375180Y-111847142D01*
X141375180Y-111847142D02*
X141422800Y-111751904D01*
X141422800Y-111751904D02*
X141470419Y-111704285D01*
X141470419Y-111704285D02*
X141565657Y-111656666D01*
X141565657Y-111656666D02*
X141660895Y-111656666D01*
X141660895Y-111656666D02*
X141756133Y-111704285D01*
X141756133Y-111704285D02*
X141803752Y-111751904D01*
X141803752Y-111751904D02*
X141851371Y-111847142D01*
X141851371Y-111847142D02*
X141898990Y-112037618D01*
X141898990Y-112037618D02*
X141946609Y-112132856D01*
X141946609Y-112132856D02*
X141994228Y-112180475D01*
X141994228Y-112180475D02*
X142089466Y-112228094D01*
X142089466Y-112228094D02*
X142184704Y-112228094D01*
X142184704Y-112228094D02*
X142279942Y-112180475D01*
X142279942Y-112180475D02*
X142327561Y-112132856D01*
X142327561Y-112132856D02*
X142375180Y-112037618D01*
X142375180Y-112037618D02*
X142375180Y-111799523D01*
X142375180Y-111799523D02*
X142327561Y-111656666D01*
X142518038Y-111942380D02*
X141232323Y-111942380D01*
X142279942Y-111275713D02*
X142327561Y-111228094D01*
X142327561Y-111228094D02*
X142375180Y-111132856D01*
X142375180Y-111132856D02*
X142375180Y-110894761D01*
X142375180Y-110894761D02*
X142327561Y-110799523D01*
X142327561Y-110799523D02*
X142279942Y-110751904D01*
X142279942Y-110751904D02*
X142184704Y-110704285D01*
X142184704Y-110704285D02*
X142089466Y-110704285D01*
X142089466Y-110704285D02*
X141946609Y-110751904D01*
X141946609Y-110751904D02*
X141375180Y-111323332D01*
X141375180Y-111323332D02*
X141375180Y-110704285D01*
X130763381Y-115430000D02*
X130525286Y-115430000D01*
X130620524Y-115668095D02*
X130525286Y-115430000D01*
X130525286Y-115430000D02*
X130620524Y-115191905D01*
X130334810Y-115572857D02*
X130525286Y-115430000D01*
X130525286Y-115430000D02*
X130334810Y-115287143D01*
X116224819Y-143063333D02*
X115748628Y-142730000D01*
X116224819Y-142491905D02*
X115224819Y-142491905D01*
X115224819Y-142491905D02*
X115224819Y-142872857D01*
X115224819Y-142872857D02*
X115272438Y-142968095D01*
X115272438Y-142968095D02*
X115320057Y-143015714D01*
X115320057Y-143015714D02*
X115415295Y-143063333D01*
X115415295Y-143063333D02*
X115558152Y-143063333D01*
X115558152Y-143063333D02*
X115653390Y-143015714D01*
X115653390Y-143015714D02*
X115701009Y-142968095D01*
X115701009Y-142968095D02*
X115748628Y-142872857D01*
X115748628Y-142872857D02*
X115748628Y-142491905D01*
X115224819Y-143968095D02*
X115224819Y-143491905D01*
X115224819Y-143491905D02*
X115701009Y-143444286D01*
X115701009Y-143444286D02*
X115653390Y-143491905D01*
X115653390Y-143491905D02*
X115605771Y-143587143D01*
X115605771Y-143587143D02*
X115605771Y-143825238D01*
X115605771Y-143825238D02*
X115653390Y-143920476D01*
X115653390Y-143920476D02*
X115701009Y-143968095D01*
X115701009Y-143968095D02*
X115796247Y-144015714D01*
X115796247Y-144015714D02*
X116034342Y-144015714D01*
X116034342Y-144015714D02*
X116129580Y-143968095D01*
X116129580Y-143968095D02*
X116177200Y-143920476D01*
X116177200Y-143920476D02*
X116224819Y-143825238D01*
X116224819Y-143825238D02*
X116224819Y-143587143D01*
X116224819Y-143587143D02*
X116177200Y-143491905D01*
X116177200Y-143491905D02*
X116129580Y-143444286D01*
X122314819Y-136953333D02*
X121838628Y-136620000D01*
X122314819Y-136381905D02*
X121314819Y-136381905D01*
X121314819Y-136381905D02*
X121314819Y-136762857D01*
X121314819Y-136762857D02*
X121362438Y-136858095D01*
X121362438Y-136858095D02*
X121410057Y-136905714D01*
X121410057Y-136905714D02*
X121505295Y-136953333D01*
X121505295Y-136953333D02*
X121648152Y-136953333D01*
X121648152Y-136953333D02*
X121743390Y-136905714D01*
X121743390Y-136905714D02*
X121791009Y-136858095D01*
X121791009Y-136858095D02*
X121838628Y-136762857D01*
X121838628Y-136762857D02*
X121838628Y-136381905D01*
X121314819Y-137810476D02*
X121314819Y-137620000D01*
X121314819Y-137620000D02*
X121362438Y-137524762D01*
X121362438Y-137524762D02*
X121410057Y-137477143D01*
X121410057Y-137477143D02*
X121552914Y-137381905D01*
X121552914Y-137381905D02*
X121743390Y-137334286D01*
X121743390Y-137334286D02*
X122124342Y-137334286D01*
X122124342Y-137334286D02*
X122219580Y-137381905D01*
X122219580Y-137381905D02*
X122267200Y-137429524D01*
X122267200Y-137429524D02*
X122314819Y-137524762D01*
X122314819Y-137524762D02*
X122314819Y-137715238D01*
X122314819Y-137715238D02*
X122267200Y-137810476D01*
X122267200Y-137810476D02*
X122219580Y-137858095D01*
X122219580Y-137858095D02*
X122124342Y-137905714D01*
X122124342Y-137905714D02*
X121886247Y-137905714D01*
X121886247Y-137905714D02*
X121791009Y-137858095D01*
X121791009Y-137858095D02*
X121743390Y-137810476D01*
X121743390Y-137810476D02*
X121695771Y-137715238D01*
X121695771Y-137715238D02*
X121695771Y-137524762D01*
X121695771Y-137524762D02*
X121743390Y-137429524D01*
X121743390Y-137429524D02*
X121791009Y-137381905D01*
X121791009Y-137381905D02*
X121886247Y-137334286D01*
X118656666Y-127649580D02*
X118704285Y-127697200D01*
X118704285Y-127697200D02*
X118847142Y-127744819D01*
X118847142Y-127744819D02*
X118942380Y-127744819D01*
X118942380Y-127744819D02*
X119085237Y-127697200D01*
X119085237Y-127697200D02*
X119180475Y-127601961D01*
X119180475Y-127601961D02*
X119228094Y-127506723D01*
X119228094Y-127506723D02*
X119275713Y-127316247D01*
X119275713Y-127316247D02*
X119275713Y-127173390D01*
X119275713Y-127173390D02*
X119228094Y-126982914D01*
X119228094Y-126982914D02*
X119180475Y-126887676D01*
X119180475Y-126887676D02*
X119085237Y-126792438D01*
X119085237Y-126792438D02*
X118942380Y-126744819D01*
X118942380Y-126744819D02*
X118847142Y-126744819D01*
X118847142Y-126744819D02*
X118704285Y-126792438D01*
X118704285Y-126792438D02*
X118656666Y-126840057D01*
X117704285Y-127744819D02*
X118275713Y-127744819D01*
X117989999Y-127744819D02*
X117989999Y-126744819D01*
X117989999Y-126744819D02*
X118085237Y-126887676D01*
X118085237Y-126887676D02*
X118180475Y-126982914D01*
X118180475Y-126982914D02*
X118275713Y-127030533D01*
X125526666Y-127834819D02*
X125859999Y-127358628D01*
X126098094Y-127834819D02*
X126098094Y-126834819D01*
X126098094Y-126834819D02*
X125717142Y-126834819D01*
X125717142Y-126834819D02*
X125621904Y-126882438D01*
X125621904Y-126882438D02*
X125574285Y-126930057D01*
X125574285Y-126930057D02*
X125526666Y-127025295D01*
X125526666Y-127025295D02*
X125526666Y-127168152D01*
X125526666Y-127168152D02*
X125574285Y-127263390D01*
X125574285Y-127263390D02*
X125621904Y-127311009D01*
X125621904Y-127311009D02*
X125717142Y-127358628D01*
X125717142Y-127358628D02*
X126098094Y-127358628D01*
X124669523Y-127168152D02*
X124669523Y-127834819D01*
X124907618Y-126787200D02*
X125145713Y-127501485D01*
X125145713Y-127501485D02*
X124526666Y-127501485D01*
X91644819Y-101051905D02*
X92454342Y-101051905D01*
X92454342Y-101051905D02*
X92549580Y-101099524D01*
X92549580Y-101099524D02*
X92597200Y-101147143D01*
X92597200Y-101147143D02*
X92644819Y-101242381D01*
X92644819Y-101242381D02*
X92644819Y-101432857D01*
X92644819Y-101432857D02*
X92597200Y-101528095D01*
X92597200Y-101528095D02*
X92549580Y-101575714D01*
X92549580Y-101575714D02*
X92454342Y-101623333D01*
X92454342Y-101623333D02*
X91644819Y-101623333D01*
X92597200Y-102051905D02*
X92644819Y-102194762D01*
X92644819Y-102194762D02*
X92644819Y-102432857D01*
X92644819Y-102432857D02*
X92597200Y-102528095D01*
X92597200Y-102528095D02*
X92549580Y-102575714D01*
X92549580Y-102575714D02*
X92454342Y-102623333D01*
X92454342Y-102623333D02*
X92359104Y-102623333D01*
X92359104Y-102623333D02*
X92263866Y-102575714D01*
X92263866Y-102575714D02*
X92216247Y-102528095D01*
X92216247Y-102528095D02*
X92168628Y-102432857D01*
X92168628Y-102432857D02*
X92121009Y-102242381D01*
X92121009Y-102242381D02*
X92073390Y-102147143D01*
X92073390Y-102147143D02*
X92025771Y-102099524D01*
X92025771Y-102099524D02*
X91930533Y-102051905D01*
X91930533Y-102051905D02*
X91835295Y-102051905D01*
X91835295Y-102051905D02*
X91740057Y-102099524D01*
X91740057Y-102099524D02*
X91692438Y-102147143D01*
X91692438Y-102147143D02*
X91644819Y-102242381D01*
X91644819Y-102242381D02*
X91644819Y-102480476D01*
X91644819Y-102480476D02*
X91692438Y-102623333D01*
X91501961Y-102337619D02*
X92787676Y-102337619D01*
X92644819Y-103575714D02*
X92644819Y-103004286D01*
X92644819Y-103290000D02*
X91644819Y-103290000D01*
X91644819Y-103290000D02*
X91787676Y-103194762D01*
X91787676Y-103194762D02*
X91882914Y-103099524D01*
X91882914Y-103099524D02*
X91930533Y-103004286D01*
X103135319Y-98819999D02*
X103373414Y-98819999D01*
X103278176Y-98581904D02*
X103373414Y-98819999D01*
X103373414Y-98819999D02*
X103278176Y-99058094D01*
X103563890Y-98677142D02*
X103373414Y-98819999D01*
X103373414Y-98819999D02*
X103563890Y-98962856D01*
X107263520Y-70741905D02*
X108073043Y-70741905D01*
X108073043Y-70741905D02*
X108168281Y-70789524D01*
X108168281Y-70789524D02*
X108215901Y-70837143D01*
X108215901Y-70837143D02*
X108263520Y-70932381D01*
X108263520Y-70932381D02*
X108263520Y-71122857D01*
X108263520Y-71122857D02*
X108215901Y-71218095D01*
X108215901Y-71218095D02*
X108168281Y-71265714D01*
X108168281Y-71265714D02*
X108073043Y-71313333D01*
X108073043Y-71313333D02*
X107263520Y-71313333D01*
X108215901Y-71741905D02*
X108263520Y-71884762D01*
X108263520Y-71884762D02*
X108263520Y-72122857D01*
X108263520Y-72122857D02*
X108215901Y-72218095D01*
X108215901Y-72218095D02*
X108168281Y-72265714D01*
X108168281Y-72265714D02*
X108073043Y-72313333D01*
X108073043Y-72313333D02*
X107977805Y-72313333D01*
X107977805Y-72313333D02*
X107882567Y-72265714D01*
X107882567Y-72265714D02*
X107834948Y-72218095D01*
X107834948Y-72218095D02*
X107787329Y-72122857D01*
X107787329Y-72122857D02*
X107739710Y-71932381D01*
X107739710Y-71932381D02*
X107692091Y-71837143D01*
X107692091Y-71837143D02*
X107644472Y-71789524D01*
X107644472Y-71789524D02*
X107549234Y-71741905D01*
X107549234Y-71741905D02*
X107453996Y-71741905D01*
X107453996Y-71741905D02*
X107358758Y-71789524D01*
X107358758Y-71789524D02*
X107311139Y-71837143D01*
X107311139Y-71837143D02*
X107263520Y-71932381D01*
X107263520Y-71932381D02*
X107263520Y-72170476D01*
X107263520Y-72170476D02*
X107311139Y-72313333D01*
X107120662Y-72027619D02*
X108406377Y-72027619D01*
X107263520Y-72646667D02*
X107263520Y-73313333D01*
X107263520Y-73313333D02*
X108263520Y-72884762D01*
X118985319Y-68429999D02*
X119223414Y-68429999D01*
X119128176Y-68191904D02*
X119223414Y-68429999D01*
X119223414Y-68429999D02*
X119128176Y-68668094D01*
X119413890Y-68287142D02*
X119223414Y-68429999D01*
X119223414Y-68429999D02*
X119413890Y-68572856D01*
X122076666Y-127854819D02*
X122409999Y-127378628D01*
X122648094Y-127854819D02*
X122648094Y-126854819D01*
X122648094Y-126854819D02*
X122267142Y-126854819D01*
X122267142Y-126854819D02*
X122171904Y-126902438D01*
X122171904Y-126902438D02*
X122124285Y-126950057D01*
X122124285Y-126950057D02*
X122076666Y-127045295D01*
X122076666Y-127045295D02*
X122076666Y-127188152D01*
X122076666Y-127188152D02*
X122124285Y-127283390D01*
X122124285Y-127283390D02*
X122171904Y-127331009D01*
X122171904Y-127331009D02*
X122267142Y-127378628D01*
X122267142Y-127378628D02*
X122648094Y-127378628D01*
X121743332Y-126854819D02*
X121076666Y-126854819D01*
X121076666Y-126854819D02*
X121505237Y-127854819D01*
X116304819Y-136863333D02*
X115828628Y-136530000D01*
X116304819Y-136291905D02*
X115304819Y-136291905D01*
X115304819Y-136291905D02*
X115304819Y-136672857D01*
X115304819Y-136672857D02*
X115352438Y-136768095D01*
X115352438Y-136768095D02*
X115400057Y-136815714D01*
X115400057Y-136815714D02*
X115495295Y-136863333D01*
X115495295Y-136863333D02*
X115638152Y-136863333D01*
X115638152Y-136863333D02*
X115733390Y-136815714D01*
X115733390Y-136815714D02*
X115781009Y-136768095D01*
X115781009Y-136768095D02*
X115828628Y-136672857D01*
X115828628Y-136672857D02*
X115828628Y-136291905D01*
X115733390Y-137434762D02*
X115685771Y-137339524D01*
X115685771Y-137339524D02*
X115638152Y-137291905D01*
X115638152Y-137291905D02*
X115542914Y-137244286D01*
X115542914Y-137244286D02*
X115495295Y-137244286D01*
X115495295Y-137244286D02*
X115400057Y-137291905D01*
X115400057Y-137291905D02*
X115352438Y-137339524D01*
X115352438Y-137339524D02*
X115304819Y-137434762D01*
X115304819Y-137434762D02*
X115304819Y-137625238D01*
X115304819Y-137625238D02*
X115352438Y-137720476D01*
X115352438Y-137720476D02*
X115400057Y-137768095D01*
X115400057Y-137768095D02*
X115495295Y-137815714D01*
X115495295Y-137815714D02*
X115542914Y-137815714D01*
X115542914Y-137815714D02*
X115638152Y-137768095D01*
X115638152Y-137768095D02*
X115685771Y-137720476D01*
X115685771Y-137720476D02*
X115733390Y-137625238D01*
X115733390Y-137625238D02*
X115733390Y-137434762D01*
X115733390Y-137434762D02*
X115781009Y-137339524D01*
X115781009Y-137339524D02*
X115828628Y-137291905D01*
X115828628Y-137291905D02*
X115923866Y-137244286D01*
X115923866Y-137244286D02*
X116114342Y-137244286D01*
X116114342Y-137244286D02*
X116209580Y-137291905D01*
X116209580Y-137291905D02*
X116257200Y-137339524D01*
X116257200Y-137339524D02*
X116304819Y-137434762D01*
X116304819Y-137434762D02*
X116304819Y-137625238D01*
X116304819Y-137625238D02*
X116257200Y-137720476D01*
X116257200Y-137720476D02*
X116209580Y-137768095D01*
X116209580Y-137768095D02*
X116114342Y-137815714D01*
X116114342Y-137815714D02*
X115923866Y-137815714D01*
X115923866Y-137815714D02*
X115828628Y-137768095D01*
X115828628Y-137768095D02*
X115781009Y-137720476D01*
X115781009Y-137720476D02*
X115733390Y-137625238D01*
X122334819Y-142657142D02*
X121858628Y-142323809D01*
X122334819Y-142085714D02*
X121334819Y-142085714D01*
X121334819Y-142085714D02*
X121334819Y-142466666D01*
X121334819Y-142466666D02*
X121382438Y-142561904D01*
X121382438Y-142561904D02*
X121430057Y-142609523D01*
X121430057Y-142609523D02*
X121525295Y-142657142D01*
X121525295Y-142657142D02*
X121668152Y-142657142D01*
X121668152Y-142657142D02*
X121763390Y-142609523D01*
X121763390Y-142609523D02*
X121811009Y-142561904D01*
X121811009Y-142561904D02*
X121858628Y-142466666D01*
X121858628Y-142466666D02*
X121858628Y-142085714D01*
X122334819Y-143609523D02*
X122334819Y-143038095D01*
X122334819Y-143323809D02*
X121334819Y-143323809D01*
X121334819Y-143323809D02*
X121477676Y-143228571D01*
X121477676Y-143228571D02*
X121572914Y-143133333D01*
X121572914Y-143133333D02*
X121620533Y-143038095D01*
X121334819Y-144228571D02*
X121334819Y-144323809D01*
X121334819Y-144323809D02*
X121382438Y-144419047D01*
X121382438Y-144419047D02*
X121430057Y-144466666D01*
X121430057Y-144466666D02*
X121525295Y-144514285D01*
X121525295Y-144514285D02*
X121715771Y-144561904D01*
X121715771Y-144561904D02*
X121953866Y-144561904D01*
X121953866Y-144561904D02*
X122144342Y-144514285D01*
X122144342Y-144514285D02*
X122239580Y-144466666D01*
X122239580Y-144466666D02*
X122287200Y-144419047D01*
X122287200Y-144419047D02*
X122334819Y-144323809D01*
X122334819Y-144323809D02*
X122334819Y-144228571D01*
X122334819Y-144228571D02*
X122287200Y-144133333D01*
X122287200Y-144133333D02*
X122239580Y-144085714D01*
X122239580Y-144085714D02*
X122144342Y-144038095D01*
X122144342Y-144038095D02*
X121953866Y-143990476D01*
X121953866Y-143990476D02*
X121715771Y-143990476D01*
X121715771Y-143990476D02*
X121525295Y-144038095D01*
X121525295Y-144038095D02*
X121430057Y-144085714D01*
X121430057Y-144085714D02*
X121382438Y-144133333D01*
X121382438Y-144133333D02*
X121334819Y-144228571D01*
%TO.C,R3*%
D11*
X125417064Y-122920000D02*
X123962936Y-122920000D01*
X125417064Y-124740000D02*
X123962936Y-124740000D01*
%TO.C,R9*%
X117840000Y-123162936D02*
X117840000Y-124617064D01*
X119660000Y-123162936D02*
X119660000Y-124617064D01*
%TO.C,U$2*%
D12*
X131898200Y-111338500D02*
X132888800Y-111338500D01*
X131898200Y-112481500D02*
X131898200Y-111338500D01*
X132406200Y-109215499D02*
X131234201Y-109215499D01*
X132406200Y-110104499D02*
X131234201Y-110104499D01*
X132406200Y-113715501D02*
X131234201Y-113715501D01*
X132406200Y-114604501D02*
X131234201Y-114604501D01*
X132888800Y-108481000D02*
X139340400Y-108481000D01*
X132888800Y-111338500D02*
X132888800Y-108481000D01*
X132888800Y-112481500D02*
X131898200Y-112481500D01*
X132888800Y-115339000D02*
X132888800Y-112481500D01*
X139340400Y-108481000D02*
X139340400Y-108846760D01*
X139340400Y-114973240D02*
X139340400Y-115339000D01*
X139340400Y-115339000D02*
X132888800Y-115339000D01*
%TO.C,R5*%
D11*
X116690000Y-142502936D02*
X116690000Y-143957064D01*
X118510000Y-142502936D02*
X118510000Y-143957064D01*
%TO.C,R6*%
X122780000Y-136392936D02*
X122780000Y-137847064D01*
X124600000Y-136392936D02*
X124600000Y-137847064D01*
%TO.C,C1*%
X117630000Y-129628748D02*
X117630000Y-131051252D01*
X119450000Y-129628748D02*
X119450000Y-131051252D01*
%TO.C,R4*%
X124510000Y-129605436D02*
X124510000Y-131059564D01*
X126330000Y-129605436D02*
X126330000Y-131059564D01*
%TO.C,U$1*%
D12*
X94558301Y-98911000D02*
X101009901Y-98911000D01*
X94558301Y-99276760D02*
X94558301Y-98911000D01*
X94558301Y-105769000D02*
X94558301Y-105403240D01*
X101009901Y-98911000D02*
X101009901Y-101768500D01*
X101009901Y-101768500D02*
X102000501Y-101768500D01*
X101009901Y-102911500D02*
X101009901Y-105769000D01*
X101009901Y-105769000D02*
X94558301Y-105769000D01*
X101492501Y-99645499D02*
X102664500Y-99645499D01*
X101492501Y-100534499D02*
X102664500Y-100534499D01*
X101492501Y-104145501D02*
X102664500Y-104145501D01*
X101492501Y-105034501D02*
X102664500Y-105034501D01*
X102000501Y-101768500D02*
X102000501Y-102911500D01*
X102000501Y-102911500D02*
X101009901Y-102911500D01*
%TO.C,U$7*%
X110408301Y-68521000D02*
X116859901Y-68521000D01*
X110408301Y-68886760D02*
X110408301Y-68521000D01*
X110408301Y-75379000D02*
X110408301Y-75013240D01*
X116859901Y-68521000D02*
X116859901Y-71378500D01*
X116859901Y-71378500D02*
X117850501Y-71378500D01*
X116859901Y-72521500D02*
X116859901Y-75379000D01*
X116859901Y-75379000D02*
X110408301Y-75379000D01*
X117342501Y-69255499D02*
X118514500Y-69255499D01*
X117342501Y-70144499D02*
X118514500Y-70144499D01*
X117342501Y-73755501D02*
X118514500Y-73755501D01*
X117342501Y-74644501D02*
X118514500Y-74644501D01*
X117850501Y-71378500D02*
X117850501Y-72521500D01*
X117850501Y-72521500D02*
X116859901Y-72521500D01*
%TO.C,R7*%
D11*
X121090000Y-131077064D02*
X121090000Y-129622936D01*
X122910000Y-131077064D02*
X122910000Y-129622936D01*
%TO.C,R8*%
X116880000Y-137807064D02*
X116880000Y-136352936D01*
X118700000Y-137807064D02*
X118700000Y-136352936D01*
%TO.C,R10*%
X122990000Y-143927064D02*
X122990000Y-142472936D01*
X124810000Y-143927064D02*
X124810000Y-142472936D01*
%TD*%
M02*
